  0
SECTION
  2
HEADER
  9
$ANGBASE
  50
0.0
  9
$ANGDIR
  70
1
  9
$MEASUREMENT
  70
1
  0
ENDSEC
  0
SECTION
  2
TABLES
  0
TABLE
  2
LTYPE
  70
4
  0
LTYPE
  5
40F
  2
CONTINUOUS
  70
0
  3
Solid line
  72
65
  73
0
  40
0.0
  0
LTYPE
  5
410
  2
DASHDOT
 70
0
  3
Dash Dot ____ _ ____ _
 72
65
 73
4
 40
2.0
 49
1.25
 49
-0.25
 49
0.25
 49
-0.25
  0
LTYPE
  5
411
  2
DASHED
 70
0
  3
Dashed __ __ __ __ __
 72
65
 73
2
 40
0.75
 49
0.5
 49
-0.25
  0
LTYPE
  5
43B
  2
DOTTED
 70
0
  3
Dotted .  .  .  .
 72
65
 73
2
 40
0.2
 49
0.0
 49
-0.2
  0
ENDTAB
  0
TABLE
  2
STYLE
  70
4
  0
STYLE
  2
KICAD
  70
0
  40
0
  41
1
  42
1
  50
0
  71
0
  3
isocp.shx
  0
STYLE
  2
KICADB
  70
0
  40
0
  41
1
  42
1
  50
0
  71
0
  3
isocp.shx
  0
STYLE
  2
KICADI
  70
0
  40
0
  41
1
  42
1
  50
15
  71
0
  3
isocp.shx
  0
STYLE
  2
KICADBI
  70
0
  40
0
  41
1
  42
1
  50
15
  71
0
  3
isocp.shx
  0
ENDTAB
  0
TABLE
  2
LAYER
  70
1
  0
LAYER
  2
BLACK
  70
0
  62
7
  6
CONTINUOUS
  0
ENDTAB
  0
ENDSEC
  0
SECTION
  2
ENTITIES
0
LINE
8
BLACK
6
CONTINUOUS
10
40.5458
20
-69.6703
11
40.9026
21
-69.7488
0
LINE
8
BLACK
6
CONTINUOUS
10
40.9026
20
-69.7488
11
41.2489
21
-69.8655
0
LINE
8
BLACK
6
CONTINUOUS
10
41.2489
20
-69.8655
11
41.5804
21
-70.0189
0
LINE
8
BLACK
6
CONTINUOUS
10
41.5804
20
-70.0189
11
41.8935
21
-70.2072
0
LINE
8
BLACK
6
CONTINUOUS
10
41.8935
20
-70.2072
11
42.1844
21
-70.4283
0
LINE
8
BLACK
6
CONTINUOUS
10
42.1844
20
-70.4283
11
42.4496
21
-70.6796
0
LINE
8
BLACK
6
CONTINUOUS
10
42.4496
20
-70.6796
11
42.6861
21
-70.9581
0
LINE
8
BLACK
6
CONTINUOUS
10
42.6861
20
-70.9581
11
42.8912
21
-71.2604
0
LINE
8
BLACK
6
CONTINUOUS
10
42.8912
20
-71.2604
11
43.0623
21
-71.5832
0
LINE
8
BLACK
6
CONTINUOUS
10
43.0623
20
-71.5832
11
43.1975
21
-71.9226
0
LINE
8
BLACK
6
CONTINUOUS
10
43.1975
20
-71.9226
11
43.2953
21
-72.2747
0
LINE
8
BLACK
6
CONTINUOUS
10
43.2953
20
-72.2747
11
43.3544
21
-72.6352
0
LINE
8
BLACK
6
CONTINUOUS
10
43.3544
20
-72.6352
11
43.3741
21
-73
0
LINE
8
BLACK
6
CONTINUOUS
10
43.3741
20
-73
11
43.3544
21
-73.3648
0
LINE
8
BLACK
6
CONTINUOUS
10
43.3544
20
-73.3648
11
43.2953
21
-73.7254
0
LINE
8
BLACK
6
CONTINUOUS
10
43.2953
20
-73.7254
11
43.1975
21
-74.0774
0
LINE
8
BLACK
6
CONTINUOUS
10
43.1975
20
-74.0774
11
43.0623
21
-74.4168
0
LINE
8
BLACK
6
CONTINUOUS
10
43.0623
20
-74.4168
11
42.8912
21
-74.7396
0
LINE
8
BLACK
6
CONTINUOUS
10
42.8912
20
-74.7396
11
42.6861
21
-75.042
0
LINE
8
BLACK
6
CONTINUOUS
10
42.6861
20
-75.042
11
42.4496
21
-75.3205
0
LINE
8
BLACK
6
CONTINUOUS
10
42.4496
20
-75.3205
11
42.1844
21
-75.5717
0
LINE
8
BLACK
6
CONTINUOUS
10
42.1844
20
-75.5717
11
41.8935
21
-75.7928
0
LINE
8
BLACK
6
CONTINUOUS
10
41.8935
20
-75.7928
11
41.5804
21
-75.9812
0
LINE
8
BLACK
6
CONTINUOUS
10
41.5804
20
-75.9812
11
41.2489
21
-76.1346
0
LINE
8
BLACK
6
CONTINUOUS
10
41.2489
20
-76.1346
11
40.9026
21
-76.2512
0
LINE
8
BLACK
6
CONTINUOUS
10
40.9026
20
-76.2512
11
40.5458
21
-76.3298
0
LINE
8
BLACK
6
CONTINUOUS
10
40.5458
20
-76.3298
11
40.1826
21
-76.3693
0
LINE
8
BLACK
6
CONTINUOUS
10
40.1826
20
-76.3693
11
39.8173
21
-76.3693
0
LINE
8
BLACK
6
CONTINUOUS
10
39.8173
20
-76.3693
11
39.4541
21
-76.3298
0
LINE
8
BLACK
6
CONTINUOUS
10
39.4541
20
-76.3298
11
39.0973
21
-76.2512
0
LINE
8
BLACK
6
CONTINUOUS
10
39.0973
20
-76.2512
11
38.751
21
-76.1346
0
LINE
8
BLACK
6
CONTINUOUS
10
38.751
20
-76.1346
11
38.4194
21
-75.9812
0
LINE
8
BLACK
6
CONTINUOUS
10
38.4194
20
-75.9812
11
38.1064
21
-75.7928
0
LINE
8
BLACK
6
CONTINUOUS
10
38.1064
20
-75.7928
11
37.8155
21
-75.5717
0
LINE
8
BLACK
6
CONTINUOUS
10
37.8155
20
-75.5717
11
37.5503
21
-75.3205
0
LINE
8
BLACK
6
CONTINUOUS
10
37.5503
20
-75.3205
11
37.3138
21
-75.042
0
LINE
8
BLACK
6
CONTINUOUS
10
37.3138
20
-75.042
11
37.1087
21
-74.7396
0
LINE
8
BLACK
6
CONTINUOUS
10
37.1087
20
-74.7396
11
36.9376
21
-74.4168
0
LINE
8
BLACK
6
CONTINUOUS
10
36.9376
20
-74.4168
11
36.8024
21
-74.0774
0
LINE
8
BLACK
6
CONTINUOUS
10
36.8024
20
-74.0774
11
36.7046
21
-73.7254
0
LINE
8
BLACK
6
CONTINUOUS
10
36.7046
20
-73.7254
11
36.6455
21
-73.3648
0
LINE
8
BLACK
6
CONTINUOUS
10
36.6455
20
-73.3648
11
36.6258
21
-73
0
LINE
8
BLACK
6
CONTINUOUS
10
36.6258
20
-73
11
36.6455
21
-72.6352
0
LINE
8
BLACK
6
CONTINUOUS
10
36.6455
20
-72.6352
11
36.7046
21
-72.2747
0
LINE
8
BLACK
6
CONTINUOUS
10
36.7046
20
-72.2747
11
36.8024
21
-71.9226
0
LINE
8
BLACK
6
CONTINUOUS
10
36.8024
20
-71.9226
11
36.9376
21
-71.5832
0
LINE
8
BLACK
6
CONTINUOUS
10
36.9376
20
-71.5832
11
37.1087
21
-71.2604
0
LINE
8
BLACK
6
CONTINUOUS
10
37.1087
20
-71.2604
11
37.3138
21
-70.9581
0
LINE
8
BLACK
6
CONTINUOUS
10
37.3138
20
-70.9581
11
37.5503
21
-70.6796
0
LINE
8
BLACK
6
CONTINUOUS
10
37.5503
20
-70.6796
11
37.8155
21
-70.4283
0
LINE
8
BLACK
6
CONTINUOUS
10
37.8155
20
-70.4283
11
38.1064
21
-70.2072
0
LINE
8
BLACK
6
CONTINUOUS
10
38.1064
20
-70.2072
11
38.4194
21
-70.0189
0
LINE
8
BLACK
6
CONTINUOUS
10
38.4194
20
-70.0189
11
38.751
21
-69.8655
0
LINE
8
BLACK
6
CONTINUOUS
10
38.751
20
-69.8655
11
39.0973
21
-69.7488
0
LINE
8
BLACK
6
CONTINUOUS
10
39.0973
20
-69.7488
11
39.4541
21
-69.6703
0
LINE
8
BLACK
6
CONTINUOUS
10
39.4541
20
-69.6703
11
39.8173
21
-69.6308
0
LINE
8
BLACK
6
CONTINUOUS
10
39.8173
20
-69.6308
11
40.1826
21
-69.6308
0
LINE
8
BLACK
6
CONTINUOUS
10
40.1826
20
-69.6308
11
40.5458
21
-69.6703
0
LINE
8
BLACK
6
CONTINUOUS
10
36.793
20
-73.3614
11
36.8536
21
-73.7182
0
LINE
8
BLACK
6
CONTINUOUS
10
36.8536
20
-73.7182
11
36.9538
21
-74.0659
0
LINE
8
BLACK
6
CONTINUOUS
10
36.9538
20
-74.0659
11
37.0923
21
-74.4003
0
LINE
8
BLACK
6
CONTINUOUS
10
37.0923
20
-74.4003
11
37.2673
21
-74.717
0
LINE
8
BLACK
6
CONTINUOUS
10
37.2673
20
-74.717
11
37.4768
21
-75.0122
0
LINE
8
BLACK
6
CONTINUOUS
10
37.4768
20
-75.0122
11
37.7179
21
-75.2821
0
LINE
8
BLACK
6
CONTINUOUS
10
37.7179
20
-75.2821
11
37.9878
21
-75.5232
0
LINE
8
BLACK
6
CONTINUOUS
10
37.9878
20
-75.5232
11
38.2829
21
-75.7326
0
LINE
8
BLACK
6
CONTINUOUS
10
38.2829
20
-75.7326
11
38.5997
21
-75.9077
0
LINE
8
BLACK
6
CONTINUOUS
10
38.5997
20
-75.9077
11
38.934
21
-76.0462
0
LINE
8
BLACK
6
CONTINUOUS
10
38.934
20
-76.0462
11
39.2818
21
-76.1464
0
LINE
8
BLACK
6
CONTINUOUS
10
39.2818
20
-76.1464
11
39.6386
21
-76.207
0
LINE
8
BLACK
6
CONTINUOUS
10
39.6386
20
-76.207
11
39.9999
21
-76.2273
0
LINE
8
BLACK
6
CONTINUOUS
10
39.9999
20
-76.2273
11
40.3613
21
-76.207
0
LINE
8
BLACK
6
CONTINUOUS
10
40.3613
20
-76.207
11
40.7181
21
-76.1464
0
LINE
8
BLACK
6
CONTINUOUS
10
40.7181
20
-76.1464
11
41.0659
21
-76.0462
0
LINE
8
BLACK
6
CONTINUOUS
10
41.0659
20
-76.0462
11
41.4002
21
-75.9077
0
LINE
8
BLACK
6
CONTINUOUS
10
41.4002
20
-75.9077
11
41.717
21
-75.7326
0
LINE
8
BLACK
6
CONTINUOUS
10
41.717
20
-75.7326
11
42.0121
21
-75.5232
0
LINE
8
BLACK
6
CONTINUOUS
10
42.0121
20
-75.5232
11
42.282
21
-75.2821
0
LINE
8
BLACK
6
CONTINUOUS
10
42.282
20
-75.2821
11
42.5231
21
-75.0122
0
LINE
8
BLACK
6
CONTINUOUS
10
42.5231
20
-75.0122
11
42.7326
21
-74.717
0
LINE
8
BLACK
6
CONTINUOUS
10
42.7326
20
-74.717
11
42.9076
21
-74.4003
0
LINE
8
BLACK
6
CONTINUOUS
10
42.9076
20
-74.4003
11
43.0461
21
-74.0659
0
LINE
8
BLACK
6
CONTINUOUS
10
43.0461
20
-74.0659
11
43.1463
21
-73.7182
0
LINE
8
BLACK
6
CONTINUOUS
10
43.1463
20
-73.7182
11
43.2069
21
-73.3614
0
LINE
8
BLACK
6
CONTINUOUS
10
43.2069
20
-73.3614
11
43.2272
21
-73
0
LINE
8
BLACK
6
CONTINUOUS
10
43.2272
20
-73
11
43.2069
21
-72.6387
0
LINE
8
BLACK
6
CONTINUOUS
10
43.2069
20
-72.6387
11
43.1463
21
-72.2819
0
LINE
8
BLACK
6
CONTINUOUS
10
43.1463
20
-72.2819
11
43.0461
21
-71.9341
0
LINE
8
BLACK
6
CONTINUOUS
10
43.0461
20
-71.9341
11
42.9076
21
-71.5998
0
LINE
8
BLACK
6
CONTINUOUS
10
42.9076
20
-71.5998
11
42.7326
21
-71.283
0
LINE
8
BLACK
6
CONTINUOUS
10
42.7326
20
-71.283
11
42.5231
21
-70.9879
0
LINE
8
BLACK
6
CONTINUOUS
10
42.5231
20
-70.9879
11
42.282
21
-70.718
0
LINE
8
BLACK
6
CONTINUOUS
10
42.282
20
-70.718
11
42.0121
21
-70.4768
0
LINE
8
BLACK
6
CONTINUOUS
10
42.0121
20
-70.4768
11
41.717
21
-70.2674
0
LINE
8
BLACK
6
CONTINUOUS
10
41.717
20
-70.2674
11
41.4002
21
-70.0923
0
LINE
8
BLACK
6
CONTINUOUS
10
41.4002
20
-70.0923
11
41.0659
21
-69.9539
0
LINE
8
BLACK
6
CONTINUOUS
10
41.0659
20
-69.9539
11
40.7181
21
-69.8537
0
LINE
8
BLACK
6
CONTINUOUS
10
40.7181
20
-69.8537
11
40.3613
21
-69.793
0
LINE
8
BLACK
6
CONTINUOUS
10
40.3613
20
-69.793
11
39.9999
21
-69.7727
0
LINE
8
BLACK
6
CONTINUOUS
10
39.9999
20
-69.7727
11
39.6386
21
-69.793
0
LINE
8
BLACK
6
CONTINUOUS
10
39.6386
20
-69.793
11
39.2818
21
-69.8537
0
LINE
8
BLACK
6
CONTINUOUS
10
39.2818
20
-69.8537
11
38.934
21
-69.9539
0
LINE
8
BLACK
6
CONTINUOUS
10
38.934
20
-69.9539
11
38.5997
21
-70.0923
0
LINE
8
BLACK
6
CONTINUOUS
10
38.5997
20
-70.0923
11
38.2829
21
-70.2674
0
LINE
8
BLACK
6
CONTINUOUS
10
38.2829
20
-70.2674
11
37.9878
21
-70.4768
0
LINE
8
BLACK
6
CONTINUOUS
10
37.9878
20
-70.4768
11
37.7179
21
-70.718
0
LINE
8
BLACK
6
CONTINUOUS
10
37.7179
20
-70.718
11
37.4768
21
-70.9879
0
LINE
8
BLACK
6
CONTINUOUS
10
37.4768
20
-70.9879
11
37.2673
21
-71.283
0
LINE
8
BLACK
6
CONTINUOUS
10
37.2673
20
-71.283
11
37.0923
21
-71.5998
0
LINE
8
BLACK
6
CONTINUOUS
10
37.0923
20
-71.5998
11
36.9538
21
-71.9341
0
LINE
8
BLACK
6
CONTINUOUS
10
36.9538
20
-71.9341
11
36.8536
21
-72.2819
0
LINE
8
BLACK
6
CONTINUOUS
10
36.8536
20
-72.2819
11
36.793
21
-72.6387
0
LINE
8
BLACK
6
CONTINUOUS
10
36.793
20
-72.6387
11
36.7727
21
-73
0
LINE
8
BLACK
6
CONTINUOUS
10
36.7727
20
-73
11
36.793
21
-73.3614
0
LINE
8
BLACK
6
CONTINUOUS
10
62.9459
20
-75.923
11
62.9817
21
-75.9282
0
LINE
8
BLACK
6
CONTINUOUS
10
62.9817
20
-75.9282
11
63.0419
21
-75.9668
0
LINE
8
BLACK
6
CONTINUOUS
10
63.0419
20
-75.9668
11
63.0716
21
-76.0319
0
LINE
8
BLACK
6
CONTINUOUS
10
63.0716
20
-76.0319
11
63.0614
21
-76.1028
0
LINE
8
BLACK
6
CONTINUOUS
10
63.0614
20
-76.1028
11
63.0146
21
-76.1569
0
LINE
8
BLACK
6
CONTINUOUS
10
63.0146
20
-76.1569
11
62.9459
21
-76.177
0
LINE
8
BLACK
6
CONTINUOUS
10
62.9459
20
-76.177
11
59.7459
21
-76.177
0
LINE
8
BLACK
6
CONTINUOUS
10
59.7459
20
-76.177
11
59.7102
21
-76.1718
0
LINE
8
BLACK
6
CONTINUOUS
10
59.7102
20
-76.1718
11
59.65
21
-76.1332
0
LINE
8
BLACK
6
CONTINUOUS
10
59.65
20
-76.1332
11
59.6202
21
-76.0681
0
LINE
8
BLACK
6
CONTINUOUS
10
59.6202
20
-76.0681
11
59.6304
21
-75.9972
0
LINE
8
BLACK
6
CONTINUOUS
10
59.6304
20
-75.9972
11
59.6773
21
-75.9431
0
LINE
8
BLACK
6
CONTINUOUS
10
59.6773
20
-75.9431
11
59.746
21
-75.923
0
LINE
8
BLACK
6
CONTINUOUS
10
59.746
20
-75.923
11
62.9459
21
-75.923
0
LINE
8
BLACK
6
CONTINUOUS
10
59.8643
20
-75.7577
11
59.8819
21
-75.8001
0
LINE
8
BLACK
6
CONTINUOUS
10
59.8819
20
-75.8001
11
59.8643
21
-75.8425
0
LINE
8
BLACK
6
CONTINUOUS
10
59.8643
20
-75.8425
11
59.8219
21
-75.8601
0
LINE
8
BLACK
6
CONTINUOUS
10
59.8219
20
-75.8601
11
59.7795
21
-75.8425
0
LINE
8
BLACK
6
CONTINUOUS
10
59.7795
20
-75.8425
11
59.762
21
-75.8001
0
LINE
8
BLACK
6
CONTINUOUS
10
59.762
20
-75.8001
11
59.7795
21
-75.7577
0
LINE
8
BLACK
6
CONTINUOUS
10
59.7795
20
-75.7577
11
59.8219
21
-75.7401
0
LINE
8
BLACK
6
CONTINUOUS
10
59.8219
20
-75.7401
11
59.8643
21
-75.7577
0
LINE
8
BLACK
6
CONTINUOUS
10
61.2037
20
-74.6241
11
61.2115
21
-74.6292
0
LINE
8
BLACK
6
CONTINUOUS
10
61.2115
20
-74.6292
11
61.2207
21
-74.6305
0
LINE
8
BLACK
6
CONTINUOUS
10
61.2207
20
-74.6305
11
61.2411
21
-74.6482
0
LINE
8
BLACK
6
CONTINUOUS
10
61.2411
20
-74.6482
11
61.2639
21
-74.6628
0
LINE
8
BLACK
6
CONTINUOUS
10
61.2639
20
-74.6628
11
61.2677
21
-74.6713
0
LINE
8
BLACK
6
CONTINUOUS
10
61.2677
20
-74.6713
11
61.2747
21
-74.6773
0
LINE
8
BLACK
6
CONTINUOUS
10
61.2747
20
-74.6773
11
61.2824
21
-74.7033
0
LINE
8
BLACK
6
CONTINUOUS
10
61.2824
20
-74.7033
11
61.2936
21
-74.7279
0
LINE
8
BLACK
6
CONTINUOUS
10
61.2936
20
-74.7279
11
61.2923
21
-74.7371
0
LINE
8
BLACK
6
CONTINUOUS
10
61.2923
20
-74.7371
11
61.2949
21
-74.746
0
LINE
8
BLACK
6
CONTINUOUS
10
61.2949
20
-74.746
11
61.2949
21
-75.254
0
LINE
8
BLACK
6
CONTINUOUS
10
61.2949
20
-75.254
11
61.2897
21
-75.2898
0
LINE
8
BLACK
6
CONTINUOUS
10
61.2897
20
-75.2898
11
61.2847
21
-75.2976
0
LINE
8
BLACK
6
CONTINUOUS
10
61.2847
20
-75.2976
11
61.2834
21
-75.3068
0
LINE
8
BLACK
6
CONTINUOUS
10
61.2834
20
-75.3068
11
61.2657
21
-75.3272
0
LINE
8
BLACK
6
CONTINUOUS
10
61.2657
20
-75.3272
11
61.2511
21
-75.35
0
LINE
8
BLACK
6
CONTINUOUS
10
61.2511
20
-75.35
11
61.2426
21
-75.3538
0
LINE
8
BLACK
6
CONTINUOUS
10
61.2426
20
-75.3538
11
61.2366
21
-75.3608
0
LINE
8
BLACK
6
CONTINUOUS
10
61.2366
20
-75.3608
11
61.2106
21
-75.3685
0
LINE
8
BLACK
6
CONTINUOUS
10
61.2106
20
-75.3685
11
61.186
21
-75.3797
0
LINE
8
BLACK
6
CONTINUOUS
10
61.186
20
-75.3797
11
61.1768
21
-75.3784
0
LINE
8
BLACK
6
CONTINUOUS
10
61.1768
20
-75.3784
11
61.1679
21
-75.381
0
LINE
8
BLACK
6
CONTINUOUS
10
61.1679
20
-75.381
11
60.6599
21
-75.381
0
LINE
8
BLACK
6
CONTINUOUS
10
60.6599
20
-75.381
11
60.6241
21
-75.3759
0
LINE
8
BLACK
6
CONTINUOUS
10
60.6241
20
-75.3759
11
60.6163
21
-75.3708
0
LINE
8
BLACK
6
CONTINUOUS
10
60.6163
20
-75.3708
11
60.6071
21
-75.3695
0
LINE
8
BLACK
6
CONTINUOUS
10
60.6071
20
-75.3695
11
60.5867
21
-75.3518
0
LINE
8
BLACK
6
CONTINUOUS
10
60.5867
20
-75.3518
11
60.5639
21
-75.3372
0
LINE
8
BLACK
6
CONTINUOUS
10
60.5639
20
-75.3372
11
60.5601
21
-75.3287
0
LINE
8
BLACK
6
CONTINUOUS
10
60.5601
20
-75.3287
11
60.5531
21
-75.3227
0
LINE
8
BLACK
6
CONTINUOUS
10
60.5531
20
-75.3227
11
60.5454
21
-75.2967
0
LINE
8
BLACK
6
CONTINUOUS
10
60.5454
20
-75.2967
11
60.5342
21
-75.2721
0
LINE
8
BLACK
6
CONTINUOUS
10
60.5342
20
-75.2721
11
60.5355
21
-75.2629
0
LINE
8
BLACK
6
CONTINUOUS
10
60.5355
20
-75.2629
11
60.5329
21
-75.254
0
LINE
8
BLACK
6
CONTINUOUS
10
60.5329
20
-75.254
11
60.5329
21
-74.746
0
LINE
8
BLACK
6
CONTINUOUS
10
60.5329
20
-74.746
11
60.538
21
-74.7102
0
LINE
8
BLACK
6
CONTINUOUS
10
60.538
20
-74.7102
11
60.543
21
-74.7024
0
LINE
8
BLACK
6
CONTINUOUS
10
60.543
20
-74.7024
11
60.5444
21
-74.6932
0
LINE
8
BLACK
6
CONTINUOUS
10
60.5444
20
-74.6932
11
60.5621
21
-74.6728
0
LINE
8
BLACK
6
CONTINUOUS
10
60.5621
20
-74.6728
11
60.5767
21
-74.65
0
LINE
8
BLACK
6
CONTINUOUS
10
60.5767
20
-74.65
11
60.5852
21
-74.6462
0
LINE
8
BLACK
6
CONTINUOUS
10
60.5852
20
-74.6462
11
60.5912
21
-74.6392
0
LINE
8
BLACK
6
CONTINUOUS
10
60.5912
20
-74.6392
11
60.6172
21
-74.6315
0
LINE
8
BLACK
6
CONTINUOUS
10
60.6172
20
-74.6315
11
60.6418
21
-74.6203
0
LINE
8
BLACK
6
CONTINUOUS
10
60.6418
20
-74.6203
11
60.651
21
-74.6216
0
LINE
8
BLACK
6
CONTINUOUS
10
60.651
20
-74.6216
11
60.6599
21
-74.619
0
LINE
8
BLACK
6
CONTINUOUS
10
60.6599
20
-74.619
11
61.1679
21
-74.619
0
LINE
8
BLACK
6
CONTINUOUS
10
61.1679
20
-74.619
11
61.2037
21
-74.6241
0
LINE
8
BLACK
6
CONTINUOUS
10
60.7869
20
-74.873
11
60.7869
21
-75.127
0
LINE
8
BLACK
6
CONTINUOUS
10
60.7869
20
-75.127
11
61.0409
21
-75.127
0
LINE
8
BLACK
6
CONTINUOUS
10
61.0409
20
-75.127
11
61.0409
21
-74.873
0
LINE
8
BLACK
6
CONTINUOUS
10
61.0409
20
-74.873
11
60.7869
21
-74.873
0
LINE
8
BLACK
6
CONTINUOUS
10
63.0983
20
-73.823
11
63.134
21
-73.8283
0
LINE
8
BLACK
6
CONTINUOUS
10
63.134
20
-73.8283
11
63.1941
21
-73.8671
0
LINE
8
BLACK
6
CONTINUOUS
10
63.1941
20
-73.8671
11
63.2237
21
-73.9323
0
LINE
8
BLACK
6
CONTINUOUS
10
63.2237
20
-73.9323
11
63.2133
21
-74.0031
0
LINE
8
BLACK
6
CONTINUOUS
10
63.2133
20
-74.0031
11
63.1662
21
-74.0571
0
LINE
8
BLACK
6
CONTINUOUS
10
63.1662
20
-74.0571
11
63.0975
21
-74.077
0
LINE
8
BLACK
6
CONTINUOUS
10
63.0975
20
-74.077
11
59.7455
21
-74.067
0
LINE
8
BLACK
6
CONTINUOUS
10
59.7455
20
-74.067
11
59.7098
21
-74.0618
0
LINE
8
BLACK
6
CONTINUOUS
10
59.7098
20
-74.0618
11
59.6497
21
-74.0229
0
LINE
8
BLACK
6
CONTINUOUS
10
59.6497
20
-74.0229
11
59.6201
21
-73.9577
0
LINE
8
BLACK
6
CONTINUOUS
10
59.6201
20
-73.9577
11
59.6305
21
-73.8869
0
LINE
8
BLACK
6
CONTINUOUS
10
59.6305
20
-73.8869
11
59.6776
21
-73.833
0
LINE
8
BLACK
6
CONTINUOUS
10
59.6776
20
-73.833
11
59.7463
21
-73.813
0
LINE
8
BLACK
6
CONTINUOUS
10
59.7463
20
-73.813
11
63.0983
21
-73.823
0
LINE
8
BLACK
6
CONTINUOUS
10
67.0137
20
-71.3926
11
67.0313
21
-71.435
0
LINE
8
BLACK
6
CONTINUOUS
10
67.0313
20
-71.435
11
67.0137
21
-71.4774
0
LINE
8
BLACK
6
CONTINUOUS
10
67.0137
20
-71.4774
11
66.9713
21
-71.495
0
LINE
8
BLACK
6
CONTINUOUS
10
66.9713
20
-71.495
11
66.4487
21
-71.495
0
LINE
8
BLACK
6
CONTINUOUS
10
66.4487
20
-71.495
11
66.4063
21
-71.4774
0
LINE
8
BLACK
6
CONTINUOUS
10
66.4063
20
-71.4774
11
66.3887
21
-71.435
0
LINE
8
BLACK
6
CONTINUOUS
10
66.3887
20
-71.435
11
66.4063
21
-71.3926
0
LINE
8
BLACK
6
CONTINUOUS
10
66.4063
20
-71.3926
11
66.4487
21
-71.375
0
LINE
8
BLACK
6
CONTINUOUS
10
66.4487
20
-71.375
11
66.9713
21
-71.375
0
LINE
8
BLACK
6
CONTINUOUS
10
66.9713
20
-71.375
11
67.0137
21
-71.3926
0
LINE
8
BLACK
6
CONTINUOUS
10
84.36
20
-68.87
11
84.4024
21
-68.8876
0
LINE
8
BLACK
6
CONTINUOUS
10
84.4024
20
-68.8876
11
84.42
21
-68.93
0
LINE
8
BLACK
6
CONTINUOUS
10
84.42
20
-68.93
11
84.42
21
-70.63
0
LINE
8
BLACK
6
CONTINUOUS
10
84.42
20
-70.63
11
84.4024
21
-70.6724
0
LINE
8
BLACK
6
CONTINUOUS
10
84.4024
20
-70.6724
11
84.36
21
-70.69
0
LINE
8
BLACK
6
CONTINUOUS
10
84.36
20
-70.69
11
81.7
21
-70.69
0
LINE
8
BLACK
6
CONTINUOUS
10
81.7
20
-70.69
11
81.6576
21
-70.6724
0
LINE
8
BLACK
6
CONTINUOUS
10
81.6576
20
-70.6724
11
81.64
21
-70.63
0
LINE
8
BLACK
6
CONTINUOUS
10
81.64
20
-70.63
11
81.6576
21
-70.5876
0
LINE
8
BLACK
6
CONTINUOUS
10
81.6576
20
-70.5876
11
81.7
21
-70.57
0
LINE
8
BLACK
6
CONTINUOUS
10
81.7
20
-70.57
11
84.3
21
-70.57
0
LINE
8
BLACK
6
CONTINUOUS
10
84.3
20
-70.57
11
84.3
21
-68.99
0
LINE
8
BLACK
6
CONTINUOUS
10
84.3
20
-68.99
11
81.7
21
-68.99
0
LINE
8
BLACK
6
CONTINUOUS
10
81.7
20
-68.99
11
81.6576
21
-68.9724
0
LINE
8
BLACK
6
CONTINUOUS
10
81.6576
20
-68.9724
11
81.64
21
-68.93
0
LINE
8
BLACK
6
CONTINUOUS
10
81.64
20
-68.93
11
81.6576
21
-68.8876
0
LINE
8
BLACK
6
CONTINUOUS
10
81.6576
20
-68.8876
11
81.7
21
-68.87
0
LINE
8
BLACK
6
CONTINUOUS
10
81.7
20
-68.87
11
84.36
21
-68.87
0
LINE
8
BLACK
6
CONTINUOUS
10
67.0137
20
-69.9226
11
67.0313
21
-69.965
0
LINE
8
BLACK
6
CONTINUOUS
10
67.0313
20
-69.965
11
67.0137
21
-70.0074
0
LINE
8
BLACK
6
CONTINUOUS
10
67.0137
20
-70.0074
11
66.9713
21
-70.025
0
LINE
8
BLACK
6
CONTINUOUS
10
66.9713
20
-70.025
11
66.4487
21
-70.025
0
LINE
8
BLACK
6
CONTINUOUS
10
66.4487
20
-70.025
11
66.4063
21
-70.0074
0
LINE
8
BLACK
6
CONTINUOUS
10
66.4063
20
-70.0074
11
66.3887
21
-69.965
0
LINE
8
BLACK
6
CONTINUOUS
10
66.3887
20
-69.965
11
66.4063
21
-69.9226
0
LINE
8
BLACK
6
CONTINUOUS
10
66.4063
20
-69.9226
11
66.4487
21
-69.905
0
LINE
8
BLACK
6
CONTINUOUS
10
66.4487
20
-69.905
11
66.9713
21
-69.905
0
LINE
8
BLACK
6
CONTINUOUS
10
66.9713
20
-69.905
11
67.0137
21
-69.9226
0
LINE
8
BLACK
6
CONTINUOUS
10
64.1703
20
-69.5176
11
64.1878
21
-69.56
0
LINE
8
BLACK
6
CONTINUOUS
10
64.1878
20
-69.56
11
64.1703
21
-69.6024
0
LINE
8
BLACK
6
CONTINUOUS
10
64.1703
20
-69.6024
11
64.1278
21
-69.62
0
LINE
8
BLACK
6
CONTINUOUS
10
64.1278
20
-69.62
11
63.9122
21
-69.62
0
LINE
8
BLACK
6
CONTINUOUS
10
63.9122
20
-69.62
11
63.8697
21
-69.6024
0
LINE
8
BLACK
6
CONTINUOUS
10
63.8697
20
-69.6024
11
63.8522
21
-69.56
0
LINE
8
BLACK
6
CONTINUOUS
10
63.8522
20
-69.56
11
63.8697
21
-69.5176
0
LINE
8
BLACK
6
CONTINUOUS
10
63.8697
20
-69.5176
11
63.9122
21
-69.5
0
LINE
8
BLACK
6
CONTINUOUS
10
63.9122
20
-69.5
11
64.1278
21
-69.5
0
LINE
8
BLACK
6
CONTINUOUS
10
64.1278
20
-69.5
11
64.1703
21
-69.5176
0
LINE
8
BLACK
6
CONTINUOUS
10
66.1703
20
-69.5176
11
66.1878
21
-69.56
0
LINE
8
BLACK
6
CONTINUOUS
10
66.1878
20
-69.56
11
66.1703
21
-69.6024
0
LINE
8
BLACK
6
CONTINUOUS
10
66.1703
20
-69.6024
11
66.1278
21
-69.62
0
LINE
8
BLACK
6
CONTINUOUS
10
66.1278
20
-69.62
11
65.9122
21
-69.62
0
LINE
8
BLACK
6
CONTINUOUS
10
65.9122
20
-69.62
11
65.8697
21
-69.6024
0
LINE
8
BLACK
6
CONTINUOUS
10
65.8697
20
-69.6024
11
65.8522
21
-69.56
0
LINE
8
BLACK
6
CONTINUOUS
10
65.8522
20
-69.56
11
65.8697
21
-69.5176
0
LINE
8
BLACK
6
CONTINUOUS
10
65.8697
20
-69.5176
11
65.9122
21
-69.5
0
LINE
8
BLACK
6
CONTINUOUS
10
65.9122
20
-69.5
11
66.1278
21
-69.5
0
LINE
8
BLACK
6
CONTINUOUS
10
66.1278
20
-69.5
11
66.1703
21
-69.5176
0
LINE
8
BLACK
6
CONTINUOUS
10
64.1703
20
-68.7976
11
64.1878
21
-68.84
0
LINE
8
BLACK
6
CONTINUOUS
10
64.1878
20
-68.84
11
64.1703
21
-68.8824
0
LINE
8
BLACK
6
CONTINUOUS
10
64.1703
20
-68.8824
11
64.1278
21
-68.9
0
LINE
8
BLACK
6
CONTINUOUS
10
64.1278
20
-68.9
11
63.9122
21
-68.9
0
LINE
8
BLACK
6
CONTINUOUS
10
63.9122
20
-68.9
11
63.8697
21
-68.8824
0
LINE
8
BLACK
6
CONTINUOUS
10
63.8697
20
-68.8824
11
63.8522
21
-68.84
0
LINE
8
BLACK
6
CONTINUOUS
10
63.8522
20
-68.84
11
63.8697
21
-68.7976
0
LINE
8
BLACK
6
CONTINUOUS
10
63.8697
20
-68.7976
11
63.9122
21
-68.78
0
LINE
8
BLACK
6
CONTINUOUS
10
63.9122
20
-68.78
11
64.1278
21
-68.78
0
LINE
8
BLACK
6
CONTINUOUS
10
64.1278
20
-68.78
11
64.1703
21
-68.7976
0
LINE
8
BLACK
6
CONTINUOUS
10
66.1703
20
-68.7976
11
66.1878
21
-68.84
0
LINE
8
BLACK
6
CONTINUOUS
10
66.1878
20
-68.84
11
66.1703
21
-68.8824
0
LINE
8
BLACK
6
CONTINUOUS
10
66.1703
20
-68.8824
11
66.1278
21
-68.9
0
LINE
8
BLACK
6
CONTINUOUS
10
66.1278
20
-68.9
11
65.9122
21
-68.9
0
LINE
8
BLACK
6
CONTINUOUS
10
65.9122
20
-68.9
11
65.8697
21
-68.8824
0
LINE
8
BLACK
6
CONTINUOUS
10
65.8697
20
-68.8824
11
65.8522
21
-68.84
0
LINE
8
BLACK
6
CONTINUOUS
10
65.8522
20
-68.84
11
65.8697
21
-68.7976
0
LINE
8
BLACK
6
CONTINUOUS
10
65.8697
20
-68.7976
11
65.9122
21
-68.78
0
LINE
8
BLACK
6
CONTINUOUS
10
65.9122
20
-68.78
11
66.1278
21
-68.78
0
LINE
8
BLACK
6
CONTINUOUS
10
66.1278
20
-68.78
11
66.1703
21
-68.7976
0
LINE
8
BLACK
6
CONTINUOUS
10
83.6503
20
-68.5976
11
83.6678
21
-68.64
0
LINE
8
BLACK
6
CONTINUOUS
10
83.6678
20
-68.64
11
83.6503
21
-68.6824
0
LINE
8
BLACK
6
CONTINUOUS
10
83.6503
20
-68.6824
11
83.6078
21
-68.7
0
LINE
8
BLACK
6
CONTINUOUS
10
83.6078
20
-68.7
11
83.3922
21
-68.7
0
LINE
8
BLACK
6
CONTINUOUS
10
83.3922
20
-68.7
11
83.3497
21
-68.6824
0
LINE
8
BLACK
6
CONTINUOUS
10
83.3497
20
-68.6824
11
83.3322
21
-68.64
0
LINE
8
BLACK
6
CONTINUOUS
10
83.3322
20
-68.64
11
83.3497
21
-68.5976
0
LINE
8
BLACK
6
CONTINUOUS
10
83.3497
20
-68.5976
11
83.3922
21
-68.58
0
LINE
8
BLACK
6
CONTINUOUS
10
83.3922
20
-68.58
11
83.6078
21
-68.58
0
LINE
8
BLACK
6
CONTINUOUS
10
83.6078
20
-68.58
11
83.6503
21
-68.5976
0
LINE
8
BLACK
6
CONTINUOUS
10
83.6503
20
-67.8776
11
83.6678
21
-67.92
0
LINE
8
BLACK
6
CONTINUOUS
10
83.6678
20
-67.92
11
83.6503
21
-67.9624
0
LINE
8
BLACK
6
CONTINUOUS
10
83.6503
20
-67.9624
11
83.6078
21
-67.98
0
LINE
8
BLACK
6
CONTINUOUS
10
83.6078
20
-67.98
11
83.3922
21
-67.98
0
LINE
8
BLACK
6
CONTINUOUS
10
83.3922
20
-67.98
11
83.3497
21
-67.9624
0
LINE
8
BLACK
6
CONTINUOUS
10
83.3497
20
-67.9624
11
83.3322
21
-67.92
0
LINE
8
BLACK
6
CONTINUOUS
10
83.3322
20
-67.92
11
83.3497
21
-67.8776
0
LINE
8
BLACK
6
CONTINUOUS
10
83.3497
20
-67.8776
11
83.3922
21
-67.86
0
LINE
8
BLACK
6
CONTINUOUS
10
83.3922
20
-67.86
11
83.6078
21
-67.86
0
LINE
8
BLACK
6
CONTINUOUS
10
83.6078
20
-67.86
11
83.6503
21
-67.8776
0
LINE
8
BLACK
6
CONTINUOUS
10
58.3499
20
-67.2426
11
58.3675
21
-67.285
0
LINE
8
BLACK
6
CONTINUOUS
10
58.3675
20
-67.285
11
58.3499
21
-67.3274
0
LINE
8
BLACK
6
CONTINUOUS
10
58.3499
20
-67.3274
11
58.3075
21
-67.345
0
LINE
8
BLACK
6
CONTINUOUS
10
58.3075
20
-67.345
11
57.785
21
-67.345
0
LINE
8
BLACK
6
CONTINUOUS
10
57.785
20
-67.345
11
57.7426
21
-67.3274
0
LINE
8
BLACK
6
CONTINUOUS
10
57.7426
20
-67.3274
11
57.725
21
-67.285
0
LINE
8
BLACK
6
CONTINUOUS
10
57.725
20
-67.285
11
57.7426
21
-67.2426
0
LINE
8
BLACK
6
CONTINUOUS
10
57.7426
20
-67.2426
11
57.785
21
-67.225
0
LINE
8
BLACK
6
CONTINUOUS
10
57.785
20
-67.225
11
58.3075
21
-67.225
0
LINE
8
BLACK
6
CONTINUOUS
10
58.3075
20
-67.225
11
58.3499
21
-67.2426
0
LINE
8
BLACK
6
CONTINUOUS
10
69.3024
20
-66.5139
11
69.32
21
-66.5564
0
LINE
8
BLACK
6
CONTINUOUS
10
69.32
20
-66.5564
11
69.32
21
-66.8636
0
LINE
8
BLACK
6
CONTINUOUS
10
69.32
20
-66.8636
11
69.3024
21
-66.9061
0
LINE
8
BLACK
6
CONTINUOUS
10
69.3024
20
-66.9061
11
69.26
21
-66.9236
0
LINE
8
BLACK
6
CONTINUOUS
10
69.26
20
-66.9236
11
69.2176
21
-66.9061
0
LINE
8
BLACK
6
CONTINUOUS
10
69.2176
20
-66.9061
11
69.2
21
-66.8636
0
LINE
8
BLACK
6
CONTINUOUS
10
69.2
20
-66.8636
11
69.2
21
-66.5564
0
LINE
8
BLACK
6
CONTINUOUS
10
69.2
20
-66.5564
11
69.2176
21
-66.5139
0
LINE
8
BLACK
6
CONTINUOUS
10
69.2176
20
-66.5139
11
69.26
21
-66.4964
0
LINE
8
BLACK
6
CONTINUOUS
10
69.26
20
-66.4964
11
69.3024
21
-66.5139
0
LINE
8
BLACK
6
CONTINUOUS
10
70.0624
20
-66.5139
11
70.08
21
-66.5564
0
LINE
8
BLACK
6
CONTINUOUS
10
70.08
20
-66.5564
11
70.08
21
-66.8636
0
LINE
8
BLACK
6
CONTINUOUS
10
70.08
20
-66.8636
11
70.0624
21
-66.9061
0
LINE
8
BLACK
6
CONTINUOUS
10
70.0624
20
-66.9061
11
70.02
21
-66.9236
0
LINE
8
BLACK
6
CONTINUOUS
10
70.02
20
-66.9236
11
69.9776
21
-66.9061
0
LINE
8
BLACK
6
CONTINUOUS
10
69.9776
20
-66.9061
11
69.96
21
-66.8636
0
LINE
8
BLACK
6
CONTINUOUS
10
69.96
20
-66.8636
11
69.96
21
-66.5564
0
LINE
8
BLACK
6
CONTINUOUS
10
69.96
20
-66.5564
11
69.9776
21
-66.5139
0
LINE
8
BLACK
6
CONTINUOUS
10
69.9776
20
-66.5139
11
70.02
21
-66.4964
0
LINE
8
BLACK
6
CONTINUOUS
10
70.02
20
-66.4964
11
70.0624
21
-66.5139
0
LINE
8
BLACK
6
CONTINUOUS
10
70.2624
20
-66.5139
11
70.28
21
-66.5564
0
LINE
8
BLACK
6
CONTINUOUS
10
70.28
20
-66.5564
11
70.28
21
-66.8636
0
LINE
8
BLACK
6
CONTINUOUS
10
70.28
20
-66.8636
11
70.2624
21
-66.9061
0
LINE
8
BLACK
6
CONTINUOUS
10
70.2624
20
-66.9061
11
70.22
21
-66.9236
0
LINE
8
BLACK
6
CONTINUOUS
10
70.22
20
-66.9236
11
70.1776
21
-66.9061
0
LINE
8
BLACK
6
CONTINUOUS
10
70.1776
20
-66.9061
11
70.16
21
-66.8636
0
LINE
8
BLACK
6
CONTINUOUS
10
70.16
20
-66.8636
11
70.16
21
-66.5564
0
LINE
8
BLACK
6
CONTINUOUS
10
70.16
20
-66.5564
11
70.1776
21
-66.5139
0
LINE
8
BLACK
6
CONTINUOUS
10
70.1776
20
-66.5139
11
70.22
21
-66.4964
0
LINE
8
BLACK
6
CONTINUOUS
10
70.22
20
-66.4964
11
70.2624
21
-66.5139
0
LINE
8
BLACK
6
CONTINUOUS
10
71.0224
20
-66.5139
11
71.04
21
-66.5564
0
LINE
8
BLACK
6
CONTINUOUS
10
71.04
20
-66.5564
11
71.04
21
-66.8636
0
LINE
8
BLACK
6
CONTINUOUS
10
71.04
20
-66.8636
11
71.0224
21
-66.9061
0
LINE
8
BLACK
6
CONTINUOUS
10
71.0224
20
-66.9061
11
70.98
21
-66.9236
0
LINE
8
BLACK
6
CONTINUOUS
10
70.98
20
-66.9236
11
70.9376
21
-66.9061
0
LINE
8
BLACK
6
CONTINUOUS
10
70.9376
20
-66.9061
11
70.92
21
-66.8636
0
LINE
8
BLACK
6
CONTINUOUS
10
70.92
20
-66.8636
11
70.92
21
-66.5564
0
LINE
8
BLACK
6
CONTINUOUS
10
70.92
20
-66.5564
11
70.9376
21
-66.5139
0
LINE
8
BLACK
6
CONTINUOUS
10
70.9376
20
-66.5139
11
70.98
21
-66.4964
0
LINE
8
BLACK
6
CONTINUOUS
10
70.98
20
-66.4964
11
71.0224
21
-66.5139
0
LINE
8
BLACK
6
CONTINUOUS
10
66.1703
20
-66.5176
11
66.1878
21
-66.56
0
LINE
8
BLACK
6
CONTINUOUS
10
66.1878
20
-66.56
11
66.1703
21
-66.6024
0
LINE
8
BLACK
6
CONTINUOUS
10
66.1703
20
-66.6024
11
66.1278
21
-66.62
0
LINE
8
BLACK
6
CONTINUOUS
10
66.1278
20
-66.62
11
65.9122
21
-66.62
0
LINE
8
BLACK
6
CONTINUOUS
10
65.9122
20
-66.62
11
65.8697
21
-66.6024
0
LINE
8
BLACK
6
CONTINUOUS
10
65.8697
20
-66.6024
11
65.8522
21
-66.56
0
LINE
8
BLACK
6
CONTINUOUS
10
65.8522
20
-66.56
11
65.8697
21
-66.5176
0
LINE
8
BLACK
6
CONTINUOUS
10
65.8697
20
-66.5176
11
65.9122
21
-66.5
0
LINE
8
BLACK
6
CONTINUOUS
10
65.9122
20
-66.5
11
66.1278
21
-66.5
0
LINE
8
BLACK
6
CONTINUOUS
10
66.1278
20
-66.5
11
66.1703
21
-66.5176
0
LINE
8
BLACK
6
CONTINUOUS
10
64.1703
20
-66.5176
11
64.1878
21
-66.56
0
LINE
8
BLACK
6
CONTINUOUS
10
64.1878
20
-66.56
11
64.1703
21
-66.6024
0
LINE
8
BLACK
6
CONTINUOUS
10
64.1703
20
-66.6024
11
64.1278
21
-66.62
0
LINE
8
BLACK
6
CONTINUOUS
10
64.1278
20
-66.62
11
63.9122
21
-66.62
0
LINE
8
BLACK
6
CONTINUOUS
10
63.9122
20
-66.62
11
63.8697
21
-66.6024
0
LINE
8
BLACK
6
CONTINUOUS
10
63.8697
20
-66.6024
11
63.8522
21
-66.56
0
LINE
8
BLACK
6
CONTINUOUS
10
63.8522
20
-66.56
11
63.8697
21
-66.5176
0
LINE
8
BLACK
6
CONTINUOUS
10
63.8697
20
-66.5176
11
63.9122
21
-66.5
0
LINE
8
BLACK
6
CONTINUOUS
10
63.9122
20
-66.5
11
64.1278
21
-66.5
0
LINE
8
BLACK
6
CONTINUOUS
10
64.1278
20
-66.5
11
64.1703
21
-66.5176
0
LINE
8
BLACK
6
CONTINUOUS
10
66.1703
20
-65.7976
11
66.1878
21
-65.84
0
LINE
8
BLACK
6
CONTINUOUS
10
66.1878
20
-65.84
11
66.1703
21
-65.8824
0
LINE
8
BLACK
6
CONTINUOUS
10
66.1703
20
-65.8824
11
66.1278
21
-65.9
0
LINE
8
BLACK
6
CONTINUOUS
10
66.1278
20
-65.9
11
65.9122
21
-65.9
0
LINE
8
BLACK
6
CONTINUOUS
10
65.9122
20
-65.9
11
65.8697
21
-65.8824
0
LINE
8
BLACK
6
CONTINUOUS
10
65.8697
20
-65.8824
11
65.8522
21
-65.84
0
LINE
8
BLACK
6
CONTINUOUS
10
65.8522
20
-65.84
11
65.8697
21
-65.7976
0
LINE
8
BLACK
6
CONTINUOUS
10
65.8697
20
-65.7976
11
65.9122
21
-65.78
0
LINE
8
BLACK
6
CONTINUOUS
10
65.9122
20
-65.78
11
66.1278
21
-65.78
0
LINE
8
BLACK
6
CONTINUOUS
10
66.1278
20
-65.78
11
66.1703
21
-65.7976
0
LINE
8
BLACK
6
CONTINUOUS
10
64.1703
20
-65.7976
11
64.1878
21
-65.84
0
LINE
8
BLACK
6
CONTINUOUS
10
64.1878
20
-65.84
11
64.1703
21
-65.8824
0
LINE
8
BLACK
6
CONTINUOUS
10
64.1703
20
-65.8824
11
64.1278
21
-65.9
0
LINE
8
BLACK
6
CONTINUOUS
10
64.1278
20
-65.9
11
63.9122
21
-65.9
0
LINE
8
BLACK
6
CONTINUOUS
10
63.9122
20
-65.9
11
63.8697
21
-65.8824
0
LINE
8
BLACK
6
CONTINUOUS
10
63.8697
20
-65.8824
11
63.8522
21
-65.84
0
LINE
8
BLACK
6
CONTINUOUS
10
63.8522
20
-65.84
11
63.8697
21
-65.7976
0
LINE
8
BLACK
6
CONTINUOUS
10
63.8697
20
-65.7976
11
63.9122
21
-65.78
0
LINE
8
BLACK
6
CONTINUOUS
10
63.9122
20
-65.78
11
64.1278
21
-65.78
0
LINE
8
BLACK
6
CONTINUOUS
10
64.1278
20
-65.78
11
64.1703
21
-65.7976
0
LINE
8
BLACK
6
CONTINUOUS
10
58.3499
20
-65.7726
11
58.3675
21
-65.815
0
LINE
8
BLACK
6
CONTINUOUS
10
58.3675
20
-65.815
11
58.3499
21
-65.8574
0
LINE
8
BLACK
6
CONTINUOUS
10
58.3499
20
-65.8574
11
58.3075
21
-65.875
0
LINE
8
BLACK
6
CONTINUOUS
10
58.3075
20
-65.875
11
57.785
21
-65.875
0
LINE
8
BLACK
6
CONTINUOUS
10
57.785
20
-65.875
11
57.7426
21
-65.8574
0
LINE
8
BLACK
6
CONTINUOUS
10
57.7426
20
-65.8574
11
57.725
21
-65.815
0
LINE
8
BLACK
6
CONTINUOUS
10
57.725
20
-65.815
11
57.7426
21
-65.7726
0
LINE
8
BLACK
6
CONTINUOUS
10
57.7426
20
-65.7726
11
57.785
21
-65.755
0
LINE
8
BLACK
6
CONTINUOUS
10
57.785
20
-65.755
11
58.3075
21
-65.755
0
LINE
8
BLACK
6
CONTINUOUS
10
58.3075
20
-65.755
11
58.3499
21
-65.7726
0
LINE
8
BLACK
6
CONTINUOUS
10
71.2703
20
-65.5276
11
71.2878
21
-65.57
0
LINE
8
BLACK
6
CONTINUOUS
10
71.2878
20
-65.57
11
71.2703
21
-65.6124
0
LINE
8
BLACK
6
CONTINUOUS
10
71.2703
20
-65.6124
11
71.2278
21
-65.63
0
LINE
8
BLACK
6
CONTINUOUS
10
71.2278
20
-65.63
11
71.0122
21
-65.63
0
LINE
8
BLACK
6
CONTINUOUS
10
71.0122
20
-65.63
11
70.9697
21
-65.6124
0
LINE
8
BLACK
6
CONTINUOUS
10
70.9697
20
-65.6124
11
70.9522
21
-65.57
0
LINE
8
BLACK
6
CONTINUOUS
10
70.9522
20
-65.57
11
70.9697
21
-65.5276
0
LINE
8
BLACK
6
CONTINUOUS
10
70.9697
20
-65.5276
11
71.0122
21
-65.51
0
LINE
8
BLACK
6
CONTINUOUS
10
71.0122
20
-65.51
11
71.2278
21
-65.51
0
LINE
8
BLACK
6
CONTINUOUS
10
71.2278
20
-65.51
11
71.2703
21
-65.5276
0
LINE
8
BLACK
6
CONTINUOUS
10
81.4708
20
-64.8806
11
81.4822
21
-64.8829
0
LINE
8
BLACK
6
CONTINUOUS
10
81.4822
20
-64.8829
11
81.4845
21
-64.8863
0
LINE
8
BLACK
6
CONTINUOUS
10
81.4845
20
-64.8863
11
81.4883
21
-64.8879
0
LINE
8
BLACK
6
CONTINUOUS
10
81.4883
20
-64.8879
11
81.4927
21
-64.8986
0
LINE
8
BLACK
6
CONTINUOUS
10
81.4927
20
-64.8986
11
81.4992
21
-64.9083
0
LINE
8
BLACK
6
CONTINUOUS
10
81.4992
20
-64.9083
11
81.4984
21
-64.9123
0
LINE
8
BLACK
6
CONTINUOUS
10
81.4984
20
-64.9123
11
81.5
21
-64.9161
0
LINE
8
BLACK
6
CONTINUOUS
10
81.5
20
-64.9161
11
81.5
21
-65.3761
0
LINE
8
BLACK
6
CONTINUOUS
10
81.5
20
-65.3761
11
81.6029
21
-65.3761
0
LINE
8
BLACK
6
CONTINUOUS
10
81.6029
20
-65.3761
11
81.6311
21
-65.3879
0
LINE
8
BLACK
6
CONTINUOUS
10
81.6311
20
-65.3879
11
81.6429
21
-65.4161
0
LINE
8
BLACK
6
CONTINUOUS
10
81.6429
20
-65.4161
11
81.6311
21
-65.4444
0
LINE
8
BLACK
6
CONTINUOUS
10
81.6311
20
-65.4444
11
81.6029
21
-65.4561
0
LINE
8
BLACK
6
CONTINUOUS
10
81.6029
20
-65.4561
11
81.46
21
-65.4561
0
LINE
8
BLACK
6
CONTINUOUS
10
81.46
20
-65.4561
11
81.3171
21
-65.4561
0
LINE
8
BLACK
6
CONTINUOUS
10
81.3171
20
-65.4561
11
81.2889
21
-65.4444
0
LINE
8
BLACK
6
CONTINUOUS
10
81.2889
20
-65.4444
11
81.2771
21
-65.4161
0
LINE
8
BLACK
6
CONTINUOUS
10
81.2771
20
-65.4161
11
81.2889
21
-65.3879
0
LINE
8
BLACK
6
CONTINUOUS
10
81.2889
20
-65.3879
11
81.3171
21
-65.3761
0
LINE
8
BLACK
6
CONTINUOUS
10
81.3171
20
-65.3761
11
81.42
21
-65.3761
0
LINE
8
BLACK
6
CONTINUOUS
10
81.42
20
-65.3761
11
81.42
21
-65.0365
0
LINE
8
BLACK
6
CONTINUOUS
10
81.42
20
-65.0365
11
81.393
21
-65.0635
0
LINE
8
BLACK
6
CONTINUOUS
10
81.393
20
-65.0635
11
81.387
21
-65.066
0
LINE
8
BLACK
6
CONTINUOUS
10
81.387
20
-65.066
11
81.3826
21
-65.071
0
LINE
8
BLACK
6
CONTINUOUS
10
81.3826
20
-65.071
11
81.335
21
-65.0948
0
LINE
8
BLACK
6
CONTINUOUS
10
81.335
20
-65.0948
11
81.3045
21
-65.097
0
LINE
8
BLACK
6
CONTINUOUS
10
81.3045
20
-65.097
11
81.2814
21
-65.0769
0
LINE
8
BLACK
6
CONTINUOUS
10
81.2814
20
-65.0769
11
81.2792
21
-65.0464
0
LINE
8
BLACK
6
CONTINUOUS
10
81.2792
20
-65.0464
11
81.2993
21
-65.0232
0
LINE
8
BLACK
6
CONTINUOUS
10
81.2993
20
-65.0232
11
81.3411
21
-65.0023
0
LINE
8
BLACK
6
CONTINUOUS
10
81.3411
20
-65.0023
11
81.3813
21
-64.9621
0
LINE
8
BLACK
6
CONTINUOUS
10
81.3813
20
-64.9621
11
81.4267
21
-64.894
0
LINE
8
BLACK
6
CONTINUOUS
10
81.4267
20
-64.894
11
81.4301
21
-64.8917
0
LINE
8
BLACK
6
CONTINUOUS
10
81.4301
20
-64.8917
11
81.4317
21
-64.8879
0
LINE
8
BLACK
6
CONTINUOUS
10
81.4317
20
-64.8879
11
81.4425
21
-64.8834
0
LINE
8
BLACK
6
CONTINUOUS
10
81.4425
20
-64.8834
11
81.4522
21
-64.8769
0
LINE
8
BLACK
6
CONTINUOUS
10
81.4522
20
-64.8769
11
81.4562
21
-64.8777
0
LINE
8
BLACK
6
CONTINUOUS
10
81.4562
20
-64.8777
11
81.46
21
-64.8761
0
LINE
8
BLACK
6
CONTINUOUS
10
81.46
20
-64.8761
11
81.4708
21
-64.8806
0
LINE
8
BLACK
6
CONTINUOUS
10
89.8892
20
-64.8793
11
89.8974
21
-64.8794
0
LINE
8
BLACK
6
CONTINUOUS
10
89.8974
20
-64.8794
11
89.9028
21
-64.8849
0
LINE
8
BLACK
6
CONTINUOUS
10
89.9028
20
-64.8849
11
89.9099
21
-64.8879
0
LINE
8
BLACK
6
CONTINUOUS
10
89.9099
20
-64.8879
11
89.9131
21
-64.8954
0
LINE
8
BLACK
6
CONTINUOUS
10
89.9131
20
-64.8954
11
89.9188
21
-64.9013
0
LINE
8
BLACK
6
CONTINUOUS
10
89.9188
20
-64.9013
11
89.9187
21
-64.909
0
LINE
8
BLACK
6
CONTINUOUS
10
89.9187
20
-64.909
11
89.9217
21
-64.9161
0
LINE
8
BLACK
6
CONTINUOUS
10
89.9217
20
-64.9161
11
89.9185
21
-64.9237
0
LINE
8
BLACK
6
CONTINUOUS
10
89.9185
20
-64.9237
11
89.9184
21
-64.9319
0
LINE
8
BLACK
6
CONTINUOUS
10
89.9184
20
-64.9319
11
89.7041
21
-65.4319
0
LINE
8
BLACK
6
CONTINUOUS
10
89.7041
20
-65.4319
11
89.6822
21
-65.4533
0
LINE
8
BLACK
6
CONTINUOUS
10
89.6822
20
-65.4533
11
89.6516
21
-65.4529
0
LINE
8
BLACK
6
CONTINUOUS
10
89.6516
20
-65.4529
11
89.6302
21
-65.431
0
LINE
8
BLACK
6
CONTINUOUS
10
89.6302
20
-65.431
11
89.6306
21
-65.4004
0
LINE
8
BLACK
6
CONTINUOUS
10
89.6306
20
-65.4004
11
89.821
21
-64.9561
0
LINE
8
BLACK
6
CONTINUOUS
10
89.821
20
-64.9561
11
89.5483
21
-64.9561
0
LINE
8
BLACK
6
CONTINUOUS
10
89.5483
20
-64.9561
11
89.52
21
-64.9444
0
LINE
8
BLACK
6
CONTINUOUS
10
89.52
20
-64.9444
11
89.5083
21
-64.9161
0
LINE
8
BLACK
6
CONTINUOUS
10
89.5083
20
-64.9161
11
89.52
21
-64.8879
0
LINE
8
BLACK
6
CONTINUOUS
10
89.52
20
-64.8879
11
89.5483
21
-64.8761
0
LINE
8
BLACK
6
CONTINUOUS
10
89.5483
20
-64.8761
11
89.8817
21
-64.8761
0
LINE
8
BLACK
6
CONTINUOUS
10
89.8817
20
-64.8761
11
89.8892
21
-64.8793
0
LINE
8
BLACK
6
CONTINUOUS
10
71.2703
20
-64.8076
11
71.2878
21
-64.85
0
LINE
8
BLACK
6
CONTINUOUS
10
71.2878
20
-64.85
11
71.2703
21
-64.8924
0
LINE
8
BLACK
6
CONTINUOUS
10
71.2703
20
-64.8924
11
71.2278
21
-64.91
0
LINE
8
BLACK
6
CONTINUOUS
10
71.2278
20
-64.91
11
71.0122
21
-64.91
0
LINE
8
BLACK
6
CONTINUOUS
10
71.0122
20
-64.91
11
70.9697
21
-64.8924
0
LINE
8
BLACK
6
CONTINUOUS
10
70.9697
20
-64.8924
11
70.9522
21
-64.85
0
LINE
8
BLACK
6
CONTINUOUS
10
70.9522
20
-64.85
11
70.9697
21
-64.8076
0
LINE
8
BLACK
6
CONTINUOUS
10
70.9697
20
-64.8076
11
71.0122
21
-64.79
0
LINE
8
BLACK
6
CONTINUOUS
10
71.0122
20
-64.79
11
71.2278
21
-64.79
0
LINE
8
BLACK
6
CONTINUOUS
10
71.2278
20
-64.79
11
71.2703
21
-64.8076
0
LINE
8
BLACK
6
CONTINUOUS
10
63.7949
20
-63.7101
11
63.8135
21
-63.755
0
LINE
8
BLACK
6
CONTINUOUS
10
63.8135
20
-63.755
11
63.8135
21
-63.9865
0
LINE
8
BLACK
6
CONTINUOUS
10
63.8135
20
-63.9865
11
64.045
21
-63.9865
0
LINE
8
BLACK
6
CONTINUOUS
10
64.045
20
-63.9865
11
64.0899
21
-64.0051
0
LINE
8
BLACK
6
CONTINUOUS
10
64.0899
20
-64.0051
11
64.1085
21
-64.05
0
LINE
8
BLACK
6
CONTINUOUS
10
64.1085
20
-64.05
11
64.0899
21
-64.0949
0
LINE
8
BLACK
6
CONTINUOUS
10
64.0899
20
-64.0949
11
64.045
21
-64.1135
0
LINE
8
BLACK
6
CONTINUOUS
10
64.045
20
-64.1135
11
63.75
21
-64.1135
0
LINE
8
BLACK
6
CONTINUOUS
10
63.75
20
-64.1135
11
63.7051
21
-64.0949
0
LINE
8
BLACK
6
CONTINUOUS
10
63.7051
20
-64.0949
11
63.6865
21
-64.05
0
LINE
8
BLACK
6
CONTINUOUS
10
63.6865
20
-64.05
11
63.6865
21
-64.05
0
LINE
8
BLACK
6
CONTINUOUS
10
63.6865
20
-64.05
11
63.6865
21
-63.755
0
LINE
8
BLACK
6
CONTINUOUS
10
63.6865
20
-63.755
11
63.7051
21
-63.7101
0
LINE
8
BLACK
6
CONTINUOUS
10
63.7051
20
-63.7101
11
63.75
21
-63.6915
0
LINE
8
BLACK
6
CONTINUOUS
10
63.75
20
-63.6915
11
63.7949
21
-63.7101
0
LINE
8
BLACK
6
CONTINUOUS
10
68.7949
20
-63.7101
11
68.8135
21
-63.755
0
LINE
8
BLACK
6
CONTINUOUS
10
68.8135
20
-63.755
11
68.8135
21
-64.05
0
LINE
8
BLACK
6
CONTINUOUS
10
68.8135
20
-64.05
11
68.7949
21
-64.0949
0
LINE
8
BLACK
6
CONTINUOUS
10
68.7949
20
-64.0949
11
68.75
21
-64.1135
0
LINE
8
BLACK
6
CONTINUOUS
10
68.75
20
-64.1135
11
68.455
21
-64.1135
0
LINE
8
BLACK
6
CONTINUOUS
10
68.455
20
-64.1135
11
68.4101
21
-64.0949
0
LINE
8
BLACK
6
CONTINUOUS
10
68.4101
20
-64.0949
11
68.3915
21
-64.05
0
LINE
8
BLACK
6
CONTINUOUS
10
68.3915
20
-64.05
11
68.4101
21
-64.0051
0
LINE
8
BLACK
6
CONTINUOUS
10
68.4101
20
-64.0051
11
68.455
21
-63.9865
0
LINE
8
BLACK
6
CONTINUOUS
10
68.455
20
-63.9865
11
68.6865
21
-63.9865
0
LINE
8
BLACK
6
CONTINUOUS
10
68.6865
20
-63.9865
11
68.6865
21
-63.755
0
LINE
8
BLACK
6
CONTINUOUS
10
68.6865
20
-63.755
11
68.7051
21
-63.7101
0
LINE
8
BLACK
6
CONTINUOUS
10
68.7051
20
-63.7101
11
68.75
21
-63.6915
0
LINE
8
BLACK
6
CONTINUOUS
10
68.75
20
-63.6915
11
68.7949
21
-63.7101
0
LINE
8
BLACK
6
CONTINUOUS
10
59.1387
20
-59.6576
11
59.1562
21
-59.7
0
LINE
8
BLACK
6
CONTINUOUS
10
59.1562
20
-59.7
11
59.1387
21
-59.7424
0
LINE
8
BLACK
6
CONTINUOUS
10
59.1387
20
-59.7424
11
59.0962
21
-59.76
0
LINE
8
BLACK
6
CONTINUOUS
10
59.0962
20
-59.76
11
55.8562
21
-59.76
0
LINE
8
BLACK
6
CONTINUOUS
10
55.8562
20
-59.76
11
55.8562
21
-63.7
0
LINE
8
BLACK
6
CONTINUOUS
10
55.8562
20
-63.7
11
55.8387
21
-63.7424
0
LINE
8
BLACK
6
CONTINUOUS
10
55.8387
20
-63.7424
11
55.7962
21
-63.76
0
LINE
8
BLACK
6
CONTINUOUS
10
55.7962
20
-63.76
11
55.7538
21
-63.7424
0
LINE
8
BLACK
6
CONTINUOUS
10
55.7538
20
-63.7424
11
55.7362
21
-63.7
0
LINE
8
BLACK
6
CONTINUOUS
10
55.7362
20
-63.7
11
55.7362
21
-59.7
0
LINE
8
BLACK
6
CONTINUOUS
10
55.7362
20
-59.7
11
55.7538
21
-59.6576
0
LINE
8
BLACK
6
CONTINUOUS
10
55.7538
20
-59.6576
11
55.7962
21
-59.64
0
LINE
8
BLACK
6
CONTINUOUS
10
55.7962
20
-59.64
11
59.0962
21
-59.64
0
LINE
8
BLACK
6
CONTINUOUS
10
59.0962
20
-59.64
11
59.1387
21
-59.6576
0
LINE
8
BLACK
6
CONTINUOUS
10
59.4787
20
-62.7497
11
59.4962
21
-62.7922
0
LINE
8
BLACK
6
CONTINUOUS
10
59.4962
20
-62.7922
11
59.4962
21
-63.0078
0
LINE
8
BLACK
6
CONTINUOUS
10
59.4962
20
-63.0078
11
59.4787
21
-63.0503
0
LINE
8
BLACK
6
CONTINUOUS
10
59.4787
20
-63.0503
11
59.4362
21
-63.0678
0
LINE
8
BLACK
6
CONTINUOUS
10
59.4362
20
-63.0678
11
59.3938
21
-63.0503
0
LINE
8
BLACK
6
CONTINUOUS
10
59.3938
20
-63.0503
11
59.3762
21
-63.0078
0
LINE
8
BLACK
6
CONTINUOUS
10
59.3762
20
-63.0078
11
59.3762
21
-62.7922
0
LINE
8
BLACK
6
CONTINUOUS
10
59.3762
20
-62.7922
11
59.3938
21
-62.7497
0
LINE
8
BLACK
6
CONTINUOUS
10
59.3938
20
-62.7497
11
59.4362
21
-62.7322
0
LINE
8
BLACK
6
CONTINUOUS
10
59.4362
20
-62.7322
11
59.4787
21
-62.7497
0
LINE
8
BLACK
6
CONTINUOUS
10
60.1987
20
-62.7497
11
60.2162
21
-62.7922
0
LINE
8
BLACK
6
CONTINUOUS
10
60.2162
20
-62.7922
11
60.2162
21
-63.0078
0
LINE
8
BLACK
6
CONTINUOUS
10
60.2162
20
-63.0078
11
60.1987
21
-63.0503
0
LINE
8
BLACK
6
CONTINUOUS
10
60.1987
20
-63.0503
11
60.1562
21
-63.0678
0
LINE
8
BLACK
6
CONTINUOUS
10
60.1562
20
-63.0678
11
60.1138
21
-63.0503
0
LINE
8
BLACK
6
CONTINUOUS
10
60.1138
20
-63.0503
11
60.0962
21
-63.0078
0
LINE
8
BLACK
6
CONTINUOUS
10
60.0962
20
-63.0078
11
60.0962
21
-62.7922
0
LINE
8
BLACK
6
CONTINUOUS
10
60.0962
20
-62.7922
11
60.1138
21
-62.7497
0
LINE
8
BLACK
6
CONTINUOUS
10
60.1138
20
-62.7497
11
60.1562
21
-62.7322
0
LINE
8
BLACK
6
CONTINUOUS
10
60.1562
20
-62.7322
11
60.1987
21
-62.7497
0
LINE
8
BLACK
6
CONTINUOUS
10
61.7423
20
-62.6376
11
61.7599
21
-62.68
0
LINE
8
BLACK
6
CONTINUOUS
10
61.7599
20
-62.68
11
61.7423
21
-62.7224
0
LINE
8
BLACK
6
CONTINUOUS
10
61.7423
20
-62.7224
11
61.6999
21
-62.74
0
LINE
8
BLACK
6
CONTINUOUS
10
61.6999
20
-62.74
11
61.3926
21
-62.74
0
LINE
8
BLACK
6
CONTINUOUS
10
61.3926
20
-62.74
11
61.3502
21
-62.7224
0
LINE
8
BLACK
6
CONTINUOUS
10
61.3502
20
-62.7224
11
61.3326
21
-62.68
0
LINE
8
BLACK
6
CONTINUOUS
10
61.3326
20
-62.68
11
61.3502
21
-62.6376
0
LINE
8
BLACK
6
CONTINUOUS
10
61.3502
20
-62.6376
11
61.3926
21
-62.62
0
LINE
8
BLACK
6
CONTINUOUS
10
61.3926
20
-62.62
11
61.6999
21
-62.62
0
LINE
8
BLACK
6
CONTINUOUS
10
61.6999
20
-62.62
11
61.7423
21
-62.6376
0
LINE
8
BLACK
6
CONTINUOUS
10
72.6503
20
-62.6176
11
72.6678
21
-62.66
0
LINE
8
BLACK
6
CONTINUOUS
10
72.6678
20
-62.66
11
72.6503
21
-62.7024
0
LINE
8
BLACK
6
CONTINUOUS
10
72.6503
20
-62.7024
11
72.6078
21
-62.72
0
LINE
8
BLACK
6
CONTINUOUS
10
72.6078
20
-62.72
11
72.3922
21
-62.72
0
LINE
8
BLACK
6
CONTINUOUS
10
72.3922
20
-62.72
11
72.3497
21
-62.7024
0
LINE
8
BLACK
6
CONTINUOUS
10
72.3497
20
-62.7024
11
72.3322
21
-62.66
0
LINE
8
BLACK
6
CONTINUOUS
10
72.3322
20
-62.66
11
72.3497
21
-62.6176
0
LINE
8
BLACK
6
CONTINUOUS
10
72.3497
20
-62.6176
11
72.3922
21
-62.6
0
LINE
8
BLACK
6
CONTINUOUS
10
72.3922
20
-62.6
11
72.6078
21
-62.6
0
LINE
8
BLACK
6
CONTINUOUS
10
72.6078
20
-62.6
11
72.6503
21
-62.6176
0
LINE
8
BLACK
6
CONTINUOUS
10
81.2327
20
-61.8961
11
81.2441
21
-61.8984
0
LINE
8
BLACK
6
CONTINUOUS
10
81.2441
20
-61.8984
11
81.2464
21
-61.9018
0
LINE
8
BLACK
6
CONTINUOUS
10
81.2464
20
-61.9018
11
81.2502
21
-61.9034
0
LINE
8
BLACK
6
CONTINUOUS
10
81.2502
20
-61.9034
11
81.2546
21
-61.9141
0
LINE
8
BLACK
6
CONTINUOUS
10
81.2546
20
-61.9141
11
81.2611
21
-61.9238
0
LINE
8
BLACK
6
CONTINUOUS
10
81.2611
20
-61.9238
11
81.2603
21
-61.9278
0
LINE
8
BLACK
6
CONTINUOUS
10
81.2603
20
-61.9278
11
81.2619
21
-61.9316
0
LINE
8
BLACK
6
CONTINUOUS
10
81.2619
20
-61.9316
11
81.2619
21
-62.3916
0
LINE
8
BLACK
6
CONTINUOUS
10
81.2619
20
-62.3916
11
81.3648
21
-62.3916
0
LINE
8
BLACK
6
CONTINUOUS
10
81.3648
20
-62.3916
11
81.393
21
-62.4034
0
LINE
8
BLACK
6
CONTINUOUS
10
81.393
20
-62.4034
11
81.4048
21
-62.4316
0
LINE
8
BLACK
6
CONTINUOUS
10
81.4048
20
-62.4316
11
81.393
21
-62.4599
0
LINE
8
BLACK
6
CONTINUOUS
10
81.393
20
-62.4599
11
81.3648
21
-62.4716
0
LINE
8
BLACK
6
CONTINUOUS
10
81.3648
20
-62.4716
11
81.2219
21
-62.4716
0
LINE
8
BLACK
6
CONTINUOUS
10
81.2219
20
-62.4716
11
81.079
21
-62.4716
0
LINE
8
BLACK
6
CONTINUOUS
10
81.079
20
-62.4716
11
81.0508
21
-62.4599
0
LINE
8
BLACK
6
CONTINUOUS
10
81.0508
20
-62.4599
11
81.039
21
-62.4316
0
LINE
8
BLACK
6
CONTINUOUS
10
81.039
20
-62.4316
11
81.0508
21
-62.4034
0
LINE
8
BLACK
6
CONTINUOUS
10
81.0508
20
-62.4034
11
81.079
21
-62.3916
0
LINE
8
BLACK
6
CONTINUOUS
10
81.079
20
-62.3916
11
81.1819
21
-62.3916
0
LINE
8
BLACK
6
CONTINUOUS
10
81.1819
20
-62.3916
11
81.1819
21
-62.052
0
LINE
8
BLACK
6
CONTINUOUS
10
81.1819
20
-62.052
11
81.155
21
-62.079
0
LINE
8
BLACK
6
CONTINUOUS
10
81.155
20
-62.079
11
81.1489
21
-62.0815
0
LINE
8
BLACK
6
CONTINUOUS
10
81.1489
20
-62.0815
11
81.1446
21
-62.0865
0
LINE
8
BLACK
6
CONTINUOUS
10
81.1446
20
-62.0865
11
81.0969
21
-62.1103
0
LINE
8
BLACK
6
CONTINUOUS
10
81.0969
20
-62.1103
11
81.0664
21
-62.1125
0
LINE
8
BLACK
6
CONTINUOUS
10
81.0664
20
-62.1125
11
81.0433
21
-62.0924
0
LINE
8
BLACK
6
CONTINUOUS
10
81.0433
20
-62.0924
11
81.0411
21
-62.0619
0
LINE
8
BLACK
6
CONTINUOUS
10
81.0411
20
-62.0619
11
81.0612
21
-62.0387
0
LINE
8
BLACK
6
CONTINUOUS
10
81.0612
20
-62.0387
11
81.103
21
-62.0178
0
LINE
8
BLACK
6
CONTINUOUS
10
81.103
20
-62.0178
11
81.1432
21
-61.9776
0
LINE
8
BLACK
6
CONTINUOUS
10
81.1432
20
-61.9776
11
81.1886
21
-61.9095
0
LINE
8
BLACK
6
CONTINUOUS
10
81.1886
20
-61.9095
11
81.192
21
-61.9072
0
LINE
8
BLACK
6
CONTINUOUS
10
81.192
20
-61.9072
11
81.1936
21
-61.9034
0
LINE
8
BLACK
6
CONTINUOUS
10
81.1936
20
-61.9034
11
81.2044
21
-61.8989
0
LINE
8
BLACK
6
CONTINUOUS
10
81.2044
20
-61.8989
11
81.2141
21
-61.8924
0
LINE
8
BLACK
6
CONTINUOUS
10
81.2141
20
-61.8924
11
81.2181
21
-61.8932
0
LINE
8
BLACK
6
CONTINUOUS
10
81.2181
20
-61.8932
11
81.2219
21
-61.8916
0
LINE
8
BLACK
6
CONTINUOUS
10
81.2219
20
-61.8916
11
81.2327
21
-61.8961
0
LINE
8
BLACK
6
CONTINUOUS
10
81.7101
20
-61.89
11
81.7122
21
-61.9205
0
LINE
8
BLACK
6
CONTINUOUS
10
81.7122
20
-61.9205
11
81.6107
21
-62.225
0
LINE
8
BLACK
6
CONTINUOUS
10
81.6107
20
-62.225
11
81.7533
21
-62.225
0
LINE
8
BLACK
6
CONTINUOUS
10
81.7533
20
-62.225
11
81.7533
21
-62.0983
0
LINE
8
BLACK
6
CONTINUOUS
10
81.7533
20
-62.0983
11
81.765
21
-62.07
0
LINE
8
BLACK
6
CONTINUOUS
10
81.765
20
-62.07
11
81.7933
21
-62.0583
0
LINE
8
BLACK
6
CONTINUOUS
10
81.7933
20
-62.0583
11
81.8216
21
-62.07
0
LINE
8
BLACK
6
CONTINUOUS
10
81.8216
20
-62.07
11
81.8333
21
-62.0983
0
LINE
8
BLACK
6
CONTINUOUS
10
81.8333
20
-62.0983
11
81.8333
21
-62.225
0
LINE
8
BLACK
6
CONTINUOUS
10
81.8333
20
-62.225
11
81.8648
21
-62.225
0
LINE
8
BLACK
6
CONTINUOUS
10
81.8648
20
-62.225
11
81.893
21
-62.2367
0
LINE
8
BLACK
6
CONTINUOUS
10
81.893
20
-62.2367
11
81.9048
21
-62.265
0
LINE
8
BLACK
6
CONTINUOUS
10
81.9048
20
-62.265
11
81.893
21
-62.2933
0
LINE
8
BLACK
6
CONTINUOUS
10
81.893
20
-62.2933
11
81.8648
21
-62.305
0
LINE
8
BLACK
6
CONTINUOUS
10
81.8648
20
-62.305
11
81.8333
21
-62.305
0
LINE
8
BLACK
6
CONTINUOUS
10
81.8333
20
-62.305
11
81.8333
21
-62.4316
0
LINE
8
BLACK
6
CONTINUOUS
10
81.8333
20
-62.4316
11
81.8216
21
-62.4599
0
LINE
8
BLACK
6
CONTINUOUS
10
81.8216
20
-62.4599
11
81.7933
21
-62.4716
0
LINE
8
BLACK
6
CONTINUOUS
10
81.7933
20
-62.4716
11
81.765
21
-62.4599
0
LINE
8
BLACK
6
CONTINUOUS
10
81.765
20
-62.4599
11
81.7533
21
-62.4316
0
LINE
8
BLACK
6
CONTINUOUS
10
81.7533
20
-62.4316
11
81.7533
21
-62.305
0
LINE
8
BLACK
6
CONTINUOUS
10
81.7533
20
-62.305
11
81.5552
21
-62.305
0
LINE
8
BLACK
6
CONTINUOUS
10
81.5552
20
-62.305
11
81.5492
21
-62.3025
0
LINE
8
BLACK
6
CONTINUOUS
10
81.5492
20
-62.3025
11
81.5426
21
-62.3029
0
LINE
8
BLACK
6
CONTINUOUS
10
81.5426
20
-62.3029
11
81.5356
21
-62.2968
0
LINE
8
BLACK
6
CONTINUOUS
10
81.5356
20
-62.2968
11
81.527
21
-62.2933
0
LINE
8
BLACK
6
CONTINUOUS
10
81.527
20
-62.2933
11
81.5244
21
-62.2872
0
LINE
8
BLACK
6
CONTINUOUS
10
81.5244
20
-62.2872
11
81.5195
21
-62.2829
0
LINE
8
BLACK
6
CONTINUOUS
10
81.5195
20
-62.2829
11
81.5188
21
-62.2736
0
LINE
8
BLACK
6
CONTINUOUS
10
81.5188
20
-62.2736
11
81.5152
21
-62.265
0
LINE
8
BLACK
6
CONTINUOUS
10
81.5152
20
-62.265
11
81.5178
21
-62.2589
0
LINE
8
BLACK
6
CONTINUOUS
10
81.5178
20
-62.2589
11
81.5173
21
-62.2523
0
LINE
8
BLACK
6
CONTINUOUS
10
81.5173
20
-62.2523
11
81.6363
21
-61.8952
0
LINE
8
BLACK
6
CONTINUOUS
10
81.6363
20
-61.8952
11
81.6564
21
-61.8721
0
LINE
8
BLACK
6
CONTINUOUS
10
81.6564
20
-61.8721
11
81.6869
21
-61.8699
0
LINE
8
BLACK
6
CONTINUOUS
10
81.6869
20
-61.8699
11
81.7101
21
-61.89
0
LINE
8
BLACK
6
CONTINUOUS
10
89.7712
20
-61.8952
11
89.7805
21
-61.8959
0
LINE
8
BLACK
6
CONTINUOUS
10
89.7805
20
-61.8959
11
89.8281
21
-61.9197
0
LINE
8
BLACK
6
CONTINUOUS
10
89.8281
20
-61.9197
11
89.8324
21
-61.9247
0
LINE
8
BLACK
6
CONTINUOUS
10
89.8324
20
-61.9247
11
89.8385
21
-61.9272
0
LINE
8
BLACK
6
CONTINUOUS
10
89.8385
20
-61.9272
11
89.8623
21
-61.951
0
LINE
8
BLACK
6
CONTINUOUS
10
89.8623
20
-61.951
11
89.8648
21
-61.9571
0
LINE
8
BLACK
6
CONTINUOUS
10
89.8648
20
-61.9571
11
89.8698
21
-61.9614
0
LINE
8
BLACK
6
CONTINUOUS
10
89.8698
20
-61.9614
11
89.8936
21
-62.009
0
LINE
8
BLACK
6
CONTINUOUS
10
89.8936
20
-62.009
11
89.8943
21
-62.0183
0
LINE
8
BLACK
6
CONTINUOUS
10
89.8943
20
-62.0183
11
89.8979
21
-62.0269
0
LINE
8
BLACK
6
CONTINUOUS
10
89.8979
20
-62.0269
11
89.8979
21
-62.0507
0
LINE
8
BLACK
6
CONTINUOUS
10
89.8979
20
-62.0507
11
89.8943
21
-62.0593
0
LINE
8
BLACK
6
CONTINUOUS
10
89.8943
20
-62.0593
11
89.8936
21
-62.0686
0
LINE
8
BLACK
6
CONTINUOUS
10
89.8936
20
-62.0686
11
89.8698
21
-62.1162
0
LINE
8
BLACK
6
CONTINUOUS
10
89.8698
20
-62.1162
11
89.8648
21
-62.1205
0
LINE
8
BLACK
6
CONTINUOUS
10
89.8648
20
-62.1205
11
89.8623
21
-62.1266
0
LINE
8
BLACK
6
CONTINUOUS
10
89.8623
20
-62.1266
11
89.843
21
-62.1459
0
LINE
8
BLACK
6
CONTINUOUS
10
89.843
20
-62.1459
11
89.8623
21
-62.1653
0
LINE
8
BLACK
6
CONTINUOUS
10
89.8623
20
-62.1653
11
89.8648
21
-62.1714
0
LINE
8
BLACK
6
CONTINUOUS
10
89.8648
20
-62.1714
11
89.8698
21
-62.1757
0
LINE
8
BLACK
6
CONTINUOUS
10
89.8698
20
-62.1757
11
89.8936
21
-62.2233
0
LINE
8
BLACK
6
CONTINUOUS
10
89.8936
20
-62.2233
11
89.8943
21
-62.2326
0
LINE
8
BLACK
6
CONTINUOUS
10
89.8943
20
-62.2326
11
89.8979
21
-62.2412
0
LINE
8
BLACK
6
CONTINUOUS
10
89.8979
20
-62.2412
11
89.8979
21
-62.3364
0
LINE
8
BLACK
6
CONTINUOUS
10
89.8979
20
-62.3364
11
89.8943
21
-62.345
0
LINE
8
BLACK
6
CONTINUOUS
10
89.8943
20
-62.345
11
89.8936
21
-62.3543
0
LINE
8
BLACK
6
CONTINUOUS
10
89.8936
20
-62.3543
11
89.8698
21
-62.4019
0
LINE
8
BLACK
6
CONTINUOUS
10
89.8698
20
-62.4019
11
89.8648
21
-62.4062
0
LINE
8
BLACK
6
CONTINUOUS
10
89.8648
20
-62.4062
11
89.8623
21
-62.4123
0
LINE
8
BLACK
6
CONTINUOUS
10
89.8623
20
-62.4123
11
89.8385
21
-62.4361
0
LINE
8
BLACK
6
CONTINUOUS
10
89.8385
20
-62.4361
11
89.8324
21
-62.4386
0
LINE
8
BLACK
6
CONTINUOUS
10
89.8324
20
-62.4386
11
89.8281
21
-62.4436
0
LINE
8
BLACK
6
CONTINUOUS
10
89.8281
20
-62.4436
11
89.7805
21
-62.4674
0
LINE
8
BLACK
6
CONTINUOUS
10
89.7805
20
-62.4674
11
89.7712
21
-62.4681
0
LINE
8
BLACK
6
CONTINUOUS
10
89.7712
20
-62.4681
11
89.7626
21
-62.4716
0
LINE
8
BLACK
6
CONTINUOUS
10
89.7626
20
-62.4716
11
89.6674
21
-62.4716
0
LINE
8
BLACK
6
CONTINUOUS
10
89.6674
20
-62.4716
11
89.6588
21
-62.4681
0
LINE
8
BLACK
6
CONTINUOUS
10
89.6588
20
-62.4681
11
89.6495
21
-62.4674
0
LINE
8
BLACK
6
CONTINUOUS
10
89.6495
20
-62.4674
11
89.6019
21
-62.4436
0
LINE
8
BLACK
6
CONTINUOUS
10
89.6019
20
-62.4436
11
89.5976
21
-62.4386
0
LINE
8
BLACK
6
CONTINUOUS
10
89.5976
20
-62.4386
11
89.5915
21
-62.4361
0
LINE
8
BLACK
6
CONTINUOUS
10
89.5915
20
-62.4361
11
89.5677
21
-62.4123
0
LINE
8
BLACK
6
CONTINUOUS
10
89.5677
20
-62.4123
11
89.5651
21
-62.4062
0
LINE
8
BLACK
6
CONTINUOUS
10
89.5651
20
-62.4062
11
89.5602
21
-62.4019
0
LINE
8
BLACK
6
CONTINUOUS
10
89.5602
20
-62.4019
11
89.5364
21
-62.3543
0
LINE
8
BLACK
6
CONTINUOUS
10
89.5364
20
-62.3543
11
89.5357
21
-62.345
0
LINE
8
BLACK
6
CONTINUOUS
10
89.5357
20
-62.345
11
89.5321
21
-62.3364
0
LINE
8
BLACK
6
CONTINUOUS
10
89.5321
20
-62.3364
11
89.5321
21
-62.2412
0
LINE
8
BLACK
6
CONTINUOUS
10
89.5321
20
-62.2412
11
89.5357
21
-62.2326
0
LINE
8
BLACK
6
CONTINUOUS
10
89.5357
20
-62.2326
11
89.5364
21
-62.2233
0
LINE
8
BLACK
6
CONTINUOUS
10
89.5364
20
-62.2233
11
89.5602
21
-62.1757
0
LINE
8
BLACK
6
CONTINUOUS
10
89.5602
20
-62.1757
11
89.5651
21
-62.1714
0
LINE
8
BLACK
6
CONTINUOUS
10
89.5651
20
-62.1714
11
89.5677
21
-62.1653
0
LINE
8
BLACK
6
CONTINUOUS
10
89.5677
20
-62.1653
11
89.587
21
-62.1459
0
LINE
8
BLACK
6
CONTINUOUS
10
89.587
20
-62.1459
11
89.5677
21
-62.1266
0
LINE
8
BLACK
6
CONTINUOUS
10
89.5677
20
-62.1266
11
89.5651
21
-62.1205
0
LINE
8
BLACK
6
CONTINUOUS
10
89.5651
20
-62.1205
11
89.5602
21
-62.1162
0
LINE
8
BLACK
6
CONTINUOUS
10
89.5602
20
-62.1162
11
89.5364
21
-62.0686
0
LINE
8
BLACK
6
CONTINUOUS
10
89.5364
20
-62.0686
11
89.5357
21
-62.0593
0
LINE
8
BLACK
6
CONTINUOUS
10
89.5357
20
-62.0593
11
89.5321
21
-62.0507
0
LINE
8
BLACK
6
CONTINUOUS
10
89.5321
20
-62.0507
11
89.5321
21
-62.0269
0
LINE
8
BLACK
6
CONTINUOUS
10
89.5321
20
-62.0269
11
89.5357
21
-62.0183
0
LINE
8
BLACK
6
CONTINUOUS
10
89.5357
20
-62.0183
11
89.5364
21
-62.009
0
LINE
8
BLACK
6
CONTINUOUS
10
89.5364
20
-62.009
11
89.5602
21
-61.9614
0
LINE
8
BLACK
6
CONTINUOUS
10
89.5602
20
-61.9614
11
89.5651
21
-61.9571
0
LINE
8
BLACK
6
CONTINUOUS
10
89.5651
20
-61.9571
11
89.5677
21
-61.951
0
LINE
8
BLACK
6
CONTINUOUS
10
89.5677
20
-61.951
11
89.5915
21
-61.9272
0
LINE
8
BLACK
6
CONTINUOUS
10
89.5915
20
-61.9272
11
89.5976
21
-61.9247
0
LINE
8
BLACK
6
CONTINUOUS
10
89.5976
20
-61.9247
11
89.6019
21
-61.9197
0
LINE
8
BLACK
6
CONTINUOUS
10
89.6019
20
-61.9197
11
89.6495
21
-61.8959
0
LINE
8
BLACK
6
CONTINUOUS
10
89.6495
20
-61.8959
11
89.6588
21
-61.8952
0
LINE
8
BLACK
6
CONTINUOUS
10
89.6588
20
-61.8952
11
89.6674
21
-61.8916
0
LINE
8
BLACK
6
CONTINUOUS
10
89.6674
20
-61.8916
11
89.7626
21
-61.8916
0
LINE
8
BLACK
6
CONTINUOUS
10
89.7626
20
-61.8916
11
89.7712
21
-61.8952
0
LINE
8
BLACK
6
CONTINUOUS
10
89.6435
20
-62.2026
11
89.6288
21
-62.2172
0
LINE
8
BLACK
6
CONTINUOUS
10
89.6288
20
-62.2172
11
89.6121
21
-62.2506
0
LINE
8
BLACK
6
CONTINUOUS
10
89.6121
20
-62.2506
11
89.6121
21
-62.327
0
LINE
8
BLACK
6
CONTINUOUS
10
89.6121
20
-62.327
11
89.6288
21
-62.3603
0
LINE
8
BLACK
6
CONTINUOUS
10
89.6288
20
-62.3603
11
89.6435
21
-62.375
0
LINE
8
BLACK
6
CONTINUOUS
10
89.6435
20
-62.375
11
89.6768
21
-62.3916
0
LINE
8
BLACK
6
CONTINUOUS
10
89.6768
20
-62.3916
11
89.7532
21
-62.3916
0
LINE
8
BLACK
6
CONTINUOUS
10
89.7532
20
-62.3916
11
89.7865
21
-62.375
0
LINE
8
BLACK
6
CONTINUOUS
10
89.7865
20
-62.375
11
89.8012
21
-62.3603
0
LINE
8
BLACK
6
CONTINUOUS
10
89.8012
20
-62.3603
11
89.8179
21
-62.327
0
LINE
8
BLACK
6
CONTINUOUS
10
89.8179
20
-62.327
11
89.8179
21
-62.2506
0
LINE
8
BLACK
6
CONTINUOUS
10
89.8179
20
-62.2506
11
89.8012
21
-62.2172
0
LINE
8
BLACK
6
CONTINUOUS
10
89.8012
20
-62.2172
11
89.7865
21
-62.2026
0
LINE
8
BLACK
6
CONTINUOUS
10
89.7865
20
-62.2026
11
89.7532
21
-62.1859
0
LINE
8
BLACK
6
CONTINUOUS
10
89.7532
20
-62.1859
11
89.6768
21
-62.1859
0
LINE
8
BLACK
6
CONTINUOUS
10
89.6768
20
-62.1859
11
89.6435
21
-62.2026
0
LINE
8
BLACK
6
CONTINUOUS
10
89.6435
20
-61.9883
11
89.6288
21
-62.003
0
LINE
8
BLACK
6
CONTINUOUS
10
89.6288
20
-62.003
11
89.6121
21
-62.0363
0
LINE
8
BLACK
6
CONTINUOUS
10
89.6121
20
-62.0363
11
89.6121
21
-62.0413
0
LINE
8
BLACK
6
CONTINUOUS
10
89.6121
20
-62.0413
11
89.6288
21
-62.0746
0
LINE
8
BLACK
6
CONTINUOUS
10
89.6288
20
-62.0746
11
89.6435
21
-62.0892
0
LINE
8
BLACK
6
CONTINUOUS
10
89.6435
20
-62.0892
11
89.6768
21
-62.1059
0
LINE
8
BLACK
6
CONTINUOUS
10
89.6768
20
-62.1059
11
89.7532
21
-62.1059
0
LINE
8
BLACK
6
CONTINUOUS
10
89.7532
20
-62.1059
11
89.7865
21
-62.0892
0
LINE
8
BLACK
6
CONTINUOUS
10
89.7865
20
-62.0892
11
89.8012
21
-62.0746
0
LINE
8
BLACK
6
CONTINUOUS
10
89.8012
20
-62.0746
11
89.8179
21
-62.0413
0
LINE
8
BLACK
6
CONTINUOUS
10
89.8179
20
-62.0413
11
89.8179
21
-62.0363
0
LINE
8
BLACK
6
CONTINUOUS
10
89.8179
20
-62.0363
11
89.8012
21
-62.003
0
LINE
8
BLACK
6
CONTINUOUS
10
89.8012
20
-62.003
11
89.7865
21
-61.9883
0
LINE
8
BLACK
6
CONTINUOUS
10
89.7865
20
-61.9883
11
89.7532
21
-61.9716
0
LINE
8
BLACK
6
CONTINUOUS
10
89.7532
20
-61.9716
11
89.6768
21
-61.9716
0
LINE
8
BLACK
6
CONTINUOUS
10
89.6768
20
-61.9716
11
89.6435
21
-61.9883
0
LINE
8
BLACK
6
CONTINUOUS
10
72.6503
20
-61.8976
11
72.6678
21
-61.94
0
LINE
8
BLACK
6
CONTINUOUS
10
72.6678
20
-61.94
11
72.6503
21
-61.9824
0
LINE
8
BLACK
6
CONTINUOUS
10
72.6503
20
-61.9824
11
72.6078
21
-62
0
LINE
8
BLACK
6
CONTINUOUS
10
72.6078
20
-62
11
72.3922
21
-62
0
LINE
8
BLACK
6
CONTINUOUS
10
72.3922
20
-62
11
72.3497
21
-61.9824
0
LINE
8
BLACK
6
CONTINUOUS
10
72.3497
20
-61.9824
11
72.3322
21
-61.94
0
LINE
8
BLACK
6
CONTINUOUS
10
72.3322
20
-61.94
11
72.3497
21
-61.8976
0
LINE
8
BLACK
6
CONTINUOUS
10
72.3497
20
-61.8976
11
72.3922
21
-61.88
0
LINE
8
BLACK
6
CONTINUOUS
10
72.3922
20
-61.88
11
72.6078
21
-61.88
0
LINE
8
BLACK
6
CONTINUOUS
10
72.6078
20
-61.88
11
72.6503
21
-61.8976
0
LINE
8
BLACK
6
CONTINUOUS
10
61.7423
20
-61.8776
11
61.7599
21
-61.92
0
LINE
8
BLACK
6
CONTINUOUS
10
61.7599
20
-61.92
11
61.7423
21
-61.9624
0
LINE
8
BLACK
6
CONTINUOUS
10
61.7423
20
-61.9624
11
61.6999
21
-61.98
0
LINE
8
BLACK
6
CONTINUOUS
10
61.6999
20
-61.98
11
61.3926
21
-61.98
0
LINE
8
BLACK
6
CONTINUOUS
10
61.3926
20
-61.98
11
61.3502
21
-61.9624
0
LINE
8
BLACK
6
CONTINUOUS
10
61.3502
20
-61.9624
11
61.3326
21
-61.92
0
LINE
8
BLACK
6
CONTINUOUS
10
61.3326
20
-61.92
11
61.3502
21
-61.8776
0
LINE
8
BLACK
6
CONTINUOUS
10
61.3502
20
-61.8776
11
61.3926
21
-61.86
0
LINE
8
BLACK
6
CONTINUOUS
10
61.3926
20
-61.86
11
61.6999
21
-61.86
0
LINE
8
BLACK
6
CONTINUOUS
10
61.6999
20
-61.86
11
61.7423
21
-61.8776
0
LINE
8
BLACK
6
CONTINUOUS
10
61.7423
20
-61.3876
11
61.7599
21
-61.43
0
LINE
8
BLACK
6
CONTINUOUS
10
61.7599
20
-61.43
11
61.7423
21
-61.4724
0
LINE
8
BLACK
6
CONTINUOUS
10
61.7423
20
-61.4724
11
61.6999
21
-61.49
0
LINE
8
BLACK
6
CONTINUOUS
10
61.6999
20
-61.49
11
61.3926
21
-61.49
0
LINE
8
BLACK
6
CONTINUOUS
10
61.3926
20
-61.49
11
61.3502
21
-61.4724
0
LINE
8
BLACK
6
CONTINUOUS
10
61.3502
20
-61.4724
11
61.3326
21
-61.43
0
LINE
8
BLACK
6
CONTINUOUS
10
61.3326
20
-61.43
11
61.3502
21
-61.3876
0
LINE
8
BLACK
6
CONTINUOUS
10
61.3502
20
-61.3876
11
61.3926
21
-61.37
0
LINE
8
BLACK
6
CONTINUOUS
10
61.3926
20
-61.37
11
61.6999
21
-61.37
0
LINE
8
BLACK
6
CONTINUOUS
10
61.6999
20
-61.37
11
61.7423
21
-61.3876
0
LINE
8
BLACK
6
CONTINUOUS
10
59.4787
20
-60.7497
11
59.4962
21
-60.7922
0
LINE
8
BLACK
6
CONTINUOUS
10
59.4962
20
-60.7922
11
59.4962
21
-61.0078
0
LINE
8
BLACK
6
CONTINUOUS
10
59.4962
20
-61.0078
11
59.4787
21
-61.0503
0
LINE
8
BLACK
6
CONTINUOUS
10
59.4787
20
-61.0503
11
59.4362
21
-61.0678
0
LINE
8
BLACK
6
CONTINUOUS
10
59.4362
20
-61.0678
11
59.3938
21
-61.0503
0
LINE
8
BLACK
6
CONTINUOUS
10
59.3938
20
-61.0503
11
59.3762
21
-61.0078
0
LINE
8
BLACK
6
CONTINUOUS
10
59.3762
20
-61.0078
11
59.3762
21
-60.7922
0
LINE
8
BLACK
6
CONTINUOUS
10
59.3762
20
-60.7922
11
59.3938
21
-60.7497
0
LINE
8
BLACK
6
CONTINUOUS
10
59.3938
20
-60.7497
11
59.4362
21
-60.7322
0
LINE
8
BLACK
6
CONTINUOUS
10
59.4362
20
-60.7322
11
59.4787
21
-60.7497
0
LINE
8
BLACK
6
CONTINUOUS
10
60.1987
20
-60.7497
11
60.2162
21
-60.7922
0
LINE
8
BLACK
6
CONTINUOUS
10
60.2162
20
-60.7922
11
60.2162
21
-61.0078
0
LINE
8
BLACK
6
CONTINUOUS
10
60.2162
20
-61.0078
11
60.1987
21
-61.0503
0
LINE
8
BLACK
6
CONTINUOUS
10
60.1987
20
-61.0503
11
60.1562
21
-61.0678
0
LINE
8
BLACK
6
CONTINUOUS
10
60.1562
20
-61.0678
11
60.1138
21
-61.0503
0
LINE
8
BLACK
6
CONTINUOUS
10
60.1138
20
-61.0503
11
60.0962
21
-61.0078
0
LINE
8
BLACK
6
CONTINUOUS
10
60.0962
20
-61.0078
11
60.0962
21
-60.7922
0
LINE
8
BLACK
6
CONTINUOUS
10
60.0962
20
-60.7922
11
60.1138
21
-60.7497
0
LINE
8
BLACK
6
CONTINUOUS
10
60.1138
20
-60.7497
11
60.1562
21
-60.7322
0
LINE
8
BLACK
6
CONTINUOUS
10
60.1562
20
-60.7322
11
60.1987
21
-60.7497
0
LINE
8
BLACK
6
CONTINUOUS
10
72.7061
20
-60.7376
11
72.7236
21
-60.78
0
LINE
8
BLACK
6
CONTINUOUS
10
72.7236
20
-60.78
11
72.7061
21
-60.8224
0
LINE
8
BLACK
6
CONTINUOUS
10
72.7061
20
-60.8224
11
72.6636
21
-60.84
0
LINE
8
BLACK
6
CONTINUOUS
10
72.6636
20
-60.84
11
72.3564
21
-60.84
0
LINE
8
BLACK
6
CONTINUOUS
10
72.3564
20
-60.84
11
72.3139
21
-60.8224
0
LINE
8
BLACK
6
CONTINUOUS
10
72.3139
20
-60.8224
11
72.2964
21
-60.78
0
LINE
8
BLACK
6
CONTINUOUS
10
72.2964
20
-60.78
11
72.3139
21
-60.7376
0
LINE
8
BLACK
6
CONTINUOUS
10
72.3139
20
-60.7376
11
72.3564
21
-60.72
0
LINE
8
BLACK
6
CONTINUOUS
10
72.3564
20
-60.72
11
72.6636
21
-60.72
0
LINE
8
BLACK
6
CONTINUOUS
10
72.6636
20
-60.72
11
72.7061
21
-60.7376
0
LINE
8
BLACK
6
CONTINUOUS
10
61.7423
20
-60.6276
11
61.7599
21
-60.67
0
LINE
8
BLACK
6
CONTINUOUS
10
61.7599
20
-60.67
11
61.7423
21
-60.7124
0
LINE
8
BLACK
6
CONTINUOUS
10
61.7423
20
-60.7124
11
61.6999
21
-60.73
0
LINE
8
BLACK
6
CONTINUOUS
10
61.6999
20
-60.73
11
61.3926
21
-60.73
0
LINE
8
BLACK
6
CONTINUOUS
10
61.3926
20
-60.73
11
61.3502
21
-60.7124
0
LINE
8
BLACK
6
CONTINUOUS
10
61.3502
20
-60.7124
11
61.3326
21
-60.67
0
LINE
8
BLACK
6
CONTINUOUS
10
61.3326
20
-60.67
11
61.3502
21
-60.6276
0
LINE
8
BLACK
6
CONTINUOUS
10
61.3502
20
-60.6276
11
61.3926
21
-60.61
0
LINE
8
BLACK
6
CONTINUOUS
10
61.3926
20
-60.61
11
61.6999
21
-60.61
0
LINE
8
BLACK
6
CONTINUOUS
10
61.6999
20
-60.61
11
61.7423
21
-60.6276
0
LINE
8
BLACK
6
CONTINUOUS
10
72.7061
20
-59.9776
11
72.7236
21
-60.02
0
LINE
8
BLACK
6
CONTINUOUS
10
72.7236
20
-60.02
11
72.7061
21
-60.0624
0
LINE
8
BLACK
6
CONTINUOUS
10
72.7061
20
-60.0624
11
72.6636
21
-60.08
0
LINE
8
BLACK
6
CONTINUOUS
10
72.6636
20
-60.08
11
72.3564
21
-60.08
0
LINE
8
BLACK
6
CONTINUOUS
10
72.3564
20
-60.08
11
72.3139
21
-60.0624
0
LINE
8
BLACK
6
CONTINUOUS
10
72.3139
20
-60.0624
11
72.2964
21
-60.02
0
LINE
8
BLACK
6
CONTINUOUS
10
72.2964
20
-60.02
11
72.3139
21
-59.9776
0
LINE
8
BLACK
6
CONTINUOUS
10
72.3139
20
-59.9776
11
72.3564
21
-59.96
0
LINE
8
BLACK
6
CONTINUOUS
10
72.3564
20
-59.96
11
72.6636
21
-59.96
0
LINE
8
BLACK
6
CONTINUOUS
10
72.6636
20
-59.96
11
72.7061
21
-59.9776
0
LINE
8
BLACK
6
CONTINUOUS
10
83.4003
20
-59.3476
11
83.4178
21
-59.39
0
LINE
8
BLACK
6
CONTINUOUS
10
83.4178
20
-59.39
11
83.4003
21
-59.4324
0
LINE
8
BLACK
6
CONTINUOUS
10
83.4003
20
-59.4324
11
83.3578
21
-59.45
0
LINE
8
BLACK
6
CONTINUOUS
10
83.3578
20
-59.45
11
83.1422
21
-59.45
0
LINE
8
BLACK
6
CONTINUOUS
10
83.1422
20
-59.45
11
83.0997
21
-59.4324
0
LINE
8
BLACK
6
CONTINUOUS
10
83.0997
20
-59.4324
11
83.0822
21
-59.39
0
LINE
8
BLACK
6
CONTINUOUS
10
83.0822
20
-59.39
11
83.0997
21
-59.3476
0
LINE
8
BLACK
6
CONTINUOUS
10
83.0997
20
-59.3476
11
83.1422
21
-59.33
0
LINE
8
BLACK
6
CONTINUOUS
10
83.1422
20
-59.33
11
83.3578
21
-59.33
0
LINE
8
BLACK
6
CONTINUOUS
10
83.3578
20
-59.33
11
83.4003
21
-59.3476
0
LINE
8
BLACK
6
CONTINUOUS
10
64.0899
20
-59.0051
11
64.1085
21
-59.05
0
LINE
8
BLACK
6
CONTINUOUS
10
64.1085
20
-59.05
11
64.0899
21
-59.0949
0
LINE
8
BLACK
6
CONTINUOUS
10
64.0899
20
-59.0949
11
64.045
21
-59.1135
0
LINE
8
BLACK
6
CONTINUOUS
10
64.045
20
-59.1135
11
63.8135
21
-59.1135
0
LINE
8
BLACK
6
CONTINUOUS
10
63.8135
20
-59.1135
11
63.8135
21
-59.345
0
LINE
8
BLACK
6
CONTINUOUS
10
63.8135
20
-59.345
11
63.7949
21
-59.3899
0
LINE
8
BLACK
6
CONTINUOUS
10
63.7949
20
-59.3899
11
63.75
21
-59.4085
0
LINE
8
BLACK
6
CONTINUOUS
10
63.75
20
-59.4085
11
63.7051
21
-59.3899
0
LINE
8
BLACK
6
CONTINUOUS
10
63.7051
20
-59.3899
11
63.6865
21
-59.345
0
LINE
8
BLACK
6
CONTINUOUS
10
63.6865
20
-59.345
11
63.6865
21
-59.05
0
LINE
8
BLACK
6
CONTINUOUS
10
63.6865
20
-59.05
11
63.7051
21
-59.0051
0
LINE
8
BLACK
6
CONTINUOUS
10
63.7051
20
-59.0051
11
63.75
21
-58.9865
0
LINE
8
BLACK
6
CONTINUOUS
10
63.75
20
-58.9865
11
64.045
21
-58.9865
0
LINE
8
BLACK
6
CONTINUOUS
10
64.045
20
-58.9865
11
64.0899
21
-59.0051
0
LINE
8
BLACK
6
CONTINUOUS
10
68.75
20
-58.9865
11
68.7949
21
-59.0051
0
LINE
8
BLACK
6
CONTINUOUS
10
68.7949
20
-59.0051
11
68.8135
21
-59.05
0
LINE
8
BLACK
6
CONTINUOUS
10
68.8135
20
-59.05
11
68.8135
21
-59.345
0
LINE
8
BLACK
6
CONTINUOUS
10
68.8135
20
-59.345
11
68.7949
21
-59.3899
0
LINE
8
BLACK
6
CONTINUOUS
10
68.7949
20
-59.3899
11
68.75
21
-59.4085
0
LINE
8
BLACK
6
CONTINUOUS
10
68.75
20
-59.4085
11
68.7051
21
-59.3899
0
LINE
8
BLACK
6
CONTINUOUS
10
68.7051
20
-59.3899
11
68.6865
21
-59.345
0
LINE
8
BLACK
6
CONTINUOUS
10
68.6865
20
-59.345
11
68.6865
21
-59.1135
0
LINE
8
BLACK
6
CONTINUOUS
10
68.6865
20
-59.1135
11
68.455
21
-59.1135
0
LINE
8
BLACK
6
CONTINUOUS
10
68.455
20
-59.1135
11
68.4101
21
-59.0949
0
LINE
8
BLACK
6
CONTINUOUS
10
68.4101
20
-59.0949
11
68.3915
21
-59.05
0
LINE
8
BLACK
6
CONTINUOUS
10
68.3915
20
-59.05
11
68.4101
21
-59.0051
0
LINE
8
BLACK
6
CONTINUOUS
10
68.4101
20
-59.0051
11
68.455
21
-58.9865
0
LINE
8
BLACK
6
CONTINUOUS
10
68.455
20
-58.9865
11
68.75
21
-58.9865
0
LINE
8
BLACK
6
CONTINUOUS
10
83.4003
20
-58.6276
11
83.4178
21
-58.67
0
LINE
8
BLACK
6
CONTINUOUS
10
83.4178
20
-58.67
11
83.4003
21
-58.7124
0
LINE
8
BLACK
6
CONTINUOUS
10
83.4003
20
-58.7124
11
83.3578
21
-58.73
0
LINE
8
BLACK
6
CONTINUOUS
10
83.3578
20
-58.73
11
83.1422
21
-58.73
0
LINE
8
BLACK
6
CONTINUOUS
10
83.1422
20
-58.73
11
83.0997
21
-58.7124
0
LINE
8
BLACK
6
CONTINUOUS
10
83.0997
20
-58.7124
11
83.0822
21
-58.67
0
LINE
8
BLACK
6
CONTINUOUS
10
83.0822
20
-58.67
11
83.0997
21
-58.6276
0
LINE
8
BLACK
6
CONTINUOUS
10
83.0997
20
-58.6276
11
83.1422
21
-58.61
0
LINE
8
BLACK
6
CONTINUOUS
10
83.1422
20
-58.61
11
83.3578
21
-58.61
0
LINE
8
BLACK
6
CONTINUOUS
10
83.3578
20
-58.61
11
83.4003
21
-58.6276
0
LINE
8
BLACK
6
CONTINUOUS
10
83.8424
20
-56.3876
11
83.86
21
-56.43
0
LINE
8
BLACK
6
CONTINUOUS
10
83.86
20
-56.43
11
83.8424
21
-56.4724
0
LINE
8
BLACK
6
CONTINUOUS
10
83.8424
20
-56.4724
11
83.8
21
-56.49
0
LINE
8
BLACK
6
CONTINUOUS
10
83.8
20
-56.49
11
81.2
21
-56.49
0
LINE
8
BLACK
6
CONTINUOUS
10
81.2
20
-56.49
11
81.2
21
-58.07
0
LINE
8
BLACK
6
CONTINUOUS
10
81.2
20
-58.07
11
83.8
21
-58.07
0
LINE
8
BLACK
6
CONTINUOUS
10
83.8
20
-58.07
11
83.8424
21
-58.0876
0
LINE
8
BLACK
6
CONTINUOUS
10
83.8424
20
-58.0876
11
83.86
21
-58.13
0
LINE
8
BLACK
6
CONTINUOUS
10
83.86
20
-58.13
11
83.8424
21
-58.1724
0
LINE
8
BLACK
6
CONTINUOUS
10
83.8424
20
-58.1724
11
83.8
21
-58.19
0
LINE
8
BLACK
6
CONTINUOUS
10
83.8
20
-58.19
11
81.14
21
-58.19
0
LINE
8
BLACK
6
CONTINUOUS
10
81.14
20
-58.19
11
81.0976
21
-58.1724
0
LINE
8
BLACK
6
CONTINUOUS
10
81.0976
20
-58.1724
11
81.08
21
-58.13
0
LINE
8
BLACK
6
CONTINUOUS
10
81.08
20
-58.13
11
81.08
21
-56.43
0
LINE
8
BLACK
6
CONTINUOUS
10
81.08
20
-56.43
11
81.0976
21
-56.3876
0
LINE
8
BLACK
6
CONTINUOUS
10
81.0976
20
-56.3876
11
81.14
21
-56.37
0
LINE
8
BLACK
6
CONTINUOUS
10
81.14
20
-56.37
11
83.8
21
-56.37
0
LINE
8
BLACK
6
CONTINUOUS
10
83.8
20
-56.37
11
83.8424
21
-56.3876
0
LINE
8
BLACK
6
CONTINUOUS
10
67.0174
20
-57.1497
11
67.035
21
-57.1922
0
LINE
8
BLACK
6
CONTINUOUS
10
67.035
20
-57.1922
11
67.035
21
-57.4078
0
LINE
8
BLACK
6
CONTINUOUS
10
67.035
20
-57.4078
11
67.0174
21
-57.4503
0
LINE
8
BLACK
6
CONTINUOUS
10
67.0174
20
-57.4503
11
66.975
21
-57.4678
0
LINE
8
BLACK
6
CONTINUOUS
10
66.975
20
-57.4678
11
66.9326
21
-57.4503
0
LINE
8
BLACK
6
CONTINUOUS
10
66.9326
20
-57.4503
11
66.915
21
-57.4078
0
LINE
8
BLACK
6
CONTINUOUS
10
66.915
20
-57.4078
11
66.915
21
-57.1922
0
LINE
8
BLACK
6
CONTINUOUS
10
66.915
20
-57.1922
11
66.9326
21
-57.1497
0
LINE
8
BLACK
6
CONTINUOUS
10
66.9326
20
-57.1497
11
66.975
21
-57.1322
0
LINE
8
BLACK
6
CONTINUOUS
10
66.975
20
-57.1322
11
67.0174
21
-57.1497
0
LINE
8
BLACK
6
CONTINUOUS
10
67.7374
20
-57.1497
11
67.755
21
-57.1922
0
LINE
8
BLACK
6
CONTINUOUS
10
67.755
20
-57.1922
11
67.755
21
-57.4078
0
LINE
8
BLACK
6
CONTINUOUS
10
67.755
20
-57.4078
11
67.7374
21
-57.4503
0
LINE
8
BLACK
6
CONTINUOUS
10
67.7374
20
-57.4503
11
67.695
21
-57.4678
0
LINE
8
BLACK
6
CONTINUOUS
10
67.695
20
-57.4678
11
67.6526
21
-57.4503
0
LINE
8
BLACK
6
CONTINUOUS
10
67.6526
20
-57.4503
11
67.635
21
-57.4078
0
LINE
8
BLACK
6
CONTINUOUS
10
67.635
20
-57.4078
11
67.635
21
-57.1922
0
LINE
8
BLACK
6
CONTINUOUS
10
67.635
20
-57.1922
11
67.6526
21
-57.1497
0
LINE
8
BLACK
6
CONTINUOUS
10
67.6526
20
-57.1497
11
67.695
21
-57.1322
0
LINE
8
BLACK
6
CONTINUOUS
10
67.695
20
-57.1322
11
67.7374
21
-57.1497
0
LINE
8
BLACK
6
CONTINUOUS
10
68.0174
20
-57.1497
11
68.035
21
-57.1922
0
LINE
8
BLACK
6
CONTINUOUS
10
68.035
20
-57.1922
11
68.035
21
-57.4078
0
LINE
8
BLACK
6
CONTINUOUS
10
68.035
20
-57.4078
11
68.0174
21
-57.4503
0
LINE
8
BLACK
6
CONTINUOUS
10
68.0174
20
-57.4503
11
67.975
21
-57.4678
0
LINE
8
BLACK
6
CONTINUOUS
10
67.975
20
-57.4678
11
67.9326
21
-57.4503
0
LINE
8
BLACK
6
CONTINUOUS
10
67.9326
20
-57.4503
11
67.915
21
-57.4078
0
LINE
8
BLACK
6
CONTINUOUS
10
67.915
20
-57.4078
11
67.915
21
-57.1922
0
LINE
8
BLACK
6
CONTINUOUS
10
67.915
20
-57.1922
11
67.9326
21
-57.1497
0
LINE
8
BLACK
6
CONTINUOUS
10
67.9326
20
-57.1497
11
67.975
21
-57.1322
0
LINE
8
BLACK
6
CONTINUOUS
10
67.975
20
-57.1322
11
68.0174
21
-57.1497
0
LINE
8
BLACK
6
CONTINUOUS
10
68.7374
20
-57.1497
11
68.755
21
-57.1922
0
LINE
8
BLACK
6
CONTINUOUS
10
68.755
20
-57.1922
11
68.755
21
-57.4078
0
LINE
8
BLACK
6
CONTINUOUS
10
68.755
20
-57.4078
11
68.7374
21
-57.4503
0
LINE
8
BLACK
6
CONTINUOUS
10
68.7374
20
-57.4503
11
68.695
21
-57.4678
0
LINE
8
BLACK
6
CONTINUOUS
10
68.695
20
-57.4678
11
68.6526
21
-57.4503
0
LINE
8
BLACK
6
CONTINUOUS
10
68.6526
20
-57.4503
11
68.635
21
-57.4078
0
LINE
8
BLACK
6
CONTINUOUS
10
68.635
20
-57.4078
11
68.635
21
-57.1922
0
LINE
8
BLACK
6
CONTINUOUS
10
68.635
20
-57.1922
11
68.6526
21
-57.1497
0
LINE
8
BLACK
6
CONTINUOUS
10
68.6526
20
-57.1497
11
68.695
21
-57.1322
0
LINE
8
BLACK
6
CONTINUOUS
10
68.695
20
-57.1322
11
68.7374
21
-57.1497
0
LINE
8
BLACK
6
CONTINUOUS
10
41.6299
20
-55.8851
11
41.6475
21
-55.9275
0
LINE
8
BLACK
6
CONTINUOUS
10
41.6475
20
-55.9275
11
41.6299
21
-55.9699
0
LINE
8
BLACK
6
CONTINUOUS
10
41.6299
20
-55.9699
11
41.5875
21
-55.9875
0
LINE
8
BLACK
6
CONTINUOUS
10
41.5875
20
-55.9875
11
39.3625
21
-55.9875
0
LINE
8
BLACK
6
CONTINUOUS
10
39.3625
20
-55.9875
11
39.3625
21
-57.3375
0
LINE
8
BLACK
6
CONTINUOUS
10
39.3625
20
-57.3375
11
41.5875
21
-57.3375
0
LINE
8
BLACK
6
CONTINUOUS
10
41.5875
20
-57.3375
11
41.6299
21
-57.3551
0
LINE
8
BLACK
6
CONTINUOUS
10
41.6299
20
-57.3551
11
41.6475
21
-57.3975
0
LINE
8
BLACK
6
CONTINUOUS
10
41.6475
20
-57.3975
11
41.6299
21
-57.4399
0
LINE
8
BLACK
6
CONTINUOUS
10
41.6299
20
-57.4399
11
41.5875
21
-57.4575
0
LINE
8
BLACK
6
CONTINUOUS
10
41.5875
20
-57.4575
11
39.3025
21
-57.4575
0
LINE
8
BLACK
6
CONTINUOUS
10
39.3025
20
-57.4575
11
39.2601
21
-57.4399
0
LINE
8
BLACK
6
CONTINUOUS
10
39.2601
20
-57.4399
11
39.2425
21
-57.3975
0
LINE
8
BLACK
6
CONTINUOUS
10
39.2425
20
-57.3975
11
39.2425
21
-57.3975
0
LINE
8
BLACK
6
CONTINUOUS
10
39.2425
20
-57.3975
11
39.2425
21
-55.9275
0
LINE
8
BLACK
6
CONTINUOUS
10
39.2425
20
-55.9275
11
39.2601
21
-55.8851
0
LINE
8
BLACK
6
CONTINUOUS
10
39.2601
20
-55.8851
11
39.3025
21
-55.8675
0
LINE
8
BLACK
6
CONTINUOUS
10
39.3025
20
-55.8675
11
41.5875
21
-55.8675
0
LINE
8
BLACK
6
CONTINUOUS
10
41.5875
20
-55.8675
11
41.6299
21
-55.8851
0
LINE
8
BLACK
6
CONTINUOUS
10
69.1424
20
-56.3063
11
69.16
21
-56.3487
0
LINE
8
BLACK
6
CONTINUOUS
10
69.16
20
-56.3487
11
69.16
21
-56.8713
0
LINE
8
BLACK
6
CONTINUOUS
10
69.16
20
-56.8713
11
69.1424
21
-56.9137
0
LINE
8
BLACK
6
CONTINUOUS
10
69.1424
20
-56.9137
11
69.1
21
-56.9313
0
LINE
8
BLACK
6
CONTINUOUS
10
69.1
20
-56.9313
11
69.0576
21
-56.9137
0
LINE
8
BLACK
6
CONTINUOUS
10
69.0576
20
-56.9137
11
69.04
21
-56.8713
0
LINE
8
BLACK
6
CONTINUOUS
10
69.04
20
-56.8713
11
69.04
21
-56.3487
0
LINE
8
BLACK
6
CONTINUOUS
10
69.04
20
-56.3487
11
69.0576
21
-56.3063
0
LINE
8
BLACK
6
CONTINUOUS
10
69.0576
20
-56.3063
11
69.1
21
-56.2887
0
LINE
8
BLACK
6
CONTINUOUS
10
69.1
20
-56.2887
11
69.1424
21
-56.3063
0
LINE
8
BLACK
6
CONTINUOUS
10
70.6124
20
-56.3063
11
70.63
21
-56.3487
0
LINE
8
BLACK
6
CONTINUOUS
10
70.63
20
-56.3487
11
70.63
21
-56.8713
0
LINE
8
BLACK
6
CONTINUOUS
10
70.63
20
-56.8713
11
70.6124
21
-56.9137
0
LINE
8
BLACK
6
CONTINUOUS
10
70.6124
20
-56.9137
11
70.57
21
-56.9313
0
LINE
8
BLACK
6
CONTINUOUS
10
70.57
20
-56.9313
11
70.5276
21
-56.9137
0
LINE
8
BLACK
6
CONTINUOUS
10
70.5276
20
-56.9137
11
70.51
21
-56.8713
0
LINE
8
BLACK
6
CONTINUOUS
10
70.51
20
-56.8713
11
70.51
21
-56.3487
0
LINE
8
BLACK
6
CONTINUOUS
10
70.51
20
-56.3487
11
70.5276
21
-56.3063
0
LINE
8
BLACK
6
CONTINUOUS
10
70.5276
20
-56.3063
11
70.57
21
-56.2887
0
LINE
8
BLACK
6
CONTINUOUS
10
70.57
20
-56.2887
11
70.6124
21
-56.3063
0
LINE
8
BLACK
6
CONTINUOUS
10
42.8199
20
-55.0453
11
42.8375
21
-55.0877
0
LINE
8
BLACK
6
CONTINUOUS
10
42.8375
20
-55.0877
11
42.8375
21
-55.5623
0
LINE
8
BLACK
6
CONTINUOUS
10
42.8375
20
-55.5623
11
42.8199
21
-55.6047
0
LINE
8
BLACK
6
CONTINUOUS
10
42.8199
20
-55.6047
11
42.7775
21
-55.6223
0
LINE
8
BLACK
6
CONTINUOUS
10
42.7775
20
-55.6223
11
42.7351
21
-55.6047
0
LINE
8
BLACK
6
CONTINUOUS
10
42.7351
20
-55.6047
11
42.7175
21
-55.5623
0
LINE
8
BLACK
6
CONTINUOUS
10
42.7175
20
-55.5623
11
42.7175
21
-55.0877
0
LINE
8
BLACK
6
CONTINUOUS
10
42.7175
20
-55.0877
11
42.7351
21
-55.0453
0
LINE
8
BLACK
6
CONTINUOUS
10
42.7351
20
-55.0453
11
42.7775
21
-55.0277
0
LINE
8
BLACK
6
CONTINUOUS
10
42.7775
20
-55.0277
11
42.8199
21
-55.0453
0
LINE
8
BLACK
6
CONTINUOUS
10
43.8649
20
-55.0453
11
43.8825
21
-55.0877
0
LINE
8
BLACK
6
CONTINUOUS
10
43.8825
20
-55.0877
11
43.8825
21
-55.5623
0
LINE
8
BLACK
6
CONTINUOUS
10
43.8825
20
-55.5623
11
43.8649
21
-55.6047
0
LINE
8
BLACK
6
CONTINUOUS
10
43.8649
20
-55.6047
11
43.8225
21
-55.6223
0
LINE
8
BLACK
6
CONTINUOUS
10
43.8225
20
-55.6223
11
43.7801
21
-55.6047
0
LINE
8
BLACK
6
CONTINUOUS
10
43.7801
20
-55.6047
11
43.7625
21
-55.5623
0
LINE
8
BLACK
6
CONTINUOUS
10
43.7625
20
-55.5623
11
43.7625
21
-55.0877
0
LINE
8
BLACK
6
CONTINUOUS
10
43.7625
20
-55.0877
11
43.7801
21
-55.0453
0
LINE
8
BLACK
6
CONTINUOUS
10
43.7801
20
-55.0453
11
43.8225
21
-55.0277
0
LINE
8
BLACK
6
CONTINUOUS
10
43.8225
20
-55.0277
11
43.8649
21
-55.0453
0
LINE
8
BLACK
6
CONTINUOUS
10
44.5074
20
-55.0555
11
44.525
21
-55.0979
0
LINE
8
BLACK
6
CONTINUOUS
10
44.525
20
-55.0979
11
44.525
21
-55.5521
0
LINE
8
BLACK
6
CONTINUOUS
10
44.525
20
-55.5521
11
44.5074
21
-55.5945
0
LINE
8
BLACK
6
CONTINUOUS
10
44.5074
20
-55.5945
11
44.465
21
-55.6121
0
LINE
8
BLACK
6
CONTINUOUS
10
44.465
20
-55.6121
11
44.4226
21
-55.5945
0
LINE
8
BLACK
6
CONTINUOUS
10
44.4226
20
-55.5945
11
44.405
21
-55.5521
0
LINE
8
BLACK
6
CONTINUOUS
10
44.405
20
-55.5521
11
44.405
21
-55.0979
0
LINE
8
BLACK
6
CONTINUOUS
10
44.405
20
-55.0979
11
44.4226
21
-55.0555
0
LINE
8
BLACK
6
CONTINUOUS
10
44.4226
20
-55.0555
11
44.465
21
-55.0379
0
LINE
8
BLACK
6
CONTINUOUS
10
44.465
20
-55.0379
11
44.5074
21
-55.0555
0
LINE
8
BLACK
6
CONTINUOUS
10
45.9774
20
-55.0555
11
45.995
21
-55.0979
0
LINE
8
BLACK
6
CONTINUOUS
10
45.995
20
-55.0979
11
45.995
21
-55.5521
0
LINE
8
BLACK
6
CONTINUOUS
10
45.995
20
-55.5521
11
45.9774
21
-55.5945
0
LINE
8
BLACK
6
CONTINUOUS
10
45.9774
20
-55.5945
11
45.935
21
-55.6121
0
LINE
8
BLACK
6
CONTINUOUS
10
45.935
20
-55.6121
11
45.8926
21
-55.5945
0
LINE
8
BLACK
6
CONTINUOUS
10
45.8926
20
-55.5945
11
45.875
21
-55.5521
0
LINE
8
BLACK
6
CONTINUOUS
10
45.875
20
-55.5521
11
45.875
21
-55.0979
0
LINE
8
BLACK
6
CONTINUOUS
10
45.875
20
-55.0979
11
45.8926
21
-55.0555
0
LINE
8
BLACK
6
CONTINUOUS
10
45.8926
20
-55.0555
11
45.935
21
-55.0379
0
LINE
8
BLACK
6
CONTINUOUS
10
45.935
20
-55.0379
11
45.9774
21
-55.0555
0
LINE
8
BLACK
6
CONTINUOUS
10
41.8799
20
-53.7826
11
41.8975
21
-53.825
0
LINE
8
BLACK
6
CONTINUOUS
10
41.8975
20
-53.825
11
41.8799
21
-53.8674
0
LINE
8
BLACK
6
CONTINUOUS
10
41.8799
20
-53.8674
11
41.8375
21
-53.885
0
LINE
8
BLACK
6
CONTINUOUS
10
41.8375
20
-53.885
11
39.2375
21
-53.885
0
LINE
8
BLACK
6
CONTINUOUS
10
39.2375
20
-53.885
11
39.2375
21
-55.465
0
LINE
8
BLACK
6
CONTINUOUS
10
39.2375
20
-55.465
11
41.8375
21
-55.465
0
LINE
8
BLACK
6
CONTINUOUS
10
41.8375
20
-55.465
11
41.8799
21
-55.4826
0
LINE
8
BLACK
6
CONTINUOUS
10
41.8799
20
-55.4826
11
41.8975
21
-55.525
0
LINE
8
BLACK
6
CONTINUOUS
10
41.8975
20
-55.525
11
41.8799
21
-55.5674
0
LINE
8
BLACK
6
CONTINUOUS
10
41.8799
20
-55.5674
11
41.8375
21
-55.585
0
LINE
8
BLACK
6
CONTINUOUS
10
41.8375
20
-55.585
11
39.1775
21
-55.585
0
LINE
8
BLACK
6
CONTINUOUS
10
39.1775
20
-55.585
11
39.1351
21
-55.5674
0
LINE
8
BLACK
6
CONTINUOUS
10
39.1351
20
-55.5674
11
39.1175
21
-55.525
0
LINE
8
BLACK
6
CONTINUOUS
10
39.1175
20
-55.525
11
39.1175
21
-55.525
0
LINE
8
BLACK
6
CONTINUOUS
10
39.1175
20
-55.525
11
39.1175
21
-53.825
0
LINE
8
BLACK
6
CONTINUOUS
10
39.1175
20
-53.825
11
39.1351
21
-53.7826
0
LINE
8
BLACK
6
CONTINUOUS
10
39.1351
20
-53.7826
11
39.1775
21
-53.765
0
LINE
8
BLACK
6
CONTINUOUS
10
39.1775
20
-53.765
11
41.8375
21
-53.765
0
LINE
8
BLACK
6
CONTINUOUS
10
41.8375
20
-53.765
11
41.8799
21
-53.7826
0
LINE
8
BLACK
6
CONTINUOUS
10
62.2699
20
-54.2703
11
62.2875
21
-54.3127
0
LINE
8
BLACK
6
CONTINUOUS
10
62.2875
20
-54.3127
11
62.2875
21
-54.7873
0
LINE
8
BLACK
6
CONTINUOUS
10
62.2875
20
-54.7873
11
62.2699
21
-54.8297
0
LINE
8
BLACK
6
CONTINUOUS
10
62.2699
20
-54.8297
11
62.2275
21
-54.8473
0
LINE
8
BLACK
6
CONTINUOUS
10
62.2275
20
-54.8473
11
62.1851
21
-54.8297
0
LINE
8
BLACK
6
CONTINUOUS
10
62.1851
20
-54.8297
11
62.1675
21
-54.7873
0
LINE
8
BLACK
6
CONTINUOUS
10
62.1675
20
-54.7873
11
62.1675
21
-54.3127
0
LINE
8
BLACK
6
CONTINUOUS
10
62.1675
20
-54.3127
11
62.1851
21
-54.2703
0
LINE
8
BLACK
6
CONTINUOUS
10
62.1851
20
-54.2703
11
62.2275
21
-54.2527
0
LINE
8
BLACK
6
CONTINUOUS
10
62.2275
20
-54.2527
11
62.2699
21
-54.2703
0
LINE
8
BLACK
6
CONTINUOUS
10
63.3149
20
-54.2703
11
63.3325
21
-54.3127
0
LINE
8
BLACK
6
CONTINUOUS
10
63.3325
20
-54.3127
11
63.3325
21
-54.7873
0
LINE
8
BLACK
6
CONTINUOUS
10
63.3325
20
-54.7873
11
63.3149
21
-54.8297
0
LINE
8
BLACK
6
CONTINUOUS
10
63.3149
20
-54.8297
11
63.2725
21
-54.8473
0
LINE
8
BLACK
6
CONTINUOUS
10
63.2725
20
-54.8473
11
63.2301
21
-54.8297
0
LINE
8
BLACK
6
CONTINUOUS
10
63.2301
20
-54.8297
11
63.2125
21
-54.7873
0
LINE
8
BLACK
6
CONTINUOUS
10
63.2125
20
-54.7873
11
63.2125
21
-54.3127
0
LINE
8
BLACK
6
CONTINUOUS
10
63.2125
20
-54.3127
11
63.2301
21
-54.2703
0
LINE
8
BLACK
6
CONTINUOUS
10
63.2301
20
-54.2703
11
63.2725
21
-54.2527
0
LINE
8
BLACK
6
CONTINUOUS
10
63.2725
20
-54.2527
11
63.3149
21
-54.2703
0
LINE
8
BLACK
6
CONTINUOUS
10
58.7199
20
-54.2578
11
58.7375
21
-54.3002
0
LINE
8
BLACK
6
CONTINUOUS
10
58.7375
20
-54.3002
11
58.7375
21
-54.7748
0
LINE
8
BLACK
6
CONTINUOUS
10
58.7375
20
-54.7748
11
58.7199
21
-54.8172
0
LINE
8
BLACK
6
CONTINUOUS
10
58.7199
20
-54.8172
11
58.6775
21
-54.8348
0
LINE
8
BLACK
6
CONTINUOUS
10
58.6775
20
-54.8348
11
58.6351
21
-54.8172
0
LINE
8
BLACK
6
CONTINUOUS
10
58.6351
20
-54.8172
11
58.6175
21
-54.7748
0
LINE
8
BLACK
6
CONTINUOUS
10
58.6175
20
-54.7748
11
58.6175
21
-54.3002
0
LINE
8
BLACK
6
CONTINUOUS
10
58.6175
20
-54.3002
11
58.6351
21
-54.2578
0
LINE
8
BLACK
6
CONTINUOUS
10
58.6351
20
-54.2578
11
58.6775
21
-54.2402
0
LINE
8
BLACK
6
CONTINUOUS
10
58.6775
20
-54.2402
11
58.7199
21
-54.2578
0
LINE
8
BLACK
6
CONTINUOUS
10
59.7649
20
-54.2578
11
59.7825
21
-54.3002
0
LINE
8
BLACK
6
CONTINUOUS
10
59.7825
20
-54.3002
11
59.7825
21
-54.7748
0
LINE
8
BLACK
6
CONTINUOUS
10
59.7825
20
-54.7748
11
59.7649
21
-54.8172
0
LINE
8
BLACK
6
CONTINUOUS
10
59.7649
20
-54.8172
11
59.7225
21
-54.8348
0
LINE
8
BLACK
6
CONTINUOUS
10
59.7225
20
-54.8348
11
59.6801
21
-54.8172
0
LINE
8
BLACK
6
CONTINUOUS
10
59.6801
20
-54.8172
11
59.6625
21
-54.7748
0
LINE
8
BLACK
6
CONTINUOUS
10
59.6625
20
-54.7748
11
59.6625
21
-54.3002
0
LINE
8
BLACK
6
CONTINUOUS
10
59.6625
20
-54.3002
11
59.6801
21
-54.2578
0
LINE
8
BLACK
6
CONTINUOUS
10
59.6801
20
-54.2578
11
59.7225
21
-54.2402
0
LINE
8
BLACK
6
CONTINUOUS
10
59.7225
20
-54.2402
11
59.7649
21
-54.2578
0
LINE
8
BLACK
6
CONTINUOUS
10
53.1249
20
-54.2128
11
53.1425
21
-54.2552
0
LINE
8
BLACK
6
CONTINUOUS
10
53.1425
20
-54.2552
11
53.1425
21
-54.7298
0
LINE
8
BLACK
6
CONTINUOUS
10
53.1425
20
-54.7298
11
53.1249
21
-54.7722
0
LINE
8
BLACK
6
CONTINUOUS
10
53.1249
20
-54.7722
11
53.0825
21
-54.7898
0
LINE
8
BLACK
6
CONTINUOUS
10
53.0825
20
-54.7898
11
53.0401
21
-54.7722
0
LINE
8
BLACK
6
CONTINUOUS
10
53.0401
20
-54.7722
11
53.0225
21
-54.7298
0
LINE
8
BLACK
6
CONTINUOUS
10
53.0225
20
-54.7298
11
53.0225
21
-54.2552
0
LINE
8
BLACK
6
CONTINUOUS
10
53.0225
20
-54.2552
11
53.0401
21
-54.2128
0
LINE
8
BLACK
6
CONTINUOUS
10
53.0401
20
-54.2128
11
53.0825
21
-54.1952
0
LINE
8
BLACK
6
CONTINUOUS
10
53.0825
20
-54.1952
11
53.1249
21
-54.2128
0
LINE
8
BLACK
6
CONTINUOUS
10
54.1699
20
-54.2128
11
54.1875
21
-54.2552
0
LINE
8
BLACK
6
CONTINUOUS
10
54.1875
20
-54.2552
11
54.1875
21
-54.7298
0
LINE
8
BLACK
6
CONTINUOUS
10
54.1875
20
-54.7298
11
54.1699
21
-54.7722
0
LINE
8
BLACK
6
CONTINUOUS
10
54.1699
20
-54.7722
11
54.1275
21
-54.7898
0
LINE
8
BLACK
6
CONTINUOUS
10
54.1275
20
-54.7898
11
54.0851
21
-54.7722
0
LINE
8
BLACK
6
CONTINUOUS
10
54.0851
20
-54.7722
11
54.0675
21
-54.7298
0
LINE
8
BLACK
6
CONTINUOUS
10
54.0675
20
-54.7298
11
54.0675
21
-54.2552
0
LINE
8
BLACK
6
CONTINUOUS
10
54.0675
20
-54.2552
11
54.0851
21
-54.2128
0
LINE
8
BLACK
6
CONTINUOUS
10
54.0851
20
-54.2128
11
54.1275
21
-54.1952
0
LINE
8
BLACK
6
CONTINUOUS
10
54.1275
20
-54.1952
11
54.1699
21
-54.2128
0
LINE
8
BLACK
6
CONTINUOUS
10
65.7199
20
-54.1578
11
65.7375
21
-54.2002
0
LINE
8
BLACK
6
CONTINUOUS
10
65.7375
20
-54.2002
11
65.7375
21
-54.6748
0
LINE
8
BLACK
6
CONTINUOUS
10
65.7375
20
-54.6748
11
65.7199
21
-54.7172
0
LINE
8
BLACK
6
CONTINUOUS
10
65.7199
20
-54.7172
11
65.6775
21
-54.7348
0
LINE
8
BLACK
6
CONTINUOUS
10
65.6775
20
-54.7348
11
65.6351
21
-54.7172
0
LINE
8
BLACK
6
CONTINUOUS
10
65.6351
20
-54.7172
11
65.6175
21
-54.6748
0
LINE
8
BLACK
6
CONTINUOUS
10
65.6175
20
-54.6748
11
65.6175
21
-54.2002
0
LINE
8
BLACK
6
CONTINUOUS
10
65.6175
20
-54.2002
11
65.6351
21
-54.1578
0
LINE
8
BLACK
6
CONTINUOUS
10
65.6351
20
-54.1578
11
65.6775
21
-54.1402
0
LINE
8
BLACK
6
CONTINUOUS
10
65.6775
20
-54.1402
11
65.7199
21
-54.1578
0
LINE
8
BLACK
6
CONTINUOUS
10
66.7649
20
-54.1578
11
66.7825
21
-54.2002
0
LINE
8
BLACK
6
CONTINUOUS
10
66.7825
20
-54.2002
11
66.7825
21
-54.6748
0
LINE
8
BLACK
6
CONTINUOUS
10
66.7825
20
-54.6748
11
66.7649
21
-54.7172
0
LINE
8
BLACK
6
CONTINUOUS
10
66.7649
20
-54.7172
11
66.7225
21
-54.7348
0
LINE
8
BLACK
6
CONTINUOUS
10
66.7225
20
-54.7348
11
66.6801
21
-54.7172
0
LINE
8
BLACK
6
CONTINUOUS
10
66.6801
20
-54.7172
11
66.6625
21
-54.6748
0
LINE
8
BLACK
6
CONTINUOUS
10
66.6625
20
-54.6748
11
66.6625
21
-54.2002
0
LINE
8
BLACK
6
CONTINUOUS
10
66.6625
20
-54.2002
11
66.6801
21
-54.1578
0
LINE
8
BLACK
6
CONTINUOUS
10
66.6801
20
-54.1578
11
66.7225
21
-54.1402
0
LINE
8
BLACK
6
CONTINUOUS
10
66.7225
20
-54.1402
11
66.7649
21
-54.1578
0
LINE
8
BLACK
6
CONTINUOUS
10
41.6299
20
-51.9101
11
41.6475
21
-51.9525
0
LINE
8
BLACK
6
CONTINUOUS
10
41.6475
20
-51.9525
11
41.6299
21
-51.9949
0
LINE
8
BLACK
6
CONTINUOUS
10
41.6299
20
-51.9949
11
41.5875
21
-52.0125
0
LINE
8
BLACK
6
CONTINUOUS
10
41.5875
20
-52.0125
11
39.3625
21
-52.0125
0
LINE
8
BLACK
6
CONTINUOUS
10
39.3625
20
-52.0125
11
39.3625
21
-53.3625
0
LINE
8
BLACK
6
CONTINUOUS
10
39.3625
20
-53.3625
11
41.5875
21
-53.3625
0
LINE
8
BLACK
6
CONTINUOUS
10
41.5875
20
-53.3625
11
41.6299
21
-53.3801
0
LINE
8
BLACK
6
CONTINUOUS
10
41.6299
20
-53.3801
11
41.6475
21
-53.4225
0
LINE
8
BLACK
6
CONTINUOUS
10
41.6475
20
-53.4225
11
41.6299
21
-53.4649
0
LINE
8
BLACK
6
CONTINUOUS
10
41.6299
20
-53.4649
11
41.5875
21
-53.4825
0
LINE
8
BLACK
6
CONTINUOUS
10
41.5875
20
-53.4825
11
39.3025
21
-53.4825
0
LINE
8
BLACK
6
CONTINUOUS
10
39.3025
20
-53.4825
11
39.2601
21
-53.4649
0
LINE
8
BLACK
6
CONTINUOUS
10
39.2601
20
-53.4649
11
39.2425
21
-53.4225
0
LINE
8
BLACK
6
CONTINUOUS
10
39.2425
20
-53.4225
11
39.2425
21
-53.4225
0
LINE
8
BLACK
6
CONTINUOUS
10
39.2425
20
-53.4225
11
39.2425
21
-51.9525
0
LINE
8
BLACK
6
CONTINUOUS
10
39.2425
20
-51.9525
11
39.2601
21
-51.9101
0
LINE
8
BLACK
6
CONTINUOUS
10
39.2601
20
-51.9101
11
39.3025
21
-51.8925
0
LINE
8
BLACK
6
CONTINUOUS
10
39.3025
20
-51.8925
11
41.5875
21
-51.8925
0
LINE
8
BLACK
6
CONTINUOUS
10
41.5875
20
-51.8925
11
41.6299
21
-51.9101
0
LINE
8
BLACK
6
CONTINUOUS
10
62.1824
20
-50.2451
11
62.2
21
-50.2875
0
LINE
8
BLACK
6
CONTINUOUS
10
62.2
20
-50.2875
11
62.2
21
-50.9375
0
LINE
8
BLACK
6
CONTINUOUS
10
62.2
20
-50.9375
11
62.2
21
-50.9375
0
LINE
8
BLACK
6
CONTINUOUS
10
62.2
20
-50.9375
11
62.2
21
-52.6125
0
LINE
8
BLACK
6
CONTINUOUS
10
62.2
20
-52.6125
11
62.1824
21
-52.6549
0
LINE
8
BLACK
6
CONTINUOUS
10
62.1824
20
-52.6549
11
62.14
21
-52.6725
0
LINE
8
BLACK
6
CONTINUOUS
10
62.14
20
-52.6725
11
62.0976
21
-52.6549
0
LINE
8
BLACK
6
CONTINUOUS
10
62.0976
20
-52.6549
11
62.08
21
-52.6125
0
LINE
8
BLACK
6
CONTINUOUS
10
62.08
20
-52.6125
11
62.08
21
-50.9375
0
LINE
8
BLACK
6
CONTINUOUS
10
62.08
20
-50.9375
11
62.08
21
-50.9375
0
LINE
8
BLACK
6
CONTINUOUS
10
62.08
20
-50.9375
11
62.08
21
-50.2875
0
LINE
8
BLACK
6
CONTINUOUS
10
62.08
20
-50.2875
11
62.0976
21
-50.2451
0
LINE
8
BLACK
6
CONTINUOUS
10
62.0976
20
-50.2451
11
62.14
21
-50.2275
0
LINE
8
BLACK
6
CONTINUOUS
10
62.14
20
-50.2275
11
62.1824
21
-50.2451
0
LINE
8
BLACK
6
CONTINUOUS
10
65.6824
20
-50.2451
11
65.7
21
-50.2875
0
LINE
8
BLACK
6
CONTINUOUS
10
65.7
20
-50.2875
11
65.7
21
-50.9375
0
LINE
8
BLACK
6
CONTINUOUS
10
65.7
20
-50.9375
11
65.7
21
-50.9375
0
LINE
8
BLACK
6
CONTINUOUS
10
65.7
20
-50.9375
11
65.7
21
-52.6125
0
LINE
8
BLACK
6
CONTINUOUS
10
65.7
20
-52.6125
11
65.6824
21
-52.6549
0
LINE
8
BLACK
6
CONTINUOUS
10
65.6824
20
-52.6549
11
65.64
21
-52.6725
0
LINE
8
BLACK
6
CONTINUOUS
10
65.64
20
-52.6725
11
65.5976
21
-52.6549
0
LINE
8
BLACK
6
CONTINUOUS
10
65.5976
20
-52.6549
11
65.58
21
-52.6125
0
LINE
8
BLACK
6
CONTINUOUS
10
65.58
20
-52.6125
11
65.58
21
-50.9375
0
LINE
8
BLACK
6
CONTINUOUS
10
65.58
20
-50.9375
11
65.58
21
-50.9375
0
LINE
8
BLACK
6
CONTINUOUS
10
65.58
20
-50.9375
11
65.58
21
-50.2875
0
LINE
8
BLACK
6
CONTINUOUS
10
65.58
20
-50.2875
11
65.5976
21
-50.2451
0
LINE
8
BLACK
6
CONTINUOUS
10
65.5976
20
-50.2451
11
65.64
21
-50.2275
0
LINE
8
BLACK
6
CONTINUOUS
10
65.64
20
-50.2275
11
65.6824
21
-50.2451
0
LINE
8
BLACK
6
CONTINUOUS
10
58.6824
20
-50.2076
11
58.7
21
-50.25
0
LINE
8
BLACK
6
CONTINUOUS
10
58.7
20
-50.25
11
58.7
21
-50.9
0
LINE
8
BLACK
6
CONTINUOUS
10
58.7
20
-50.9
11
58.7
21
-52.575
0
LINE
8
BLACK
6
CONTINUOUS
10
58.7
20
-52.575
11
58.6824
21
-52.6174
0
LINE
8
BLACK
6
CONTINUOUS
10
58.6824
20
-52.6174
11
58.64
21
-52.635
0
LINE
8
BLACK
6
CONTINUOUS
10
58.64
20
-52.635
11
58.5976
21
-52.6174
0
LINE
8
BLACK
6
CONTINUOUS
10
58.5976
20
-52.6174
11
58.58
21
-52.575
0
LINE
8
BLACK
6
CONTINUOUS
10
58.58
20
-52.575
11
58.58
21
-50.9
0
LINE
8
BLACK
6
CONTINUOUS
10
58.58
20
-50.9
11
58.58
21
-50.25
0
LINE
8
BLACK
6
CONTINUOUS
10
58.58
20
-50.25
11
58.5976
21
-50.2076
0
LINE
8
BLACK
6
CONTINUOUS
10
58.5976
20
-50.2076
11
58.64
21
-50.19
0
LINE
8
BLACK
6
CONTINUOUS
10
58.64
20
-50.19
11
58.6824
21
-50.2076
0
LINE
8
BLACK
6
CONTINUOUS
10
53.0074
20
-50.1701
11
53.025
21
-50.2125
0
LINE
8
BLACK
6
CONTINUOUS
10
53.025
20
-50.2125
11
53.025
21
-50.8625
0
LINE
8
BLACK
6
CONTINUOUS
10
53.025
20
-50.8625
11
53.025
21
-52.5375
0
LINE
8
BLACK
6
CONTINUOUS
10
53.025
20
-52.5375
11
53.0074
21
-52.5799
0
LINE
8
BLACK
6
CONTINUOUS
10
53.0074
20
-52.5799
11
52.965
21
-52.5975
0
LINE
8
BLACK
6
CONTINUOUS
10
52.965
20
-52.5975
11
52.9226
21
-52.5799
0
LINE
8
BLACK
6
CONTINUOUS
10
52.9226
20
-52.5799
11
52.905
21
-52.5375
0
LINE
8
BLACK
6
CONTINUOUS
10
52.905
20
-52.5375
11
52.905
21
-50.8625
0
LINE
8
BLACK
6
CONTINUOUS
10
52.905
20
-50.8625
11
52.905
21
-50.8625
0
LINE
8
BLACK
6
CONTINUOUS
10
52.905
20
-50.8625
11
52.905
21
-50.2125
0
LINE
8
BLACK
6
CONTINUOUS
10
52.905
20
-50.2125
11
52.9226
21
-50.1701
0
LINE
8
BLACK
6
CONTINUOUS
10
52.9226
20
-50.1701
11
52.965
21
-50.1525
0
LINE
8
BLACK
6
CONTINUOUS
10
52.965
20
-50.1525
11
53.0074
21
-50.1701
0
LINE
8
BLACK
6
CONTINUOUS
10
74.5753
20
-51.6451
11
74.5928
21
-51.6875
0
LINE
8
BLACK
6
CONTINUOUS
10
74.5928
20
-51.6875
11
74.5753
21
-51.7299
0
LINE
8
BLACK
6
CONTINUOUS
10
74.5753
20
-51.7299
11
74.5328
21
-51.7475
0
LINE
8
BLACK
6
CONTINUOUS
10
74.5328
20
-51.7475
11
74.3172
21
-51.7475
0
LINE
8
BLACK
6
CONTINUOUS
10
74.3172
20
-51.7475
11
74.2747
21
-51.7299
0
LINE
8
BLACK
6
CONTINUOUS
10
74.2747
20
-51.7299
11
74.2572
21
-51.6875
0
LINE
8
BLACK
6
CONTINUOUS
10
74.2572
20
-51.6875
11
74.2747
21
-51.6451
0
LINE
8
BLACK
6
CONTINUOUS
10
74.2747
20
-51.6451
11
74.3172
21
-51.6275
0
LINE
8
BLACK
6
CONTINUOUS
10
74.3172
20
-51.6275
11
74.5328
21
-51.6275
0
LINE
8
BLACK
6
CONTINUOUS
10
74.5328
20
-51.6275
11
74.5753
21
-51.6451
0
LINE
8
BLACK
6
CONTINUOUS
10
65.3024
20
-50.2451
11
65.32
21
-50.2875
0
LINE
8
BLACK
6
CONTINUOUS
10
65.32
20
-50.2875
11
65.32
21
-50.9375
0
LINE
8
BLACK
6
CONTINUOUS
10
65.32
20
-50.9375
11
65.32
21
-50.9375
0
LINE
8
BLACK
6
CONTINUOUS
10
65.32
20
-50.9375
11
65.32
21
-51.5875
0
LINE
8
BLACK
6
CONTINUOUS
10
65.32
20
-51.5875
11
65.3024
21
-51.6299
0
LINE
8
BLACK
6
CONTINUOUS
10
65.3024
20
-51.6299
11
65.26
21
-51.6475
0
LINE
8
BLACK
6
CONTINUOUS
10
65.26
20
-51.6475
11
65.2176
21
-51.6299
0
LINE
8
BLACK
6
CONTINUOUS
10
65.2176
20
-51.6299
11
65.2
21
-51.5875
0
LINE
8
BLACK
6
CONTINUOUS
10
65.2
20
-51.5875
11
65.2
21
-50.9375
0
LINE
8
BLACK
6
CONTINUOUS
10
65.2
20
-50.9375
11
65.2
21
-50.9375
0
LINE
8
BLACK
6
CONTINUOUS
10
65.2
20
-50.9375
11
65.2
21
-50.2875
0
LINE
8
BLACK
6
CONTINUOUS
10
65.2
20
-50.2875
11
65.2176
21
-50.2451
0
LINE
8
BLACK
6
CONTINUOUS
10
65.2176
20
-50.2451
11
65.26
21
-50.2275
0
LINE
8
BLACK
6
CONTINUOUS
10
65.26
20
-50.2275
11
65.3024
21
-50.2451
0
LINE
8
BLACK
6
CONTINUOUS
10
68.8024
20
-50.2451
11
68.82
21
-50.2875
0
LINE
8
BLACK
6
CONTINUOUS
10
68.82
20
-50.2875
11
68.82
21
-50.9375
0
LINE
8
BLACK
6
CONTINUOUS
10
68.82
20
-50.9375
11
68.82
21
-50.9375
0
LINE
8
BLACK
6
CONTINUOUS
10
68.82
20
-50.9375
11
68.82
21
-51.5875
0
LINE
8
BLACK
6
CONTINUOUS
10
68.82
20
-51.5875
11
68.8024
21
-51.6299
0
LINE
8
BLACK
6
CONTINUOUS
10
68.8024
20
-51.6299
11
68.76
21
-51.6475
0
LINE
8
BLACK
6
CONTINUOUS
10
68.76
20
-51.6475
11
68.7176
21
-51.6299
0
LINE
8
BLACK
6
CONTINUOUS
10
68.7176
20
-51.6299
11
68.7
21
-51.5875
0
LINE
8
BLACK
6
CONTINUOUS
10
68.7
20
-51.5875
11
68.7
21
-50.9375
0
LINE
8
BLACK
6
CONTINUOUS
10
68.7
20
-50.9375
11
68.7
21
-50.9375
0
LINE
8
BLACK
6
CONTINUOUS
10
68.7
20
-50.9375
11
68.7
21
-50.2875
0
LINE
8
BLACK
6
CONTINUOUS
10
68.7
20
-50.2875
11
68.7176
21
-50.2451
0
LINE
8
BLACK
6
CONTINUOUS
10
68.7176
20
-50.2451
11
68.76
21
-50.2275
0
LINE
8
BLACK
6
CONTINUOUS
10
68.76
20
-50.2275
11
68.8024
21
-50.2451
0
LINE
8
BLACK
6
CONTINUOUS
10
42.8199
20
-51.0703
11
42.8375
21
-51.1127
0
LINE
8
BLACK
6
CONTINUOUS
10
42.8375
20
-51.1127
11
42.8375
21
-51.5873
0
LINE
8
BLACK
6
CONTINUOUS
10
42.8375
20
-51.5873
11
42.8199
21
-51.6297
0
LINE
8
BLACK
6
CONTINUOUS
10
42.8199
20
-51.6297
11
42.7775
21
-51.6473
0
LINE
8
BLACK
6
CONTINUOUS
10
42.7775
20
-51.6473
11
42.7351
21
-51.6297
0
LINE
8
BLACK
6
CONTINUOUS
10
42.7351
20
-51.6297
11
42.7175
21
-51.5873
0
LINE
8
BLACK
6
CONTINUOUS
10
42.7175
20
-51.5873
11
42.7175
21
-51.1127
0
LINE
8
BLACK
6
CONTINUOUS
10
42.7175
20
-51.1127
11
42.7351
21
-51.0703
0
LINE
8
BLACK
6
CONTINUOUS
10
42.7351
20
-51.0703
11
42.7775
21
-51.0527
0
LINE
8
BLACK
6
CONTINUOUS
10
42.7775
20
-51.0527
11
42.8199
21
-51.0703
0
LINE
8
BLACK
6
CONTINUOUS
10
43.8649
20
-51.0703
11
43.8825
21
-51.1127
0
LINE
8
BLACK
6
CONTINUOUS
10
43.8825
20
-51.1127
11
43.8825
21
-51.5873
0
LINE
8
BLACK
6
CONTINUOUS
10
43.8825
20
-51.5873
11
43.8649
21
-51.6297
0
LINE
8
BLACK
6
CONTINUOUS
10
43.8649
20
-51.6297
11
43.8225
21
-51.6473
0
LINE
8
BLACK
6
CONTINUOUS
10
43.8225
20
-51.6473
11
43.7801
21
-51.6297
0
LINE
8
BLACK
6
CONTINUOUS
10
43.7801
20
-51.6297
11
43.7625
21
-51.5873
0
LINE
8
BLACK
6
CONTINUOUS
10
43.7625
20
-51.5873
11
43.7625
21
-51.1127
0
LINE
8
BLACK
6
CONTINUOUS
10
43.7625
20
-51.1127
11
43.7801
21
-51.0703
0
LINE
8
BLACK
6
CONTINUOUS
10
43.7801
20
-51.0703
11
43.8225
21
-51.0527
0
LINE
8
BLACK
6
CONTINUOUS
10
43.8225
20
-51.0527
11
43.8649
21
-51.0703
0
LINE
8
BLACK
6
CONTINUOUS
10
44.5074
20
-51.0805
11
44.525
21
-51.1229
0
LINE
8
BLACK
6
CONTINUOUS
10
44.525
20
-51.1229
11
44.525
21
-51.5771
0
LINE
8
BLACK
6
CONTINUOUS
10
44.525
20
-51.5771
11
44.5074
21
-51.6195
0
LINE
8
BLACK
6
CONTINUOUS
10
44.5074
20
-51.6195
11
44.465
21
-51.6371
0
LINE
8
BLACK
6
CONTINUOUS
10
44.465
20
-51.6371
11
44.4226
21
-51.6195
0
LINE
8
BLACK
6
CONTINUOUS
10
44.4226
20
-51.6195
11
44.405
21
-51.5771
0
LINE
8
BLACK
6
CONTINUOUS
10
44.405
20
-51.5771
11
44.405
21
-51.1229
0
LINE
8
BLACK
6
CONTINUOUS
10
44.405
20
-51.1229
11
44.4226
21
-51.0805
0
LINE
8
BLACK
6
CONTINUOUS
10
44.4226
20
-51.0805
11
44.465
21
-51.0629
0
LINE
8
BLACK
6
CONTINUOUS
10
44.465
20
-51.0629
11
44.5074
21
-51.0805
0
LINE
8
BLACK
6
CONTINUOUS
10
45.9774
20
-51.0805
11
45.995
21
-51.1229
0
LINE
8
BLACK
6
CONTINUOUS
10
45.995
20
-51.1229
11
45.995
21
-51.5771
0
LINE
8
BLACK
6
CONTINUOUS
10
45.995
20
-51.5771
11
45.9774
21
-51.6195
0
LINE
8
BLACK
6
CONTINUOUS
10
45.9774
20
-51.6195
11
45.935
21
-51.6371
0
LINE
8
BLACK
6
CONTINUOUS
10
45.935
20
-51.6371
11
45.8926
21
-51.6195
0
LINE
8
BLACK
6
CONTINUOUS
10
45.8926
20
-51.6195
11
45.875
21
-51.5771
0
LINE
8
BLACK
6
CONTINUOUS
10
45.875
20
-51.5771
11
45.875
21
-51.1229
0
LINE
8
BLACK
6
CONTINUOUS
10
45.875
20
-51.1229
11
45.8926
21
-51.0805
0
LINE
8
BLACK
6
CONTINUOUS
10
45.8926
20
-51.0805
11
45.935
21
-51.0629
0
LINE
8
BLACK
6
CONTINUOUS
10
45.935
20
-51.0629
11
45.9774
21
-51.0805
0
LINE
8
BLACK
6
CONTINUOUS
10
41.8299
20
-49.8076
11
41.8475
21
-49.85
0
LINE
8
BLACK
6
CONTINUOUS
10
41.8475
20
-49.85
11
41.8299
21
-49.8924
0
LINE
8
BLACK
6
CONTINUOUS
10
41.8299
20
-49.8924
11
41.7875
21
-49.91
0
LINE
8
BLACK
6
CONTINUOUS
10
41.7875
20
-49.91
11
39.1875
21
-49.91
0
LINE
8
BLACK
6
CONTINUOUS
10
39.1875
20
-49.91
11
39.1875
21
-51.49
0
LINE
8
BLACK
6
CONTINUOUS
10
39.1875
20
-51.49
11
41.7875
21
-51.49
0
LINE
8
BLACK
6
CONTINUOUS
10
41.7875
20
-51.49
11
41.8299
21
-51.5076
0
LINE
8
BLACK
6
CONTINUOUS
10
41.8299
20
-51.5076
11
41.8475
21
-51.55
0
LINE
8
BLACK
6
CONTINUOUS
10
41.8475
20
-51.55
11
41.8299
21
-51.5924
0
LINE
8
BLACK
6
CONTINUOUS
10
41.8299
20
-51.5924
11
41.7875
21
-51.61
0
LINE
8
BLACK
6
CONTINUOUS
10
41.7875
20
-51.61
11
39.1275
21
-51.61
0
LINE
8
BLACK
6
CONTINUOUS
10
39.1275
20
-51.61
11
39.0851
21
-51.5924
0
LINE
8
BLACK
6
CONTINUOUS
10
39.0851
20
-51.5924
11
39.0675
21
-51.55
0
LINE
8
BLACK
6
CONTINUOUS
10
39.0675
20
-51.55
11
39.0675
21
-49.85
0
LINE
8
BLACK
6
CONTINUOUS
10
39.0675
20
-49.85
11
39.0851
21
-49.8076
0
LINE
8
BLACK
6
CONTINUOUS
10
39.0851
20
-49.8076
11
39.1275
21
-49.79
0
LINE
8
BLACK
6
CONTINUOUS
10
39.1275
20
-49.79
11
41.7875
21
-49.79
0
LINE
8
BLACK
6
CONTINUOUS
10
41.7875
20
-49.79
11
41.8299
21
-49.8076
0
LINE
8
BLACK
6
CONTINUOUS
10
61.8024
20
-50.2076
11
61.82
21
-50.25
0
LINE
8
BLACK
6
CONTINUOUS
10
61.82
20
-50.25
11
61.82
21
-50.9
0
LINE
8
BLACK
6
CONTINUOUS
10
61.82
20
-50.9
11
61.82
21
-51.55
0
LINE
8
BLACK
6
CONTINUOUS
10
61.82
20
-51.55
11
61.8024
21
-51.5924
0
LINE
8
BLACK
6
CONTINUOUS
10
61.8024
20
-51.5924
11
61.76
21
-51.61
0
LINE
8
BLACK
6
CONTINUOUS
10
61.76
20
-51.61
11
61.7176
21
-51.5924
0
LINE
8
BLACK
6
CONTINUOUS
10
61.7176
20
-51.5924
11
61.7
21
-51.55
0
LINE
8
BLACK
6
CONTINUOUS
10
61.7
20
-51.55
11
61.7
21
-50.9
0
LINE
8
BLACK
6
CONTINUOUS
10
61.7
20
-50.9
11
61.7
21
-50.25
0
LINE
8
BLACK
6
CONTINUOUS
10
61.7
20
-50.25
11
61.7176
21
-50.2076
0
LINE
8
BLACK
6
CONTINUOUS
10
61.7176
20
-50.2076
11
61.76
21
-50.19
0
LINE
8
BLACK
6
CONTINUOUS
10
61.76
20
-50.19
11
61.8024
21
-50.2076
0
LINE
8
BLACK
6
CONTINUOUS
10
56.1274
20
-50.1701
11
56.145
21
-50.2125
0
LINE
8
BLACK
6
CONTINUOUS
10
56.145
20
-50.2125
11
56.145
21
-50.8625
0
LINE
8
BLACK
6
CONTINUOUS
10
56.145
20
-50.8625
11
56.145
21
-51.5125
0
LINE
8
BLACK
6
CONTINUOUS
10
56.145
20
-51.5125
11
56.1274
21
-51.5549
0
LINE
8
BLACK
6
CONTINUOUS
10
56.1274
20
-51.5549
11
56.085
21
-51.5725
0
LINE
8
BLACK
6
CONTINUOUS
10
56.085
20
-51.5725
11
56.0426
21
-51.5549
0
LINE
8
BLACK
6
CONTINUOUS
10
56.0426
20
-51.5549
11
56.025
21
-51.5125
0
LINE
8
BLACK
6
CONTINUOUS
10
56.025
20
-51.5125
11
56.025
21
-50.8625
0
LINE
8
BLACK
6
CONTINUOUS
10
56.025
20
-50.8625
11
56.025
21
-50.8625
0
LINE
8
BLACK
6
CONTINUOUS
10
56.025
20
-50.8625
11
56.025
21
-50.2125
0
LINE
8
BLACK
6
CONTINUOUS
10
56.025
20
-50.2125
11
56.0426
21
-50.1701
0
LINE
8
BLACK
6
CONTINUOUS
10
56.0426
20
-50.1701
11
56.085
21
-50.1525
0
LINE
8
BLACK
6
CONTINUOUS
10
56.085
20
-50.1525
11
56.1274
21
-50.1701
0
LINE
8
BLACK
6
CONTINUOUS
10
74.5753
20
-50.9251
11
74.5928
21
-50.9675
0
LINE
8
BLACK
6
CONTINUOUS
10
74.5928
20
-50.9675
11
74.5753
21
-51.0099
0
LINE
8
BLACK
6
CONTINUOUS
10
74.5753
20
-51.0099
11
74.5328
21
-51.0275
0
LINE
8
BLACK
6
CONTINUOUS
10
74.5328
20
-51.0275
11
74.3172
21
-51.0275
0
LINE
8
BLACK
6
CONTINUOUS
10
74.3172
20
-51.0275
11
74.2747
21
-51.0099
0
LINE
8
BLACK
6
CONTINUOUS
10
74.2747
20
-51.0099
11
74.2572
21
-50.9675
0
LINE
8
BLACK
6
CONTINUOUS
10
74.2572
20
-50.9675
11
74.2747
21
-50.9251
0
LINE
8
BLACK
6
CONTINUOUS
10
74.2747
20
-50.9251
11
74.3172
21
-50.9075
0
LINE
8
BLACK
6
CONTINUOUS
10
74.3172
20
-50.9075
11
74.5328
21
-50.9075
0
LINE
8
BLACK
6
CONTINUOUS
10
74.5328
20
-50.9075
11
74.5753
21
-50.9251
0
LINE
8
BLACK
6
CONTINUOUS
10
71.8474
20
-44.9826
11
71.865
21
-45.025
0
LINE
8
BLACK
6
CONTINUOUS
10
71.865
20
-45.025
11
71.865
21
-46.975
0
LINE
8
BLACK
6
CONTINUOUS
10
71.865
20
-46.975
11
71.865
21
-46.975
0
LINE
8
BLACK
6
CONTINUOUS
10
71.865
20
-46.975
11
71.865
21
-50.425
0
LINE
8
BLACK
6
CONTINUOUS
10
71.865
20
-50.425
11
71.8474
21
-50.4674
0
LINE
8
BLACK
6
CONTINUOUS
10
71.8474
20
-50.4674
11
71.805
21
-50.485
0
LINE
8
BLACK
6
CONTINUOUS
10
71.805
20
-50.485
11
71.7626
21
-50.4674
0
LINE
8
BLACK
6
CONTINUOUS
10
71.7626
20
-50.4674
11
71.745
21
-50.425
0
LINE
8
BLACK
6
CONTINUOUS
10
71.745
20
-50.425
11
71.745
21
-46.975
0
LINE
8
BLACK
6
CONTINUOUS
10
71.745
20
-46.975
11
71.745
21
-46.975
0
LINE
8
BLACK
6
CONTINUOUS
10
71.745
20
-46.975
11
71.745
21
-45.025
0
LINE
8
BLACK
6
CONTINUOUS
10
71.745
20
-45.025
11
71.7626
21
-44.9826
0
LINE
8
BLACK
6
CONTINUOUS
10
71.7626
20
-44.9826
11
71.805
21
-44.965
0
LINE
8
BLACK
6
CONTINUOUS
10
71.805
20
-44.965
11
71.8474
21
-44.9826
0
LINE
8
BLACK
6
CONTINUOUS
10
41.6299
20
-47.9351
11
41.6475
21
-47.9775
0
LINE
8
BLACK
6
CONTINUOUS
10
41.6475
20
-47.9775
11
41.6299
21
-48.0199
0
LINE
8
BLACK
6
CONTINUOUS
10
41.6299
20
-48.0199
11
41.5875
21
-48.0375
0
LINE
8
BLACK
6
CONTINUOUS
10
41.5875
20
-48.0375
11
39.3625
21
-48.0375
0
LINE
8
BLACK
6
CONTINUOUS
10
39.3625
20
-48.0375
11
39.3625
21
-49.3875
0
LINE
8
BLACK
6
CONTINUOUS
10
39.3625
20
-49.3875
11
41.5875
21
-49.3875
0
LINE
8
BLACK
6
CONTINUOUS
10
41.5875
20
-49.3875
11
41.6299
21
-49.4051
0
LINE
8
BLACK
6
CONTINUOUS
10
41.6299
20
-49.4051
11
41.6475
21
-49.4475
0
LINE
8
BLACK
6
CONTINUOUS
10
41.6475
20
-49.4475
11
41.6299
21
-49.4899
0
LINE
8
BLACK
6
CONTINUOUS
10
41.6299
20
-49.4899
11
41.5875
21
-49.5075
0
LINE
8
BLACK
6
CONTINUOUS
10
41.5875
20
-49.5075
11
39.3025
21
-49.5075
0
LINE
8
BLACK
6
CONTINUOUS
10
39.3025
20
-49.5075
11
39.2601
21
-49.4899
0
LINE
8
BLACK
6
CONTINUOUS
10
39.2601
20
-49.4899
11
39.2425
21
-49.4475
0
LINE
8
BLACK
6
CONTINUOUS
10
39.2425
20
-49.4475
11
39.2425
21
-49.4475
0
LINE
8
BLACK
6
CONTINUOUS
10
39.2425
20
-49.4475
11
39.2425
21
-47.9775
0
LINE
8
BLACK
6
CONTINUOUS
10
39.2425
20
-47.9775
11
39.2601
21
-47.9351
0
LINE
8
BLACK
6
CONTINUOUS
10
39.2601
20
-47.9351
11
39.3025
21
-47.9175
0
LINE
8
BLACK
6
CONTINUOUS
10
39.3025
20
-47.9175
11
41.5875
21
-47.9175
0
LINE
8
BLACK
6
CONTINUOUS
10
41.5875
20
-47.9175
11
41.6299
21
-47.9351
0
LINE
8
BLACK
6
CONTINUOUS
10
85.8787
20
-49.3926
11
85.8963
21
-49.435
0
LINE
8
BLACK
6
CONTINUOUS
10
85.8963
20
-49.435
11
85.8787
21
-49.4774
0
LINE
8
BLACK
6
CONTINUOUS
10
85.8787
20
-49.4774
11
85.8363
21
-49.495
0
LINE
8
BLACK
6
CONTINUOUS
10
85.8363
20
-49.495
11
85.3137
21
-49.495
0
LINE
8
BLACK
6
CONTINUOUS
10
85.3137
20
-49.495
11
85.2713
21
-49.4774
0
LINE
8
BLACK
6
CONTINUOUS
10
85.2713
20
-49.4774
11
85.2537
21
-49.435
0
LINE
8
BLACK
6
CONTINUOUS
10
85.2537
20
-49.435
11
85.2713
21
-49.3926
0
LINE
8
BLACK
6
CONTINUOUS
10
85.2713
20
-49.3926
11
85.3137
21
-49.375
0
LINE
8
BLACK
6
CONTINUOUS
10
85.3137
20
-49.375
11
85.8363
21
-49.375
0
LINE
8
BLACK
6
CONTINUOUS
10
85.8363
20
-49.375
11
85.8787
21
-49.3926
0
LINE
8
BLACK
6
CONTINUOUS
10
76.9674
20
-44.9826
11
76.985
21
-45.025
0
LINE
8
BLACK
6
CONTINUOUS
10
76.985
20
-45.025
11
76.985
21
-46.975
0
LINE
8
BLACK
6
CONTINUOUS
10
76.985
20
-46.975
11
76.985
21
-46.975
0
LINE
8
BLACK
6
CONTINUOUS
10
76.985
20
-46.975
11
76.985
21
-48.925
0
LINE
8
BLACK
6
CONTINUOUS
10
76.985
20
-48.925
11
76.9674
21
-48.9674
0
LINE
8
BLACK
6
CONTINUOUS
10
76.9674
20
-48.9674
11
76.925
21
-48.985
0
LINE
8
BLACK
6
CONTINUOUS
10
76.925
20
-48.985
11
76.8826
21
-48.9674
0
LINE
8
BLACK
6
CONTINUOUS
10
76.8826
20
-48.9674
11
76.865
21
-48.925
0
LINE
8
BLACK
6
CONTINUOUS
10
76.865
20
-48.925
11
76.865
21
-46.975
0
LINE
8
BLACK
6
CONTINUOUS
10
76.865
20
-46.975
11
76.865
21
-46.975
0
LINE
8
BLACK
6
CONTINUOUS
10
76.865
20
-46.975
11
76.865
21
-45.025
0
LINE
8
BLACK
6
CONTINUOUS
10
76.865
20
-45.025
11
76.8826
21
-44.9826
0
LINE
8
BLACK
6
CONTINUOUS
10
76.8826
20
-44.9826
11
76.925
21
-44.965
0
LINE
8
BLACK
6
CONTINUOUS
10
76.925
20
-44.965
11
76.9674
21
-44.9826
0
LINE
8
BLACK
6
CONTINUOUS
10
77.8024
20
-48.158
11
77.82
21
-48.2004
0
LINE
8
BLACK
6
CONTINUOUS
10
77.82
20
-48.2004
11
77.82
21
-48.6546
0
LINE
8
BLACK
6
CONTINUOUS
10
77.82
20
-48.6546
11
77.8024
21
-48.697
0
LINE
8
BLACK
6
CONTINUOUS
10
77.8024
20
-48.697
11
77.76
21
-48.7146
0
LINE
8
BLACK
6
CONTINUOUS
10
77.76
20
-48.7146
11
77.7176
21
-48.697
0
LINE
8
BLACK
6
CONTINUOUS
10
77.7176
20
-48.697
11
77.7
21
-48.6546
0
LINE
8
BLACK
6
CONTINUOUS
10
77.7
20
-48.6546
11
77.7
21
-48.2004
0
LINE
8
BLACK
6
CONTINUOUS
10
77.7
20
-48.2004
11
77.7176
21
-48.158
0
LINE
8
BLACK
6
CONTINUOUS
10
77.7176
20
-48.158
11
77.76
21
-48.1404
0
LINE
8
BLACK
6
CONTINUOUS
10
77.76
20
-48.1404
11
77.8024
21
-48.158
0
LINE
8
BLACK
6
CONTINUOUS
10
79.2724
20
-48.158
11
79.29
21
-48.2004
0
LINE
8
BLACK
6
CONTINUOUS
10
79.29
20
-48.2004
11
79.29
21
-48.6546
0
LINE
8
BLACK
6
CONTINUOUS
10
79.29
20
-48.6546
11
79.2724
21
-48.697
0
LINE
8
BLACK
6
CONTINUOUS
10
79.2724
20
-48.697
11
79.23
21
-48.7146
0
LINE
8
BLACK
6
CONTINUOUS
10
79.23
20
-48.7146
11
79.1876
21
-48.697
0
LINE
8
BLACK
6
CONTINUOUS
10
79.1876
20
-48.697
11
79.17
21
-48.6546
0
LINE
8
BLACK
6
CONTINUOUS
10
79.17
20
-48.6546
11
79.17
21
-48.2004
0
LINE
8
BLACK
6
CONTINUOUS
10
79.17
20
-48.2004
11
79.1876
21
-48.158
0
LINE
8
BLACK
6
CONTINUOUS
10
79.1876
20
-48.158
11
79.23
21
-48.1404
0
LINE
8
BLACK
6
CONTINUOUS
10
79.23
20
-48.1404
11
79.2724
21
-48.158
0
LINE
8
BLACK
6
CONTINUOUS
10
54.2074
20
-47.7747
11
54.225
21
-47.8172
0
LINE
8
BLACK
6
CONTINUOUS
10
54.225
20
-47.8172
11
54.225
21
-48.0328
0
LINE
8
BLACK
6
CONTINUOUS
10
54.225
20
-48.0328
11
54.2074
21
-48.0753
0
LINE
8
BLACK
6
CONTINUOUS
10
54.2074
20
-48.0753
11
54.165
21
-48.0928
0
LINE
8
BLACK
6
CONTINUOUS
10
54.165
20
-48.0928
11
54.1226
21
-48.0753
0
LINE
8
BLACK
6
CONTINUOUS
10
54.1226
20
-48.0753
11
54.105
21
-48.0328
0
LINE
8
BLACK
6
CONTINUOUS
10
54.105
20
-48.0328
11
54.105
21
-47.8172
0
LINE
8
BLACK
6
CONTINUOUS
10
54.105
20
-47.8172
11
54.1226
21
-47.7747
0
LINE
8
BLACK
6
CONTINUOUS
10
54.1226
20
-47.7747
11
54.165
21
-47.7572
0
LINE
8
BLACK
6
CONTINUOUS
10
54.165
20
-47.7572
11
54.2074
21
-47.7747
0
LINE
8
BLACK
6
CONTINUOUS
10
54.9274
20
-47.7747
11
54.945
21
-47.8172
0
LINE
8
BLACK
6
CONTINUOUS
10
54.945
20
-47.8172
11
54.945
21
-48.0328
0
LINE
8
BLACK
6
CONTINUOUS
10
54.945
20
-48.0328
11
54.9274
21
-48.0753
0
LINE
8
BLACK
6
CONTINUOUS
10
54.9274
20
-48.0753
11
54.885
21
-48.0928
0
LINE
8
BLACK
6
CONTINUOUS
10
54.885
20
-48.0928
11
54.8426
21
-48.0753
0
LINE
8
BLACK
6
CONTINUOUS
10
54.8426
20
-48.0753
11
54.825
21
-48.0328
0
LINE
8
BLACK
6
CONTINUOUS
10
54.825
20
-48.0328
11
54.825
21
-47.8172
0
LINE
8
BLACK
6
CONTINUOUS
10
54.825
20
-47.8172
11
54.8426
21
-47.7747
0
LINE
8
BLACK
6
CONTINUOUS
10
54.8426
20
-47.7747
11
54.885
21
-47.7572
0
LINE
8
BLACK
6
CONTINUOUS
10
54.885
20
-47.7572
11
54.9274
21
-47.7747
0
LINE
8
BLACK
6
CONTINUOUS
10
85.8787
20
-47.9226
11
85.8963
21
-47.965
0
LINE
8
BLACK
6
CONTINUOUS
10
85.8963
20
-47.965
11
85.8787
21
-48.0074
0
LINE
8
BLACK
6
CONTINUOUS
10
85.8787
20
-48.0074
11
85.8363
21
-48.025
0
LINE
8
BLACK
6
CONTINUOUS
10
85.8363
20
-48.025
11
85.3137
21
-48.025
0
LINE
8
BLACK
6
CONTINUOUS
10
85.3137
20
-48.025
11
85.2713
21
-48.0074
0
LINE
8
BLACK
6
CONTINUOUS
10
85.2713
20
-48.0074
11
85.2537
21
-47.965
0
LINE
8
BLACK
6
CONTINUOUS
10
85.2537
20
-47.965
11
85.2713
21
-47.9226
0
LINE
8
BLACK
6
CONTINUOUS
10
85.2713
20
-47.9226
11
85.3137
21
-47.905
0
LINE
8
BLACK
6
CONTINUOUS
10
85.3137
20
-47.905
11
85.8363
21
-47.905
0
LINE
8
BLACK
6
CONTINUOUS
10
85.8363
20
-47.905
11
85.8787
21
-47.9226
0
LINE
8
BLACK
6
CONTINUOUS
10
42.8199
20
-47.0953
11
42.8375
21
-47.1377
0
LINE
8
BLACK
6
CONTINUOUS
10
42.8375
20
-47.1377
11
42.8375
21
-47.6123
0
LINE
8
BLACK
6
CONTINUOUS
10
42.8375
20
-47.6123
11
42.8199
21
-47.6547
0
LINE
8
BLACK
6
CONTINUOUS
10
42.8199
20
-47.6547
11
42.7775
21
-47.6723
0
LINE
8
BLACK
6
CONTINUOUS
10
42.7775
20
-47.6723
11
42.7351
21
-47.6547
0
LINE
8
BLACK
6
CONTINUOUS
10
42.7351
20
-47.6547
11
42.7175
21
-47.6123
0
LINE
8
BLACK
6
CONTINUOUS
10
42.7175
20
-47.6123
11
42.7175
21
-47.1377
0
LINE
8
BLACK
6
CONTINUOUS
10
42.7175
20
-47.1377
11
42.7351
21
-47.0953
0
LINE
8
BLACK
6
CONTINUOUS
10
42.7351
20
-47.0953
11
42.7775
21
-47.0777
0
LINE
8
BLACK
6
CONTINUOUS
10
42.7775
20
-47.0777
11
42.8199
21
-47.0953
0
LINE
8
BLACK
6
CONTINUOUS
10
43.8649
20
-47.0953
11
43.8825
21
-47.1377
0
LINE
8
BLACK
6
CONTINUOUS
10
43.8825
20
-47.1377
11
43.8825
21
-47.6123
0
LINE
8
BLACK
6
CONTINUOUS
10
43.8825
20
-47.6123
11
43.8649
21
-47.6547
0
LINE
8
BLACK
6
CONTINUOUS
10
43.8649
20
-47.6547
11
43.8225
21
-47.6723
0
LINE
8
BLACK
6
CONTINUOUS
10
43.8225
20
-47.6723
11
43.7801
21
-47.6547
0
LINE
8
BLACK
6
CONTINUOUS
10
43.7801
20
-47.6547
11
43.7625
21
-47.6123
0
LINE
8
BLACK
6
CONTINUOUS
10
43.7625
20
-47.6123
11
43.7625
21
-47.1377
0
LINE
8
BLACK
6
CONTINUOUS
10
43.7625
20
-47.1377
11
43.7801
21
-47.0953
0
LINE
8
BLACK
6
CONTINUOUS
10
43.7801
20
-47.0953
11
43.8225
21
-47.0777
0
LINE
8
BLACK
6
CONTINUOUS
10
43.8225
20
-47.0777
11
43.8649
21
-47.0953
0
LINE
8
BLACK
6
CONTINUOUS
10
44.5074
20
-47.1055
11
44.525
21
-47.1479
0
LINE
8
BLACK
6
CONTINUOUS
10
44.525
20
-47.1479
11
44.525
21
-47.6021
0
LINE
8
BLACK
6
CONTINUOUS
10
44.525
20
-47.6021
11
44.5074
21
-47.6445
0
LINE
8
BLACK
6
CONTINUOUS
10
44.5074
20
-47.6445
11
44.465
21
-47.6621
0
LINE
8
BLACK
6
CONTINUOUS
10
44.465
20
-47.6621
11
44.4226
21
-47.6445
0
LINE
8
BLACK
6
CONTINUOUS
10
44.4226
20
-47.6445
11
44.405
21
-47.6021
0
LINE
8
BLACK
6
CONTINUOUS
10
44.405
20
-47.6021
11
44.405
21
-47.1479
0
LINE
8
BLACK
6
CONTINUOUS
10
44.405
20
-47.1479
11
44.4226
21
-47.1055
0
LINE
8
BLACK
6
CONTINUOUS
10
44.4226
20
-47.1055
11
44.465
21
-47.0879
0
LINE
8
BLACK
6
CONTINUOUS
10
44.465
20
-47.0879
11
44.5074
21
-47.1055
0
LINE
8
BLACK
6
CONTINUOUS
10
45.9774
20
-47.1055
11
45.995
21
-47.1479
0
LINE
8
BLACK
6
CONTINUOUS
10
45.995
20
-47.1479
11
45.995
21
-47.6021
0
LINE
8
BLACK
6
CONTINUOUS
10
45.995
20
-47.6021
11
45.9774
21
-47.6445
0
LINE
8
BLACK
6
CONTINUOUS
10
45.9774
20
-47.6445
11
45.935
21
-47.6621
0
LINE
8
BLACK
6
CONTINUOUS
10
45.935
20
-47.6621
11
45.8926
21
-47.6445
0
LINE
8
BLACK
6
CONTINUOUS
10
45.8926
20
-47.6445
11
45.875
21
-47.6021
0
LINE
8
BLACK
6
CONTINUOUS
10
45.875
20
-47.6021
11
45.875
21
-47.1479
0
LINE
8
BLACK
6
CONTINUOUS
10
45.875
20
-47.1479
11
45.8926
21
-47.1055
0
LINE
8
BLACK
6
CONTINUOUS
10
45.8926
20
-47.1055
11
45.935
21
-47.0879
0
LINE
8
BLACK
6
CONTINUOUS
10
45.935
20
-47.0879
11
45.9774
21
-47.1055
0
LINE
8
BLACK
6
CONTINUOUS
10
41.8799
20
-45.8326
11
41.8975
21
-45.875
0
LINE
8
BLACK
6
CONTINUOUS
10
41.8975
20
-45.875
11
41.8799
21
-45.9174
0
LINE
8
BLACK
6
CONTINUOUS
10
41.8799
20
-45.9174
11
41.8375
21
-45.935
0
LINE
8
BLACK
6
CONTINUOUS
10
41.8375
20
-45.935
11
39.2375
21
-45.935
0
LINE
8
BLACK
6
CONTINUOUS
10
39.2375
20
-45.935
11
39.2375
21
-47.515
0
LINE
8
BLACK
6
CONTINUOUS
10
39.2375
20
-47.515
11
41.8375
21
-47.515
0
LINE
8
BLACK
6
CONTINUOUS
10
41.8375
20
-47.515
11
41.8799
21
-47.5326
0
LINE
8
BLACK
6
CONTINUOUS
10
41.8799
20
-47.5326
11
41.8975
21
-47.575
0
LINE
8
BLACK
6
CONTINUOUS
10
41.8975
20
-47.575
11
41.8799
21
-47.6174
0
LINE
8
BLACK
6
CONTINUOUS
10
41.8799
20
-47.6174
11
41.8375
21
-47.635
0
LINE
8
BLACK
6
CONTINUOUS
10
41.8375
20
-47.635
11
39.1775
21
-47.635
0
LINE
8
BLACK
6
CONTINUOUS
10
39.1775
20
-47.635
11
39.1351
21
-47.6174
0
LINE
8
BLACK
6
CONTINUOUS
10
39.1351
20
-47.6174
11
39.1175
21
-47.575
0
LINE
8
BLACK
6
CONTINUOUS
10
39.1175
20
-47.575
11
39.1175
21
-45.875
0
LINE
8
BLACK
6
CONTINUOUS
10
39.1175
20
-45.875
11
39.1351
21
-45.8326
0
LINE
8
BLACK
6
CONTINUOUS
10
39.1351
20
-45.8326
11
39.1775
21
-45.815
0
LINE
8
BLACK
6
CONTINUOUS
10
39.1775
20
-45.815
11
41.8375
21
-45.815
0
LINE
8
BLACK
6
CONTINUOUS
10
41.8375
20
-45.815
11
41.8799
21
-45.8326
0
LINE
8
BLACK
6
CONTINUOUS
10
52.3324
20
-46.8513
11
52.35
21
-46.8937
0
LINE
8
BLACK
6
CONTINUOUS
10
52.35
20
-46.8937
11
52.35
21
-47.4163
0
LINE
8
BLACK
6
CONTINUOUS
10
52.35
20
-47.4163
11
52.3324
21
-47.4587
0
LINE
8
BLACK
6
CONTINUOUS
10
52.3324
20
-47.4587
11
52.29
21
-47.4763
0
LINE
8
BLACK
6
CONTINUOUS
10
52.29
20
-47.4763
11
52.2476
21
-47.4587
0
LINE
8
BLACK
6
CONTINUOUS
10
52.2476
20
-47.4587
11
52.23
21
-47.4163
0
LINE
8
BLACK
6
CONTINUOUS
10
52.23
20
-47.4163
11
52.23
21
-46.8937
0
LINE
8
BLACK
6
CONTINUOUS
10
52.23
20
-46.8937
11
52.2476
21
-46.8513
0
LINE
8
BLACK
6
CONTINUOUS
10
52.2476
20
-46.8513
11
52.29
21
-46.8337
0
LINE
8
BLACK
6
CONTINUOUS
10
52.29
20
-46.8337
11
52.3324
21
-46.8513
0
LINE
8
BLACK
6
CONTINUOUS
10
53.8024
20
-46.8513
11
53.82
21
-46.8937
0
LINE
8
BLACK
6
CONTINUOUS
10
53.82
20
-46.8937
11
53.82
21
-47.4163
0
LINE
8
BLACK
6
CONTINUOUS
10
53.82
20
-47.4163
11
53.8024
21
-47.4587
0
LINE
8
BLACK
6
CONTINUOUS
10
53.8024
20
-47.4587
11
53.76
21
-47.4763
0
LINE
8
BLACK
6
CONTINUOUS
10
53.76
20
-47.4763
11
53.7176
21
-47.4587
0
LINE
8
BLACK
6
CONTINUOUS
10
53.7176
20
-47.4587
11
53.7
21
-47.4163
0
LINE
8
BLACK
6
CONTINUOUS
10
53.7
20
-47.4163
11
53.7
21
-46.8937
0
LINE
8
BLACK
6
CONTINUOUS
10
53.7
20
-46.8937
11
53.7176
21
-46.8513
0
LINE
8
BLACK
6
CONTINUOUS
10
53.7176
20
-46.8513
11
53.76
21
-46.8337
0
LINE
8
BLACK
6
CONTINUOUS
10
53.76
20
-46.8337
11
53.8024
21
-46.8513
0
LINE
8
BLACK
6
CONTINUOUS
10
66.5074
20
-46.918
11
66.525
21
-46.9604
0
LINE
8
BLACK
6
CONTINUOUS
10
66.525
20
-46.9604
11
66.525
21
-47.4146
0
LINE
8
BLACK
6
CONTINUOUS
10
66.525
20
-47.4146
11
66.5074
21
-47.457
0
LINE
8
BLACK
6
CONTINUOUS
10
66.5074
20
-47.457
11
66.465
21
-47.4746
0
LINE
8
BLACK
6
CONTINUOUS
10
66.465
20
-47.4746
11
66.4226
21
-47.457
0
LINE
8
BLACK
6
CONTINUOUS
10
66.4226
20
-47.457
11
66.405
21
-47.4146
0
LINE
8
BLACK
6
CONTINUOUS
10
66.405
20
-47.4146
11
66.405
21
-46.9604
0
LINE
8
BLACK
6
CONTINUOUS
10
66.405
20
-46.9604
11
66.4226
21
-46.918
0
LINE
8
BLACK
6
CONTINUOUS
10
66.4226
20
-46.918
11
66.465
21
-46.9004
0
LINE
8
BLACK
6
CONTINUOUS
10
66.465
20
-46.9004
11
66.5074
21
-46.918
0
LINE
8
BLACK
6
CONTINUOUS
10
67.9774
20
-46.918
11
67.995
21
-46.9604
0
LINE
8
BLACK
6
CONTINUOUS
10
67.995
20
-46.9604
11
67.995
21
-47.4146
0
LINE
8
BLACK
6
CONTINUOUS
10
67.995
20
-47.4146
11
67.9774
21
-47.457
0
LINE
8
BLACK
6
CONTINUOUS
10
67.9774
20
-47.457
11
67.935
21
-47.4746
0
LINE
8
BLACK
6
CONTINUOUS
10
67.935
20
-47.4746
11
67.8926
21
-47.457
0
LINE
8
BLACK
6
CONTINUOUS
10
67.8926
20
-47.457
11
67.875
21
-47.4146
0
LINE
8
BLACK
6
CONTINUOUS
10
67.875
20
-47.4146
11
67.875
21
-46.9604
0
LINE
8
BLACK
6
CONTINUOUS
10
67.875
20
-46.9604
11
67.8926
21
-46.918
0
LINE
8
BLACK
6
CONTINUOUS
10
67.8926
20
-46.918
11
67.935
21
-46.9004
0
LINE
8
BLACK
6
CONTINUOUS
10
67.935
20
-46.9004
11
67.9774
21
-46.918
0
LINE
8
BLACK
6
CONTINUOUS
10
55.3574
20
-46.8805
11
55.375
21
-46.9229
0
LINE
8
BLACK
6
CONTINUOUS
10
55.375
20
-46.9229
11
55.375
21
-47.3771
0
LINE
8
BLACK
6
CONTINUOUS
10
55.375
20
-47.3771
11
55.3574
21
-47.4195
0
LINE
8
BLACK
6
CONTINUOUS
10
55.3574
20
-47.4195
11
55.315
21
-47.4371
0
LINE
8
BLACK
6
CONTINUOUS
10
55.315
20
-47.4371
11
55.2726
21
-47.4195
0
LINE
8
BLACK
6
CONTINUOUS
10
55.2726
20
-47.4195
11
55.255
21
-47.3771
0
LINE
8
BLACK
6
CONTINUOUS
10
55.255
20
-47.3771
11
55.255
21
-46.9229
0
LINE
8
BLACK
6
CONTINUOUS
10
55.255
20
-46.9229
11
55.2726
21
-46.8805
0
LINE
8
BLACK
6
CONTINUOUS
10
55.2726
20
-46.8805
11
55.315
21
-46.8629
0
LINE
8
BLACK
6
CONTINUOUS
10
55.315
20
-46.8629
11
55.3574
21
-46.8805
0
LINE
8
BLACK
6
CONTINUOUS
10
56.8274
20
-46.8805
11
56.845
21
-46.9229
0
LINE
8
BLACK
6
CONTINUOUS
10
56.845
20
-46.9229
11
56.845
21
-47.3771
0
LINE
8
BLACK
6
CONTINUOUS
10
56.845
20
-47.3771
11
56.8274
21
-47.4195
0
LINE
8
BLACK
6
CONTINUOUS
10
56.8274
20
-47.4195
11
56.785
21
-47.4371
0
LINE
8
BLACK
6
CONTINUOUS
10
56.785
20
-47.4371
11
56.7426
21
-47.4195
0
LINE
8
BLACK
6
CONTINUOUS
10
56.7426
20
-47.4195
11
56.725
21
-47.3771
0
LINE
8
BLACK
6
CONTINUOUS
10
56.725
20
-47.3771
11
56.725
21
-46.9229
0
LINE
8
BLACK
6
CONTINUOUS
10
56.725
20
-46.9229
11
56.7426
21
-46.8805
0
LINE
8
BLACK
6
CONTINUOUS
10
56.7426
20
-46.8805
11
56.785
21
-46.8629
0
LINE
8
BLACK
6
CONTINUOUS
10
56.785
20
-46.8629
11
56.8274
21
-46.8805
0
LINE
8
BLACK
6
CONTINUOUS
10
59.5074
20
-46.8805
11
59.525
21
-46.9229
0
LINE
8
BLACK
6
CONTINUOUS
10
59.525
20
-46.9229
11
59.525
21
-47.3771
0
LINE
8
BLACK
6
CONTINUOUS
10
59.525
20
-47.3771
11
59.5074
21
-47.4195
0
LINE
8
BLACK
6
CONTINUOUS
10
59.5074
20
-47.4195
11
59.465
21
-47.4371
0
LINE
8
BLACK
6
CONTINUOUS
10
59.465
20
-47.4371
11
59.4226
21
-47.4195
0
LINE
8
BLACK
6
CONTINUOUS
10
59.4226
20
-47.4195
11
59.405
21
-47.3771
0
LINE
8
BLACK
6
CONTINUOUS
10
59.405
20
-47.3771
11
59.405
21
-46.9229
0
LINE
8
BLACK
6
CONTINUOUS
10
59.405
20
-46.9229
11
59.4226
21
-46.8805
0
LINE
8
BLACK
6
CONTINUOUS
10
59.4226
20
-46.8805
11
59.465
21
-46.8629
0
LINE
8
BLACK
6
CONTINUOUS
10
59.465
20
-46.8629
11
59.5074
21
-46.8805
0
LINE
8
BLACK
6
CONTINUOUS
10
60.9774
20
-46.8805
11
60.995
21
-46.9229
0
LINE
8
BLACK
6
CONTINUOUS
10
60.995
20
-46.9229
11
60.995
21
-47.3771
0
LINE
8
BLACK
6
CONTINUOUS
10
60.995
20
-47.3771
11
60.9774
21
-47.4195
0
LINE
8
BLACK
6
CONTINUOUS
10
60.9774
20
-47.4195
11
60.935
21
-47.4371
0
LINE
8
BLACK
6
CONTINUOUS
10
60.935
20
-47.4371
11
60.8926
21
-47.4195
0
LINE
8
BLACK
6
CONTINUOUS
10
60.8926
20
-47.4195
11
60.875
21
-47.3771
0
LINE
8
BLACK
6
CONTINUOUS
10
60.875
20
-47.3771
11
60.875
21
-46.9229
0
LINE
8
BLACK
6
CONTINUOUS
10
60.875
20
-46.9229
11
60.8926
21
-46.8805
0
LINE
8
BLACK
6
CONTINUOUS
10
60.8926
20
-46.8805
11
60.935
21
-46.8629
0
LINE
8
BLACK
6
CONTINUOUS
10
60.935
20
-46.8629
11
60.9774
21
-46.8805
0
LINE
8
BLACK
6
CONTINUOUS
10
63.0574
20
-46.8555
11
63.075
21
-46.8979
0
LINE
8
BLACK
6
CONTINUOUS
10
63.075
20
-46.8979
11
63.075
21
-47.3521
0
LINE
8
BLACK
6
CONTINUOUS
10
63.075
20
-47.3521
11
63.0574
21
-47.3945
0
LINE
8
BLACK
6
CONTINUOUS
10
63.0574
20
-47.3945
11
63.015
21
-47.4121
0
LINE
8
BLACK
6
CONTINUOUS
10
63.015
20
-47.4121
11
62.9726
21
-47.3945
0
LINE
8
BLACK
6
CONTINUOUS
10
62.9726
20
-47.3945
11
62.955
21
-47.3521
0
LINE
8
BLACK
6
CONTINUOUS
10
62.955
20
-47.3521
11
62.955
21
-46.8979
0
LINE
8
BLACK
6
CONTINUOUS
10
62.955
20
-46.8979
11
62.9726
21
-46.8555
0
LINE
8
BLACK
6
CONTINUOUS
10
62.9726
20
-46.8555
11
63.015
21
-46.8379
0
LINE
8
BLACK
6
CONTINUOUS
10
63.015
20
-46.8379
11
63.0574
21
-46.8555
0
LINE
8
BLACK
6
CONTINUOUS
10
64.5274
20
-46.8555
11
64.545
21
-46.8979
0
LINE
8
BLACK
6
CONTINUOUS
10
64.545
20
-46.8979
11
64.545
21
-47.3521
0
LINE
8
BLACK
6
CONTINUOUS
10
64.545
20
-47.3521
11
64.5274
21
-47.3945
0
LINE
8
BLACK
6
CONTINUOUS
10
64.5274
20
-47.3945
11
64.485
21
-47.4121
0
LINE
8
BLACK
6
CONTINUOUS
10
64.485
20
-47.4121
11
64.4426
21
-47.3945
0
LINE
8
BLACK
6
CONTINUOUS
10
64.4426
20
-47.3945
11
64.425
21
-47.3521
0
LINE
8
BLACK
6
CONTINUOUS
10
64.425
20
-47.3521
11
64.425
21
-46.8979
0
LINE
8
BLACK
6
CONTINUOUS
10
64.425
20
-46.8979
11
64.4426
21
-46.8555
0
LINE
8
BLACK
6
CONTINUOUS
10
64.4426
20
-46.8555
11
64.485
21
-46.8379
0
LINE
8
BLACK
6
CONTINUOUS
10
64.485
20
-46.8379
11
64.5274
21
-46.8555
0
LINE
8
BLACK
6
CONTINUOUS
10
84.4674
20
-40.8476
11
84.485
21
-40.89
0
LINE
8
BLACK
6
CONTINUOUS
10
84.485
20
-40.89
11
84.4674
21
-40.9324
0
LINE
8
BLACK
6
CONTINUOUS
10
84.4674
20
-40.9324
11
84.425
21
-40.95
0
LINE
8
BLACK
6
CONTINUOUS
10
84.425
20
-40.95
11
83.225
21
-40.95
0
LINE
8
BLACK
6
CONTINUOUS
10
83.225
20
-40.95
11
83.225
21
-46.9
0
LINE
8
BLACK
6
CONTINUOUS
10
83.225
20
-46.9
11
83.2074
21
-46.9424
0
LINE
8
BLACK
6
CONTINUOUS
10
83.2074
20
-46.9424
11
83.165
21
-46.96
0
LINE
8
BLACK
6
CONTINUOUS
10
83.165
20
-46.96
11
83.1226
21
-46.9424
0
LINE
8
BLACK
6
CONTINUOUS
10
83.1226
20
-46.9424
11
83.105
21
-46.9
0
LINE
8
BLACK
6
CONTINUOUS
10
83.105
20
-46.9
11
83.105
21
-40.89
0
LINE
8
BLACK
6
CONTINUOUS
10
83.105
20
-40.89
11
83.1226
21
-40.8476
0
LINE
8
BLACK
6
CONTINUOUS
10
83.1226
20
-40.8476
11
83.165
21
-40.83
0
LINE
8
BLACK
6
CONTINUOUS
10
83.165
20
-40.83
11
84.425
21
-40.83
0
LINE
8
BLACK
6
CONTINUOUS
10
84.425
20
-40.83
11
84.4674
21
-40.8476
0
LINE
8
BLACK
6
CONTINUOUS
10
79.345
20
-43.3075
11
79.3874
21
-43.3251
0
LINE
8
BLACK
6
CONTINUOUS
10
79.3874
20
-43.3251
11
79.405
21
-43.3675
0
LINE
8
BLACK
6
CONTINUOUS
10
79.405
20
-43.3675
11
79.405
21
-46.0275
0
LINE
8
BLACK
6
CONTINUOUS
10
79.405
20
-46.0275
11
79.3874
21
-46.0699
0
LINE
8
BLACK
6
CONTINUOUS
10
79.3874
20
-46.0699
11
79.345
21
-46.0875
0
LINE
8
BLACK
6
CONTINUOUS
10
79.345
20
-46.0875
11
79.3026
21
-46.0699
0
LINE
8
BLACK
6
CONTINUOUS
10
79.3026
20
-46.0699
11
79.285
21
-46.0275
0
LINE
8
BLACK
6
CONTINUOUS
10
79.285
20
-46.0275
11
79.285
21
-43.4275
0
LINE
8
BLACK
6
CONTINUOUS
10
79.285
20
-43.4275
11
77.705
21
-43.4275
0
LINE
8
BLACK
6
CONTINUOUS
10
77.705
20
-43.4275
11
77.705
21
-46.0275
0
LINE
8
BLACK
6
CONTINUOUS
10
77.705
20
-46.0275
11
77.6874
21
-46.0699
0
LINE
8
BLACK
6
CONTINUOUS
10
77.6874
20
-46.0699
11
77.645
21
-46.0875
0
LINE
8
BLACK
6
CONTINUOUS
10
77.645
20
-46.0875
11
77.6026
21
-46.0699
0
LINE
8
BLACK
6
CONTINUOUS
10
77.6026
20
-46.0699
11
77.585
21
-46.0275
0
LINE
8
BLACK
6
CONTINUOUS
10
77.585
20
-46.0275
11
77.585
21
-43.3675
0
LINE
8
BLACK
6
CONTINUOUS
10
77.585
20
-43.3675
11
77.6026
21
-43.3251
0
LINE
8
BLACK
6
CONTINUOUS
10
77.6026
20
-43.3251
11
77.645
21
-43.3075
0
LINE
8
BLACK
6
CONTINUOUS
10
77.645
20
-43.3075
11
79.345
21
-43.3075
0
LINE
8
BLACK
6
CONTINUOUS
10
93.2574
20
-45.008
11
93.275
21
-45.0504
0
LINE
8
BLACK
6
CONTINUOUS
10
93.275
20
-45.0504
11
93.275
21
-45.8496
0
LINE
8
BLACK
6
CONTINUOUS
10
93.275
20
-45.8496
11
93.2574
21
-45.892
0
LINE
8
BLACK
6
CONTINUOUS
10
93.2574
20
-45.892
11
93.215
21
-45.9096
0
LINE
8
BLACK
6
CONTINUOUS
10
93.215
20
-45.9096
11
93.1726
21
-45.892
0
LINE
8
BLACK
6
CONTINUOUS
10
93.1726
20
-45.892
11
93.155
21
-45.8496
0
LINE
8
BLACK
6
CONTINUOUS
10
93.155
20
-45.8496
11
93.155
21
-45.0504
0
LINE
8
BLACK
6
CONTINUOUS
10
93.155
20
-45.0504
11
93.1726
21
-45.008
0
LINE
8
BLACK
6
CONTINUOUS
10
93.1726
20
-45.008
11
93.215
21
-44.9904
0
LINE
8
BLACK
6
CONTINUOUS
10
93.215
20
-44.9904
11
93.2574
21
-45.008
0
LINE
8
BLACK
6
CONTINUOUS
10
94.3774
20
-45.008
11
94.395
21
-45.0504
0
LINE
8
BLACK
6
CONTINUOUS
10
94.395
20
-45.0504
11
94.395
21
-45.8496
0
LINE
8
BLACK
6
CONTINUOUS
10
94.395
20
-45.8496
11
94.3774
21
-45.892
0
LINE
8
BLACK
6
CONTINUOUS
10
94.3774
20
-45.892
11
94.335
21
-45.9096
0
LINE
8
BLACK
6
CONTINUOUS
10
94.335
20
-45.9096
11
94.2926
21
-45.892
0
LINE
8
BLACK
6
CONTINUOUS
10
94.2926
20
-45.892
11
94.275
21
-45.8496
0
LINE
8
BLACK
6
CONTINUOUS
10
94.275
20
-45.8496
11
94.275
21
-45.0504
0
LINE
8
BLACK
6
CONTINUOUS
10
94.275
20
-45.0504
11
94.2926
21
-45.008
0
LINE
8
BLACK
6
CONTINUOUS
10
94.2926
20
-45.008
11
94.335
21
-44.9904
0
LINE
8
BLACK
6
CONTINUOUS
10
94.335
20
-44.9904
11
94.3774
21
-45.008
0
LINE
8
BLACK
6
CONTINUOUS
10
90.8324
20
-45.1463
11
90.85
21
-45.1887
0
LINE
8
BLACK
6
CONTINUOUS
10
90.85
20
-45.1887
11
90.85
21
-45.7113
0
LINE
8
BLACK
6
CONTINUOUS
10
90.85
20
-45.7113
11
90.8324
21
-45.7537
0
LINE
8
BLACK
6
CONTINUOUS
10
90.8324
20
-45.7537
11
90.79
21
-45.7713
0
LINE
8
BLACK
6
CONTINUOUS
10
90.79
20
-45.7713
11
90.7476
21
-45.7537
0
LINE
8
BLACK
6
CONTINUOUS
10
90.7476
20
-45.7537
11
90.73
21
-45.7113
0
LINE
8
BLACK
6
CONTINUOUS
10
90.73
20
-45.7113
11
90.73
21
-45.1887
0
LINE
8
BLACK
6
CONTINUOUS
10
90.73
20
-45.1887
11
90.7476
21
-45.1463
0
LINE
8
BLACK
6
CONTINUOUS
10
90.7476
20
-45.1463
11
90.79
21
-45.1287
0
LINE
8
BLACK
6
CONTINUOUS
10
90.79
20
-45.1287
11
90.8324
21
-45.1463
0
LINE
8
BLACK
6
CONTINUOUS
10
92.3024
20
-45.1463
11
92.32
21
-45.1887
0
LINE
8
BLACK
6
CONTINUOUS
10
92.32
20
-45.1887
11
92.32
21
-45.7113
0
LINE
8
BLACK
6
CONTINUOUS
10
92.32
20
-45.7113
11
92.3024
21
-45.7537
0
LINE
8
BLACK
6
CONTINUOUS
10
92.3024
20
-45.7537
11
92.26
21
-45.7713
0
LINE
8
BLACK
6
CONTINUOUS
10
92.26
20
-45.7713
11
92.2176
21
-45.7537
0
LINE
8
BLACK
6
CONTINUOUS
10
92.2176
20
-45.7537
11
92.2
21
-45.7113
0
LINE
8
BLACK
6
CONTINUOUS
10
92.2
20
-45.7113
11
92.2
21
-45.1887
0
LINE
8
BLACK
6
CONTINUOUS
10
92.2
20
-45.1887
11
92.2176
21
-45.1463
0
LINE
8
BLACK
6
CONTINUOUS
10
92.2176
20
-45.1463
11
92.26
21
-45.1287
0
LINE
8
BLACK
6
CONTINUOUS
10
92.26
20
-45.1287
11
92.3024
21
-45.1463
0
LINE
8
BLACK
6
CONTINUOUS
10
41.6299
20
-43.9601
11
41.6475
21
-44.0025
0
LINE
8
BLACK
6
CONTINUOUS
10
41.6475
20
-44.0025
11
41.6299
21
-44.0449
0
LINE
8
BLACK
6
CONTINUOUS
10
41.6299
20
-44.0449
11
41.5875
21
-44.0625
0
LINE
8
BLACK
6
CONTINUOUS
10
41.5875
20
-44.0625
11
39.3625
21
-44.0625
0
LINE
8
BLACK
6
CONTINUOUS
10
39.3625
20
-44.0625
11
39.3625
21
-45.4125
0
LINE
8
BLACK
6
CONTINUOUS
10
39.3625
20
-45.4125
11
41.5875
21
-45.4125
0
LINE
8
BLACK
6
CONTINUOUS
10
41.5875
20
-45.4125
11
41.6299
21
-45.4301
0
LINE
8
BLACK
6
CONTINUOUS
10
41.6299
20
-45.4301
11
41.6475
21
-45.4725
0
LINE
8
BLACK
6
CONTINUOUS
10
41.6475
20
-45.4725
11
41.6299
21
-45.5149
0
LINE
8
BLACK
6
CONTINUOUS
10
41.6299
20
-45.5149
11
41.5875
21
-45.5325
0
LINE
8
BLACK
6
CONTINUOUS
10
41.5875
20
-45.5325
11
39.3025
21
-45.5325
0
LINE
8
BLACK
6
CONTINUOUS
10
39.3025
20
-45.5325
11
39.2601
21
-45.5149
0
LINE
8
BLACK
6
CONTINUOUS
10
39.2601
20
-45.5149
11
39.2425
21
-45.4725
0
LINE
8
BLACK
6
CONTINUOUS
10
39.2425
20
-45.4725
11
39.2425
21
-45.4725
0
LINE
8
BLACK
6
CONTINUOUS
10
39.2425
20
-45.4725
11
39.2425
21
-44.0025
0
LINE
8
BLACK
6
CONTINUOUS
10
39.2425
20
-44.0025
11
39.2601
21
-43.9601
0
LINE
8
BLACK
6
CONTINUOUS
10
39.2601
20
-43.9601
11
39.3025
21
-43.9425
0
LINE
8
BLACK
6
CONTINUOUS
10
39.3025
20
-43.9425
11
41.5875
21
-43.9425
0
LINE
8
BLACK
6
CONTINUOUS
10
41.5875
20
-43.9425
11
41.6299
21
-43.9601
0
LINE
8
BLACK
6
CONTINUOUS
10
70.5811
20
-44.8651
11
70.5986
21
-44.9075
0
LINE
8
BLACK
6
CONTINUOUS
10
70.5986
20
-44.9075
11
70.5811
21
-44.9499
0
LINE
8
BLACK
6
CONTINUOUS
10
70.5811
20
-44.9499
11
70.5386
21
-44.9675
0
LINE
8
BLACK
6
CONTINUOUS
10
70.5386
20
-44.9675
11
70.2314
21
-44.9675
0
LINE
8
BLACK
6
CONTINUOUS
10
70.2314
20
-44.9675
11
70.1889
21
-44.9499
0
LINE
8
BLACK
6
CONTINUOUS
10
70.1889
20
-44.9499
11
70.1714
21
-44.9075
0
LINE
8
BLACK
6
CONTINUOUS
10
70.1714
20
-44.9075
11
70.1889
21
-44.8651
0
LINE
8
BLACK
6
CONTINUOUS
10
70.1889
20
-44.8651
11
70.2314
21
-44.8475
0
LINE
8
BLACK
6
CONTINUOUS
10
70.2314
20
-44.8475
11
70.5386
21
-44.8475
0
LINE
8
BLACK
6
CONTINUOUS
10
70.5386
20
-44.8475
11
70.5811
21
-44.8651
0
LINE
8
BLACK
6
CONTINUOUS
10
89.985
20
-40.83
11
90.0274
21
-40.8476
0
LINE
8
BLACK
6
CONTINUOUS
10
90.0274
20
-40.8476
11
90.045
21
-40.89
0
LINE
8
BLACK
6
CONTINUOUS
10
90.045
20
-40.89
11
90.045
21
-44.65
0
LINE
8
BLACK
6
CONTINUOUS
10
90.045
20
-44.65
11
90.0274
21
-44.6924
0
LINE
8
BLACK
6
CONTINUOUS
10
90.0274
20
-44.6924
11
89.985
21
-44.71
0
LINE
8
BLACK
6
CONTINUOUS
10
89.985
20
-44.71
11
89.9426
21
-44.6924
0
LINE
8
BLACK
6
CONTINUOUS
10
89.9426
20
-44.6924
11
89.925
21
-44.65
0
LINE
8
BLACK
6
CONTINUOUS
10
89.925
20
-44.65
11
89.925
21
-40.95
0
LINE
8
BLACK
6
CONTINUOUS
10
89.925
20
-40.95
11
88.725
21
-40.95
0
LINE
8
BLACK
6
CONTINUOUS
10
88.725
20
-40.95
11
88.6826
21
-40.9324
0
LINE
8
BLACK
6
CONTINUOUS
10
88.6826
20
-40.9324
11
88.665
21
-40.89
0
LINE
8
BLACK
6
CONTINUOUS
10
88.665
20
-40.89
11
88.6826
21
-40.8476
0
LINE
8
BLACK
6
CONTINUOUS
10
88.6826
20
-40.8476
11
88.725
21
-40.83
0
LINE
8
BLACK
6
CONTINUOUS
10
88.725
20
-40.83
11
89.985
21
-40.83
0
LINE
8
BLACK
6
CONTINUOUS
10
70.5811
20
-44.1051
11
70.5986
21
-44.1475
0
LINE
8
BLACK
6
CONTINUOUS
10
70.5986
20
-44.1475
11
70.5811
21
-44.1899
0
LINE
8
BLACK
6
CONTINUOUS
10
70.5811
20
-44.1899
11
70.5386
21
-44.2075
0
LINE
8
BLACK
6
CONTINUOUS
10
70.5386
20
-44.2075
11
70.2314
21
-44.2075
0
LINE
8
BLACK
6
CONTINUOUS
10
70.2314
20
-44.2075
11
70.1889
21
-44.1899
0
LINE
8
BLACK
6
CONTINUOUS
10
70.1889
20
-44.1899
11
70.1714
21
-44.1475
0
LINE
8
BLACK
6
CONTINUOUS
10
70.1714
20
-44.1475
11
70.1889
21
-44.1051
0
LINE
8
BLACK
6
CONTINUOUS
10
70.1889
20
-44.1051
11
70.2314
21
-44.0875
0
LINE
8
BLACK
6
CONTINUOUS
10
70.2314
20
-44.0875
11
70.5386
21
-44.0875
0
LINE
8
BLACK
6
CONTINUOUS
10
70.5386
20
-44.0875
11
70.5811
21
-44.1051
0
LINE
8
BLACK
6
CONTINUOUS
10
42.8199
20
-43.1203
11
42.8375
21
-43.1627
0
LINE
8
BLACK
6
CONTINUOUS
10
42.8375
20
-43.1627
11
42.8375
21
-43.6373
0
LINE
8
BLACK
6
CONTINUOUS
10
42.8375
20
-43.6373
11
42.8199
21
-43.6797
0
LINE
8
BLACK
6
CONTINUOUS
10
42.8199
20
-43.6797
11
42.7775
21
-43.6973
0
LINE
8
BLACK
6
CONTINUOUS
10
42.7775
20
-43.6973
11
42.7351
21
-43.6797
0
LINE
8
BLACK
6
CONTINUOUS
10
42.7351
20
-43.6797
11
42.7175
21
-43.6373
0
LINE
8
BLACK
6
CONTINUOUS
10
42.7175
20
-43.6373
11
42.7175
21
-43.1627
0
LINE
8
BLACK
6
CONTINUOUS
10
42.7175
20
-43.1627
11
42.7351
21
-43.1203
0
LINE
8
BLACK
6
CONTINUOUS
10
42.7351
20
-43.1203
11
42.7775
21
-43.1027
0
LINE
8
BLACK
6
CONTINUOUS
10
42.7775
20
-43.1027
11
42.8199
21
-43.1203
0
LINE
8
BLACK
6
CONTINUOUS
10
43.8649
20
-43.1203
11
43.8825
21
-43.1627
0
LINE
8
BLACK
6
CONTINUOUS
10
43.8825
20
-43.1627
11
43.8825
21
-43.6373
0
LINE
8
BLACK
6
CONTINUOUS
10
43.8825
20
-43.6373
11
43.8649
21
-43.6797
0
LINE
8
BLACK
6
CONTINUOUS
10
43.8649
20
-43.6797
11
43.8225
21
-43.6973
0
LINE
8
BLACK
6
CONTINUOUS
10
43.8225
20
-43.6973
11
43.7801
21
-43.6797
0
LINE
8
BLACK
6
CONTINUOUS
10
43.7801
20
-43.6797
11
43.7625
21
-43.6373
0
LINE
8
BLACK
6
CONTINUOUS
10
43.7625
20
-43.6373
11
43.7625
21
-43.1627
0
LINE
8
BLACK
6
CONTINUOUS
10
43.7625
20
-43.1627
11
43.7801
21
-43.1203
0
LINE
8
BLACK
6
CONTINUOUS
10
43.7801
20
-43.1203
11
43.8225
21
-43.1027
0
LINE
8
BLACK
6
CONTINUOUS
10
43.8225
20
-43.1027
11
43.8649
21
-43.1203
0
LINE
8
BLACK
6
CONTINUOUS
10
44.5074
20
-43.1305
11
44.525
21
-43.1729
0
LINE
8
BLACK
6
CONTINUOUS
10
44.525
20
-43.1729
11
44.525
21
-43.6271
0
LINE
8
BLACK
6
CONTINUOUS
10
44.525
20
-43.6271
11
44.5074
21
-43.6695
0
LINE
8
BLACK
6
CONTINUOUS
10
44.5074
20
-43.6695
11
44.465
21
-43.6871
0
LINE
8
BLACK
6
CONTINUOUS
10
44.465
20
-43.6871
11
44.4226
21
-43.6695
0
LINE
8
BLACK
6
CONTINUOUS
10
44.4226
20
-43.6695
11
44.405
21
-43.6271
0
LINE
8
BLACK
6
CONTINUOUS
10
44.405
20
-43.6271
11
44.405
21
-43.1729
0
LINE
8
BLACK
6
CONTINUOUS
10
44.405
20
-43.1729
11
44.4226
21
-43.1305
0
LINE
8
BLACK
6
CONTINUOUS
10
44.4226
20
-43.1305
11
44.465
21
-43.1129
0
LINE
8
BLACK
6
CONTINUOUS
10
44.465
20
-43.1129
11
44.5074
21
-43.1305
0
LINE
8
BLACK
6
CONTINUOUS
10
45.9774
20
-43.1305
11
45.995
21
-43.1729
0
LINE
8
BLACK
6
CONTINUOUS
10
45.995
20
-43.1729
11
45.995
21
-43.6271
0
LINE
8
BLACK
6
CONTINUOUS
10
45.995
20
-43.6271
11
45.9774
21
-43.6695
0
LINE
8
BLACK
6
CONTINUOUS
10
45.9774
20
-43.6695
11
45.935
21
-43.6871
0
LINE
8
BLACK
6
CONTINUOUS
10
45.935
20
-43.6871
11
45.8926
21
-43.6695
0
LINE
8
BLACK
6
CONTINUOUS
10
45.8926
20
-43.6695
11
45.875
21
-43.6271
0
LINE
8
BLACK
6
CONTINUOUS
10
45.875
20
-43.6271
11
45.875
21
-43.1729
0
LINE
8
BLACK
6
CONTINUOUS
10
45.875
20
-43.1729
11
45.8926
21
-43.1305
0
LINE
8
BLACK
6
CONTINUOUS
10
45.8926
20
-43.1305
11
45.935
21
-43.1129
0
LINE
8
BLACK
6
CONTINUOUS
10
45.935
20
-43.1129
11
45.9774
21
-43.1305
0
LINE
8
BLACK
6
CONTINUOUS
10
41.9674
20
-41.8576
11
41.985
21
-41.9
0
LINE
8
BLACK
6
CONTINUOUS
10
41.985
20
-41.9
11
41.9674
21
-41.9424
0
LINE
8
BLACK
6
CONTINUOUS
10
41.9674
20
-41.9424
11
41.925
21
-41.96
0
LINE
8
BLACK
6
CONTINUOUS
10
41.925
20
-41.96
11
39.325
21
-41.96
0
LINE
8
BLACK
6
CONTINUOUS
10
39.325
20
-41.96
11
39.325
21
-43.54
0
LINE
8
BLACK
6
CONTINUOUS
10
39.325
20
-43.54
11
41.925
21
-43.54
0
LINE
8
BLACK
6
CONTINUOUS
10
41.925
20
-43.54
11
41.9674
21
-43.5576
0
LINE
8
BLACK
6
CONTINUOUS
10
41.9674
20
-43.5576
11
41.985
21
-43.6
0
LINE
8
BLACK
6
CONTINUOUS
10
41.985
20
-43.6
11
41.9674
21
-43.6424
0
LINE
8
BLACK
6
CONTINUOUS
10
41.9674
20
-43.6424
11
41.925
21
-43.66
0
LINE
8
BLACK
6
CONTINUOUS
10
41.925
20
-43.66
11
39.265
21
-43.66
0
LINE
8
BLACK
6
CONTINUOUS
10
39.265
20
-43.66
11
39.2226
21
-43.6424
0
LINE
8
BLACK
6
CONTINUOUS
10
39.2226
20
-43.6424
11
39.205
21
-43.6
0
LINE
8
BLACK
6
CONTINUOUS
10
39.205
20
-43.6
11
39.205
21
-41.9
0
LINE
8
BLACK
6
CONTINUOUS
10
39.205
20
-41.9
11
39.2226
21
-41.8576
0
LINE
8
BLACK
6
CONTINUOUS
10
39.2226
20
-41.8576
11
39.265
21
-41.84
0
LINE
8
BLACK
6
CONTINUOUS
10
39.265
20
-41.84
11
41.925
21
-41.84
0
LINE
8
BLACK
6
CONTINUOUS
10
41.925
20
-41.84
11
41.9674
21
-41.8576
0
LINE
8
BLACK
6
CONTINUOUS
10
75.0345
20
-41.8426
11
75.0521
21
-41.885
0
LINE
8
BLACK
6
CONTINUOUS
10
75.0521
20
-41.885
11
75.0345
21
-41.9274
0
LINE
8
BLACK
6
CONTINUOUS
10
75.0345
20
-41.9274
11
74.9921
21
-41.945
0
LINE
8
BLACK
6
CONTINUOUS
10
74.9921
20
-41.945
11
73.5379
21
-41.945
0
LINE
8
BLACK
6
CONTINUOUS
10
73.5379
20
-41.945
11
73.4955
21
-41.9274
0
LINE
8
BLACK
6
CONTINUOUS
10
73.4955
20
-41.9274
11
73.4779
21
-41.885
0
LINE
8
BLACK
6
CONTINUOUS
10
73.4779
20
-41.885
11
73.4955
21
-41.8426
0
LINE
8
BLACK
6
CONTINUOUS
10
73.4955
20
-41.8426
11
73.5379
21
-41.825
0
LINE
8
BLACK
6
CONTINUOUS
10
73.5379
20
-41.825
11
74.9921
21
-41.825
0
LINE
8
BLACK
6
CONTINUOUS
10
74.9921
20
-41.825
11
75.0345
21
-41.8426
0
LINE
8
BLACK
6
CONTINUOUS
10
75.0345
20
-40.0226
11
75.0521
21
-40.065
0
LINE
8
BLACK
6
CONTINUOUS
10
75.0521
20
-40.065
11
75.0345
21
-40.1074
0
LINE
8
BLACK
6
CONTINUOUS
10
75.0345
20
-40.1074
11
74.9921
21
-40.125
0
LINE
8
BLACK
6
CONTINUOUS
10
74.9921
20
-40.125
11
73.5379
21
-40.125
0
LINE
8
BLACK
6
CONTINUOUS
10
73.5379
20
-40.125
11
73.4955
21
-40.1074
0
LINE
8
BLACK
6
CONTINUOUS
10
73.4955
20
-40.1074
11
73.4779
21
-40.065
0
LINE
8
BLACK
6
CONTINUOUS
10
73.4779
20
-40.065
11
73.4955
21
-40.0226
0
LINE
8
BLACK
6
CONTINUOUS
10
73.4955
20
-40.0226
11
73.5379
21
-40.005
0
LINE
8
BLACK
6
CONTINUOUS
10
73.5379
20
-40.005
11
74.9921
21
-40.005
0
LINE
8
BLACK
6
CONTINUOUS
10
74.9921
20
-40.005
11
75.0345
21
-40.0226
0
LINE
8
BLACK
6
CONTINUOUS
10
64.2717
20
-28.4406
11
64.2893
21
-28.4888
0
LINE
8
BLACK
6
CONTINUOUS
10
64.2893
20
-28.4888
11
64.2893
21
-29.2031
0
LINE
8
BLACK
6
CONTINUOUS
10
64.2893
20
-29.2031
11
64.2854
21
-29.2252
0
LINE
8
BLACK
6
CONTINUOUS
10
64.2854
20
-29.2252
11
64.2854
21
-29.2268
0
LINE
8
BLACK
6
CONTINUOUS
10
64.2854
20
-29.2268
11
64.2378
21
-29.3697
0
LINE
8
BLACK
6
CONTINUOUS
10
64.2378
20
-29.3697
11
64.2254
21
-29.3926
0
LINE
8
BLACK
6
CONTINUOUS
10
64.2254
20
-29.3926
11
64.2216
21
-29.3949
0
LINE
8
BLACK
6
CONTINUOUS
10
64.2216
20
-29.3949
11
64.2197
21
-29.399
0
LINE
8
BLACK
6
CONTINUOUS
10
64.2197
20
-29.399
11
64.1245
21
-29.4942
0
LINE
8
BLACK
6
CONTINUOUS
10
64.1245
20
-29.4942
11
64.1031
21
-29.5092
0
LINE
8
BLACK
6
CONTINUOUS
10
64.1031
20
-29.5092
11
64.0987
21
-29.5096
0
LINE
8
BLACK
6
CONTINUOUS
10
64.0987
20
-29.5096
11
64.0951
21
-29.5124
0
LINE
8
BLACK
6
CONTINUOUS
10
64.0951
20
-29.5124
11
63.9523
21
-29.56
0
LINE
8
BLACK
6
CONTINUOUS
10
63.9523
20
-29.56
11
63.9301
21
-29.5633
0
LINE
8
BLACK
6
CONTINUOUS
10
63.9301
20
-29.5633
11
63.9286
21
-29.5638
0
LINE
8
BLACK
6
CONTINUOUS
10
63.9286
20
-29.5638
11
63.8333
21
-29.5638
0
LINE
8
BLACK
6
CONTINUOUS
10
63.8333
20
-29.5638
11
63.8077
21
-29.5593
0
LINE
8
BLACK
6
CONTINUOUS
10
63.8077
20
-29.5593
11
63.7684
21
-29.5263
0
LINE
8
BLACK
6
CONTINUOUS
10
63.7684
20
-29.5263
11
63.7595
21
-29.4758
0
LINE
8
BLACK
6
CONTINUOUS
10
63.7595
20
-29.4758
11
63.7851
21
-29.4314
0
LINE
8
BLACK
6
CONTINUOUS
10
63.7851
20
-29.4314
11
63.8333
21
-29.4138
0
LINE
8
BLACK
6
CONTINUOUS
10
63.8333
20
-29.4138
11
63.9164
21
-29.4138
0
LINE
8
BLACK
6
CONTINUOUS
10
63.9164
20
-29.4138
11
64.0309
21
-29.3756
0
LINE
8
BLACK
6
CONTINUOUS
10
64.0309
20
-29.3756
11
64.1011
21
-29.3054
0
LINE
8
BLACK
6
CONTINUOUS
10
64.1011
20
-29.3054
11
64.1393
21
-29.1909
0
LINE
8
BLACK
6
CONTINUOUS
10
64.1393
20
-29.1909
11
64.1393
21
-28.4888
0
LINE
8
BLACK
6
CONTINUOUS
10
64.1393
20
-28.4888
11
64.1438
21
-28.4632
0
LINE
8
BLACK
6
CONTINUOUS
10
64.1438
20
-28.4632
11
64.1768
21
-28.4239
0
LINE
8
BLACK
6
CONTINUOUS
10
64.1768
20
-28.4239
11
64.2273
21
-28.415
0
LINE
8
BLACK
6
CONTINUOUS
10
64.2273
20
-28.415
11
64.2717
21
-28.4406
0
LINE
8
BLACK
6
CONTINUOUS
10
64.9373
20
-28.4157
11
64.9416
21
-28.415
0
LINE
8
BLACK
6
CONTINUOUS
10
64.9416
20
-28.415
11
64.9604
21
-28.4258
0
LINE
8
BLACK
6
CONTINUOUS
10
64.9604
20
-28.4258
11
64.9804
21
-28.4346
0
LINE
8
BLACK
6
CONTINUOUS
10
64.9804
20
-28.4346
11
64.9823
21
-28.4385
0
LINE
8
BLACK
6
CONTINUOUS
10
64.9823
20
-28.4385
11
64.986
21
-28.4406
0
LINE
8
BLACK
6
CONTINUOUS
10
64.986
20
-28.4406
11
64.9935
21
-28.4611
0
LINE
8
BLACK
6
CONTINUOUS
10
64.9935
20
-28.4611
11
65.0031
21
-28.4806
0
LINE
8
BLACK
6
CONTINUOUS
10
65.0031
20
-28.4806
11
65.0021
21
-28.4848
0
LINE
8
BLACK
6
CONTINUOUS
10
65.0021
20
-28.4848
11
65.0036
21
-28.4888
0
LINE
8
BLACK
6
CONTINUOUS
10
65.0036
20
-28.4888
11
65.0036
21
-29.4138
0
LINE
8
BLACK
6
CONTINUOUS
10
65.0036
20
-29.4138
11
65.2143
21
-29.4138
0
LINE
8
BLACK
6
CONTINUOUS
10
65.2143
20
-29.4138
11
65.2399
21
-29.4183
0
LINE
8
BLACK
6
CONTINUOUS
10
65.2399
20
-29.4183
11
65.2792
21
-29.4513
0
LINE
8
BLACK
6
CONTINUOUS
10
65.2792
20
-29.4513
11
65.2881
21
-29.5018
0
LINE
8
BLACK
6
CONTINUOUS
10
65.2881
20
-29.5018
11
65.2625
21
-29.5463
0
LINE
8
BLACK
6
CONTINUOUS
10
65.2625
20
-29.5463
11
65.2143
21
-29.5638
0
LINE
8
BLACK
6
CONTINUOUS
10
65.2143
20
-29.5638
11
64.6429
21
-29.5638
0
LINE
8
BLACK
6
CONTINUOUS
10
64.6429
20
-29.5638
11
64.6172
21
-29.5593
0
LINE
8
BLACK
6
CONTINUOUS
10
64.6172
20
-29.5593
11
64.5779
21
-29.5263
0
LINE
8
BLACK
6
CONTINUOUS
10
64.5779
20
-29.5263
11
64.569
21
-29.4758
0
LINE
8
BLACK
6
CONTINUOUS
10
64.569
20
-29.4758
11
64.5946
21
-29.4314
0
LINE
8
BLACK
6
CONTINUOUS
10
64.5946
20
-29.4314
11
64.6429
21
-29.4138
0
LINE
8
BLACK
6
CONTINUOUS
10
64.6429
20
-29.4138
11
64.8536
21
-29.4138
0
LINE
8
BLACK
6
CONTINUOUS
10
64.8536
20
-29.4138
11
64.8536
21
-28.7175
0
LINE
8
BLACK
6
CONTINUOUS
10
64.8536
20
-28.7175
11
64.7911
21
-28.7799
0
LINE
8
BLACK
6
CONTINUOUS
10
64.7911
20
-28.7799
11
64.7728
21
-28.7928
0
LINE
8
BLACK
6
CONTINUOUS
10
64.7728
20
-28.7928
11
64.7716
21
-28.794
0
LINE
8
BLACK
6
CONTINUOUS
10
64.7716
20
-28.794
11
64.6764
21
-28.8416
0
LINE
8
BLACK
6
CONTINUOUS
10
64.6764
20
-28.8416
11
64.6514
21
-28.849
0
LINE
8
BLACK
6
CONTINUOUS
10
64.6514
20
-28.849
11
64.6015
21
-28.8371
0
LINE
8
BLACK
6
CONTINUOUS
10
64.6015
20
-28.8371
11
64.571
21
-28.7959
0
LINE
8
BLACK
6
CONTINUOUS
10
64.571
20
-28.7959
11
64.574
21
-28.7447
0
LINE
8
BLACK
6
CONTINUOUS
10
64.574
20
-28.7447
11
64.6093
21
-28.7075
0
LINE
8
BLACK
6
CONTINUOUS
10
64.6093
20
-28.7075
11
64.6937
21
-28.6653
0
LINE
8
BLACK
6
CONTINUOUS
10
64.6937
20
-28.6653
11
64.775
21
-28.5839
0
LINE
8
BLACK
6
CONTINUOUS
10
64.775
20
-28.5839
11
64.8662
21
-28.4472
0
LINE
8
BLACK
6
CONTINUOUS
10
64.8662
20
-28.4472
11
64.8842
21
-28.4284
0
LINE
8
BLACK
6
CONTINUOUS
10
64.8842
20
-28.4284
11
64.8883
21
-28.4272
0
LINE
8
BLACK
6
CONTINUOUS
10
64.8883
20
-28.4272
11
64.8911
21
-28.4239
0
LINE
8
BLACK
6
CONTINUOUS
10
64.8911
20
-28.4239
11
64.9125
21
-28.4201
0
LINE
8
BLACK
6
CONTINUOUS
10
64.9125
20
-28.4201
11
64.9334
21
-28.414
0
LINE
8
BLACK
6
CONTINUOUS
10
64.9334
20
-28.414
11
64.9373
21
-28.4157
0
LINE
8
BLACK
6
CONTINUOUS
10
65.9542
20
-28.4183
11
65.9577
21
-28.4212
0
LINE
8
BLACK
6
CONTINUOUS
10
65.9577
20
-28.4212
11
65.9621
21
-28.4217
0
LINE
8
BLACK
6
CONTINUOUS
10
65.9621
20
-28.4217
11
66.0573
21
-28.4694
0
LINE
8
BLACK
6
CONTINUOUS
10
66.0573
20
-28.4694
11
66.0754
21
-28.4827
0
LINE
8
BLACK
6
CONTINUOUS
10
66.0754
20
-28.4827
11
66.0768
21
-28.4834
0
LINE
8
BLACK
6
CONTINUOUS
10
66.0768
20
-28.4834
11
66.1245
21
-28.531
0
LINE
8
BLACK
6
CONTINUOUS
10
66.1245
20
-28.531
11
66.1373
21
-28.5494
0
LINE
8
BLACK
6
CONTINUOUS
10
66.1373
20
-28.5494
11
66.1385
21
-28.5505
0
LINE
8
BLACK
6
CONTINUOUS
10
66.1385
20
-28.5505
11
66.1861
21
-28.6458
0
LINE
8
BLACK
6
CONTINUOUS
10
66.1861
20
-28.6458
11
66.1898
21
-28.6582
0
LINE
8
BLACK
6
CONTINUOUS
10
66.1898
20
-28.6582
11
66.1918
21
-28.6611
0
LINE
8
BLACK
6
CONTINUOUS
10
66.1918
20
-28.6611
11
66.2394
21
-28.8516
0
LINE
8
BLACK
6
CONTINUOUS
10
66.2394
20
-28.8516
11
66.2405
21
-28.8665
0
LINE
8
BLACK
6
CONTINUOUS
10
66.2405
20
-28.8665
11
66.2417
21
-28.8698
0
LINE
8
BLACK
6
CONTINUOUS
10
66.2417
20
-28.8698
11
66.2417
21
-29.1079
0
LINE
8
BLACK
6
CONTINUOUS
10
66.2417
20
-29.1079
11
66.2391
21
-29.1226
0
LINE
8
BLACK
6
CONTINUOUS
10
66.2391
20
-29.1226
11
66.2394
21
-29.1261
0
LINE
8
BLACK
6
CONTINUOUS
10
66.2394
20
-29.1261
11
66.1918
21
-29.3165
0
LINE
8
BLACK
6
CONTINUOUS
10
66.1918
20
-29.3165
11
66.1865
21
-29.3284
0
LINE
8
BLACK
6
CONTINUOUS
10
66.1865
20
-29.3284
11
66.1861
21
-29.3319
0
LINE
8
BLACK
6
CONTINUOUS
10
66.1861
20
-29.3319
11
66.1385
21
-29.4271
0
LINE
8
BLACK
6
CONTINUOUS
10
66.1385
20
-29.4271
11
66.1252
21
-29.4451
0
LINE
8
BLACK
6
CONTINUOUS
10
66.1252
20
-29.4451
11
66.1245
21
-29.4466
0
LINE
8
BLACK
6
CONTINUOUS
10
66.1245
20
-29.4466
11
66.0768
21
-29.4942
0
LINE
8
BLACK
6
CONTINUOUS
10
66.0768
20
-29.4942
11
66.0585
21
-29.5071
0
LINE
8
BLACK
6
CONTINUOUS
10
66.0585
20
-29.5071
11
66.0573
21
-29.5083
0
LINE
8
BLACK
6
CONTINUOUS
10
66.0573
20
-29.5083
11
65.9621
21
-29.5559
0
LINE
8
BLACK
6
CONTINUOUS
10
65.9621
20
-29.5559
11
65.9371
21
-29.5633
0
LINE
8
BLACK
6
CONTINUOUS
10
65.9371
20
-29.5633
11
65.9328
21
-29.5623
0
LINE
8
BLACK
6
CONTINUOUS
10
65.9328
20
-29.5623
11
65.9286
21
-29.5638
0
LINE
8
BLACK
6
CONTINUOUS
10
65.9286
20
-29.5638
11
65.8333
21
-29.5638
0
LINE
8
BLACK
6
CONTINUOUS
10
65.8333
20
-29.5638
11
65.8077
21
-29.5593
0
LINE
8
BLACK
6
CONTINUOUS
10
65.8077
20
-29.5593
11
65.8042
21
-29.5564
0
LINE
8
BLACK
6
CONTINUOUS
10
65.8042
20
-29.5564
11
65.7998
21
-29.5559
0
LINE
8
BLACK
6
CONTINUOUS
10
65.7998
20
-29.5559
11
65.7046
21
-29.5083
0
LINE
8
BLACK
6
CONTINUOUS
10
65.7046
20
-29.5083
11
65.6865
21
-29.4949
0
LINE
8
BLACK
6
CONTINUOUS
10
65.6865
20
-29.4949
11
65.6851
21
-29.4942
0
LINE
8
BLACK
6
CONTINUOUS
10
65.6851
20
-29.4942
11
65.6374
21
-29.4466
0
LINE
8
BLACK
6
CONTINUOUS
10
65.6374
20
-29.4466
11
65.6246
21
-29.4282
0
LINE
8
BLACK
6
CONTINUOUS
10
65.6246
20
-29.4282
11
65.6234
21
-29.4271
0
LINE
8
BLACK
6
CONTINUOUS
10
65.6234
20
-29.4271
11
65.5758
21
-29.3319
0
LINE
8
BLACK
6
CONTINUOUS
10
65.5758
20
-29.3319
11
65.5721
21
-29.3195
0
LINE
8
BLACK
6
CONTINUOUS
10
65.5721
20
-29.3195
11
65.5701
21
-29.3165
0
LINE
8
BLACK
6
CONTINUOUS
10
65.5701
20
-29.3165
11
65.5225
21
-29.1261
0
LINE
8
BLACK
6
CONTINUOUS
10
65.5225
20
-29.1261
11
65.5214
21
-29.1111
0
LINE
8
BLACK
6
CONTINUOUS
10
65.5214
20
-29.1111
11
65.5202
21
-29.1079
0
LINE
8
BLACK
6
CONTINUOUS
10
65.5202
20
-29.1079
11
65.5202
21
-28.8698
0
LINE
8
BLACK
6
CONTINUOUS
10
65.5202
20
-28.8698
11
65.5228
21
-28.855
0
LINE
8
BLACK
6
CONTINUOUS
10
65.5228
20
-28.855
11
65.5225
21
-28.8516
0
LINE
8
BLACK
6
CONTINUOUS
10
65.5225
20
-28.8516
11
65.5701
21
-28.6611
0
LINE
8
BLACK
6
CONTINUOUS
10
65.5701
20
-28.6611
11
65.5754
21
-28.6493
0
LINE
8
BLACK
6
CONTINUOUS
10
65.5754
20
-28.6493
11
65.5758
21
-28.6458
0
LINE
8
BLACK
6
CONTINUOUS
10
65.5758
20
-28.6458
11
65.6234
21
-28.5505
0
LINE
8
BLACK
6
CONTINUOUS
10
65.6234
20
-28.5505
11
65.6368
21
-28.5325
0
LINE
8
BLACK
6
CONTINUOUS
10
65.6368
20
-28.5325
11
65.6374
21
-28.531
0
LINE
8
BLACK
6
CONTINUOUS
10
65.6374
20
-28.531
11
65.6851
21
-28.4834
0
LINE
8
BLACK
6
CONTINUOUS
10
65.6851
20
-28.4834
11
65.7034
21
-28.4705
0
LINE
8
BLACK
6
CONTINUOUS
10
65.7034
20
-28.4705
11
65.7046
21
-28.4694
0
LINE
8
BLACK
6
CONTINUOUS
10
65.7046
20
-28.4694
11
65.7998
21
-28.4217
0
LINE
8
BLACK
6
CONTINUOUS
10
65.7998
20
-28.4217
11
65.8248
21
-28.4143
0
LINE
8
BLACK
6
CONTINUOUS
10
65.8248
20
-28.4143
11
65.8291
21
-28.4154
0
LINE
8
BLACK
6
CONTINUOUS
10
65.8291
20
-28.4154
11
65.8333
21
-28.4138
0
LINE
8
BLACK
6
CONTINUOUS
10
65.8333
20
-28.4138
11
65.9286
21
-28.4138
0
LINE
8
BLACK
6
CONTINUOUS
10
65.9286
20
-28.4138
11
65.9542
21
-28.4183
0
LINE
8
BLACK
6
CONTINUOUS
10
65.7825
20
-28.5981
11
65.7521
21
-28.6285
0
LINE
8
BLACK
6
CONTINUOUS
10
65.7521
20
-28.6285
11
65.7136
21
-28.7055
0
LINE
8
BLACK
6
CONTINUOUS
10
65.7136
20
-28.7055
11
65.6702
21
-28.879
0
LINE
8
BLACK
6
CONTINUOUS
10
65.6702
20
-28.879
11
65.6702
21
-29.0986
0
LINE
8
BLACK
6
CONTINUOUS
10
65.6702
20
-29.0986
11
65.7136
21
-29.2722
0
LINE
8
BLACK
6
CONTINUOUS
10
65.7136
20
-29.2722
11
65.7521
21
-29.3492
0
LINE
8
BLACK
6
CONTINUOUS
10
65.7521
20
-29.3492
11
65.7825
21
-29.3796
0
LINE
8
BLACK
6
CONTINUOUS
10
65.7825
20
-29.3796
11
65.851
21
-29.4138
0
LINE
8
BLACK
6
CONTINUOUS
10
65.851
20
-29.4138
11
65.9109
21
-29.4138
0
LINE
8
BLACK
6
CONTINUOUS
10
65.9109
20
-29.4138
11
65.9794
21
-29.3796
0
LINE
8
BLACK
6
CONTINUOUS
10
65.9794
20
-29.3796
11
66.0098
21
-29.3492
0
LINE
8
BLACK
6
CONTINUOUS
10
66.0098
20
-29.3492
11
66.0483
21
-29.2722
0
LINE
8
BLACK
6
CONTINUOUS
10
66.0483
20
-29.2722
11
66.0917
21
-29.0986
0
LINE
8
BLACK
6
CONTINUOUS
10
66.0917
20
-29.0986
11
66.0917
21
-28.879
0
LINE
8
BLACK
6
CONTINUOUS
10
66.0917
20
-28.879
11
66.0483
21
-28.7055
0
LINE
8
BLACK
6
CONTINUOUS
10
66.0483
20
-28.7055
11
66.0098
21
-28.6285
0
LINE
8
BLACK
6
CONTINUOUS
10
66.0098
20
-28.6285
11
65.9794
21
-28.5981
0
LINE
8
BLACK
6
CONTINUOUS
10
65.9794
20
-28.5981
11
65.9109
21
-28.5638
0
LINE
8
BLACK
6
CONTINUOUS
10
65.9109
20
-28.5638
11
65.851
21
-28.5638
0
LINE
8
BLACK
6
CONTINUOUS
10
65.851
20
-28.5638
11
65.7825
21
-28.5981
0
LINE
8
BLACK
6
CONTINUOUS
10
66.9542
20
-28.4183
11
66.9577
21
-28.4212
0
LINE
8
BLACK
6
CONTINUOUS
10
66.9577
20
-28.4212
11
66.9621
21
-28.4217
0
LINE
8
BLACK
6
CONTINUOUS
10
66.9621
20
-28.4217
11
67.0573
21
-28.4694
0
LINE
8
BLACK
6
CONTINUOUS
10
67.0573
20
-28.4694
11
67.0754
21
-28.4827
0
LINE
8
BLACK
6
CONTINUOUS
10
67.0754
20
-28.4827
11
67.0768
21
-28.4834
0
LINE
8
BLACK
6
CONTINUOUS
10
67.0768
20
-28.4834
11
67.1245
21
-28.531
0
LINE
8
BLACK
6
CONTINUOUS
10
67.1245
20
-28.531
11
67.1373
21
-28.5494
0
LINE
8
BLACK
6
CONTINUOUS
10
67.1373
20
-28.5494
11
67.1385
21
-28.5505
0
LINE
8
BLACK
6
CONTINUOUS
10
67.1385
20
-28.5505
11
67.1861
21
-28.6458
0
LINE
8
BLACK
6
CONTINUOUS
10
67.1861
20
-28.6458
11
67.1936
21
-28.6707
0
LINE
8
BLACK
6
CONTINUOUS
10
67.1936
20
-28.6707
11
67.1925
21
-28.6751
0
LINE
8
BLACK
6
CONTINUOUS
10
67.1925
20
-28.6751
11
67.194
21
-28.6793
0
LINE
8
BLACK
6
CONTINUOUS
10
67.194
20
-28.6793
11
67.194
21
-28.7745
0
LINE
8
BLACK
6
CONTINUOUS
10
67.194
20
-28.7745
11
67.1902
21
-28.7966
0
LINE
8
BLACK
6
CONTINUOUS
10
67.1902
20
-28.7966
11
67.1902
21
-28.7983
0
LINE
8
BLACK
6
CONTINUOUS
10
67.1902
20
-28.7983
11
67.1426
21
-28.9411
0
LINE
8
BLACK
6
CONTINUOUS
10
67.1426
20
-28.9411
11
67.1302
21
-28.964
0
LINE
8
BLACK
6
CONTINUOUS
10
67.1302
20
-28.964
11
67.1264
21
-28.9664
0
LINE
8
BLACK
6
CONTINUOUS
10
67.1264
20
-28.9664
11
67.1245
21
-28.9704
0
LINE
8
BLACK
6
CONTINUOUS
10
67.1245
20
-28.9704
11
66.6811
21
-29.4138
0
LINE
8
BLACK
6
CONTINUOUS
10
66.6811
20
-29.4138
11
67.119
21
-29.4138
0
LINE
8
BLACK
6
CONTINUOUS
10
67.119
20
-29.4138
11
67.1447
21
-29.4183
0
LINE
8
BLACK
6
CONTINUOUS
10
67.1447
20
-29.4183
11
67.184
21
-29.4513
0
LINE
8
BLACK
6
CONTINUOUS
10
67.184
20
-29.4513
11
67.1929
21
-29.5018
0
LINE
8
BLACK
6
CONTINUOUS
10
67.1929
20
-29.5018
11
67.1673
21
-29.5463
0
LINE
8
BLACK
6
CONTINUOUS
10
67.1673
20
-29.5463
11
67.119
21
-29.5638
0
LINE
8
BLACK
6
CONTINUOUS
10
67.119
20
-29.5638
11
66.5
21
-29.5638
0
LINE
8
BLACK
6
CONTINUOUS
10
66.5
20
-29.5638
11
66.4839
21
-29.561
0
LINE
8
BLACK
6
CONTINUOUS
10
66.4839
20
-29.561
11
66.4806
21
-29.5613
0
LINE
8
BLACK
6
CONTINUOUS
10
66.4806
20
-29.5613
11
66.4789
21
-29.5601
0
LINE
8
BLACK
6
CONTINUOUS
10
66.4789
20
-29.5601
11
66.4743
21
-29.5593
0
LINE
8
BLACK
6
CONTINUOUS
10
66.4743
20
-29.5593
11
66.4571
21
-29.5448
0
LINE
8
BLACK
6
CONTINUOUS
10
66.4571
20
-29.5448
11
66.4386
21
-29.5318
0
LINE
8
BLACK
6
CONTINUOUS
10
66.4386
20
-29.5318
11
66.4377
21
-29.5285
0
LINE
8
BLACK
6
CONTINUOUS
10
66.4377
20
-29.5285
11
66.435
21
-29.5263
0
LINE
8
BLACK
6
CONTINUOUS
10
66.435
20
-29.5263
11
66.4311
21
-29.5041
0
LINE
8
BLACK
6
CONTINUOUS
10
66.4311
20
-29.5041
11
66.4253
21
-29.4823
0
LINE
8
BLACK
6
CONTINUOUS
10
66.4253
20
-29.4823
11
66.4267
21
-29.4792
0
LINE
8
BLACK
6
CONTINUOUS
10
66.4267
20
-29.4792
11
66.4261
21
-29.4758
0
LINE
8
BLACK
6
CONTINUOUS
10
66.4261
20
-29.4758
11
66.4374
21
-29.4562
0
LINE
8
BLACK
6
CONTINUOUS
10
66.4374
20
-29.4562
11
66.447
21
-29.4358
0
LINE
8
BLACK
6
CONTINUOUS
10
66.447
20
-29.4358
11
67.0059
21
-28.8769
0
LINE
8
BLACK
6
CONTINUOUS
10
67.0059
20
-28.8769
11
67.044
21
-28.7624
0
LINE
8
BLACK
6
CONTINUOUS
10
67.044
20
-28.7624
11
67.044
21
-28.697
0
LINE
8
BLACK
6
CONTINUOUS
10
67.044
20
-28.697
11
67.0098
21
-28.6285
0
LINE
8
BLACK
6
CONTINUOUS
10
67.0098
20
-28.6285
11
66.9794
21
-28.5981
0
LINE
8
BLACK
6
CONTINUOUS
10
66.9794
20
-28.5981
11
66.9109
21
-28.5638
0
LINE
8
BLACK
6
CONTINUOUS
10
66.9109
20
-28.5638
11
66.7082
21
-28.5638
0
LINE
8
BLACK
6
CONTINUOUS
10
66.7082
20
-28.5638
11
66.6397
21
-28.5981
0
LINE
8
BLACK
6
CONTINUOUS
10
66.6397
20
-28.5981
11
66.6007
21
-28.6371
0
LINE
8
BLACK
6
CONTINUOUS
10
66.6007
20
-28.6371
11
66.5793
21
-28.652
0
LINE
8
BLACK
6
CONTINUOUS
10
66.5793
20
-28.652
11
66.5282
21
-28.6565
0
LINE
8
BLACK
6
CONTINUOUS
10
66.5282
20
-28.6565
11
66.4862
21
-28.6271
0
LINE
8
BLACK
6
CONTINUOUS
10
66.4862
20
-28.6271
11
66.4729
21
-28.5775
0
LINE
8
BLACK
6
CONTINUOUS
10
66.4729
20
-28.5775
11
66.4946
21
-28.531
0
LINE
8
BLACK
6
CONTINUOUS
10
66.4946
20
-28.531
11
66.5422
21
-28.4834
0
LINE
8
BLACK
6
CONTINUOUS
10
66.5422
20
-28.4834
11
66.5606
21
-28.4705
0
LINE
8
BLACK
6
CONTINUOUS
10
66.5606
20
-28.4705
11
66.5617
21
-28.4694
0
LINE
8
BLACK
6
CONTINUOUS
10
66.5617
20
-28.4694
11
66.6569
21
-28.4217
0
LINE
8
BLACK
6
CONTINUOUS
10
66.6569
20
-28.4217
11
66.6819
21
-28.4143
0
LINE
8
BLACK
6
CONTINUOUS
10
66.6819
20
-28.4143
11
66.6863
21
-28.4154
0
LINE
8
BLACK
6
CONTINUOUS
10
66.6863
20
-28.4154
11
66.6905
21
-28.4138
0
LINE
8
BLACK
6
CONTINUOUS
10
66.6905
20
-28.4138
11
66.9286
21
-28.4138
0
LINE
8
BLACK
6
CONTINUOUS
10
66.9286
20
-28.4138
11
66.9542
21
-28.4183
0
LINE
8
BLACK
6
CONTINUOUS
10
78.45
20
-19.521
11
78.5452
21
-19.5361
0
LINE
8
BLACK
6
CONTINUOUS
10
78.5452
20
-19.5361
11
78.631
21
-19.5798
0
LINE
8
BLACK
6
CONTINUOUS
10
78.631
20
-19.5798
11
78.6992
21
-19.648
0
LINE
8
BLACK
6
CONTINUOUS
10
78.6992
20
-19.648
11
78.7429
21
-19.7338
0
LINE
8
BLACK
6
CONTINUOUS
10
78.7429
20
-19.7338
11
78.758
21
-19.829
0
LINE
8
BLACK
6
CONTINUOUS
10
78.758
20
-19.829
11
78.758
21
-20.729
0
LINE
8
BLACK
6
CONTINUOUS
10
78.758
20
-20.729
11
78.758
21
-20.7537
0
LINE
8
BLACK
6
CONTINUOUS
10
78.758
20
-20.7537
11
78.7827
21
-20.7963
0
LINE
8
BLACK
6
CONTINUOUS
10
78.7827
20
-20.7963
11
78.8253
21
-20.821
0
LINE
8
BLACK
6
CONTINUOUS
10
78.8253
20
-20.821
11
78.85
21
-20.821
0
LINE
8
BLACK
6
CONTINUOUS
10
78.85
20
-20.821
11
79.76
21
-20.821
0
LINE
8
BLACK
6
CONTINUOUS
10
79.76
20
-20.821
11
79.874
21
-20.8339
0
LINE
8
BLACK
6
CONTINUOUS
10
79.874
20
-20.8339
11
79.9821
21
-20.8721
0
LINE
8
BLACK
6
CONTINUOUS
10
79.9821
20
-20.8721
11
80.079
21
-20.9336
0
LINE
8
BLACK
6
CONTINUOUS
10
80.079
20
-20.9336
11
80.1596
21
-21.0152
0
LINE
8
BLACK
6
CONTINUOUS
10
80.1596
20
-21.0152
11
80.2198
21
-21.1129
0
LINE
8
BLACK
6
CONTINUOUS
10
80.2198
20
-21.1129
11
80.2565
21
-21.2215
0
LINE
8
BLACK
6
CONTINUOUS
10
80.2565
20
-21.2215
11
80.268
21
-21.3355
0
LINE
8
BLACK
6
CONTINUOUS
10
80.268
20
-21.3355
11
80.268
21
-21.3355
0
LINE
8
BLACK
6
CONTINUOUS
10
80.268
20
-21.3355
11
80.268
21
-22.6146
0
LINE
8
BLACK
6
CONTINUOUS
10
80.268
20
-22.6146
11
80.2657
21
-22.6203
0
LINE
8
BLACK
6
CONTINUOUS
10
80.2657
20
-22.6203
11
80.26
21
-22.6226
0
LINE
8
BLACK
6
CONTINUOUS
10
80.26
20
-22.6226
11
78.7709
21
-22.6226
0
LINE
8
BLACK
6
CONTINUOUS
10
78.7709
20
-22.6226
11
78.7709
21
-29.8026
0
LINE
8
BLACK
6
CONTINUOUS
10
78.7709
20
-29.8026
11
80.26
21
-29.8026
0
LINE
8
BLACK
6
CONTINUOUS
10
80.26
20
-29.8026
11
80.2657
21
-29.8049
0
LINE
8
BLACK
6
CONTINUOUS
10
80.2657
20
-29.8049
11
80.268
21
-29.8106
0
LINE
8
BLACK
6
CONTINUOUS
10
80.268
20
-29.8106
11
80.268
21
-31.029
0
LINE
8
BLACK
6
CONTINUOUS
10
80.268
20
-31.029
11
80.2553
21
-31.142
0
LINE
8
BLACK
6
CONTINUOUS
10
80.2553
20
-31.142
11
80.2177
21
-31.2494
0
LINE
8
BLACK
6
CONTINUOUS
10
80.2177
20
-31.2494
11
80.1572
21
-31.3457
0
LINE
8
BLACK
6
CONTINUOUS
10
80.1572
20
-31.3457
11
80.0767
21
-31.4262
0
LINE
8
BLACK
6
CONTINUOUS
10
80.0767
20
-31.4262
11
79.9804
21
-31.4867
0
LINE
8
BLACK
6
CONTINUOUS
10
79.9804
20
-31.4867
11
79.873
21
-31.5243
0
LINE
8
BLACK
6
CONTINUOUS
10
79.873
20
-31.5243
11
79.76
21
-31.537
0
LINE
8
BLACK
6
CONTINUOUS
10
79.76
20
-31.537
11
79.05
21
-31.537
0
LINE
8
BLACK
6
CONTINUOUS
10
79.05
20
-31.537
11
79.0038
21
-31.537
0
LINE
8
BLACK
6
CONTINUOUS
10
79.0038
20
-31.537
11
78.9158
21
-31.5656
0
LINE
8
BLACK
6
CONTINUOUS
10
78.9158
20
-31.5656
11
78.841
21
-31.62
0
LINE
8
BLACK
6
CONTINUOUS
10
78.841
20
-31.62
11
78.7866
21
-31.6948
0
LINE
8
BLACK
6
CONTINUOUS
10
78.7866
20
-31.6948
11
78.758
21
-31.7828
0
LINE
8
BLACK
6
CONTINUOUS
10
78.758
20
-31.7828
11
78.758
21
-31.829
0
LINE
8
BLACK
6
CONTINUOUS
10
78.758
20
-31.829
11
78.758
21
-34.029
0
LINE
8
BLACK
6
CONTINUOUS
10
78.758
20
-34.029
11
78.7429
21
-34.1242
0
LINE
8
BLACK
6
CONTINUOUS
10
78.7429
20
-34.1242
11
78.6992
21
-34.21
0
LINE
8
BLACK
6
CONTINUOUS
10
78.6992
20
-34.21
11
78.631
21
-34.2782
0
LINE
8
BLACK
6
CONTINUOUS
10
78.631
20
-34.2782
11
78.5452
21
-34.3219
0
LINE
8
BLACK
6
CONTINUOUS
10
78.5452
20
-34.3219
11
78.45
21
-34.337
0
LINE
8
BLACK
6
CONTINUOUS
10
78.45
20
-34.337
11
77.8925
21
-34.337
0
LINE
8
BLACK
6
CONTINUOUS
10
77.8925
20
-34.337
11
77.8925
21
-34.337
0
LINE
8
BLACK
6
CONTINUOUS
10
77.8925
20
-34.337
11
77.8925
21
-34.337
0
LINE
8
BLACK
6
CONTINUOUS
10
77.8925
20
-34.337
11
77.8098
21
-34.3257
0
LINE
8
BLACK
6
CONTINUOUS
10
77.8098
20
-34.3257
11
77.7331
21
-34.2926
0
LINE
8
BLACK
6
CONTINUOUS
10
77.7331
20
-34.2926
11
77.6682
21
-34.2401
0
LINE
8
BLACK
6
CONTINUOUS
10
77.6682
20
-34.2401
11
77.6197
21
-34.1721
0
LINE
8
BLACK
6
CONTINUOUS
10
77.6197
20
-34.1721
11
77.5913
21
-34.0935
0
LINE
8
BLACK
6
CONTINUOUS
10
77.5913
20
-34.0935
11
77.5914
21
-34.0935
0
LINE
8
BLACK
6
CONTINUOUS
10
77.5914
20
-34.0935
11
77.5914
21
-34.0935
0
LINE
8
BLACK
6
CONTINUOUS
10
77.5914
20
-34.0935
11
77.0943
21
-31.7741
0
LINE
8
BLACK
6
CONTINUOUS
10
77.0943
20
-31.7741
11
54.9057
21
-31.7741
0
LINE
8
BLACK
6
CONTINUOUS
10
54.9057
20
-31.7741
11
54.4086
21
-34.0935
0
LINE
8
BLACK
6
CONTINUOUS
10
54.4086
20
-34.0935
11
54.4086
21
-34.0935
0
LINE
8
BLACK
6
CONTINUOUS
10
54.4086
20
-34.0935
11
54.3802
21
-34.1721
0
LINE
8
BLACK
6
CONTINUOUS
10
54.3802
20
-34.1721
11
54.3318
21
-34.2401
0
LINE
8
BLACK
6
CONTINUOUS
10
54.3318
20
-34.2401
11
54.2668
21
-34.2925
0
LINE
8
BLACK
6
CONTINUOUS
10
54.2668
20
-34.2925
11
54.1902
21
-34.3257
0
LINE
8
BLACK
6
CONTINUOUS
10
54.1902
20
-34.3257
11
54.1076
21
-34.337
0
LINE
8
BLACK
6
CONTINUOUS
10
54.1076
20
-34.337
11
54.1075
21
-34.337
0
LINE
8
BLACK
6
CONTINUOUS
10
54.1075
20
-34.337
11
54.1075
21
-34.337
0
LINE
8
BLACK
6
CONTINUOUS
10
54.1075
20
-34.337
11
53.55
21
-34.337
0
LINE
8
BLACK
6
CONTINUOUS
10
53.55
20
-34.337
11
53.4548
21
-34.3219
0
LINE
8
BLACK
6
CONTINUOUS
10
53.4548
20
-34.3219
11
53.369
21
-34.2782
0
LINE
8
BLACK
6
CONTINUOUS
10
53.369
20
-34.2782
11
53.3008
21
-34.21
0
LINE
8
BLACK
6
CONTINUOUS
10
53.3008
20
-34.21
11
53.2571
21
-34.1242
0
LINE
8
BLACK
6
CONTINUOUS
10
53.2571
20
-34.1242
11
53.242
21
-34.029
0
LINE
8
BLACK
6
CONTINUOUS
10
53.242
20
-34.029
11
53.242
21
-31.829
0
LINE
8
BLACK
6
CONTINUOUS
10
53.242
20
-31.829
11
53.242
21
-31.7828
0
LINE
8
BLACK
6
CONTINUOUS
10
53.242
20
-31.7828
11
53.2134
21
-31.6948
0
LINE
8
BLACK
6
CONTINUOUS
10
53.2134
20
-31.6948
11
53.159
21
-31.62
0
LINE
8
BLACK
6
CONTINUOUS
10
53.159
20
-31.62
11
53.0842
21
-31.5656
0
LINE
8
BLACK
6
CONTINUOUS
10
53.0842
20
-31.5656
11
52.9962
21
-31.537
0
LINE
8
BLACK
6
CONTINUOUS
10
52.9962
20
-31.537
11
52.95
21
-31.537
0
LINE
8
BLACK
6
CONTINUOUS
10
52.95
20
-31.537
11
52.24
21
-31.537
0
LINE
8
BLACK
6
CONTINUOUS
10
52.24
20
-31.537
11
52.1191
21
-31.5224
0
LINE
8
BLACK
6
CONTINUOUS
10
52.1191
20
-31.5224
11
52.0052
21
-31.4795
0
LINE
8
BLACK
6
CONTINUOUS
10
52.0052
20
-31.4795
11
51.9048
21
-31.4107
0
LINE
8
BLACK
6
CONTINUOUS
10
51.9048
20
-31.4107
11
51.8236
21
-31.32
0
LINE
8
BLACK
6
CONTINUOUS
10
51.8236
20
-31.32
11
51.7663
21
-31.2126
0
LINE
8
BLACK
6
CONTINUOUS
10
51.7663
20
-31.2126
11
51.7363
21
-31.0946
0
LINE
8
BLACK
6
CONTINUOUS
10
51.7363
20
-31.0946
11
51.7351
21
-30.9739
0
LINE
8
BLACK
6
CONTINUOUS
10
51.7351
20
-30.9739
11
51.7351
21
-30.9738
0
LINE
8
BLACK
6
CONTINUOUS
10
51.7351
20
-30.9738
11
51.732
21
-29.7553
0
LINE
8
BLACK
6
CONTINUOUS
10
51.732
20
-29.7553
11
51.732
21
-29.7553
0
LINE
8
BLACK
6
CONTINUOUS
10
51.732
20
-29.7553
11
51.732
21
-29.7553
0
LINE
8
BLACK
6
CONTINUOUS
10
51.732
20
-29.7553
11
51.7332
21
-29.7525
0
LINE
8
BLACK
6
CONTINUOUS
10
51.7332
20
-29.7525
11
51.7343
21
-29.7497
0
LINE
8
BLACK
6
CONTINUOUS
10
51.7343
20
-29.7497
11
51.7343
21
-29.7497
0
LINE
8
BLACK
6
CONTINUOUS
10
51.7343
20
-29.7497
11
51.7343
21
-29.7497
0
LINE
8
BLACK
6
CONTINUOUS
10
51.7343
20
-29.7497
11
51.7371
21
-29.7485
0
LINE
8
BLACK
6
CONTINUOUS
10
51.7371
20
-29.7485
11
51.74
21
-29.7473
0
LINE
8
BLACK
6
CONTINUOUS
10
51.74
20
-29.7473
11
51.74
21
-29.7473
0
LINE
8
BLACK
6
CONTINUOUS
10
51.74
20
-29.7473
11
51.74
21
-29.7473
0
LINE
8
BLACK
6
CONTINUOUS
10
51.74
20
-29.7473
11
53.2291
21
-29.7473
0
LINE
8
BLACK
6
CONTINUOUS
10
53.2291
20
-29.7473
11
53.2291
21
-22.6096
0
LINE
8
BLACK
6
CONTINUOUS
10
53.2291
20
-22.6096
11
51.74
21
-22.6096
0
LINE
8
BLACK
6
CONTINUOUS
10
51.74
20
-22.6096
11
51.7343
21
-22.6072
0
LINE
8
BLACK
6
CONTINUOUS
10
51.7343
20
-22.6072
11
51.732
21
-22.6016
0
LINE
8
BLACK
6
CONTINUOUS
10
51.732
20
-22.6016
11
51.732
21
-22.6016
0
LINE
8
BLACK
6
CONTINUOUS
10
51.732
20
-22.6016
11
51.732
21
-21.3225
0
LINE
8
BLACK
6
CONTINUOUS
10
51.732
20
-21.3225
11
51.7321
21
-21.3224
0
LINE
8
BLACK
6
CONTINUOUS
10
51.7321
20
-21.3224
11
51.732
21
-21.3224
0
LINE
8
BLACK
6
CONTINUOUS
10
51.732
20
-21.3224
11
51.746
21
-21.2104
0
LINE
8
BLACK
6
CONTINUOUS
10
51.746
20
-21.2104
11
51.7844
21
-21.1043
0
LINE
8
BLACK
6
CONTINUOUS
10
51.7844
20
-21.1043
11
51.8452
21
-21.0093
0
LINE
8
BLACK
6
CONTINUOUS
10
51.8452
20
-21.0093
11
51.9255
21
-20.9301
0
LINE
8
BLACK
6
CONTINUOUS
10
51.9255
20
-20.9301
11
52.0213
21
-20.8705
0
LINE
8
BLACK
6
CONTINUOUS
10
52.0213
20
-20.8705
11
52.1279
21
-20.8335
0
LINE
8
BLACK
6
CONTINUOUS
10
52.1279
20
-20.8335
11
52.24
21
-20.821
0
LINE
8
BLACK
6
CONTINUOUS
10
52.24
20
-20.821
11
52.24
21
-20.821
0
LINE
8
BLACK
6
CONTINUOUS
10
52.24
20
-20.821
11
53.15
21
-20.821
0
LINE
8
BLACK
6
CONTINUOUS
10
53.15
20
-20.821
11
53.1747
21
-20.821
0
LINE
8
BLACK
6
CONTINUOUS
10
53.1747
20
-20.821
11
53.2173
21
-20.7963
0
LINE
8
BLACK
6
CONTINUOUS
10
53.2173
20
-20.7963
11
53.242
21
-20.7537
0
LINE
8
BLACK
6
CONTINUOUS
10
53.242
20
-20.7537
11
53.242
21
-20.729
0
LINE
8
BLACK
6
CONTINUOUS
10
53.242
20
-20.729
11
53.242
21
-19.829
0
LINE
8
BLACK
6
CONTINUOUS
10
53.242
20
-19.829
11
53.2571
21
-19.7338
0
LINE
8
BLACK
6
CONTINUOUS
10
53.2571
20
-19.7338
11
53.3008
21
-19.648
0
LINE
8
BLACK
6
CONTINUOUS
10
53.3008
20
-19.648
11
53.369
21
-19.5798
0
LINE
8
BLACK
6
CONTINUOUS
10
53.369
20
-19.5798
11
53.4548
21
-19.5361
0
LINE
8
BLACK
6
CONTINUOUS
10
53.4548
20
-19.5361
11
53.55
21
-19.521
0
LINE
8
BLACK
6
CONTINUOUS
10
53.55
20
-19.521
11
78.45
21
-19.521
0
LINE
8
BLACK
6
CONTINUOUS
10
53.55
20
-19.537
11
53.5038
21
-19.537
0
LINE
8
BLACK
6
CONTINUOUS
10
53.5038
20
-19.537
11
53.4158
21
-19.5656
0
LINE
8
BLACK
6
CONTINUOUS
10
53.4158
20
-19.5656
11
53.341
21
-19.62
0
LINE
8
BLACK
6
CONTINUOUS
10
53.341
20
-19.62
11
53.2866
21
-19.6948
0
LINE
8
BLACK
6
CONTINUOUS
10
53.2866
20
-19.6948
11
53.258
21
-19.7828
0
LINE
8
BLACK
6
CONTINUOUS
10
53.258
20
-19.7828
11
53.258
21
-19.829
0
LINE
8
BLACK
6
CONTINUOUS
10
53.258
20
-19.829
11
53.258
21
-20.729
0
LINE
8
BLACK
6
CONTINUOUS
10
53.258
20
-20.729
11
53.2498
21
-20.7703
0
LINE
8
BLACK
6
CONTINUOUS
10
53.2498
20
-20.7703
11
53.2264
21
-20.8054
0
LINE
8
BLACK
6
CONTINUOUS
10
53.2264
20
-20.8054
11
53.1913
21
-20.8288
0
LINE
8
BLACK
6
CONTINUOUS
10
53.1913
20
-20.8288
11
53.15
21
-20.837
0
LINE
8
BLACK
6
CONTINUOUS
10
53.15
20
-20.837
11
52.24
21
-20.837
0
LINE
8
BLACK
6
CONTINUOUS
10
52.24
20
-20.837
11
52.24
21
-20.837
0
LINE
8
BLACK
6
CONTINUOUS
10
52.24
20
-20.837
11
52.1758
21
-20.8369
0
LINE
8
BLACK
6
CONTINUOUS
10
52.1758
20
-20.8369
11
52.0516
21
-20.8699
0
LINE
8
BLACK
6
CONTINUOUS
10
52.0516
20
-20.8699
11
51.9401
21
-20.9337
0
LINE
8
BLACK
6
CONTINUOUS
10
51.9401
20
-20.9337
11
51.8486
21
-21.0239
0
LINE
8
BLACK
6
CONTINUOUS
10
51.8486
20
-21.0239
11
51.7834
21
-21.1346
0
LINE
8
BLACK
6
CONTINUOUS
10
51.7834
20
-21.1346
11
51.7488
21
-21.2583
0
LINE
8
BLACK
6
CONTINUOUS
10
51.7488
20
-21.2583
11
51.748
21
-21.3226
0
LINE
8
BLACK
6
CONTINUOUS
10
51.748
20
-21.3226
11
51.748
21
-22.5936
0
LINE
8
BLACK
6
CONTINUOUS
10
51.748
20
-22.5936
11
53.2371
21
-22.5936
0
LINE
8
BLACK
6
CONTINUOUS
10
53.2371
20
-22.5936
11
53.2428
21
-22.5959
0
LINE
8
BLACK
6
CONTINUOUS
10
53.2428
20
-22.5959
11
53.2451
21
-22.6016
0
LINE
8
BLACK
6
CONTINUOUS
10
53.2451
20
-22.6016
11
53.2451
21
-29.7553
0
LINE
8
BLACK
6
CONTINUOUS
10
53.2451
20
-29.7553
11
53.2428
21
-29.761
0
LINE
8
BLACK
6
CONTINUOUS
10
53.2428
20
-29.761
11
53.2371
21
-29.7633
0
LINE
8
BLACK
6
CONTINUOUS
10
53.2371
20
-29.7633
11
51.748
21
-29.7633
0
LINE
8
BLACK
6
CONTINUOUS
10
51.748
20
-29.7633
11
51.7511
21
-30.9737
0
LINE
8
BLACK
6
CONTINUOUS
10
51.7511
20
-30.9737
11
51.7509
21
-30.9741
0
LINE
8
BLACK
6
CONTINUOUS
10
51.7509
20
-30.9741
11
51.751
21
-30.9747
0
LINE
8
BLACK
6
CONTINUOUS
10
51.751
20
-30.9747
11
51.7444
21
-31.0337
0
LINE
8
BLACK
6
CONTINUOUS
10
51.7444
20
-31.0337
11
51.7597
21
-31.1514
0
LINE
8
BLACK
6
CONTINUOUS
10
51.7597
20
-31.1514
11
51.8027
21
-31.2622
0
LINE
8
BLACK
6
CONTINUOUS
10
51.8027
20
-31.2622
11
51.8707
21
-31.3595
0
LINE
8
BLACK
6
CONTINUOUS
10
51.8707
20
-31.3595
11
51.9599
21
-31.4379
0
LINE
8
BLACK
6
CONTINUOUS
10
51.9599
20
-31.4379
11
52.0653
21
-31.4928
0
LINE
8
BLACK
6
CONTINUOUS
10
52.0653
20
-31.4928
11
52.1806
21
-31.521
0
LINE
8
BLACK
6
CONTINUOUS
10
52.1806
20
-31.521
11
52.24
21
-31.521
0
LINE
8
BLACK
6
CONTINUOUS
10
52.24
20
-31.521
11
52.95
21
-31.521
0
LINE
8
BLACK
6
CONTINUOUS
10
52.95
20
-31.521
11
53.0452
21
-31.5361
0
LINE
8
BLACK
6
CONTINUOUS
10
53.0452
20
-31.5361
11
53.131
21
-31.5798
0
LINE
8
BLACK
6
CONTINUOUS
10
53.131
20
-31.5798
11
53.1992
21
-31.648
0
LINE
8
BLACK
6
CONTINUOUS
10
53.1992
20
-31.648
11
53.2429
21
-31.7338
0
LINE
8
BLACK
6
CONTINUOUS
10
53.2429
20
-31.7338
11
53.258
21
-31.829
0
LINE
8
BLACK
6
CONTINUOUS
10
53.258
20
-31.829
11
53.258
21
-34.029
0
LINE
8
BLACK
6
CONTINUOUS
10
53.258
20
-34.029
11
53.258
21
-34.0752
0
LINE
8
BLACK
6
CONTINUOUS
10
53.258
20
-34.0752
11
53.2866
21
-34.1632
0
LINE
8
BLACK
6
CONTINUOUS
10
53.2866
20
-34.1632
11
53.341
21
-34.238
0
LINE
8
BLACK
6
CONTINUOUS
10
53.341
20
-34.238
11
53.4158
21
-34.2924
0
LINE
8
BLACK
6
CONTINUOUS
10
53.4158
20
-34.2924
11
53.5038
21
-34.321
0
LINE
8
BLACK
6
CONTINUOUS
10
53.5038
20
-34.321
11
53.55
21
-34.321
0
LINE
8
BLACK
6
CONTINUOUS
10
53.55
20
-34.321
11
54.1075
21
-34.321
0
LINE
8
BLACK
6
CONTINUOUS
10
54.1075
20
-34.321
11
54.1075
21
-34.321
0
LINE
8
BLACK
6
CONTINUOUS
10
54.1075
20
-34.321
11
54.1075
21
-34.321
0
LINE
8
BLACK
6
CONTINUOUS
10
54.1075
20
-34.321
11
54.1474
21
-34.321
0
LINE
8
BLACK
6
CONTINUOUS
10
54.1474
20
-34.321
11
54.2244
21
-34.2995
0
LINE
8
BLACK
6
CONTINUOUS
10
54.2244
20
-34.2995
11
54.2928
21
-34.2582
0
LINE
8
BLACK
6
CONTINUOUS
10
54.2928
20
-34.2582
11
54.3475
21
-34.2
0
LINE
8
BLACK
6
CONTINUOUS
10
54.3475
20
-34.2
11
54.3846
21
-34.1293
0
LINE
8
BLACK
6
CONTINUOUS
10
54.3846
20
-34.1293
11
54.393
21
-34.0902
0
LINE
8
BLACK
6
CONTINUOUS
10
54.393
20
-34.0902
11
54.393
21
-34.0902
0
LINE
8
BLACK
6
CONTINUOUS
10
54.393
20
-34.0902
11
54.8914
21
-31.7645
0
LINE
8
BLACK
6
CONTINUOUS
10
54.8914
20
-31.7645
11
54.8927
21
-31.7626
0
LINE
8
BLACK
6
CONTINUOUS
10
54.8927
20
-31.7626
11
54.8935
21
-31.7605
0
LINE
8
BLACK
6
CONTINUOUS
10
54.8935
20
-31.7605
11
54.8943
21
-31.7601
0
LINE
8
BLACK
6
CONTINUOUS
10
54.8943
20
-31.7601
11
54.8948
21
-31.7594
0
LINE
8
BLACK
6
CONTINUOUS
10
54.8948
20
-31.7594
11
54.8971
21
-31.759
0
LINE
8
BLACK
6
CONTINUOUS
10
54.8971
20
-31.759
11
54.8992
21
-31.7581
0
LINE
8
BLACK
6
CONTINUOUS
10
54.8992
20
-31.7581
11
77.1008
21
-31.7581
0
LINE
8
BLACK
6
CONTINUOUS
10
77.1008
20
-31.7581
11
77.1029
21
-31.759
0
LINE
8
BLACK
6
CONTINUOUS
10
77.1029
20
-31.759
11
77.1052
21
-31.7594
0
LINE
8
BLACK
6
CONTINUOUS
10
77.1052
20
-31.7594
11
77.1057
21
-31.7601
0
LINE
8
BLACK
6
CONTINUOUS
10
77.1057
20
-31.7601
11
77.1065
21
-31.7605
0
LINE
8
BLACK
6
CONTINUOUS
10
77.1065
20
-31.7605
11
77.1073
21
-31.7626
0
LINE
8
BLACK
6
CONTINUOUS
10
77.1073
20
-31.7626
11
77.1086
21
-31.7645
0
LINE
8
BLACK
6
CONTINUOUS
10
77.1086
20
-31.7645
11
77.607
21
-34.0902
0
LINE
8
BLACK
6
CONTINUOUS
10
77.607
20
-34.0902
11
77.607
21
-34.0902
0
LINE
8
BLACK
6
CONTINUOUS
10
77.607
20
-34.0902
11
77.6153
21
-34.1293
0
LINE
8
BLACK
6
CONTINUOUS
10
77.6153
20
-34.1293
11
77.6524
21
-34.2
0
LINE
8
BLACK
6
CONTINUOUS
10
77.6524
20
-34.2
11
77.7072
21
-34.2582
0
LINE
8
BLACK
6
CONTINUOUS
10
77.7072
20
-34.2582
11
77.7756
21
-34.2996
0
LINE
8
BLACK
6
CONTINUOUS
10
77.7756
20
-34.2996
11
77.8526
21
-34.321
0
LINE
8
BLACK
6
CONTINUOUS
10
77.8526
20
-34.321
11
77.8925
21
-34.321
0
LINE
8
BLACK
6
CONTINUOUS
10
77.8925
20
-34.321
11
77.8925
21
-34.321
0
LINE
8
BLACK
6
CONTINUOUS
10
77.8925
20
-34.321
11
78.45
21
-34.321
0
LINE
8
BLACK
6
CONTINUOUS
10
78.45
20
-34.321
11
78.4962
21
-34.321
0
LINE
8
BLACK
6
CONTINUOUS
10
78.4962
20
-34.321
11
78.5842
21
-34.2924
0
LINE
8
BLACK
6
CONTINUOUS
10
78.5842
20
-34.2924
11
78.659
21
-34.238
0
LINE
8
BLACK
6
CONTINUOUS
10
78.659
20
-34.238
11
78.7134
21
-34.1632
0
LINE
8
BLACK
6
CONTINUOUS
10
78.7134
20
-34.1632
11
78.742
21
-34.0752
0
LINE
8
BLACK
6
CONTINUOUS
10
78.742
20
-34.0752
11
78.742
21
-34.029
0
LINE
8
BLACK
6
CONTINUOUS
10
78.742
20
-34.029
11
78.742
21
-31.829
0
LINE
8
BLACK
6
CONTINUOUS
10
78.742
20
-31.829
11
78.7571
21
-31.7338
0
LINE
8
BLACK
6
CONTINUOUS
10
78.7571
20
-31.7338
11
78.8008
21
-31.648
0
LINE
8
BLACK
6
CONTINUOUS
10
78.8008
20
-31.648
11
78.869
21
-31.5798
0
LINE
8
BLACK
6
CONTINUOUS
10
78.869
20
-31.5798
11
78.9548
21
-31.5361
0
LINE
8
BLACK
6
CONTINUOUS
10
78.9548
20
-31.5361
11
79.05
21
-31.521
0
LINE
8
BLACK
6
CONTINUOUS
10
79.05
20
-31.521
11
79.76
21
-31.521
0
LINE
8
BLACK
6
CONTINUOUS
10
79.76
20
-31.521
11
79.8154
21
-31.521
0
LINE
8
BLACK
6
CONTINUOUS
10
79.8154
20
-31.521
11
79.9235
21
-31.4963
0
LINE
8
BLACK
6
CONTINUOUS
10
79.9235
20
-31.4963
11
80.0234
21
-31.4482
0
LINE
8
BLACK
6
CONTINUOUS
10
80.0234
20
-31.4482
11
80.1101
21
-31.3791
0
LINE
8
BLACK
6
CONTINUOUS
10
80.1101
20
-31.3791
11
80.1792
21
-31.2924
0
LINE
8
BLACK
6
CONTINUOUS
10
80.1792
20
-31.2924
11
80.2273
21
-31.1925
0
LINE
8
BLACK
6
CONTINUOUS
10
80.2273
20
-31.1925
11
80.252
21
-31.0844
0
LINE
8
BLACK
6
CONTINUOUS
10
80.252
20
-31.0844
11
80.252
21
-31.029
0
LINE
8
BLACK
6
CONTINUOUS
10
80.252
20
-31.029
11
80.252
21
-29.8186
0
LINE
8
BLACK
6
CONTINUOUS
10
80.252
20
-29.8186
11
78.7629
21
-29.8186
0
LINE
8
BLACK
6
CONTINUOUS
10
78.7629
20
-29.8186
11
78.7572
21
-29.8162
0
LINE
8
BLACK
6
CONTINUOUS
10
78.7572
20
-29.8162
11
78.7549
21
-29.8106
0
LINE
8
BLACK
6
CONTINUOUS
10
78.7549
20
-29.8106
11
78.7549
21
-22.6146
0
LINE
8
BLACK
6
CONTINUOUS
10
78.7549
20
-22.6146
11
78.7572
21
-22.609
0
LINE
8
BLACK
6
CONTINUOUS
10
78.7572
20
-22.609
11
78.7629
21
-22.6066
0
LINE
8
BLACK
6
CONTINUOUS
10
78.7629
20
-22.6066
11
80.252
21
-22.6066
0
LINE
8
BLACK
6
CONTINUOUS
10
80.252
20
-22.6066
11
80.252
21
-21.3355
0
LINE
8
BLACK
6
CONTINUOUS
10
80.252
20
-21.3355
11
80.252
21
-21.3355
0
LINE
8
BLACK
6
CONTINUOUS
10
80.252
20
-21.3355
11
80.252
21
-21.3354
0
LINE
8
BLACK
6
CONTINUOUS
10
80.252
20
-21.3354
11
80.2527
21
-21.2795
0
LINE
8
BLACK
6
CONTINUOUS
10
80.2527
20
-21.2795
11
80.229
21
-21.1703
0
LINE
8
BLACK
6
CONTINUOUS
10
80.229
20
-21.1703
11
80.1815
21
-21.0691
0
LINE
8
BLACK
6
CONTINUOUS
10
80.1815
20
-21.0691
11
80.1124
21
-20.9812
0
LINE
8
BLACK
6
CONTINUOUS
10
80.1124
20
-20.9812
11
80.0254
21
-20.911
0
LINE
8
BLACK
6
CONTINUOUS
10
80.0254
20
-20.911
11
79.9248
21
-20.8621
0
LINE
8
BLACK
6
CONTINUOUS
10
79.9248
20
-20.8621
11
79.8159
21
-20.837
0
LINE
8
BLACK
6
CONTINUOUS
10
79.8159
20
-20.837
11
79.76
21
-20.837
0
LINE
8
BLACK
6
CONTINUOUS
10
79.76
20
-20.837
11
78.85
21
-20.837
0
LINE
8
BLACK
6
CONTINUOUS
10
78.85
20
-20.837
11
78.8087
21
-20.8288
0
LINE
8
BLACK
6
CONTINUOUS
10
78.8087
20
-20.8288
11
78.7736
21
-20.8054
0
LINE
8
BLACK
6
CONTINUOUS
10
78.7736
20
-20.8054
11
78.7502
21
-20.7703
0
LINE
8
BLACK
6
CONTINUOUS
10
78.7502
20
-20.7703
11
78.742
21
-20.729
0
LINE
8
BLACK
6
CONTINUOUS
10
78.742
20
-20.729
11
78.742
21
-19.829
0
LINE
8
BLACK
6
CONTINUOUS
10
78.742
20
-19.829
11
78.742
21
-19.7828
0
LINE
8
BLACK
6
CONTINUOUS
10
78.742
20
-19.7828
11
78.7134
21
-19.6948
0
LINE
8
BLACK
6
CONTINUOUS
10
78.7134
20
-19.6948
11
78.659
21
-19.62
0
LINE
8
BLACK
6
CONTINUOUS
10
78.659
20
-19.62
11
78.5842
21
-19.5656
0
LINE
8
BLACK
6
CONTINUOUS
10
78.5842
20
-19.5656
11
78.4962
21
-19.537
0
LINE
8
BLACK
6
CONTINUOUS
10
78.4962
20
-19.537
11
78.45
21
-19.537
0
LINE
8
BLACK
6
CONTINUOUS
10
78.45
20
-19.537
11
53.55
21
-19.537
0
LINE
8
BLACK
6
CONTINUOUS
10
40.5458
20
-22.6703
11
40.9026
21
-22.7488
0
LINE
8
BLACK
6
CONTINUOUS
10
40.9026
20
-22.7488
11
41.2489
21
-22.8655
0
LINE
8
BLACK
6
CONTINUOUS
10
41.2489
20
-22.8655
11
41.5804
21
-23.0189
0
LINE
8
BLACK
6
CONTINUOUS
10
41.5804
20
-23.0189
11
41.8935
21
-23.2072
0
LINE
8
BLACK
6
CONTINUOUS
10
41.8935
20
-23.2072
11
42.1844
21
-23.4283
0
LINE
8
BLACK
6
CONTINUOUS
10
42.1844
20
-23.4283
11
42.4496
21
-23.6796
0
LINE
8
BLACK
6
CONTINUOUS
10
42.4496
20
-23.6796
11
42.6861
21
-23.9581
0
LINE
8
BLACK
6
CONTINUOUS
10
42.6861
20
-23.9581
11
42.8912
21
-24.2604
0
LINE
8
BLACK
6
CONTINUOUS
10
42.8912
20
-24.2604
11
43.0623
21
-24.5832
0
LINE
8
BLACK
6
CONTINUOUS
10
43.0623
20
-24.5832
11
43.1975
21
-24.9226
0
LINE
8
BLACK
6
CONTINUOUS
10
43.1975
20
-24.9226
11
43.2953
21
-25.2747
0
LINE
8
BLACK
6
CONTINUOUS
10
43.2953
20
-25.2747
11
43.3544
21
-25.6352
0
LINE
8
BLACK
6
CONTINUOUS
10
43.3544
20
-25.6352
11
43.3741
21
-26
0
LINE
8
BLACK
6
CONTINUOUS
10
43.3741
20
-26
11
43.3544
21
-26.3648
0
LINE
8
BLACK
6
CONTINUOUS
10
43.3544
20
-26.3648
11
43.2953
21
-26.7254
0
LINE
8
BLACK
6
CONTINUOUS
10
43.2953
20
-26.7254
11
43.1975
21
-27.0774
0
LINE
8
BLACK
6
CONTINUOUS
10
43.1975
20
-27.0774
11
43.0623
21
-27.4168
0
LINE
8
BLACK
6
CONTINUOUS
10
43.0623
20
-27.4168
11
42.8912
21
-27.7396
0
LINE
8
BLACK
6
CONTINUOUS
10
42.8912
20
-27.7396
11
42.6861
21
-28.042
0
LINE
8
BLACK
6
CONTINUOUS
10
42.6861
20
-28.042
11
42.4496
21
-28.3205
0
LINE
8
BLACK
6
CONTINUOUS
10
42.4496
20
-28.3205
11
42.1844
21
-28.5717
0
LINE
8
BLACK
6
CONTINUOUS
10
42.1844
20
-28.5717
11
41.8935
21
-28.7928
0
LINE
8
BLACK
6
CONTINUOUS
10
41.8935
20
-28.7928
11
41.5804
21
-28.9812
0
LINE
8
BLACK
6
CONTINUOUS
10
41.5804
20
-28.9812
11
41.2489
21
-29.1346
0
LINE
8
BLACK
6
CONTINUOUS
10
41.2489
20
-29.1346
11
40.9026
21
-29.2512
0
LINE
8
BLACK
6
CONTINUOUS
10
40.9026
20
-29.2512
11
40.5458
21
-29.3298
0
LINE
8
BLACK
6
CONTINUOUS
10
40.5458
20
-29.3298
11
40.1826
21
-29.3693
0
LINE
8
BLACK
6
CONTINUOUS
10
40.1826
20
-29.3693
11
39.8173
21
-29.3693
0
LINE
8
BLACK
6
CONTINUOUS
10
39.8173
20
-29.3693
11
39.4541
21
-29.3298
0
LINE
8
BLACK
6
CONTINUOUS
10
39.4541
20
-29.3298
11
39.0973
21
-29.2512
0
LINE
8
BLACK
6
CONTINUOUS
10
39.0973
20
-29.2512
11
38.751
21
-29.1346
0
LINE
8
BLACK
6
CONTINUOUS
10
38.751
20
-29.1346
11
38.4194
21
-28.9812
0
LINE
8
BLACK
6
CONTINUOUS
10
38.4194
20
-28.9812
11
38.1064
21
-28.7928
0
LINE
8
BLACK
6
CONTINUOUS
10
38.1064
20
-28.7928
11
37.8155
21
-28.5717
0
LINE
8
BLACK
6
CONTINUOUS
10
37.8155
20
-28.5717
11
37.5503
21
-28.3205
0
LINE
8
BLACK
6
CONTINUOUS
10
37.5503
20
-28.3205
11
37.3138
21
-28.042
0
LINE
8
BLACK
6
CONTINUOUS
10
37.3138
20
-28.042
11
37.1087
21
-27.7396
0
LINE
8
BLACK
6
CONTINUOUS
10
37.1087
20
-27.7396
11
36.9376
21
-27.4168
0
LINE
8
BLACK
6
CONTINUOUS
10
36.9376
20
-27.4168
11
36.8024
21
-27.0774
0
LINE
8
BLACK
6
CONTINUOUS
10
36.8024
20
-27.0774
11
36.7046
21
-26.7254
0
LINE
8
BLACK
6
CONTINUOUS
10
36.7046
20
-26.7254
11
36.6455
21
-26.3648
0
LINE
8
BLACK
6
CONTINUOUS
10
36.6455
20
-26.3648
11
36.6258
21
-26
0
LINE
8
BLACK
6
CONTINUOUS
10
36.6258
20
-26
11
36.6455
21
-25.6352
0
LINE
8
BLACK
6
CONTINUOUS
10
36.6455
20
-25.6352
11
36.7046
21
-25.2747
0
LINE
8
BLACK
6
CONTINUOUS
10
36.7046
20
-25.2747
11
36.8024
21
-24.9226
0
LINE
8
BLACK
6
CONTINUOUS
10
36.8024
20
-24.9226
11
36.9376
21
-24.5832
0
LINE
8
BLACK
6
CONTINUOUS
10
36.9376
20
-24.5832
11
37.1087
21
-24.2604
0
LINE
8
BLACK
6
CONTINUOUS
10
37.1087
20
-24.2604
11
37.3138
21
-23.9581
0
LINE
8
BLACK
6
CONTINUOUS
10
37.3138
20
-23.9581
11
37.5503
21
-23.6796
0
LINE
8
BLACK
6
CONTINUOUS
10
37.5503
20
-23.6796
11
37.8155
21
-23.4283
0
LINE
8
BLACK
6
CONTINUOUS
10
37.8155
20
-23.4283
11
38.1064
21
-23.2072
0
LINE
8
BLACK
6
CONTINUOUS
10
38.1064
20
-23.2072
11
38.4194
21
-23.0189
0
LINE
8
BLACK
6
CONTINUOUS
10
38.4194
20
-23.0189
11
38.751
21
-22.8655
0
LINE
8
BLACK
6
CONTINUOUS
10
38.751
20
-22.8655
11
39.0973
21
-22.7488
0
LINE
8
BLACK
6
CONTINUOUS
10
39.0973
20
-22.7488
11
39.4541
21
-22.6703
0
LINE
8
BLACK
6
CONTINUOUS
10
39.4541
20
-22.6703
11
39.8173
21
-22.6308
0
LINE
8
BLACK
6
CONTINUOUS
10
39.8173
20
-22.6308
11
40.1826
21
-22.6308
0
LINE
8
BLACK
6
CONTINUOUS
10
40.1826
20
-22.6308
11
40.5458
21
-22.6703
0
LINE
8
BLACK
6
CONTINUOUS
10
36.793
20
-26.3614
11
36.8536
21
-26.7182
0
LINE
8
BLACK
6
CONTINUOUS
10
36.8536
20
-26.7182
11
36.9538
21
-27.0659
0
LINE
8
BLACK
6
CONTINUOUS
10
36.9538
20
-27.0659
11
37.0923
21
-27.4003
0
LINE
8
BLACK
6
CONTINUOUS
10
37.0923
20
-27.4003
11
37.2673
21
-27.717
0
LINE
8
BLACK
6
CONTINUOUS
10
37.2673
20
-27.717
11
37.4768
21
-28.0122
0
LINE
8
BLACK
6
CONTINUOUS
10
37.4768
20
-28.0122
11
37.7179
21
-28.2821
0
LINE
8
BLACK
6
CONTINUOUS
10
37.7179
20
-28.2821
11
37.9878
21
-28.5232
0
LINE
8
BLACK
6
CONTINUOUS
10
37.9878
20
-28.5232
11
38.2829
21
-28.7326
0
LINE
8
BLACK
6
CONTINUOUS
10
38.2829
20
-28.7326
11
38.5997
21
-28.9077
0
LINE
8
BLACK
6
CONTINUOUS
10
38.5997
20
-28.9077
11
38.934
21
-29.0462
0
LINE
8
BLACK
6
CONTINUOUS
10
38.934
20
-29.0462
11
39.2818
21
-29.1464
0
LINE
8
BLACK
6
CONTINUOUS
10
39.2818
20
-29.1464
11
39.6386
21
-29.207
0
LINE
8
BLACK
6
CONTINUOUS
10
39.6386
20
-29.207
11
39.9999
21
-29.2273
0
LINE
8
BLACK
6
CONTINUOUS
10
39.9999
20
-29.2273
11
40.3613
21
-29.207
0
LINE
8
BLACK
6
CONTINUOUS
10
40.3613
20
-29.207
11
40.7181
21
-29.1464
0
LINE
8
BLACK
6
CONTINUOUS
10
40.7181
20
-29.1464
11
41.0659
21
-29.0462
0
LINE
8
BLACK
6
CONTINUOUS
10
41.0659
20
-29.0462
11
41.4002
21
-28.9077
0
LINE
8
BLACK
6
CONTINUOUS
10
41.4002
20
-28.9077
11
41.717
21
-28.7326
0
LINE
8
BLACK
6
CONTINUOUS
10
41.717
20
-28.7326
11
42.0121
21
-28.5232
0
LINE
8
BLACK
6
CONTINUOUS
10
42.0121
20
-28.5232
11
42.282
21
-28.2821
0
LINE
8
BLACK
6
CONTINUOUS
10
42.282
20
-28.2821
11
42.5231
21
-28.0122
0
LINE
8
BLACK
6
CONTINUOUS
10
42.5231
20
-28.0122
11
42.7326
21
-27.717
0
LINE
8
BLACK
6
CONTINUOUS
10
42.7326
20
-27.717
11
42.9076
21
-27.4003
0
LINE
8
BLACK
6
CONTINUOUS
10
42.9076
20
-27.4003
11
43.0461
21
-27.0659
0
LINE
8
BLACK
6
CONTINUOUS
10
43.0461
20
-27.0659
11
43.1463
21
-26.7182
0
LINE
8
BLACK
6
CONTINUOUS
10
43.1463
20
-26.7182
11
43.2069
21
-26.3614
0
LINE
8
BLACK
6
CONTINUOUS
10
43.2069
20
-26.3614
11
43.2272
21
-26
0
LINE
8
BLACK
6
CONTINUOUS
10
43.2272
20
-26
11
43.2069
21
-25.6387
0
LINE
8
BLACK
6
CONTINUOUS
10
43.2069
20
-25.6387
11
43.1463
21
-25.2819
0
LINE
8
BLACK
6
CONTINUOUS
10
43.1463
20
-25.2819
11
43.0461
21
-24.9341
0
LINE
8
BLACK
6
CONTINUOUS
10
43.0461
20
-24.9341
11
42.9076
21
-24.5998
0
LINE
8
BLACK
6
CONTINUOUS
10
42.9076
20
-24.5998
11
42.7326
21
-24.283
0
LINE
8
BLACK
6
CONTINUOUS
10
42.7326
20
-24.283
11
42.5231
21
-23.9879
0
LINE
8
BLACK
6
CONTINUOUS
10
42.5231
20
-23.9879
11
42.282
21
-23.718
0
LINE
8
BLACK
6
CONTINUOUS
10
42.282
20
-23.718
11
42.0121
21
-23.4768
0
LINE
8
BLACK
6
CONTINUOUS
10
42.0121
20
-23.4768
11
41.717
21
-23.2674
0
LINE
8
BLACK
6
CONTINUOUS
10
41.717
20
-23.2674
11
41.4002
21
-23.0923
0
LINE
8
BLACK
6
CONTINUOUS
10
41.4002
20
-23.0923
11
41.0659
21
-22.9539
0
LINE
8
BLACK
6
CONTINUOUS
10
41.0659
20
-22.9539
11
40.7181
21
-22.8537
0
LINE
8
BLACK
6
CONTINUOUS
10
40.7181
20
-22.8537
11
40.3613
21
-22.793
0
LINE
8
BLACK
6
CONTINUOUS
10
40.3613
20
-22.793
11
39.9999
21
-22.7727
0
LINE
8
BLACK
6
CONTINUOUS
10
39.9999
20
-22.7727
11
39.6386
21
-22.793
0
LINE
8
BLACK
6
CONTINUOUS
10
39.6386
20
-22.793
11
39.2818
21
-22.8537
0
LINE
8
BLACK
6
CONTINUOUS
10
39.2818
20
-22.8537
11
38.934
21
-22.9539
0
LINE
8
BLACK
6
CONTINUOUS
10
38.934
20
-22.9539
11
38.5997
21
-23.0923
0
LINE
8
BLACK
6
CONTINUOUS
10
38.5997
20
-23.0923
11
38.2829
21
-23.2674
0
LINE
8
BLACK
6
CONTINUOUS
10
38.2829
20
-23.2674
11
37.9878
21
-23.4768
0
LINE
8
BLACK
6
CONTINUOUS
10
37.9878
20
-23.4768
11
37.7179
21
-23.718
0
LINE
8
BLACK
6
CONTINUOUS
10
37.7179
20
-23.718
11
37.4768
21
-23.9879
0
LINE
8
BLACK
6
CONTINUOUS
10
37.4768
20
-23.9879
11
37.2673
21
-24.283
0
LINE
8
BLACK
6
CONTINUOUS
10
37.2673
20
-24.283
11
37.0923
21
-24.5998
0
LINE
8
BLACK
6
CONTINUOUS
10
37.0923
20
-24.5998
11
36.9538
21
-24.9341
0
LINE
8
BLACK
6
CONTINUOUS
10
36.9538
20
-24.9341
11
36.8536
21
-25.2819
0
LINE
8
BLACK
6
CONTINUOUS
10
36.8536
20
-25.2819
11
36.793
21
-25.6387
0
LINE
8
BLACK
6
CONTINUOUS
10
36.793
20
-25.6387
11
36.7727
21
-26
0
LINE
8
BLACK
6
CONTINUOUS
10
36.7727
20
-26
11
36.793
21
-26.3614
0
LINE
8
BLACK
6
CONTINUOUS
10
92.5458
20
-22.6703
11
92.9026
21
-22.7488
0
LINE
8
BLACK
6
CONTINUOUS
10
92.9026
20
-22.7488
11
93.2489
21
-22.8655
0
LINE
8
BLACK
6
CONTINUOUS
10
93.2489
20
-22.8655
11
93.5804
21
-23.0189
0
LINE
8
BLACK
6
CONTINUOUS
10
93.5804
20
-23.0189
11
93.8935
21
-23.2072
0
LINE
8
BLACK
6
CONTINUOUS
10
93.8935
20
-23.2072
11
94.1844
21
-23.4283
0
LINE
8
BLACK
6
CONTINUOUS
10
94.1844
20
-23.4283
11
94.4496
21
-23.6796
0
LINE
8
BLACK
6
CONTINUOUS
10
94.4496
20
-23.6796
11
94.6861
21
-23.9581
0
LINE
8
BLACK
6
CONTINUOUS
10
94.6861
20
-23.9581
11
94.8912
21
-24.2604
0
LINE
8
BLACK
6
CONTINUOUS
10
94.8912
20
-24.2604
11
95.0623
21
-24.5832
0
LINE
8
BLACK
6
CONTINUOUS
10
95.0623
20
-24.5832
11
95.1975
21
-24.9226
0
LINE
8
BLACK
6
CONTINUOUS
10
95.1975
20
-24.9226
11
95.2953
21
-25.2747
0
LINE
8
BLACK
6
CONTINUOUS
10
95.2953
20
-25.2747
11
95.3544
21
-25.6352
0
LINE
8
BLACK
6
CONTINUOUS
10
95.3544
20
-25.6352
11
95.3741
21
-26
0
LINE
8
BLACK
6
CONTINUOUS
10
95.3741
20
-26
11
95.3544
21
-26.3648
0
LINE
8
BLACK
6
CONTINUOUS
10
95.3544
20
-26.3648
11
95.2953
21
-26.7254
0
LINE
8
BLACK
6
CONTINUOUS
10
95.2953
20
-26.7254
11
95.1975
21
-27.0774
0
LINE
8
BLACK
6
CONTINUOUS
10
95.1975
20
-27.0774
11
95.0623
21
-27.4168
0
LINE
8
BLACK
6
CONTINUOUS
10
95.0623
20
-27.4168
11
94.8912
21
-27.7396
0
LINE
8
BLACK
6
CONTINUOUS
10
94.8912
20
-27.7396
11
94.6861
21
-28.042
0
LINE
8
BLACK
6
CONTINUOUS
10
94.6861
20
-28.042
11
94.4496
21
-28.3205
0
LINE
8
BLACK
6
CONTINUOUS
10
94.4496
20
-28.3205
11
94.1844
21
-28.5717
0
LINE
8
BLACK
6
CONTINUOUS
10
94.1844
20
-28.5717
11
93.8935
21
-28.7928
0
LINE
8
BLACK
6
CONTINUOUS
10
93.8935
20
-28.7928
11
93.5804
21
-28.9812
0
LINE
8
BLACK
6
CONTINUOUS
10
93.5804
20
-28.9812
11
93.2489
21
-29.1346
0
LINE
8
BLACK
6
CONTINUOUS
10
93.2489
20
-29.1346
11
92.9026
21
-29.2512
0
LINE
8
BLACK
6
CONTINUOUS
10
92.9026
20
-29.2512
11
92.5458
21
-29.3298
0
LINE
8
BLACK
6
CONTINUOUS
10
92.5458
20
-29.3298
11
92.1826
21
-29.3693
0
LINE
8
BLACK
6
CONTINUOUS
10
92.1826
20
-29.3693
11
91.8173
21
-29.3693
0
LINE
8
BLACK
6
CONTINUOUS
10
91.8173
20
-29.3693
11
91.4541
21
-29.3298
0
LINE
8
BLACK
6
CONTINUOUS
10
91.4541
20
-29.3298
11
91.0973
21
-29.2512
0
LINE
8
BLACK
6
CONTINUOUS
10
91.0973
20
-29.2512
11
90.751
21
-29.1346
0
LINE
8
BLACK
6
CONTINUOUS
10
90.751
20
-29.1346
11
90.4194
21
-28.9812
0
LINE
8
BLACK
6
CONTINUOUS
10
90.4194
20
-28.9812
11
90.1064
21
-28.7928
0
LINE
8
BLACK
6
CONTINUOUS
10
90.1064
20
-28.7928
11
89.8155
21
-28.5717
0
LINE
8
BLACK
6
CONTINUOUS
10
89.8155
20
-28.5717
11
89.5503
21
-28.3205
0
LINE
8
BLACK
6
CONTINUOUS
10
89.5503
20
-28.3205
11
89.3138
21
-28.042
0
LINE
8
BLACK
6
CONTINUOUS
10
89.3138
20
-28.042
11
89.1087
21
-27.7396
0
LINE
8
BLACK
6
CONTINUOUS
10
89.1087
20
-27.7396
11
88.9376
21
-27.4168
0
LINE
8
BLACK
6
CONTINUOUS
10
88.9376
20
-27.4168
11
88.8024
21
-27.0774
0
LINE
8
BLACK
6
CONTINUOUS
10
88.8024
20
-27.0774
11
88.7046
21
-26.7254
0
LINE
8
BLACK
6
CONTINUOUS
10
88.7046
20
-26.7254
11
88.6455
21
-26.3648
0
LINE
8
BLACK
6
CONTINUOUS
10
88.6455
20
-26.3648
11
88.6258
21
-26
0
LINE
8
BLACK
6
CONTINUOUS
10
88.6258
20
-26
11
88.6455
21
-25.6352
0
LINE
8
BLACK
6
CONTINUOUS
10
88.6455
20
-25.6352
11
88.7046
21
-25.2747
0
LINE
8
BLACK
6
CONTINUOUS
10
88.7046
20
-25.2747
11
88.8024
21
-24.9226
0
LINE
8
BLACK
6
CONTINUOUS
10
88.8024
20
-24.9226
11
88.9376
21
-24.5832
0
LINE
8
BLACK
6
CONTINUOUS
10
88.9376
20
-24.5832
11
89.1087
21
-24.2604
0
LINE
8
BLACK
6
CONTINUOUS
10
89.1087
20
-24.2604
11
89.3138
21
-23.9581
0
LINE
8
BLACK
6
CONTINUOUS
10
89.3138
20
-23.9581
11
89.5503
21
-23.6796
0
LINE
8
BLACK
6
CONTINUOUS
10
89.5503
20
-23.6796
11
89.8155
21
-23.4283
0
LINE
8
BLACK
6
CONTINUOUS
10
89.8155
20
-23.4283
11
90.1064
21
-23.2072
0
LINE
8
BLACK
6
CONTINUOUS
10
90.1064
20
-23.2072
11
90.4194
21
-23.0189
0
LINE
8
BLACK
6
CONTINUOUS
10
90.4194
20
-23.0189
11
90.751
21
-22.8655
0
LINE
8
BLACK
6
CONTINUOUS
10
90.751
20
-22.8655
11
91.0973
21
-22.7488
0
LINE
8
BLACK
6
CONTINUOUS
10
91.0973
20
-22.7488
11
91.4541
21
-22.6703
0
LINE
8
BLACK
6
CONTINUOUS
10
91.4541
20
-22.6703
11
91.8173
21
-22.6308
0
LINE
8
BLACK
6
CONTINUOUS
10
91.8173
20
-22.6308
11
92.1826
21
-22.6308
0
LINE
8
BLACK
6
CONTINUOUS
10
92.1826
20
-22.6308
11
92.5458
21
-22.6703
0
LINE
8
BLACK
6
CONTINUOUS
10
88.793
20
-26.3614
11
88.8536
21
-26.7182
0
LINE
8
BLACK
6
CONTINUOUS
10
88.8536
20
-26.7182
11
88.9538
21
-27.0659
0
LINE
8
BLACK
6
CONTINUOUS
10
88.9538
20
-27.0659
11
89.0923
21
-27.4003
0
LINE
8
BLACK
6
CONTINUOUS
10
89.0923
20
-27.4003
11
89.2673
21
-27.717
0
LINE
8
BLACK
6
CONTINUOUS
10
89.2673
20
-27.717
11
89.4768
21
-28.0122
0
LINE
8
BLACK
6
CONTINUOUS
10
89.4768
20
-28.0122
11
89.7179
21
-28.2821
0
LINE
8
BLACK
6
CONTINUOUS
10
89.7179
20
-28.2821
11
89.9878
21
-28.5232
0
LINE
8
BLACK
6
CONTINUOUS
10
89.9878
20
-28.5232
11
90.2829
21
-28.7326
0
LINE
8
BLACK
6
CONTINUOUS
10
90.2829
20
-28.7326
11
90.5997
21
-28.9077
0
LINE
8
BLACK
6
CONTINUOUS
10
90.5997
20
-28.9077
11
90.934
21
-29.0462
0
LINE
8
BLACK
6
CONTINUOUS
10
90.934
20
-29.0462
11
91.2818
21
-29.1464
0
LINE
8
BLACK
6
CONTINUOUS
10
91.2818
20
-29.1464
11
91.6386
21
-29.207
0
LINE
8
BLACK
6
CONTINUOUS
10
91.6386
20
-29.207
11
91.9999
21
-29.2273
0
LINE
8
BLACK
6
CONTINUOUS
10
91.9999
20
-29.2273
11
92.3613
21
-29.207
0
LINE
8
BLACK
6
CONTINUOUS
10
92.3613
20
-29.207
11
92.7181
21
-29.1464
0
LINE
8
BLACK
6
CONTINUOUS
10
92.7181
20
-29.1464
11
93.0659
21
-29.0462
0
LINE
8
BLACK
6
CONTINUOUS
10
93.0659
20
-29.0462
11
93.4002
21
-28.9077
0
LINE
8
BLACK
6
CONTINUOUS
10
93.4002
20
-28.9077
11
93.717
21
-28.7326
0
LINE
8
BLACK
6
CONTINUOUS
10
93.717
20
-28.7326
11
94.0121
21
-28.5232
0
LINE
8
BLACK
6
CONTINUOUS
10
94.0121
20
-28.5232
11
94.282
21
-28.2821
0
LINE
8
BLACK
6
CONTINUOUS
10
94.282
20
-28.2821
11
94.5231
21
-28.0122
0
LINE
8
BLACK
6
CONTINUOUS
10
94.5231
20
-28.0122
11
94.7326
21
-27.717
0
LINE
8
BLACK
6
CONTINUOUS
10
94.7326
20
-27.717
11
94.9076
21
-27.4003
0
LINE
8
BLACK
6
CONTINUOUS
10
94.9076
20
-27.4003
11
95.0461
21
-27.0659
0
LINE
8
BLACK
6
CONTINUOUS
10
95.0461
20
-27.0659
11
95.1463
21
-26.7182
0
LINE
8
BLACK
6
CONTINUOUS
10
95.1463
20
-26.7182
11
95.2069
21
-26.3614
0
LINE
8
BLACK
6
CONTINUOUS
10
95.2069
20
-26.3614
11
95.2272
21
-26
0
LINE
8
BLACK
6
CONTINUOUS
10
95.2272
20
-26
11
95.2069
21
-25.6387
0
LINE
8
BLACK
6
CONTINUOUS
10
95.2069
20
-25.6387
11
95.1463
21
-25.2819
0
LINE
8
BLACK
6
CONTINUOUS
10
95.1463
20
-25.2819
11
95.0461
21
-24.9341
0
LINE
8
BLACK
6
CONTINUOUS
10
95.0461
20
-24.9341
11
94.9076
21
-24.5998
0
LINE
8
BLACK
6
CONTINUOUS
10
94.9076
20
-24.5998
11
94.7326
21
-24.283
0
LINE
8
BLACK
6
CONTINUOUS
10
94.7326
20
-24.283
11
94.5231
21
-23.9879
0
LINE
8
BLACK
6
CONTINUOUS
10
94.5231
20
-23.9879
11
94.282
21
-23.718
0
LINE
8
BLACK
6
CONTINUOUS
10
94.282
20
-23.718
11
94.0121
21
-23.4768
0
LINE
8
BLACK
6
CONTINUOUS
10
94.0121
20
-23.4768
11
93.717
21
-23.2674
0
LINE
8
BLACK
6
CONTINUOUS
10
93.717
20
-23.2674
11
93.4002
21
-23.0923
0
LINE
8
BLACK
6
CONTINUOUS
10
93.4002
20
-23.0923
11
93.0659
21
-22.9539
0
LINE
8
BLACK
6
CONTINUOUS
10
93.0659
20
-22.9539
11
92.7181
21
-22.8537
0
LINE
8
BLACK
6
CONTINUOUS
10
92.7181
20
-22.8537
11
92.3613
21
-22.793
0
LINE
8
BLACK
6
CONTINUOUS
10
92.3613
20
-22.793
11
91.9999
21
-22.7727
0
LINE
8
BLACK
6
CONTINUOUS
10
91.9999
20
-22.7727
11
91.6386
21
-22.793
0
LINE
8
BLACK
6
CONTINUOUS
10
91.6386
20
-22.793
11
91.2818
21
-22.8537
0
LINE
8
BLACK
6
CONTINUOUS
10
91.2818
20
-22.8537
11
90.934
21
-22.9539
0
LINE
8
BLACK
6
CONTINUOUS
10
90.934
20
-22.9539
11
90.5997
21
-23.0923
0
LINE
8
BLACK
6
CONTINUOUS
10
90.5997
20
-23.0923
11
90.2829
21
-23.2674
0
LINE
8
BLACK
6
CONTINUOUS
10
90.2829
20
-23.2674
11
89.9878
21
-23.4768
0
LINE
8
BLACK
6
CONTINUOUS
10
89.9878
20
-23.4768
11
89.7179
21
-23.718
0
LINE
8
BLACK
6
CONTINUOUS
10
89.7179
20
-23.718
11
89.4768
21
-23.9879
0
LINE
8
BLACK
6
CONTINUOUS
10
89.4768
20
-23.9879
11
89.2673
21
-24.283
0
LINE
8
BLACK
6
CONTINUOUS
10
89.2673
20
-24.283
11
89.0923
21
-24.5998
0
LINE
8
BLACK
6
CONTINUOUS
10
89.0923
20
-24.5998
11
88.9538
21
-24.9341
0
LINE
8
BLACK
6
CONTINUOUS
10
88.9538
20
-24.9341
11
88.8536
21
-25.2819
0
LINE
8
BLACK
6
CONTINUOUS
10
88.8536
20
-25.2819
11
88.793
21
-25.6387
0
LINE
8
BLACK
6
CONTINUOUS
10
88.793
20
-25.6387
11
88.7727
21
-26
0
LINE
8
BLACK
6
CONTINUOUS
10
88.7727
20
-26
11
88.793
21
-26.3614
  0
ENDSEC
  0
EOF
