  0
SECTION
  2
HEADER
  9
$ANGBASE
  50
0.0
  9
$ANGDIR
  70
1
  9
$MEASUREMENT
  70
1
  0
ENDSEC
  0
SECTION
  2
TABLES
  0
TABLE
  2
LTYPE
  70
4
  0
LTYPE
  5
40F
  2
CONTINUOUS
  70
0
  3
Solid line
  72
65
  73
0
  40
0.0
  0
LTYPE
  5
410
  2
DASHDOT
 70
0
  3
Dash Dot ____ _ ____ _
 72
65
 73
4
 40
2.0
 49
1.25
 49
-0.25
 49
0.25
 49
-0.25
  0
LTYPE
  5
411
  2
DASHED
 70
0
  3
Dashed __ __ __ __ __
 72
65
 73
2
 40
0.75
 49
0.5
 49
-0.25
  0
LTYPE
  5
43B
  2
DOTTED
 70
0
  3
Dotted .  .  .  .
 72
65
 73
2
 40
0.2
 49
0.0
 49
-0.2
  0
ENDTAB
  0
TABLE
  2
STYLE
  70
4
  0
STYLE
  2
KICAD
  70
0
  40
0
  41
1
  42
1
  50
0
  71
0
  3
isocp.shx
  0
STYLE
  2
KICADB
  70
0
  40
0
  41
1
  42
1
  50
0
  71
0
  3
isocp.shx
  0
STYLE
  2
KICADI
  70
0
  40
0
  41
1
  42
1
  50
15
  71
0
  3
isocp.shx
  0
STYLE
  2
KICADBI
  70
0
  40
0
  41
1
  42
1
  50
15
  71
0
  3
isocp.shx
  0
ENDTAB
  0
TABLE
  2
LAYER
  70
1
  0
LAYER
  2
BLACK
  70
0
  62
7
  6
CONTINUOUS
  0
ENDTAB
  0
ENDSEC
  0
SECTION
  2
ENTITIES
0
LINE
8
BLACK
6
CONTINUOUS
10
46.2937
20
-63.7692
11
46.5823
21
-63.8267
0
LINE
8
BLACK
6
CONTINUOUS
10
46.5823
20
-63.8267
11
46.861
21
-63.9213
0
LINE
8
BLACK
6
CONTINUOUS
10
46.861
20
-63.9213
11
47.125
21
-64.0514
0
LINE
8
BLACK
6
CONTINUOUS
10
47.125
20
-64.0514
11
47.3697
21
-64.215
0
LINE
8
BLACK
6
CONTINUOUS
10
47.3697
20
-64.215
11
47.591
21
-64.409
0
LINE
8
BLACK
6
CONTINUOUS
10
47.591
20
-64.409
11
47.785
21
-64.6303
0
LINE
8
BLACK
6
CONTINUOUS
10
47.785
20
-64.6303
11
47.9486
21
-64.875
0
LINE
8
BLACK
6
CONTINUOUS
10
47.9486
20
-64.875
11
48.0787
21
-65.139
0
LINE
8
BLACK
6
CONTINUOUS
10
48.0787
20
-65.139
11
48.1733
21
-65.4177
0
LINE
8
BLACK
6
CONTINUOUS
10
48.1733
20
-65.4177
11
48.2308
21
-65.7063
0
LINE
8
BLACK
6
CONTINUOUS
10
48.2308
20
-65.7063
11
48.25
21
-66
0
LINE
8
BLACK
6
CONTINUOUS
10
48.25
20
-66
11
48.2308
21
-66.2937
0
LINE
8
BLACK
6
CONTINUOUS
10
48.2308
20
-66.2937
11
48.1733
21
-66.5823
0
LINE
8
BLACK
6
CONTINUOUS
10
48.1733
20
-66.5823
11
48.0787
21
-66.861
0
LINE
8
BLACK
6
CONTINUOUS
10
48.0787
20
-66.861
11
47.9486
21
-67.125
0
LINE
8
BLACK
6
CONTINUOUS
10
47.9486
20
-67.125
11
47.785
21
-67.3697
0
LINE
8
BLACK
6
CONTINUOUS
10
47.785
20
-67.3697
11
47.591
21
-67.591
0
LINE
8
BLACK
6
CONTINUOUS
10
47.591
20
-67.591
11
47.3697
21
-67.785
0
LINE
8
BLACK
6
CONTINUOUS
10
47.3697
20
-67.785
11
47.125
21
-67.9486
0
LINE
8
BLACK
6
CONTINUOUS
10
47.125
20
-67.9486
11
46.861
21
-68.0787
0
LINE
8
BLACK
6
CONTINUOUS
10
46.861
20
-68.0787
11
46.5823
21
-68.1733
0
LINE
8
BLACK
6
CONTINUOUS
10
46.5823
20
-68.1733
11
46.2937
21
-68.2308
0
LINE
8
BLACK
6
CONTINUOUS
10
46.2937
20
-68.2308
11
46
21
-68.25
0
LINE
8
BLACK
6
CONTINUOUS
10
46
20
-68.25
11
45.7063
21
-68.2308
0
LINE
8
BLACK
6
CONTINUOUS
10
45.7063
20
-68.2308
11
45.4177
21
-68.1733
0
LINE
8
BLACK
6
CONTINUOUS
10
45.4177
20
-68.1733
11
45.139
21
-68.0787
0
LINE
8
BLACK
6
CONTINUOUS
10
45.139
20
-68.0787
11
44.875
21
-67.9486
0
LINE
8
BLACK
6
CONTINUOUS
10
44.875
20
-67.9486
11
44.6303
21
-67.785
0
LINE
8
BLACK
6
CONTINUOUS
10
44.6303
20
-67.785
11
44.409
21
-67.591
0
LINE
8
BLACK
6
CONTINUOUS
10
44.409
20
-67.591
11
44.215
21
-67.3697
0
LINE
8
BLACK
6
CONTINUOUS
10
44.215
20
-67.3697
11
44.0514
21
-67.125
0
LINE
8
BLACK
6
CONTINUOUS
10
44.0514
20
-67.125
11
43.9213
21
-66.861
0
LINE
8
BLACK
6
CONTINUOUS
10
43.9213
20
-66.861
11
43.8267
21
-66.5823
0
LINE
8
BLACK
6
CONTINUOUS
10
43.8267
20
-66.5823
11
43.7692
21
-66.2937
0
LINE
8
BLACK
6
CONTINUOUS
10
43.7692
20
-66.2937
11
43.75
21
-66
0
LINE
8
BLACK
6
CONTINUOUS
10
43.75
20
-66
11
43.7692
21
-65.7063
0
LINE
8
BLACK
6
CONTINUOUS
10
43.7692
20
-65.7063
11
43.8267
21
-65.4177
0
LINE
8
BLACK
6
CONTINUOUS
10
43.8267
20
-65.4177
11
43.9213
21
-65.139
0
LINE
8
BLACK
6
CONTINUOUS
10
43.9213
20
-65.139
11
44.0514
21
-64.875
0
LINE
8
BLACK
6
CONTINUOUS
10
44.0514
20
-64.875
11
44.215
21
-64.6303
0
LINE
8
BLACK
6
CONTINUOUS
10
44.215
20
-64.6303
11
44.409
21
-64.409
0
LINE
8
BLACK
6
CONTINUOUS
10
44.409
20
-64.409
11
44.6303
21
-64.215
0
LINE
8
BLACK
6
CONTINUOUS
10
44.6303
20
-64.215
11
44.875
21
-64.0514
0
LINE
8
BLACK
6
CONTINUOUS
10
44.875
20
-64.0514
11
45.139
21
-63.9213
0
LINE
8
BLACK
6
CONTINUOUS
10
45.139
20
-63.9213
11
45.4177
21
-63.8267
0
LINE
8
BLACK
6
CONTINUOUS
10
45.4177
20
-63.8267
11
45.7063
21
-63.7692
0
LINE
8
BLACK
6
CONTINUOUS
10
45.7063
20
-63.7692
11
46
21
-63.75
0
LINE
8
BLACK
6
CONTINUOUS
10
46
20
-63.75
11
46.2937
21
-63.7692
0
LINE
8
BLACK
6
CONTINUOUS
10
43.865
20
-66.2934
11
43.9249
21
-66.5814
0
LINE
8
BLACK
6
CONTINUOUS
10
43.9249
20
-66.5814
11
44.0234
21
-66.8586
0
LINE
8
BLACK
6
CONTINUOUS
10
44.0234
20
-66.8586
11
44.1587
21
-67.1197
0
LINE
8
BLACK
6
CONTINUOUS
10
44.1587
20
-67.1197
11
44.3283
21
-67.36
0
LINE
8
BLACK
6
CONTINUOUS
10
44.3283
20
-67.36
11
44.5291
21
-67.575
0
LINE
8
BLACK
6
CONTINUOUS
10
44.5291
20
-67.575
11
44.7572
21
-67.7606
0
LINE
8
BLACK
6
CONTINUOUS
10
44.7572
20
-67.7606
11
45.0085
21
-67.9134
0
LINE
8
BLACK
6
CONTINUOUS
10
45.0085
20
-67.9134
11
45.2783
21
-68.0306
0
LINE
8
BLACK
6
CONTINUOUS
10
45.2783
20
-68.0306
11
45.5615
21
-68.1099
0
LINE
8
BLACK
6
CONTINUOUS
10
45.5615
20
-68.1099
11
45.8529
21
-68.15
0
LINE
8
BLACK
6
CONTINUOUS
10
45.8529
20
-68.15
11
46.1471
21
-68.15
0
LINE
8
BLACK
6
CONTINUOUS
10
46.1471
20
-68.15
11
46.4385
21
-68.1099
0
LINE
8
BLACK
6
CONTINUOUS
10
46.4385
20
-68.1099
11
46.7217
21
-68.0306
0
LINE
8
BLACK
6
CONTINUOUS
10
46.7217
20
-68.0306
11
46.9915
21
-67.9134
0
LINE
8
BLACK
6
CONTINUOUS
10
46.9915
20
-67.9134
11
47.2428
21
-67.7606
0
LINE
8
BLACK
6
CONTINUOUS
10
47.2428
20
-67.7606
11
47.4709
21
-67.575
0
LINE
8
BLACK
6
CONTINUOUS
10
47.4709
20
-67.575
11
47.6717
21
-67.36
0
LINE
8
BLACK
6
CONTINUOUS
10
47.6717
20
-67.36
11
47.8413
21
-67.1197
0
LINE
8
BLACK
6
CONTINUOUS
10
47.8413
20
-67.1197
11
47.9766
21
-66.8586
0
LINE
8
BLACK
6
CONTINUOUS
10
47.9766
20
-66.8586
11
48.0751
21
-66.5814
0
LINE
8
BLACK
6
CONTINUOUS
10
48.0751
20
-66.5814
11
48.135
21
-66.2934
0
LINE
8
BLACK
6
CONTINUOUS
10
48.135
20
-66.2934
11
48.155
21
-66
0
LINE
8
BLACK
6
CONTINUOUS
10
48.155
20
-66
11
48.135
21
-65.7066
0
LINE
8
BLACK
6
CONTINUOUS
10
48.135
20
-65.7066
11
48.0751
21
-65.4186
0
LINE
8
BLACK
6
CONTINUOUS
10
48.0751
20
-65.4186
11
47.9766
21
-65.1414
0
LINE
8
BLACK
6
CONTINUOUS
10
47.9766
20
-65.1414
11
47.8413
21
-64.8803
0
LINE
8
BLACK
6
CONTINUOUS
10
47.8413
20
-64.8803
11
47.6717
21
-64.64
0
LINE
8
BLACK
6
CONTINUOUS
10
47.6717
20
-64.64
11
47.4709
21
-64.425
0
LINE
8
BLACK
6
CONTINUOUS
10
47.4709
20
-64.425
11
47.2428
21
-64.2394
0
LINE
8
BLACK
6
CONTINUOUS
10
47.2428
20
-64.2394
11
46.9915
21
-64.0866
0
LINE
8
BLACK
6
CONTINUOUS
10
46.9915
20
-64.0866
11
46.7217
21
-63.9694
0
LINE
8
BLACK
6
CONTINUOUS
10
46.7217
20
-63.9694
11
46.4385
21
-63.89
0
LINE
8
BLACK
6
CONTINUOUS
10
46.4385
20
-63.89
11
46.1471
21
-63.85
0
LINE
8
BLACK
6
CONTINUOUS
10
46.1471
20
-63.85
11
45.8529
21
-63.85
0
LINE
8
BLACK
6
CONTINUOUS
10
45.8529
20
-63.85
11
45.5615
21
-63.89
0
LINE
8
BLACK
6
CONTINUOUS
10
45.5615
20
-63.89
11
45.2783
21
-63.9694
0
LINE
8
BLACK
6
CONTINUOUS
10
45.2783
20
-63.9694
11
45.0085
21
-64.0866
0
LINE
8
BLACK
6
CONTINUOUS
10
45.0085
20
-64.0866
11
44.7572
21
-64.2394
0
LINE
8
BLACK
6
CONTINUOUS
10
44.7572
20
-64.2394
11
44.5291
21
-64.425
0
LINE
8
BLACK
6
CONTINUOUS
10
44.5291
20
-64.425
11
44.3283
21
-64.64
0
LINE
8
BLACK
6
CONTINUOUS
10
44.3283
20
-64.64
11
44.1587
21
-64.8803
0
LINE
8
BLACK
6
CONTINUOUS
10
44.1587
20
-64.8803
11
44.0234
21
-65.1414
0
LINE
8
BLACK
6
CONTINUOUS
10
44.0234
20
-65.1414
11
43.9249
21
-65.4186
0
LINE
8
BLACK
6
CONTINUOUS
10
43.9249
20
-65.4186
11
43.865
21
-65.7066
0
LINE
8
BLACK
6
CONTINUOUS
10
43.865
20
-65.7066
11
43.845
21
-66
0
LINE
8
BLACK
6
CONTINUOUS
10
43.845
20
-66
11
43.865
21
-66.2934
0
LINE
8
BLACK
6
CONTINUOUS
10
46.2937
20
-29.7692
11
46.5823
21
-29.8267
0
LINE
8
BLACK
6
CONTINUOUS
10
46.5823
20
-29.8267
11
46.861
21
-29.9213
0
LINE
8
BLACK
6
CONTINUOUS
10
46.861
20
-29.9213
11
47.125
21
-30.0514
0
LINE
8
BLACK
6
CONTINUOUS
10
47.125
20
-30.0514
11
47.3697
21
-30.215
0
LINE
8
BLACK
6
CONTINUOUS
10
47.3697
20
-30.215
11
47.591
21
-30.409
0
LINE
8
BLACK
6
CONTINUOUS
10
47.591
20
-30.409
11
47.785
21
-30.6303
0
LINE
8
BLACK
6
CONTINUOUS
10
47.785
20
-30.6303
11
47.9486
21
-30.875
0
LINE
8
BLACK
6
CONTINUOUS
10
47.9486
20
-30.875
11
48.0787
21
-31.139
0
LINE
8
BLACK
6
CONTINUOUS
10
48.0787
20
-31.139
11
48.1733
21
-31.4177
0
LINE
8
BLACK
6
CONTINUOUS
10
48.1733
20
-31.4177
11
48.2308
21
-31.7063
0
LINE
8
BLACK
6
CONTINUOUS
10
48.2308
20
-31.7063
11
48.25
21
-32
0
LINE
8
BLACK
6
CONTINUOUS
10
48.25
20
-32
11
48.2308
21
-32.2937
0
LINE
8
BLACK
6
CONTINUOUS
10
48.2308
20
-32.2937
11
48.1733
21
-32.5823
0
LINE
8
BLACK
6
CONTINUOUS
10
48.1733
20
-32.5823
11
48.0787
21
-32.861
0
LINE
8
BLACK
6
CONTINUOUS
10
48.0787
20
-32.861
11
47.9486
21
-33.125
0
LINE
8
BLACK
6
CONTINUOUS
10
47.9486
20
-33.125
11
47.785
21
-33.3697
0
LINE
8
BLACK
6
CONTINUOUS
10
47.785
20
-33.3697
11
47.591
21
-33.591
0
LINE
8
BLACK
6
CONTINUOUS
10
47.591
20
-33.591
11
47.3697
21
-33.785
0
LINE
8
BLACK
6
CONTINUOUS
10
47.3697
20
-33.785
11
47.125
21
-33.9486
0
LINE
8
BLACK
6
CONTINUOUS
10
47.125
20
-33.9486
11
46.861
21
-34.0787
0
LINE
8
BLACK
6
CONTINUOUS
10
46.861
20
-34.0787
11
46.5823
21
-34.1733
0
LINE
8
BLACK
6
CONTINUOUS
10
46.5823
20
-34.1733
11
46.2937
21
-34.2308
0
LINE
8
BLACK
6
CONTINUOUS
10
46.2937
20
-34.2308
11
46
21
-34.25
0
LINE
8
BLACK
6
CONTINUOUS
10
46
20
-34.25
11
45.7063
21
-34.2308
0
LINE
8
BLACK
6
CONTINUOUS
10
45.7063
20
-34.2308
11
45.4177
21
-34.1733
0
LINE
8
BLACK
6
CONTINUOUS
10
45.4177
20
-34.1733
11
45.139
21
-34.0787
0
LINE
8
BLACK
6
CONTINUOUS
10
45.139
20
-34.0787
11
44.875
21
-33.9486
0
LINE
8
BLACK
6
CONTINUOUS
10
44.875
20
-33.9486
11
44.6303
21
-33.785
0
LINE
8
BLACK
6
CONTINUOUS
10
44.6303
20
-33.785
11
44.409
21
-33.591
0
LINE
8
BLACK
6
CONTINUOUS
10
44.409
20
-33.591
11
44.215
21
-33.3697
0
LINE
8
BLACK
6
CONTINUOUS
10
44.215
20
-33.3697
11
44.0514
21
-33.125
0
LINE
8
BLACK
6
CONTINUOUS
10
44.0514
20
-33.125
11
43.9213
21
-32.861
0
LINE
8
BLACK
6
CONTINUOUS
10
43.9213
20
-32.861
11
43.8267
21
-32.5823
0
LINE
8
BLACK
6
CONTINUOUS
10
43.8267
20
-32.5823
11
43.7692
21
-32.2937
0
LINE
8
BLACK
6
CONTINUOUS
10
43.7692
20
-32.2937
11
43.75
21
-32
0
LINE
8
BLACK
6
CONTINUOUS
10
43.75
20
-32
11
43.7692
21
-31.7063
0
LINE
8
BLACK
6
CONTINUOUS
10
43.7692
20
-31.7063
11
43.8267
21
-31.4177
0
LINE
8
BLACK
6
CONTINUOUS
10
43.8267
20
-31.4177
11
43.9213
21
-31.139
0
LINE
8
BLACK
6
CONTINUOUS
10
43.9213
20
-31.139
11
44.0514
21
-30.875
0
LINE
8
BLACK
6
CONTINUOUS
10
44.0514
20
-30.875
11
44.215
21
-30.6303
0
LINE
8
BLACK
6
CONTINUOUS
10
44.215
20
-30.6303
11
44.409
21
-30.409
0
LINE
8
BLACK
6
CONTINUOUS
10
44.409
20
-30.409
11
44.6303
21
-30.215
0
LINE
8
BLACK
6
CONTINUOUS
10
44.6303
20
-30.215
11
44.875
21
-30.0514
0
LINE
8
BLACK
6
CONTINUOUS
10
44.875
20
-30.0514
11
45.139
21
-29.9213
0
LINE
8
BLACK
6
CONTINUOUS
10
45.139
20
-29.9213
11
45.4177
21
-29.8267
0
LINE
8
BLACK
6
CONTINUOUS
10
45.4177
20
-29.8267
11
45.7063
21
-29.7692
0
LINE
8
BLACK
6
CONTINUOUS
10
45.7063
20
-29.7692
11
46
21
-29.75
0
LINE
8
BLACK
6
CONTINUOUS
10
46
20
-29.75
11
46.2937
21
-29.7692
0
LINE
8
BLACK
6
CONTINUOUS
10
43.865
20
-32.2934
11
43.9249
21
-32.5814
0
LINE
8
BLACK
6
CONTINUOUS
10
43.9249
20
-32.5814
11
44.0234
21
-32.8586
0
LINE
8
BLACK
6
CONTINUOUS
10
44.0234
20
-32.8586
11
44.1587
21
-33.1197
0
LINE
8
BLACK
6
CONTINUOUS
10
44.1587
20
-33.1197
11
44.3283
21
-33.36
0
LINE
8
BLACK
6
CONTINUOUS
10
44.3283
20
-33.36
11
44.5291
21
-33.575
0
LINE
8
BLACK
6
CONTINUOUS
10
44.5291
20
-33.575
11
44.7572
21
-33.7606
0
LINE
8
BLACK
6
CONTINUOUS
10
44.7572
20
-33.7606
11
45.0085
21
-33.9134
0
LINE
8
BLACK
6
CONTINUOUS
10
45.0085
20
-33.9134
11
45.2783
21
-34.0306
0
LINE
8
BLACK
6
CONTINUOUS
10
45.2783
20
-34.0306
11
45.5615
21
-34.1099
0
LINE
8
BLACK
6
CONTINUOUS
10
45.5615
20
-34.1099
11
45.8529
21
-34.15
0
LINE
8
BLACK
6
CONTINUOUS
10
45.8529
20
-34.15
11
46.1471
21
-34.15
0
LINE
8
BLACK
6
CONTINUOUS
10
46.1471
20
-34.15
11
46.4385
21
-34.1099
0
LINE
8
BLACK
6
CONTINUOUS
10
46.4385
20
-34.1099
11
46.7217
21
-34.0306
0
LINE
8
BLACK
6
CONTINUOUS
10
46.7217
20
-34.0306
11
46.9915
21
-33.9134
0
LINE
8
BLACK
6
CONTINUOUS
10
46.9915
20
-33.9134
11
47.2428
21
-33.7606
0
LINE
8
BLACK
6
CONTINUOUS
10
47.2428
20
-33.7606
11
47.4709
21
-33.575
0
LINE
8
BLACK
6
CONTINUOUS
10
47.4709
20
-33.575
11
47.6717
21
-33.36
0
LINE
8
BLACK
6
CONTINUOUS
10
47.6717
20
-33.36
11
47.8413
21
-33.1197
0
LINE
8
BLACK
6
CONTINUOUS
10
47.8413
20
-33.1197
11
47.9766
21
-32.8586
0
LINE
8
BLACK
6
CONTINUOUS
10
47.9766
20
-32.8586
11
48.0751
21
-32.5814
0
LINE
8
BLACK
6
CONTINUOUS
10
48.0751
20
-32.5814
11
48.135
21
-32.2934
0
LINE
8
BLACK
6
CONTINUOUS
10
48.135
20
-32.2934
11
48.155
21
-32
0
LINE
8
BLACK
6
CONTINUOUS
10
48.155
20
-32
11
48.135
21
-31.7066
0
LINE
8
BLACK
6
CONTINUOUS
10
48.135
20
-31.7066
11
48.0751
21
-31.4186
0
LINE
8
BLACK
6
CONTINUOUS
10
48.0751
20
-31.4186
11
47.9766
21
-31.1414
0
LINE
8
BLACK
6
CONTINUOUS
10
47.9766
20
-31.1414
11
47.8413
21
-30.8803
0
LINE
8
BLACK
6
CONTINUOUS
10
47.8413
20
-30.8803
11
47.6717
21
-30.64
0
LINE
8
BLACK
6
CONTINUOUS
10
47.6717
20
-30.64
11
47.4709
21
-30.425
0
LINE
8
BLACK
6
CONTINUOUS
10
47.4709
20
-30.425
11
47.2428
21
-30.2394
0
LINE
8
BLACK
6
CONTINUOUS
10
47.2428
20
-30.2394
11
46.9915
21
-30.0866
0
LINE
8
BLACK
6
CONTINUOUS
10
46.9915
20
-30.0866
11
46.7217
21
-29.9694
0
LINE
8
BLACK
6
CONTINUOUS
10
46.7217
20
-29.9694
11
46.4385
21
-29.89
0
LINE
8
BLACK
6
CONTINUOUS
10
46.4385
20
-29.89
11
46.1471
21
-29.85
0
LINE
8
BLACK
6
CONTINUOUS
10
46.1471
20
-29.85
11
45.8529
21
-29.85
0
LINE
8
BLACK
6
CONTINUOUS
10
45.8529
20
-29.85
11
45.5615
21
-29.89
0
LINE
8
BLACK
6
CONTINUOUS
10
45.5615
20
-29.89
11
45.2783
21
-29.9694
0
LINE
8
BLACK
6
CONTINUOUS
10
45.2783
20
-29.9694
11
45.0085
21
-30.0866
0
LINE
8
BLACK
6
CONTINUOUS
10
45.0085
20
-30.0866
11
44.7572
21
-30.2394
0
LINE
8
BLACK
6
CONTINUOUS
10
44.7572
20
-30.2394
11
44.5291
21
-30.425
0
LINE
8
BLACK
6
CONTINUOUS
10
44.5291
20
-30.425
11
44.3283
21
-30.64
0
LINE
8
BLACK
6
CONTINUOUS
10
44.3283
20
-30.64
11
44.1587
21
-30.8803
0
LINE
8
BLACK
6
CONTINUOUS
10
44.1587
20
-30.8803
11
44.0234
21
-31.1414
0
LINE
8
BLACK
6
CONTINUOUS
10
44.0234
20
-31.1414
11
43.9249
21
-31.4186
0
LINE
8
BLACK
6
CONTINUOUS
10
43.9249
20
-31.4186
11
43.865
21
-31.7066
0
LINE
8
BLACK
6
CONTINUOUS
10
43.865
20
-31.7066
11
43.845
21
-32
0
LINE
8
BLACK
6
CONTINUOUS
10
43.845
20
-32
11
43.865
21
-32.2934
0
LINE
8
BLACK
6
CONTINUOUS
10
92
20
-21.95
11
92.3737
21
-21.9673
0
LINE
8
BLACK
6
CONTINUOUS
10
92.3737
20
-21.9673
11
92.7442
21
-22.019
0
LINE
8
BLACK
6
CONTINUOUS
10
92.7442
20
-22.019
11
93.1083
21
-22.1046
0
LINE
8
BLACK
6
CONTINUOUS
10
93.1083
20
-22.1046
11
93.463
21
-22.2235
0
LINE
8
BLACK
6
CONTINUOUS
10
93.463
20
-22.2235
11
93.8052
21
-22.3746
0
LINE
8
BLACK
6
CONTINUOUS
10
93.8052
20
-22.3746
11
94.132
21
-22.5566
0
LINE
8
BLACK
6
CONTINUOUS
10
94.132
20
-22.5566
11
94.4407
21
-22.768
0
LINE
8
BLACK
6
CONTINUOUS
10
94.4407
20
-22.768
11
94.7285
21
-23.007
0
LINE
8
BLACK
6
CONTINUOUS
10
94.7285
20
-23.007
11
94.993
21
-23.2715
0
LINE
8
BLACK
6
CONTINUOUS
10
94.993
20
-23.2715
11
95.232
21
-23.5593
0
LINE
8
BLACK
6
CONTINUOUS
10
95.232
20
-23.5593
11
95.4434
21
-23.868
0
LINE
8
BLACK
6
CONTINUOUS
10
95.4434
20
-23.868
11
95.6254
21
-24.1948
0
LINE
8
BLACK
6
CONTINUOUS
10
95.6254
20
-24.1948
11
95.7765
21
-24.537
0
LINE
8
BLACK
6
CONTINUOUS
10
95.7765
20
-24.537
11
95.8954
21
-24.8917
0
LINE
8
BLACK
6
CONTINUOUS
10
95.8954
20
-24.8917
11
95.981
21
-25.2558
0
LINE
8
BLACK
6
CONTINUOUS
10
95.981
20
-25.2558
11
96.0327
21
-25.6263
0
LINE
8
BLACK
6
CONTINUOUS
10
96.0327
20
-25.6263
11
96.05
21
-26
0
LINE
8
BLACK
6
CONTINUOUS
10
96.05
20
-26
11
96.05
21
-73
0
LINE
8
BLACK
6
CONTINUOUS
10
96.05
20
-73
11
96.05
21
-73
0
LINE
8
BLACK
6
CONTINUOUS
10
96.05
20
-73
11
96.0327
21
-73.3737
0
LINE
8
BLACK
6
CONTINUOUS
10
96.0327
20
-73.3737
11
95.981
21
-73.7442
0
LINE
8
BLACK
6
CONTINUOUS
10
95.981
20
-73.7442
11
95.8954
21
-74.1083
0
LINE
8
BLACK
6
CONTINUOUS
10
95.8954
20
-74.1083
11
95.7765
21
-74.463
0
LINE
8
BLACK
6
CONTINUOUS
10
95.7765
20
-74.463
11
95.6254
21
-74.8052
0
LINE
8
BLACK
6
CONTINUOUS
10
95.6254
20
-74.8052
11
95.4434
21
-75.132
0
LINE
8
BLACK
6
CONTINUOUS
10
95.4434
20
-75.132
11
95.232
21
-75.4407
0
LINE
8
BLACK
6
CONTINUOUS
10
95.232
20
-75.4407
11
94.993
21
-75.7285
0
LINE
8
BLACK
6
CONTINUOUS
10
94.993
20
-75.7285
11
94.7285
21
-75.993
0
LINE
8
BLACK
6
CONTINUOUS
10
94.7285
20
-75.993
11
94.4407
21
-76.232
0
LINE
8
BLACK
6
CONTINUOUS
10
94.4407
20
-76.232
11
94.132
21
-76.4434
0
LINE
8
BLACK
6
CONTINUOUS
10
94.132
20
-76.4434
11
93.8052
21
-76.6254
0
LINE
8
BLACK
6
CONTINUOUS
10
93.8052
20
-76.6254
11
93.463
21
-76.7765
0
LINE
8
BLACK
6
CONTINUOUS
10
93.463
20
-76.7765
11
93.1083
21
-76.8954
0
LINE
8
BLACK
6
CONTINUOUS
10
93.1083
20
-76.8954
11
92.7442
21
-76.981
0
LINE
8
BLACK
6
CONTINUOUS
10
92.7442
20
-76.981
11
92.3737
21
-77.0327
0
LINE
8
BLACK
6
CONTINUOUS
10
92.3737
20
-77.0327
11
92
21
-77.05
0
LINE
8
BLACK
6
CONTINUOUS
10
92
20
-77.05
11
40
21
-77.05
0
LINE
8
BLACK
6
CONTINUOUS
10
40
20
-77.05
11
39.6263
21
-77.0327
0
LINE
8
BLACK
6
CONTINUOUS
10
39.6263
20
-77.0327
11
39.2558
21
-76.981
0
LINE
8
BLACK
6
CONTINUOUS
10
39.2558
20
-76.981
11
38.8917
21
-76.8954
0
LINE
8
BLACK
6
CONTINUOUS
10
38.8917
20
-76.8954
11
38.537
21
-76.7765
0
LINE
8
BLACK
6
CONTINUOUS
10
38.537
20
-76.7765
11
38.1948
21
-76.6254
0
LINE
8
BLACK
6
CONTINUOUS
10
38.1948
20
-76.6254
11
37.868
21
-76.4434
0
LINE
8
BLACK
6
CONTINUOUS
10
37.868
20
-76.4434
11
37.5593
21
-76.232
0
LINE
8
BLACK
6
CONTINUOUS
10
37.5593
20
-76.232
11
37.2715
21
-75.993
0
LINE
8
BLACK
6
CONTINUOUS
10
37.2715
20
-75.993
11
37.007
21
-75.7285
0
LINE
8
BLACK
6
CONTINUOUS
10
37.007
20
-75.7285
11
36.768
21
-75.4407
0
LINE
8
BLACK
6
CONTINUOUS
10
36.768
20
-75.4407
11
36.5566
21
-75.132
0
LINE
8
BLACK
6
CONTINUOUS
10
36.5566
20
-75.132
11
36.3746
21
-74.8052
0
LINE
8
BLACK
6
CONTINUOUS
10
36.3746
20
-74.8052
11
36.2235
21
-74.463
0
LINE
8
BLACK
6
CONTINUOUS
10
36.2235
20
-74.463
11
36.1046
21
-74.1083
0
LINE
8
BLACK
6
CONTINUOUS
10
36.1046
20
-74.1083
11
36.019
21
-73.7442
0
LINE
8
BLACK
6
CONTINUOUS
10
36.019
20
-73.7442
11
35.9673
21
-73.3737
0
LINE
8
BLACK
6
CONTINUOUS
10
35.9673
20
-73.3737
11
35.95
21
-73
0
LINE
8
BLACK
6
CONTINUOUS
10
35.95
20
-73
11
35.95
21
-73
0
LINE
8
BLACK
6
CONTINUOUS
10
35.95
20
-73
11
35.95
21
-26
0
LINE
8
BLACK
6
CONTINUOUS
10
35.95
20
-26
11
35.9673
21
-25.6263
0
LINE
8
BLACK
6
CONTINUOUS
10
35.9673
20
-25.6263
11
36.019
21
-25.2558
0
LINE
8
BLACK
6
CONTINUOUS
10
36.019
20
-25.2558
11
36.1046
21
-24.8917
0
LINE
8
BLACK
6
CONTINUOUS
10
36.1046
20
-24.8917
11
36.2235
21
-24.537
0
LINE
8
BLACK
6
CONTINUOUS
10
36.2235
20
-24.537
11
36.3746
21
-24.1948
0
LINE
8
BLACK
6
CONTINUOUS
10
36.3746
20
-24.1948
11
36.5566
21
-23.868
0
LINE
8
BLACK
6
CONTINUOUS
10
36.5566
20
-23.868
11
36.768
21
-23.5593
0
LINE
8
BLACK
6
CONTINUOUS
10
36.768
20
-23.5593
11
37.007
21
-23.2715
0
LINE
8
BLACK
6
CONTINUOUS
10
37.007
20
-23.2715
11
37.2715
21
-23.007
0
LINE
8
BLACK
6
CONTINUOUS
10
37.2715
20
-23.007
11
37.5593
21
-22.768
0
LINE
8
BLACK
6
CONTINUOUS
10
37.5593
20
-22.768
11
37.868
21
-22.5566
0
LINE
8
BLACK
6
CONTINUOUS
10
37.868
20
-22.5566
11
38.1948
21
-22.3746
0
LINE
8
BLACK
6
CONTINUOUS
10
38.1948
20
-22.3746
11
38.537
21
-22.2235
0
LINE
8
BLACK
6
CONTINUOUS
10
38.537
20
-22.2235
11
38.8917
21
-22.1046
0
LINE
8
BLACK
6
CONTINUOUS
10
38.8917
20
-22.1046
11
39.2558
21
-22.019
0
LINE
8
BLACK
6
CONTINUOUS
10
39.2558
20
-22.019
11
39.6263
21
-21.9673
0
LINE
8
BLACK
6
CONTINUOUS
10
39.6263
20
-21.9673
11
40
21
-21.95
0
LINE
8
BLACK
6
CONTINUOUS
10
40
20
-21.95
11
92
21
-21.95
0
LINE
8
BLACK
6
CONTINUOUS
10
40
20
-22.05
11
39.8174
21
-22.05
0
LINE
8
BLACK
6
CONTINUOUS
10
39.8174
20
-22.05
11
39.4537
21
-22.0837
0
LINE
8
BLACK
6
CONTINUOUS
10
39.4537
20
-22.0837
11
39.0947
21
-22.1508
0
LINE
8
BLACK
6
CONTINUOUS
10
39.0947
20
-22.1508
11
38.7434
21
-22.2508
0
LINE
8
BLACK
6
CONTINUOUS
10
38.7434
20
-22.2508
11
38.4028
21
-22.3827
0
LINE
8
BLACK
6
CONTINUOUS
10
38.4028
20
-22.3827
11
38.0759
21
-22.5455
0
LINE
8
BLACK
6
CONTINUOUS
10
38.0759
20
-22.5455
11
37.7653
21
-22.7378
0
LINE
8
BLACK
6
CONTINUOUS
10
37.7653
20
-22.7378
11
37.4739
21
-22.9579
0
LINE
8
BLACK
6
CONTINUOUS
10
37.4739
20
-22.9579
11
37.2039
21
-23.2039
0
LINE
8
BLACK
6
CONTINUOUS
10
37.2039
20
-23.2039
11
36.9579
21
-23.4739
0
LINE
8
BLACK
6
CONTINUOUS
10
36.9579
20
-23.4739
11
36.7378
21
-23.7653
0
LINE
8
BLACK
6
CONTINUOUS
10
36.7378
20
-23.7653
11
36.5455
21
-24.0759
0
LINE
8
BLACK
6
CONTINUOUS
10
36.5455
20
-24.0759
11
36.3827
21
-24.4028
0
LINE
8
BLACK
6
CONTINUOUS
10
36.3827
20
-24.4028
11
36.2508
21
-24.7434
0
LINE
8
BLACK
6
CONTINUOUS
10
36.2508
20
-24.7434
11
36.1508
21
-25.0947
0
LINE
8
BLACK
6
CONTINUOUS
10
36.1508
20
-25.0947
11
36.0837
21
-25.4537
0
LINE
8
BLACK
6
CONTINUOUS
10
36.0837
20
-25.4537
11
36.05
21
-25.8174
0
LINE
8
BLACK
6
CONTINUOUS
10
36.05
20
-25.8174
11
36.05
21
-26
0
LINE
8
BLACK
6
CONTINUOUS
10
36.05
20
-26
11
36.05
21
-73
0
LINE
8
BLACK
6
CONTINUOUS
10
36.05
20
-73
11
36.05
21
-73.1826
0
LINE
8
BLACK
6
CONTINUOUS
10
36.05
20
-73.1826
11
36.0837
21
-73.5463
0
LINE
8
BLACK
6
CONTINUOUS
10
36.0837
20
-73.5463
11
36.1508
21
-73.9053
0
LINE
8
BLACK
6
CONTINUOUS
10
36.1508
20
-73.9053
11
36.2508
21
-74.2566
0
LINE
8
BLACK
6
CONTINUOUS
10
36.2508
20
-74.2566
11
36.3827
21
-74.5972
0
LINE
8
BLACK
6
CONTINUOUS
10
36.3827
20
-74.5972
11
36.5455
21
-74.9241
0
LINE
8
BLACK
6
CONTINUOUS
10
36.5455
20
-74.9241
11
36.7378
21
-75.2347
0
LINE
8
BLACK
6
CONTINUOUS
10
36.7378
20
-75.2347
11
36.9579
21
-75.5261
0
LINE
8
BLACK
6
CONTINUOUS
10
36.9579
20
-75.5261
11
37.2039
21
-75.7961
0
LINE
8
BLACK
6
CONTINUOUS
10
37.2039
20
-75.7961
11
37.4739
21
-76.0421
0
LINE
8
BLACK
6
CONTINUOUS
10
37.4739
20
-76.0421
11
37.7653
21
-76.2622
0
LINE
8
BLACK
6
CONTINUOUS
10
37.7653
20
-76.2622
11
38.0759
21
-76.4545
0
LINE
8
BLACK
6
CONTINUOUS
10
38.0759
20
-76.4545
11
38.4028
21
-76.6173
0
LINE
8
BLACK
6
CONTINUOUS
10
38.4028
20
-76.6173
11
38.7434
21
-76.7492
0
LINE
8
BLACK
6
CONTINUOUS
10
38.7434
20
-76.7492
11
39.0947
21
-76.8492
0
LINE
8
BLACK
6
CONTINUOUS
10
39.0947
20
-76.8492
11
39.4537
21
-76.9163
0
LINE
8
BLACK
6
CONTINUOUS
10
39.4537
20
-76.9163
11
39.8174
21
-76.95
0
LINE
8
BLACK
6
CONTINUOUS
10
39.8174
20
-76.95
11
40
21
-76.95
0
LINE
8
BLACK
6
CONTINUOUS
10
40
20
-76.95
11
92
21
-76.95
0
LINE
8
BLACK
6
CONTINUOUS
10
92
20
-76.95
11
92.1826
21
-76.95
0
LINE
8
BLACK
6
CONTINUOUS
10
92.1826
20
-76.95
11
92.5463
21
-76.9163
0
LINE
8
BLACK
6
CONTINUOUS
10
92.5463
20
-76.9163
11
92.9053
21
-76.8492
0
LINE
8
BLACK
6
CONTINUOUS
10
92.9053
20
-76.8492
11
93.2566
21
-76.7492
0
LINE
8
BLACK
6
CONTINUOUS
10
93.2566
20
-76.7492
11
93.5972
21
-76.6173
0
LINE
8
BLACK
6
CONTINUOUS
10
93.5972
20
-76.6173
11
93.9241
21
-76.4545
0
LINE
8
BLACK
6
CONTINUOUS
10
93.9241
20
-76.4545
11
94.2347
21
-76.2622
0
LINE
8
BLACK
6
CONTINUOUS
10
94.2347
20
-76.2622
11
94.5261
21
-76.0421
0
LINE
8
BLACK
6
CONTINUOUS
10
94.5261
20
-76.0421
11
94.7961
21
-75.7961
0
LINE
8
BLACK
6
CONTINUOUS
10
94.7961
20
-75.7961
11
95.0421
21
-75.5261
0
LINE
8
BLACK
6
CONTINUOUS
10
95.0421
20
-75.5261
11
95.2622
21
-75.2347
0
LINE
8
BLACK
6
CONTINUOUS
10
95.2622
20
-75.2347
11
95.4545
21
-74.9241
0
LINE
8
BLACK
6
CONTINUOUS
10
95.4545
20
-74.9241
11
95.6173
21
-74.5972
0
LINE
8
BLACK
6
CONTINUOUS
10
95.6173
20
-74.5972
11
95.7492
21
-74.2566
0
LINE
8
BLACK
6
CONTINUOUS
10
95.7492
20
-74.2566
11
95.8492
21
-73.9053
0
LINE
8
BLACK
6
CONTINUOUS
10
95.8492
20
-73.9053
11
95.9163
21
-73.5463
0
LINE
8
BLACK
6
CONTINUOUS
10
95.9163
20
-73.5463
11
95.95
21
-73.1826
0
LINE
8
BLACK
6
CONTINUOUS
10
95.95
20
-73.1826
11
95.95
21
-73
0
LINE
8
BLACK
6
CONTINUOUS
10
95.95
20
-73
11
95.95
21
-26
0
LINE
8
BLACK
6
CONTINUOUS
10
95.95
20
-26
11
95.95
21
-25.8174
0
LINE
8
BLACK
6
CONTINUOUS
10
95.95
20
-25.8174
11
95.9163
21
-25.4537
0
LINE
8
BLACK
6
CONTINUOUS
10
95.9163
20
-25.4537
11
95.8492
21
-25.0947
0
LINE
8
BLACK
6
CONTINUOUS
10
95.8492
20
-25.0947
11
95.7492
21
-24.7434
0
LINE
8
BLACK
6
CONTINUOUS
10
95.7492
20
-24.7434
11
95.6173
21
-24.4028
0
LINE
8
BLACK
6
CONTINUOUS
10
95.6173
20
-24.4028
11
95.4545
21
-24.0759
0
LINE
8
BLACK
6
CONTINUOUS
10
95.4545
20
-24.0759
11
95.2622
21
-23.7653
0
LINE
8
BLACK
6
CONTINUOUS
10
95.2622
20
-23.7653
11
95.0421
21
-23.4739
0
LINE
8
BLACK
6
CONTINUOUS
10
95.0421
20
-23.4739
11
94.7961
21
-23.2039
0
LINE
8
BLACK
6
CONTINUOUS
10
94.7961
20
-23.2039
11
94.5261
21
-22.9579
0
LINE
8
BLACK
6
CONTINUOUS
10
94.5261
20
-22.9579
11
94.2347
21
-22.7378
0
LINE
8
BLACK
6
CONTINUOUS
10
94.2347
20
-22.7378
11
93.9241
21
-22.5455
0
LINE
8
BLACK
6
CONTINUOUS
10
93.9241
20
-22.5455
11
93.5972
21
-22.3827
0
LINE
8
BLACK
6
CONTINUOUS
10
93.5972
20
-22.3827
11
93.2566
21
-22.2508
0
LINE
8
BLACK
6
CONTINUOUS
10
93.2566
20
-22.2508
11
92.9053
21
-22.1508
0
LINE
8
BLACK
6
CONTINUOUS
10
92.9053
20
-22.1508
11
92.5463
21
-22.0837
0
LINE
8
BLACK
6
CONTINUOUS
10
92.5463
20
-22.0837
11
92.1826
21
-22.05
0
LINE
8
BLACK
6
CONTINUOUS
10
92.1826
20
-22.05
11
92
21
-22.05
0
LINE
8
BLACK
6
CONTINUOUS
10
92
20
-22.05
11
40
21
-22.05
  0
ENDSEC
  0
EOF
