  0
SECTION
  2
HEADER
  9
$ANGBASE
  50
0.0
  9
$ANGDIR
  70
1
  9
$MEASUREMENT
  70
1
  0
ENDSEC
  0
SECTION
  2
TABLES
  0
TABLE
  2
LTYPE
  70
4
  0
LTYPE
  5
40F
  2
CONTINUOUS
  70
0
  3
Solid line
  72
65
  73
0
  40
0.0
  0
LTYPE
  5
410
  2
DASHDOT
 70
0
  3
Dash Dot ____ _ ____ _
 72
65
 73
4
 40
2.0
 49
1.25
 49
-0.25
 49
0.25
 49
-0.25
  0
LTYPE
  5
411
  2
DASHED
 70
0
  3
Dashed __ __ __ __ __
 72
65
 73
2
 40
0.75
 49
0.5
 49
-0.25
  0
LTYPE
  5
43B
  2
DOTTED
 70
0
  3
Dotted .  .  .  .
 72
65
 73
2
 40
0.2
 49
0.0
 49
-0.2
  0
ENDTAB
  0
TABLE
  2
STYLE
  70
4
  0
STYLE
  2
KICAD
  70
0
  40
0
  41
1
  42
1
  50
0
  71
0
  3
isocp.shx
  0
STYLE
  2
KICADB
  70
0
  40
0
  41
1
  42
1
  50
0
  71
0
  3
isocp.shx
  0
STYLE
  2
KICADI
  70
0
  40
0
  41
1
  42
1
  50
15
  71
0
  3
isocp.shx
  0
STYLE
  2
KICADBI
  70
0
  40
0
  41
1
  42
1
  50
15
  71
0
  3
isocp.shx
  0
ENDTAB
  0
TABLE
  2
LAYER
  70
1
  0
LAYER
  2
BLACK
  70
0
  62
7
  6
CONTINUOUS
  0
ENDTAB
  0
ENDSEC
  0
SECTION
  2
ENTITIES
0
LINE
8
BLACK
6
CONTINUOUS
10
46.6854
20
-55.9146
11
46.7
21
-55.95
0
LINE
8
BLACK
6
CONTINUOUS
10
46.7
20
-55.95
11
46.7
21
-56.85
0
LINE
8
BLACK
6
CONTINUOUS
10
46.7
20
-56.85
11
46.6854
21
-56.8854
0
LINE
8
BLACK
6
CONTINUOUS
10
46.6854
20
-56.8854
11
46.65
21
-56.9
0
LINE
8
BLACK
6
CONTINUOUS
10
46.65
20
-56.9
11
40.65
21
-56.9
0
LINE
8
BLACK
6
CONTINUOUS
10
40.65
20
-56.9
11
40.6146
21
-56.8854
0
LINE
8
BLACK
6
CONTINUOUS
10
40.6146
20
-56.8854
11
40.6
21
-56.85
0
LINE
8
BLACK
6
CONTINUOUS
10
40.6
20
-56.85
11
40.6
21
-55.95
0
LINE
8
BLACK
6
CONTINUOUS
10
40.6
20
-55.95
11
40.6146
21
-55.9146
0
LINE
8
BLACK
6
CONTINUOUS
10
40.6146
20
-55.9146
11
40.65
21
-55.9
0
LINE
8
BLACK
6
CONTINUOUS
10
40.65
20
-55.9
11
40.6854
21
-55.9146
0
LINE
8
BLACK
6
CONTINUOUS
10
40.6854
20
-55.9146
11
40.7
21
-55.95
0
LINE
8
BLACK
6
CONTINUOUS
10
40.7
20
-55.95
11
40.7
21
-56.8
0
LINE
8
BLACK
6
CONTINUOUS
10
40.7
20
-56.8
11
46.6
21
-56.8
0
LINE
8
BLACK
6
CONTINUOUS
10
46.6
20
-56.8
11
46.6
21
-55.95
0
LINE
8
BLACK
6
CONTINUOUS
10
46.6
20
-55.95
11
46.6146
21
-55.9146
0
LINE
8
BLACK
6
CONTINUOUS
10
46.6146
20
-55.9146
11
46.65
21
-55.9
0
LINE
8
BLACK
6
CONTINUOUS
10
46.65
20
-55.9
11
46.6854
21
-55.9146
0
LINE
8
BLACK
6
CONTINUOUS
10
40.8763
20
-54.2336
11
40.9108
21
-54.2379
0
LINE
8
BLACK
6
CONTINUOUS
10
40.9108
20
-54.2379
11
40.9117
21
-54.2386
0
LINE
8
BLACK
6
CONTINUOUS
10
40.9117
20
-54.2386
11
40.9128
21
-54.2388
0
LINE
8
BLACK
6
CONTINUOUS
10
40.9128
20
-54.2388
11
40.939
21
-54.2616
0
LINE
8
BLACK
6
CONTINUOUS
10
40.939
20
-54.2616
11
40.9657
21
-54.2839
0
LINE
8
BLACK
6
CONTINUOUS
10
40.9657
20
-54.2839
11
41.0796
21
-54.4548
0
LINE
8
BLACK
6
CONTINUOUS
10
41.0796
20
-54.4548
11
41.1771
21
-54.5523
0
LINE
8
BLACK
6
CONTINUOUS
10
41.1771
20
-54.5523
11
41.2797
21
-54.6036
0
LINE
8
BLACK
6
CONTINUOUS
10
41.2797
20
-54.6036
11
41.3094
21
-54.6242
0
LINE
8
BLACK
6
CONTINUOUS
10
41.3094
20
-54.6242
11
41.3459
21
-54.6857
0
LINE
8
BLACK
6
CONTINUOUS
10
41.3459
20
-54.6857
11
41.3434
21
-54.7572
0
LINE
8
BLACK
6
CONTINUOUS
10
41.3434
20
-54.7572
11
41.3026
21
-54.816
0
LINE
8
BLACK
6
CONTINUOUS
10
41.3026
20
-54.816
11
41.2365
21
-54.8434
0
LINE
8
BLACK
6
CONTINUOUS
10
41.2365
20
-54.8434
11
41.1661
21
-54.8308
0
LINE
8
BLACK
6
CONTINUOUS
10
41.1661
20
-54.8308
11
41.0451
21
-54.7703
0
LINE
8
BLACK
6
CONTINUOUS
10
41.0451
20
-54.7703
11
41.0154
21
-54.7497
0
LINE
8
BLACK
6
CONTINUOUS
10
41.0154
20
-54.7497
11
41.0142
21
-54.7476
0
LINE
8
BLACK
6
CONTINUOUS
10
41.0142
20
-54.7476
11
41.0121
21
-54.7465
0
LINE
8
BLACK
6
CONTINUOUS
10
41.0121
20
-54.7465
11
40.987
21
-54.7214
0
LINE
8
BLACK
6
CONTINUOUS
10
40.987
20
-54.7214
11
40.987
21
-55.4973
0
LINE
8
BLACK
6
CONTINUOUS
10
40.987
20
-55.4973
11
41.2229
21
-55.4973
0
LINE
8
BLACK
6
CONTINUOUS
10
41.2229
20
-55.4973
11
41.2586
21
-55.5025
0
LINE
8
BLACK
6
CONTINUOUS
10
41.2586
20
-55.5025
11
41.3188
21
-55.5412
0
LINE
8
BLACK
6
CONTINUOUS
10
41.3188
20
-55.5412
11
41.3486
21
-55.6062
0
LINE
8
BLACK
6
CONTINUOUS
10
41.3486
20
-55.6062
11
41.3384
21
-55.6771
0
LINE
8
BLACK
6
CONTINUOUS
10
41.3384
20
-55.6771
11
41.2915
21
-55.7312
0
LINE
8
BLACK
6
CONTINUOUS
10
41.2915
20
-55.7312
11
41.2229
21
-55.7513
0
LINE
8
BLACK
6
CONTINUOUS
10
41.2229
20
-55.7513
11
40.4971
21
-55.7513
0
LINE
8
BLACK
6
CONTINUOUS
10
40.4971
20
-55.7513
11
40.4614
21
-55.7462
0
LINE
8
BLACK
6
CONTINUOUS
10
40.4614
20
-55.7462
11
40.4012
21
-55.7075
0
LINE
8
BLACK
6
CONTINUOUS
10
40.4012
20
-55.7075
11
40.3714
21
-55.6424
0
LINE
8
BLACK
6
CONTINUOUS
10
40.3714
20
-55.6424
11
40.3816
21
-55.5716
0
LINE
8
BLACK
6
CONTINUOUS
10
40.3816
20
-55.5716
11
40.4285
21
-55.5175
0
LINE
8
BLACK
6
CONTINUOUS
10
40.4285
20
-55.5175
11
40.4971
21
-55.4973
0
LINE
8
BLACK
6
CONTINUOUS
10
40.4971
20
-55.4973
11
40.733
21
-55.4973
0
LINE
8
BLACK
6
CONTINUOUS
10
40.733
20
-55.4973
11
40.733
21
-54.3543
0
LINE
8
BLACK
6
CONTINUOUS
10
40.733
20
-54.3543
11
40.7376
21
-54.3224
0
LINE
8
BLACK
6
CONTINUOUS
10
40.7376
20
-54.3224
11
40.7376
21
-54.3206
0
LINE
8
BLACK
6
CONTINUOUS
10
40.7376
20
-54.3206
11
40.7379
21
-54.32
0
LINE
8
BLACK
6
CONTINUOUS
10
40.7379
20
-54.32
11
40.7381
21
-54.3185
0
LINE
8
BLACK
6
CONTINUOUS
10
40.7381
20
-54.3185
11
40.757
21
-54.2893
0
LINE
8
BLACK
6
CONTINUOUS
10
40.757
20
-54.2893
11
40.7752
21
-54.2597
0
LINE
8
BLACK
6
CONTINUOUS
10
40.7752
20
-54.2597
11
40.7762
21
-54.2593
0
LINE
8
BLACK
6
CONTINUOUS
10
40.7762
20
-54.2593
11
40.7768
21
-54.2583
0
LINE
8
BLACK
6
CONTINUOUS
10
40.7768
20
-54.2583
11
40.8084
21
-54.2439
0
LINE
8
BLACK
6
CONTINUOUS
10
40.8084
20
-54.2439
11
40.8398
21
-54.2289
0
LINE
8
BLACK
6
CONTINUOUS
10
40.8398
20
-54.2289
11
40.8409
21
-54.2291
0
LINE
8
BLACK
6
CONTINUOUS
10
40.8409
20
-54.2291
11
40.8419
21
-54.2286
0
LINE
8
BLACK
6
CONTINUOUS
10
40.8419
20
-54.2286
11
40.8763
21
-54.2336
0
LINE
8
BLACK
6
CONTINUOUS
10
42.1658
20
-54.2325
11
42.1755
21
-54.2387
0
LINE
8
BLACK
6
CONTINUOUS
10
42.1755
20
-54.2387
11
42.1868
21
-54.2407
0
LINE
8
BLACK
6
CONTINUOUS
10
42.1868
20
-54.2407
11
42.3077
21
-54.3012
0
LINE
8
BLACK
6
CONTINUOUS
10
42.3077
20
-54.3012
11
42.3374
21
-54.3218
0
LINE
8
BLACK
6
CONTINUOUS
10
42.3374
20
-54.3218
11
42.3387
21
-54.3238
0
LINE
8
BLACK
6
CONTINUOUS
10
42.3387
20
-54.3238
11
42.3408
21
-54.325
0
LINE
8
BLACK
6
CONTINUOUS
10
42.3408
20
-54.325
11
42.4012
21
-54.3855
0
LINE
8
BLACK
6
CONTINUOUS
10
42.4012
20
-54.3855
11
42.4229
21
-54.4144
0
LINE
8
BLACK
6
CONTINUOUS
10
42.4229
20
-54.4144
11
42.4234
21
-54.4167
0
LINE
8
BLACK
6
CONTINUOUS
10
42.4234
20
-54.4167
11
42.425
21
-54.4185
0
LINE
8
BLACK
6
CONTINUOUS
10
42.425
20
-54.4185
11
42.4855
21
-54.5394
0
LINE
8
BLACK
6
CONTINUOUS
10
42.4855
20
-54.5394
11
42.4929
21
-54.5616
0
LINE
8
BLACK
6
CONTINUOUS
10
42.4929
20
-54.5616
11
42.4951
21
-54.5654
0
LINE
8
BLACK
6
CONTINUOUS
10
42.4951
20
-54.5654
11
42.5556
21
-54.8073
0
LINE
8
BLACK
6
CONTINUOUS
10
42.5556
20
-54.8073
11
42.5584
21
-54.8348
0
LINE
8
BLACK
6
CONTINUOUS
10
42.5584
20
-54.8348
11
42.5594
21
-54.8381
0
LINE
8
BLACK
6
CONTINUOUS
10
42.5594
20
-54.8381
11
42.5594
21
-55.1405
0
LINE
8
BLACK
6
CONTINUOUS
10
42.5594
20
-55.1405
11
42.5554
21
-55.1679
0
LINE
8
BLACK
6
CONTINUOUS
10
42.5554
20
-55.1679
11
42.5556
21
-55.1713
0
LINE
8
BLACK
6
CONTINUOUS
10
42.5556
20
-55.1713
11
42.4951
21
-55.4132
0
LINE
8
BLACK
6
CONTINUOUS
10
42.4951
20
-55.4132
11
42.4863
21
-55.4348
0
LINE
8
BLACK
6
CONTINUOUS
10
42.4863
20
-55.4348
11
42.4855
21
-55.4392
0
LINE
8
BLACK
6
CONTINUOUS
10
42.4855
20
-55.4392
11
42.425
21
-55.5602
0
LINE
8
BLACK
6
CONTINUOUS
10
42.425
20
-55.5602
11
42.4044
21
-55.5899
0
LINE
8
BLACK
6
CONTINUOUS
10
42.4044
20
-55.5899
11
42.4024
21
-55.5911
0
LINE
8
BLACK
6
CONTINUOUS
10
42.4024
20
-55.5911
11
42.4012
21
-55.5932
0
LINE
8
BLACK
6
CONTINUOUS
10
42.4012
20
-55.5932
11
42.3408
21
-55.6536
0
LINE
8
BLACK
6
CONTINUOUS
10
42.3408
20
-55.6536
11
42.3118
21
-55.6753
0
LINE
8
BLACK
6
CONTINUOUS
10
42.3118
20
-55.6753
11
42.3095
21
-55.6758
0
LINE
8
BLACK
6
CONTINUOUS
10
42.3095
20
-55.6758
11
42.3077
21
-55.6774
0
LINE
8
BLACK
6
CONTINUOUS
10
42.3077
20
-55.6774
11
42.1868
21
-55.7379
0
LINE
8
BLACK
6
CONTINUOUS
10
42.1868
20
-55.7379
11
42.1525
21
-55.7493
0
LINE
8
BLACK
6
CONTINUOUS
10
42.1525
20
-55.7493
11
42.141
21
-55.7481
0
LINE
8
BLACK
6
CONTINUOUS
10
42.141
20
-55.7481
11
42.13
21
-55.7513
0
LINE
8
BLACK
6
CONTINUOUS
10
42.13
20
-55.7513
11
42.009
21
-55.7513
0
LINE
8
BLACK
6
CONTINUOUS
10
42.009
20
-55.7513
11
41.9733
21
-55.7462
0
LINE
8
BLACK
6
CONTINUOUS
10
41.9733
20
-55.7462
11
41.9636
21
-55.7399
0
LINE
8
BLACK
6
CONTINUOUS
10
41.9636
20
-55.7399
11
41.9522
21
-55.7379
0
LINE
8
BLACK
6
CONTINUOUS
10
41.9522
20
-55.7379
11
41.8313
21
-55.6774
0
LINE
8
BLACK
6
CONTINUOUS
10
41.8313
20
-55.6774
11
41.8016
21
-55.6568
0
LINE
8
BLACK
6
CONTINUOUS
10
41.8016
20
-55.6568
11
41.8004
21
-55.6548
0
LINE
8
BLACK
6
CONTINUOUS
10
41.8004
20
-55.6548
11
41.7983
21
-55.6536
0
LINE
8
BLACK
6
CONTINUOUS
10
41.7983
20
-55.6536
11
41.7378
21
-55.5932
0
LINE
8
BLACK
6
CONTINUOUS
10
41.7378
20
-55.5932
11
41.7162
21
-55.5642
0
LINE
8
BLACK
6
CONTINUOUS
10
41.7162
20
-55.5642
11
41.7156
21
-55.5619
0
LINE
8
BLACK
6
CONTINUOUS
10
41.7156
20
-55.5619
11
41.714
21
-55.5602
0
LINE
8
BLACK
6
CONTINUOUS
10
41.714
20
-55.5602
11
41.6535
21
-55.4392
0
LINE
8
BLACK
6
CONTINUOUS
10
41.6535
20
-55.4392
11
41.6462
21
-55.4171
0
LINE
8
BLACK
6
CONTINUOUS
10
41.6462
20
-55.4171
11
41.6439
21
-55.4132
0
LINE
8
BLACK
6
CONTINUOUS
10
41.6439
20
-55.4132
11
41.5835
21
-55.1713
0
LINE
8
BLACK
6
CONTINUOUS
10
41.5835
20
-55.1713
11
41.5806
21
-55.1438
0
LINE
8
BLACK
6
CONTINUOUS
10
41.5806
20
-55.1438
11
41.5797
21
-55.1405
0
LINE
8
BLACK
6
CONTINUOUS
10
41.5797
20
-55.1405
11
41.5797
21
-54.8381
0
LINE
8
BLACK
6
CONTINUOUS
10
41.5797
20
-54.8381
11
41.5836
21
-54.8108
0
LINE
8
BLACK
6
CONTINUOUS
10
41.5836
20
-54.8108
11
41.5835
21
-54.8073
0
LINE
8
BLACK
6
CONTINUOUS
10
41.5835
20
-54.8073
11
41.6439
21
-54.5654
0
LINE
8
BLACK
6
CONTINUOUS
10
41.6439
20
-54.5654
11
41.6528
21
-54.5438
0
LINE
8
BLACK
6
CONTINUOUS
10
41.6528
20
-54.5438
11
41.6535
21
-54.5394
0
LINE
8
BLACK
6
CONTINUOUS
10
41.6535
20
-54.5394
11
41.714
21
-54.4185
0
LINE
8
BLACK
6
CONTINUOUS
10
41.714
20
-54.4185
11
41.7346
21
-54.3888
0
LINE
8
BLACK
6
CONTINUOUS
10
41.7346
20
-54.3888
11
41.7367
21
-54.3876
0
LINE
8
BLACK
6
CONTINUOUS
10
41.7367
20
-54.3876
11
41.7378
21
-54.3855
0
LINE
8
BLACK
6
CONTINUOUS
10
41.7378
20
-54.3855
11
41.7983
21
-54.325
0
LINE
8
BLACK
6
CONTINUOUS
10
41.7983
20
-54.325
11
41.8272
21
-54.3033
0
LINE
8
BLACK
6
CONTINUOUS
10
41.8272
20
-54.3033
11
41.8296
21
-54.3028
0
LINE
8
BLACK
6
CONTINUOUS
10
41.8296
20
-54.3028
11
41.8313
21
-54.3012
0
LINE
8
BLACK
6
CONTINUOUS
10
41.8313
20
-54.3012
11
41.9522
21
-54.2407
0
LINE
8
BLACK
6
CONTINUOUS
10
41.9522
20
-54.2407
11
41.9866
21
-54.2293
0
LINE
8
BLACK
6
CONTINUOUS
10
41.9866
20
-54.2293
11
41.998
21
-54.2306
0
LINE
8
BLACK
6
CONTINUOUS
10
41.998
20
-54.2306
11
42.009
21
-54.2273
0
LINE
8
BLACK
6
CONTINUOUS
10
42.009
20
-54.2273
11
42.13
21
-54.2273
0
LINE
8
BLACK
6
CONTINUOUS
10
42.13
20
-54.2273
11
42.1658
21
-54.2325
0
LINE
8
BLACK
6
CONTINUOUS
10
41.9633
20
-54.5192
11
41.932
21
-54.5505
0
LINE
8
BLACK
6
CONTINUOUS
10
41.932
20
-54.5505
11
41.887
21
-54.6405
0
LINE
8
BLACK
6
CONTINUOUS
10
41.887
20
-54.6405
11
41.8337
21
-54.8538
0
LINE
8
BLACK
6
CONTINUOUS
10
41.8337
20
-54.8538
11
41.8337
21
-55.1249
0
LINE
8
BLACK
6
CONTINUOUS
10
41.8337
20
-55.1249
11
41.887
21
-55.3381
0
LINE
8
BLACK
6
CONTINUOUS
10
41.887
20
-55.3381
11
41.932
21
-55.4281
0
LINE
8
BLACK
6
CONTINUOUS
10
41.932
20
-55.4281
11
41.9633
21
-55.4595
0
LINE
8
BLACK
6
CONTINUOUS
10
41.9633
20
-55.4595
11
42.039
21
-55.4973
0
LINE
8
BLACK
6
CONTINUOUS
10
42.039
20
-55.4973
11
42.1
21
-55.4973
0
LINE
8
BLACK
6
CONTINUOUS
10
42.1
20
-55.4973
11
42.1757
21
-55.4595
0
LINE
8
BLACK
6
CONTINUOUS
10
42.1757
20
-55.4595
11
42.2071
21
-55.4281
0
LINE
8
BLACK
6
CONTINUOUS
10
42.2071
20
-55.4281
11
42.2521
21
-55.3381
0
LINE
8
BLACK
6
CONTINUOUS
10
42.2521
20
-55.3381
11
42.3054
21
-55.1249
0
LINE
8
BLACK
6
CONTINUOUS
10
42.3054
20
-55.1249
11
42.3054
21
-54.8538
0
LINE
8
BLACK
6
CONTINUOUS
10
42.3054
20
-54.8538
11
42.2521
21
-54.6405
0
LINE
8
BLACK
6
CONTINUOUS
10
42.2521
20
-54.6405
11
42.2071
21
-54.5505
0
LINE
8
BLACK
6
CONTINUOUS
10
42.2071
20
-54.5505
11
42.1757
21
-54.5192
0
LINE
8
BLACK
6
CONTINUOUS
10
42.1757
20
-54.5192
11
42.1
21
-54.4813
0
LINE
8
BLACK
6
CONTINUOUS
10
42.1
20
-54.4813
11
42.039
21
-54.4813
0
LINE
8
BLACK
6
CONTINUOUS
10
42.039
20
-54.4813
11
41.9633
21
-54.5192
0
LINE
8
BLACK
6
CONTINUOUS
10
43.2954
20
-54.2336
11
43.3299
21
-54.2379
0
LINE
8
BLACK
6
CONTINUOUS
10
43.3299
20
-54.2379
11
43.3307
21
-54.2386
0
LINE
8
BLACK
6
CONTINUOUS
10
43.3307
20
-54.2386
11
43.3318
21
-54.2388
0
LINE
8
BLACK
6
CONTINUOUS
10
43.3318
20
-54.2388
11
43.3581
21
-54.2616
0
LINE
8
BLACK
6
CONTINUOUS
10
43.3581
20
-54.2616
11
43.3847
21
-54.2839
0
LINE
8
BLACK
6
CONTINUOUS
10
43.3847
20
-54.2839
11
43.4987
21
-54.4548
0
LINE
8
BLACK
6
CONTINUOUS
10
43.4987
20
-54.4548
11
43.5962
21
-54.5523
0
LINE
8
BLACK
6
CONTINUOUS
10
43.5962
20
-54.5523
11
43.6987
21
-54.6036
0
LINE
8
BLACK
6
CONTINUOUS
10
43.6987
20
-54.6036
11
43.7284
21
-54.6242
0
LINE
8
BLACK
6
CONTINUOUS
10
43.7284
20
-54.6242
11
43.7649
21
-54.6857
0
LINE
8
BLACK
6
CONTINUOUS
10
43.7649
20
-54.6857
11
43.7624
21
-54.7572
0
LINE
8
BLACK
6
CONTINUOUS
10
43.7624
20
-54.7572
11
43.7216
21
-54.816
0
LINE
8
BLACK
6
CONTINUOUS
10
43.7216
20
-54.816
11
43.6555
21
-54.8434
0
LINE
8
BLACK
6
CONTINUOUS
10
43.6555
20
-54.8434
11
43.5851
21
-54.8308
0
LINE
8
BLACK
6
CONTINUOUS
10
43.5851
20
-54.8308
11
43.4642
21
-54.7703
0
LINE
8
BLACK
6
CONTINUOUS
10
43.4642
20
-54.7703
11
43.4345
21
-54.7497
0
LINE
8
BLACK
6
CONTINUOUS
10
43.4345
20
-54.7497
11
43.4332
21
-54.7476
0
LINE
8
BLACK
6
CONTINUOUS
10
43.4332
20
-54.7476
11
43.4311
21
-54.7465
0
LINE
8
BLACK
6
CONTINUOUS
10
43.4311
20
-54.7465
11
43.406
21
-54.7214
0
LINE
8
BLACK
6
CONTINUOUS
10
43.406
20
-54.7214
11
43.406
21
-55.4973
0
LINE
8
BLACK
6
CONTINUOUS
10
43.406
20
-55.4973
11
43.6419
21
-55.4973
0
LINE
8
BLACK
6
CONTINUOUS
10
43.6419
20
-55.4973
11
43.6777
21
-55.5025
0
LINE
8
BLACK
6
CONTINUOUS
10
43.6777
20
-55.5025
11
43.7379
21
-55.5412
0
LINE
8
BLACK
6
CONTINUOUS
10
43.7379
20
-55.5412
11
43.7676
21
-55.6062
0
LINE
8
BLACK
6
CONTINUOUS
10
43.7676
20
-55.6062
11
43.7574
21
-55.6771
0
LINE
8
BLACK
6
CONTINUOUS
10
43.7574
20
-55.6771
11
43.7106
21
-55.7312
0
LINE
8
BLACK
6
CONTINUOUS
10
43.7106
20
-55.7312
11
43.6419
21
-55.7513
0
LINE
8
BLACK
6
CONTINUOUS
10
43.6419
20
-55.7513
11
42.9162
21
-55.7513
0
LINE
8
BLACK
6
CONTINUOUS
10
42.9162
20
-55.7513
11
42.8804
21
-55.7462
0
LINE
8
BLACK
6
CONTINUOUS
10
42.8804
20
-55.7462
11
42.8202
21
-55.7075
0
LINE
8
BLACK
6
CONTINUOUS
10
42.8202
20
-55.7075
11
42.7905
21
-55.6424
0
LINE
8
BLACK
6
CONTINUOUS
10
42.7905
20
-55.6424
11
42.8007
21
-55.5716
0
LINE
8
BLACK
6
CONTINUOUS
10
42.8007
20
-55.5716
11
42.8475
21
-55.5175
0
LINE
8
BLACK
6
CONTINUOUS
10
42.8475
20
-55.5175
11
42.9162
21
-55.4973
0
LINE
8
BLACK
6
CONTINUOUS
10
42.9162
20
-55.4973
11
43.152
21
-55.4973
0
LINE
8
BLACK
6
CONTINUOUS
10
43.152
20
-55.4973
11
43.152
21
-54.3543
0
LINE
8
BLACK
6
CONTINUOUS
10
43.152
20
-54.3543
11
43.1566
21
-54.3224
0
LINE
8
BLACK
6
CONTINUOUS
10
43.1566
20
-54.3224
11
43.1566
21
-54.3206
0
LINE
8
BLACK
6
CONTINUOUS
10
43.1566
20
-54.3206
11
43.157
21
-54.32
0
LINE
8
BLACK
6
CONTINUOUS
10
43.157
20
-54.32
11
43.1572
21
-54.3185
0
LINE
8
BLACK
6
CONTINUOUS
10
43.1572
20
-54.3185
11
43.176
21
-54.2893
0
LINE
8
BLACK
6
CONTINUOUS
10
43.176
20
-54.2893
11
43.1943
21
-54.2597
0
LINE
8
BLACK
6
CONTINUOUS
10
43.1943
20
-54.2597
11
43.1953
21
-54.2593
0
LINE
8
BLACK
6
CONTINUOUS
10
43.1953
20
-54.2593
11
43.1959
21
-54.2583
0
LINE
8
BLACK
6
CONTINUOUS
10
43.1959
20
-54.2583
11
43.2275
21
-54.2439
0
LINE
8
BLACK
6
CONTINUOUS
10
43.2275
20
-54.2439
11
43.2589
21
-54.2289
0
LINE
8
BLACK
6
CONTINUOUS
10
43.2589
20
-54.2289
11
43.26
21
-54.2291
0
LINE
8
BLACK
6
CONTINUOUS
10
43.26
20
-54.2291
11
43.261
21
-54.2286
0
LINE
8
BLACK
6
CONTINUOUS
10
43.261
20
-54.2286
11
43.2954
21
-54.2336
0
LINE
8
BLACK
6
CONTINUOUS
10
46.0967
20
-54.2325
11
46.1064
21
-54.2387
0
LINE
8
BLACK
6
CONTINUOUS
10
46.1064
20
-54.2387
11
46.1177
21
-54.2407
0
LINE
8
BLACK
6
CONTINUOUS
10
46.1177
20
-54.2407
11
46.2387
21
-54.3012
0
LINE
8
BLACK
6
CONTINUOUS
10
46.2387
20
-54.3012
11
46.2684
21
-54.3218
0
LINE
8
BLACK
6
CONTINUOUS
10
46.2684
20
-54.3218
11
46.2696
21
-54.3239
0
LINE
8
BLACK
6
CONTINUOUS
10
46.2696
20
-54.3239
11
46.2717
21
-54.325
0
LINE
8
BLACK
6
CONTINUOUS
10
46.2717
20
-54.325
11
46.3322
21
-54.3855
0
LINE
8
BLACK
6
CONTINUOUS
10
46.3322
20
-54.3855
11
46.3538
21
-54.4144
0
LINE
8
BLACK
6
CONTINUOUS
10
46.3538
20
-54.4144
11
46.3544
21
-54.4167
0
LINE
8
BLACK
6
CONTINUOUS
10
46.3544
20
-54.4167
11
46.356
21
-54.4185
0
LINE
8
BLACK
6
CONTINUOUS
10
46.356
20
-54.4185
11
46.4164
21
-54.5394
0
LINE
8
BLACK
6
CONTINUOUS
10
46.4164
20
-54.5394
11
46.4278
21
-54.5737
0
LINE
8
BLACK
6
CONTINUOUS
10
46.4278
20
-54.5737
11
46.4266
21
-54.5852
0
LINE
8
BLACK
6
CONTINUOUS
10
46.4266
20
-54.5852
11
46.4299
21
-54.5962
0
LINE
8
BLACK
6
CONTINUOUS
10
46.4299
20
-54.5962
11
46.4299
21
-54.7172
0
LINE
8
BLACK
6
CONTINUOUS
10
46.4299
20
-54.7172
11
46.4247
21
-54.753
0
LINE
8
BLACK
6
CONTINUOUS
10
46.4247
20
-54.753
11
46.4185
21
-54.7626
0
LINE
8
BLACK
6
CONTINUOUS
10
46.4185
20
-54.7626
11
46.4164
21
-54.774
0
LINE
8
BLACK
6
CONTINUOUS
10
46.4164
20
-54.774
11
46.356
21
-54.8949
0
LINE
8
BLACK
6
CONTINUOUS
10
46.356
20
-54.8949
11
46.3354
21
-54.9246
0
LINE
8
BLACK
6
CONTINUOUS
10
46.3354
20
-54.9246
11
46.3333
21
-54.9258
0
LINE
8
BLACK
6
CONTINUOUS
10
46.3333
20
-54.9258
11
46.3322
21
-54.9279
0
LINE
8
BLACK
6
CONTINUOUS
10
46.3322
20
-54.9279
11
46.2717
21
-54.9884
0
LINE
8
BLACK
6
CONTINUOUS
10
46.2717
20
-54.9884
11
46.2428
21
-55.0101
0
LINE
8
BLACK
6
CONTINUOUS
10
46.2428
20
-55.0101
11
46.2404
21
-55.0106
0
LINE
8
BLACK
6
CONTINUOUS
10
46.2404
20
-55.0106
11
46.2387
21
-55.0122
0
LINE
8
BLACK
6
CONTINUOUS
10
46.2387
20
-55.0122
11
46.1177
21
-55.0727
0
LINE
8
BLACK
6
CONTINUOUS
10
46.1177
20
-55.0727
11
46.0956
21
-55.08
0
LINE
8
BLACK
6
CONTINUOUS
10
46.0956
20
-55.08
11
46.0918
21
-55.0823
0
LINE
8
BLACK
6
CONTINUOUS
10
46.0918
20
-55.0823
11
45.8634
21
-55.1394
0
LINE
8
BLACK
6
CONTINUOUS
10
45.8634
20
-55.1394
11
45.7733
21
-55.1844
0
LINE
8
BLACK
6
CONTINUOUS
10
45.7733
20
-55.1844
11
45.742
21
-55.2157
0
LINE
8
BLACK
6
CONTINUOUS
10
45.742
20
-55.2157
11
45.7041
21
-55.2914
0
LINE
8
BLACK
6
CONTINUOUS
10
45.7041
20
-55.2914
11
45.7041
21
-55.3524
0
LINE
8
BLACK
6
CONTINUOUS
10
45.7041
20
-55.3524
11
45.742
21
-55.4281
0
LINE
8
BLACK
6
CONTINUOUS
10
45.742
20
-55.4281
11
45.7733
21
-55.4595
0
LINE
8
BLACK
6
CONTINUOUS
10
45.7733
20
-55.4595
11
45.849
21
-55.4973
0
LINE
8
BLACK
6
CONTINUOUS
10
45.849
20
-55.4973
11
46.1008
21
-55.4973
0
LINE
8
BLACK
6
CONTINUOUS
10
46.1008
20
-55.4973
11
46.2627
21
-55.4434
0
LINE
8
BLACK
6
CONTINUOUS
10
46.2627
20
-55.4434
11
46.2983
21
-55.4369
0
LINE
8
BLACK
6
CONTINUOUS
10
46.2983
20
-55.4369
11
46.3676
21
-55.4546
0
LINE
8
BLACK
6
CONTINUOUS
10
46.3676
20
-55.4546
11
46.4164
21
-55.5069
0
LINE
8
BLACK
6
CONTINUOUS
10
46.4164
20
-55.5069
11
46.4291
21
-55.5774
0
LINE
8
BLACK
6
CONTINUOUS
10
46.4291
20
-55.5774
11
46.4018
21
-55.6435
0
LINE
8
BLACK
6
CONTINUOUS
10
46.4018
20
-55.6435
11
46.343
21
-55.6843
0
LINE
8
BLACK
6
CONTINUOUS
10
46.343
20
-55.6843
11
46.1616
21
-55.7448
0
LINE
8
BLACK
6
CONTINUOUS
10
46.1616
20
-55.7448
11
46.126
21
-55.7512
0
LINE
8
BLACK
6
CONTINUOUS
10
46.126
20
-55.7512
11
46.1237
21
-55.7506
0
LINE
8
BLACK
6
CONTINUOUS
10
46.1237
20
-55.7506
11
46.1214
21
-55.7513
0
LINE
8
BLACK
6
CONTINUOUS
10
46.1214
20
-55.7513
11
45.819
21
-55.7513
0
LINE
8
BLACK
6
CONTINUOUS
10
45.819
20
-55.7513
11
45.7833
21
-55.7462
0
LINE
8
BLACK
6
CONTINUOUS
10
45.7833
20
-55.7462
11
45.7736
21
-55.7399
0
LINE
8
BLACK
6
CONTINUOUS
10
45.7736
20
-55.7399
11
45.7622
21
-55.7379
0
LINE
8
BLACK
6
CONTINUOUS
10
45.7622
20
-55.7379
11
45.6413
21
-55.6774
0
LINE
8
BLACK
6
CONTINUOUS
10
45.6413
20
-55.6774
11
45.6116
21
-55.6568
0
LINE
8
BLACK
6
CONTINUOUS
10
45.6116
20
-55.6568
11
45.6104
21
-55.6548
0
LINE
8
BLACK
6
CONTINUOUS
10
45.6104
20
-55.6548
11
45.6083
21
-55.6536
0
LINE
8
BLACK
6
CONTINUOUS
10
45.6083
20
-55.6536
11
45.5478
21
-55.5932
0
LINE
8
BLACK
6
CONTINUOUS
10
45.5478
20
-55.5932
11
45.5262
21
-55.5642
0
LINE
8
BLACK
6
CONTINUOUS
10
45.5262
20
-55.5642
11
45.5256
21
-55.5619
0
LINE
8
BLACK
6
CONTINUOUS
10
45.5256
20
-55.5619
11
45.524
21
-55.5602
0
LINE
8
BLACK
6
CONTINUOUS
10
45.524
20
-55.5602
11
45.4635
21
-55.4392
0
LINE
8
BLACK
6
CONTINUOUS
10
45.4635
20
-55.4392
11
45.4521
21
-55.4049
0
LINE
8
BLACK
6
CONTINUOUS
10
45.4521
20
-55.4049
11
45.4534
21
-55.3935
0
LINE
8
BLACK
6
CONTINUOUS
10
45.4534
20
-55.3935
11
45.4501
21
-55.3824
0
LINE
8
BLACK
6
CONTINUOUS
10
45.4501
20
-55.3824
11
45.4501
21
-55.2615
0
LINE
8
BLACK
6
CONTINUOUS
10
45.4501
20
-55.2615
11
45.4553
21
-55.2257
0
LINE
8
BLACK
6
CONTINUOUS
10
45.4553
20
-55.2257
11
45.4615
21
-55.216
0
LINE
8
BLACK
6
CONTINUOUS
10
45.4615
20
-55.216
11
45.4635
21
-55.2047
0
LINE
8
BLACK
6
CONTINUOUS
10
45.4635
20
-55.2047
11
45.524
21
-55.0837
0
LINE
8
BLACK
6
CONTINUOUS
10
45.524
20
-55.0837
11
45.5446
21
-55.054
0
LINE
8
BLACK
6
CONTINUOUS
10
45.5446
20
-55.054
11
45.5467
21
-55.0528
0
LINE
8
BLACK
6
CONTINUOUS
10
45.5467
20
-55.0528
11
45.5478
21
-55.0507
0
LINE
8
BLACK
6
CONTINUOUS
10
45.5478
20
-55.0507
11
45.6083
21
-54.9902
0
LINE
8
BLACK
6
CONTINUOUS
10
45.6083
20
-54.9902
11
45.6372
21
-54.9686
0
LINE
8
BLACK
6
CONTINUOUS
10
45.6372
20
-54.9686
11
45.6396
21
-54.9681
0
LINE
8
BLACK
6
CONTINUOUS
10
45.6396
20
-54.9681
11
45.6413
21
-54.9664
0
LINE
8
BLACK
6
CONTINUOUS
10
45.6413
20
-54.9664
11
45.7622
21
-54.906
0
LINE
8
BLACK
6
CONTINUOUS
10
45.7622
20
-54.906
11
45.7844
21
-54.8986
0
LINE
8
BLACK
6
CONTINUOUS
10
45.7844
20
-54.8986
11
45.7882
21
-54.8963
0
LINE
8
BLACK
6
CONTINUOUS
10
45.7882
20
-54.8963
11
46.0166
21
-54.8393
0
LINE
8
BLACK
6
CONTINUOUS
10
46.0166
20
-54.8393
11
46.1067
21
-54.7942
0
LINE
8
BLACK
6
CONTINUOUS
10
46.1067
20
-54.7942
11
46.138
21
-54.7629
0
LINE
8
BLACK
6
CONTINUOUS
10
46.138
20
-54.7629
11
46.1759
21
-54.6872
0
LINE
8
BLACK
6
CONTINUOUS
10
46.1759
20
-54.6872
11
46.1759
21
-54.6262
0
LINE
8
BLACK
6
CONTINUOUS
10
46.1759
20
-54.6262
11
46.138
21
-54.5505
0
LINE
8
BLACK
6
CONTINUOUS
10
46.138
20
-54.5505
11
46.1067
21
-54.5192
0
LINE
8
BLACK
6
CONTINUOUS
10
46.1067
20
-54.5192
11
46.031
21
-54.4813
0
LINE
8
BLACK
6
CONTINUOUS
10
46.031
20
-54.4813
11
45.7792
21
-54.4813
0
LINE
8
BLACK
6
CONTINUOUS
10
45.7792
20
-54.4813
11
45.6173
21
-54.5353
0
LINE
8
BLACK
6
CONTINUOUS
10
45.6173
20
-54.5353
11
45.5817
21
-54.5417
0
LINE
8
BLACK
6
CONTINUOUS
10
45.5817
20
-54.5417
11
45.5124
21
-54.524
0
LINE
8
BLACK
6
CONTINUOUS
10
45.5124
20
-54.524
11
45.4636
21
-54.4717
0
LINE
8
BLACK
6
CONTINUOUS
10
45.4636
20
-54.4717
11
45.4509
21
-54.4013
0
LINE
8
BLACK
6
CONTINUOUS
10
45.4509
20
-54.4013
11
45.4782
21
-54.3351
0
LINE
8
BLACK
6
CONTINUOUS
10
45.4782
20
-54.3351
11
45.537
21
-54.2943
0
LINE
8
BLACK
6
CONTINUOUS
10
45.537
20
-54.2943
11
45.7184
21
-54.2338
0
LINE
8
BLACK
6
CONTINUOUS
10
45.7184
20
-54.2338
11
45.754
21
-54.2274
0
LINE
8
BLACK
6
CONTINUOUS
10
45.754
20
-54.2274
11
45.7563
21
-54.228
0
LINE
8
BLACK
6
CONTINUOUS
10
45.7563
20
-54.228
11
45.7586
21
-54.2273
0
LINE
8
BLACK
6
CONTINUOUS
10
45.7586
20
-54.2273
11
46.061
21
-54.2273
0
LINE
8
BLACK
6
CONTINUOUS
10
46.061
20
-54.2273
11
46.0967
21
-54.2325
0
LINE
8
BLACK
6
CONTINUOUS
10
45.2319
20
-54.2542
11
45.2736
21
-54.3123
0
LINE
8
BLACK
6
CONTINUOUS
10
45.2736
20
-54.3123
11
45.2774
21
-54.3837
0
LINE
8
BLACK
6
CONTINUOUS
10
45.2774
20
-54.3837
11
44.975
21
-55.6537
0
LINE
8
BLACK
6
CONTINUOUS
10
44.975
20
-55.6537
11
44.9617
21
-55.6873
0
LINE
8
BLACK
6
CONTINUOUS
10
44.9617
20
-55.6873
11
44.9581
21
-55.6908
0
LINE
8
BLACK
6
CONTINUOUS
10
44.9581
20
-55.6908
11
44.9565
21
-55.6956
0
LINE
8
BLACK
6
CONTINUOUS
10
44.9565
20
-55.6956
11
44.9325
21
-55.7154
0
LINE
8
BLACK
6
CONTINUOUS
10
44.9325
20
-55.7154
11
44.9101
21
-55.737
0
LINE
8
BLACK
6
CONTINUOUS
10
44.9101
20
-55.737
11
44.9052
21
-55.7379
0
LINE
8
BLACK
6
CONTINUOUS
10
44.9052
20
-55.7379
11
44.9013
21
-55.7411
0
LINE
8
BLACK
6
CONTINUOUS
10
44.9013
20
-55.7411
11
44.8704
21
-55.7448
0
LINE
8
BLACK
6
CONTINUOUS
10
44.8704
20
-55.7448
11
44.8399
21
-55.7508
0
LINE
8
BLACK
6
CONTINUOUS
10
44.8399
20
-55.7508
11
44.8352
21
-55.7489
0
LINE
8
BLACK
6
CONTINUOUS
10
44.8352
20
-55.7489
11
44.8302
21
-55.7495
0
LINE
8
BLACK
6
CONTINUOUS
10
44.8302
20
-55.7495
11
44.8023
21
-55.7359
0
LINE
8
BLACK
6
CONTINUOUS
10
44.8023
20
-55.7359
11
44.7733
21
-55.7245
0
LINE
8
BLACK
6
CONTINUOUS
10
44.7733
20
-55.7245
11
44.7704
21
-55.7204
0
LINE
8
BLACK
6
CONTINUOUS
10
44.7704
20
-55.7204
11
44.7659
21
-55.7182
0
LINE
8
BLACK
6
CONTINUOUS
10
44.7659
20
-55.7182
11
44.7497
21
-55.6916
0
LINE
8
BLACK
6
CONTINUOUS
10
44.7497
20
-55.6916
11
44.7316
21
-55.6664
0
LINE
8
BLACK
6
CONTINUOUS
10
44.7316
20
-55.6664
11
44.7313
21
-55.6613
0
LINE
8
BLACK
6
CONTINUOUS
10
44.7313
20
-55.6613
11
44.7287
21
-55.657
0
LINE
8
BLACK
6
CONTINUOUS
10
44.7287
20
-55.657
11
44.6095
21
-55.2101
0
LINE
8
BLACK
6
CONTINUOUS
10
44.6095
20
-55.2101
11
44.4903
21
-55.657
0
LINE
8
BLACK
6
CONTINUOUS
10
44.4903
20
-55.657
11
44.4761
21
-55.6903
0
LINE
8
BLACK
6
CONTINUOUS
10
44.4761
20
-55.6903
11
44.4724
21
-55.6937
0
LINE
8
BLACK
6
CONTINUOUS
10
44.4724
20
-55.6937
11
44.4708
21
-55.6984
0
LINE
8
BLACK
6
CONTINUOUS
10
44.4708
20
-55.6984
11
44.4462
21
-55.7175
0
LINE
8
BLACK
6
CONTINUOUS
10
44.4462
20
-55.7175
11
44.4232
21
-55.7385
0
LINE
8
BLACK
6
CONTINUOUS
10
44.4232
20
-55.7385
11
44.4183
21
-55.7393
0
LINE
8
BLACK
6
CONTINUOUS
10
44.4183
20
-55.7393
11
44.4143
21
-55.7424
0
LINE
8
BLACK
6
CONTINUOUS
10
44.4143
20
-55.7424
11
44.3833
21
-55.7452
0
LINE
8
BLACK
6
CONTINUOUS
10
44.3833
20
-55.7452
11
44.3527
21
-55.7504
0
LINE
8
BLACK
6
CONTINUOUS
10
44.3527
20
-55.7504
11
44.3481
21
-55.7485
0
LINE
8
BLACK
6
CONTINUOUS
10
44.3481
20
-55.7485
11
44.3431
21
-55.7489
0
LINE
8
BLACK
6
CONTINUOUS
10
44.3431
20
-55.7489
11
44.3155
21
-55.7346
0
LINE
8
BLACK
6
CONTINUOUS
10
44.3155
20
-55.7346
11
44.2869
21
-55.7223
0
LINE
8
BLACK
6
CONTINUOUS
10
44.2869
20
-55.7223
11
44.284
21
-55.7182
0
LINE
8
BLACK
6
CONTINUOUS
10
44.284
20
-55.7182
11
44.2796
21
-55.7159
0
LINE
8
BLACK
6
CONTINUOUS
10
44.2796
20
-55.7159
11
44.2642
21
-55.6889
0
LINE
8
BLACK
6
CONTINUOUS
10
44.2642
20
-55.6889
11
44.2467
21
-55.6631
0
LINE
8
BLACK
6
CONTINUOUS
10
44.2467
20
-55.6631
11
44.2466
21
-55.6581
0
LINE
8
BLACK
6
CONTINUOUS
10
44.2466
20
-55.6581
11
44.2441
21
-55.6537
0
LINE
8
BLACK
6
CONTINUOUS
10
44.2441
20
-55.6537
11
43.9417
21
-54.3837
0
LINE
8
BLACK
6
CONTINUOUS
10
43.9417
20
-54.3837
11
43.9384
21
-54.3477
0
LINE
8
BLACK
6
CONTINUOUS
10
43.9384
20
-54.3477
11
43.9621
21
-54.2802
0
LINE
8
BLACK
6
CONTINUOUS
10
43.9621
20
-54.2802
11
44.0185
21
-54.2362
0
LINE
8
BLACK
6
CONTINUOUS
10
44.0185
20
-54.2362
11
44.0898
21
-54.2297
0
LINE
8
BLACK
6
CONTINUOUS
10
44.0898
20
-54.2297
11
44.1533
21
-54.2628
0
LINE
8
BLACK
6
CONTINUOUS
10
44.1533
20
-54.2628
11
44.1888
21
-54.3249
0
LINE
8
BLACK
6
CONTINUOUS
10
44.1888
20
-54.3249
11
44.3746
21
-55.1053
0
LINE
8
BLACK
6
CONTINUOUS
10
44.3746
20
-55.1053
11
44.4868
21
-54.6845
0
LINE
8
BLACK
6
CONTINUOUS
10
44.4868
20
-54.6845
11
44.501
21
-54.6512
0
LINE
8
BLACK
6
CONTINUOUS
10
44.501
20
-54.6512
11
44.5034
21
-54.649
0
LINE
8
BLACK
6
CONTINUOUS
10
44.5034
20
-54.649
11
44.5044
21
-54.6459
0
LINE
8
BLACK
6
CONTINUOUS
10
44.5044
20
-54.6459
11
44.5297
21
-54.6251
0
LINE
8
BLACK
6
CONTINUOUS
10
44.5297
20
-54.6251
11
44.5539
21
-54.603
0
LINE
8
BLACK
6
CONTINUOUS
10
44.5539
20
-54.603
11
44.5571
21
-54.6025
0
LINE
8
BLACK
6
CONTINUOUS
10
44.5571
20
-54.6025
11
44.5597
21
-54.6004
0
LINE
8
BLACK
6
CONTINUOUS
10
44.5597
20
-54.6004
11
44.5922
21
-54.5965
0
LINE
8
BLACK
6
CONTINUOUS
10
44.5922
20
-54.5965
11
44.6244
21
-54.5911
0
LINE
8
BLACK
6
CONTINUOUS
10
44.6244
20
-54.5911
11
44.6275
21
-54.5923
0
LINE
8
BLACK
6
CONTINUOUS
10
44.6275
20
-54.5923
11
44.6307
21
-54.592
0
LINE
8
BLACK
6
CONTINUOUS
10
44.6307
20
-54.592
11
44.6602
21
-54.6063
0
LINE
8
BLACK
6
CONTINUOUS
10
44.6602
20
-54.6063
11
44.6903
21
-54.6191
0
LINE
8
BLACK
6
CONTINUOUS
10
44.6903
20
-54.6191
11
44.6921
21
-54.6219
0
LINE
8
BLACK
6
CONTINUOUS
10
44.6921
20
-54.6219
11
44.6951
21
-54.6233
0
LINE
8
BLACK
6
CONTINUOUS
10
44.6951
20
-54.6233
11
44.7121
21
-54.6513
0
LINE
8
BLACK
6
CONTINUOUS
10
44.7121
20
-54.6513
11
44.7304
21
-54.6784
0
LINE
8
BLACK
6
CONTINUOUS
10
44.7304
20
-54.6784
11
44.7305
21
-54.6816
0
LINE
8
BLACK
6
CONTINUOUS
10
44.7305
20
-54.6816
11
44.7322
21
-54.6845
0
LINE
8
BLACK
6
CONTINUOUS
10
44.7322
20
-54.6845
11
44.8445
21
-55.1053
0
LINE
8
BLACK
6
CONTINUOUS
10
44.8445
20
-55.1053
11
45.0303
21
-54.3249
0
LINE
8
BLACK
6
CONTINUOUS
10
45.0303
20
-54.3249
11
45.0436
21
-54.2913
0
LINE
8
BLACK
6
CONTINUOUS
10
45.0436
20
-54.2913
11
45.0951
21
-54.2417
0
LINE
8
BLACK
6
CONTINUOUS
10
45.0951
20
-54.2417
11
45.1653
21
-54.2278
0
LINE
8
BLACK
6
CONTINUOUS
10
45.1653
20
-54.2278
11
45.2319
21
-54.2542
0
LINE
8
BLACK
6
CONTINUOUS
10
46.65
20
-53.2
11
46.6854
21
-53.2146
0
LINE
8
BLACK
6
CONTINUOUS
10
46.6854
20
-53.2146
11
46.7
21
-53.25
0
LINE
8
BLACK
6
CONTINUOUS
10
46.7
20
-53.25
11
46.7
21
-54.15
0
LINE
8
BLACK
6
CONTINUOUS
10
46.7
20
-54.15
11
46.6854
21
-54.1854
0
LINE
8
BLACK
6
CONTINUOUS
10
46.6854
20
-54.1854
11
46.65
21
-54.2
0
LINE
8
BLACK
6
CONTINUOUS
10
46.65
20
-54.2
11
46.6146
21
-54.1854
0
LINE
8
BLACK
6
CONTINUOUS
10
46.6146
20
-54.1854
11
46.6
21
-54.15
0
LINE
8
BLACK
6
CONTINUOUS
10
46.6
20
-54.15
11
46.6
21
-53.3
0
LINE
8
BLACK
6
CONTINUOUS
10
46.6
20
-53.3
11
40.7
21
-53.3
0
LINE
8
BLACK
6
CONTINUOUS
10
40.7
20
-53.3
11
40.7
21
-54.15
0
LINE
8
BLACK
6
CONTINUOUS
10
40.7
20
-54.15
11
40.6854
21
-54.1854
0
LINE
8
BLACK
6
CONTINUOUS
10
40.6854
20
-54.1854
11
40.65
21
-54.2
0
LINE
8
BLACK
6
CONTINUOUS
10
40.65
20
-54.2
11
40.6146
21
-54.1854
0
LINE
8
BLACK
6
CONTINUOUS
10
40.6146
20
-54.1854
11
40.6
21
-54.15
0
LINE
8
BLACK
6
CONTINUOUS
10
40.6
20
-54.15
11
40.6
21
-53.25
0
LINE
8
BLACK
6
CONTINUOUS
10
40.6
20
-53.25
11
40.6146
21
-53.2146
0
LINE
8
BLACK
6
CONTINUOUS
10
40.6146
20
-53.2146
11
40.65
21
-53.2
0
LINE
8
BLACK
6
CONTINUOUS
10
40.65
20
-53.2
11
46.65
21
-53.2
0
LINE
8
BLACK
6
CONTINUOUS
10
48.9996
20
-46.5511
11
49.0598
21
-46.5898
0
LINE
8
BLACK
6
CONTINUOUS
10
49.0598
20
-46.5898
11
49.0896
21
-46.6549
0
LINE
8
BLACK
6
CONTINUOUS
10
49.0896
20
-46.6549
11
49.0794
21
-46.7257
0
LINE
8
BLACK
6
CONTINUOUS
10
49.0794
20
-46.7257
11
49.0325
21
-46.7798
0
LINE
8
BLACK
6
CONTINUOUS
10
49.0325
20
-46.7798
11
48.9639
21
-46.7999
0
LINE
8
BLACK
6
CONTINUOUS
10
48.9639
20
-46.7999
11
47.222
21
-46.7999
0
LINE
8
BLACK
6
CONTINUOUS
10
47.222
20
-46.7999
11
47.222
21
-47.4918
0
LINE
8
BLACK
6
CONTINUOUS
10
47.222
20
-47.4918
11
47.2168
21
-47.5276
0
LINE
8
BLACK
6
CONTINUOUS
10
47.2168
20
-47.5276
11
47.1781
21
-47.5878
0
LINE
8
BLACK
6
CONTINUOUS
10
47.1781
20
-47.5878
11
47.113
21
-47.6175
0
LINE
8
BLACK
6
CONTINUOUS
10
47.113
20
-47.6175
11
47.0422
21
-47.6073
0
LINE
8
BLACK
6
CONTINUOUS
10
47.0422
20
-47.6073
11
46.9881
21
-47.5605
0
LINE
8
BLACK
6
CONTINUOUS
10
46.9881
20
-47.5605
11
46.968
21
-47.4918
0
LINE
8
BLACK
6
CONTINUOUS
10
46.968
20
-47.4918
11
46.968
21
-46.9716
0
LINE
8
BLACK
6
CONTINUOUS
10
46.968
20
-46.9716
11
46.2441
21
-46.9716
0
LINE
8
BLACK
6
CONTINUOUS
10
46.2441
20
-46.9716
11
46.2441
21
-51.2464
0
LINE
8
BLACK
6
CONTINUOUS
10
46.2441
20
-51.2464
11
46.968
21
-51.2464
0
LINE
8
BLACK
6
CONTINUOUS
10
46.968
20
-51.2464
11
46.968
21
-50.7541
0
LINE
8
BLACK
6
CONTINUOUS
10
46.968
20
-50.7541
11
46.9731
21
-50.7183
0
LINE
8
BLACK
6
CONTINUOUS
10
46.9731
20
-50.7183
11
47.0118
21
-50.6581
0
LINE
8
BLACK
6
CONTINUOUS
10
47.0118
20
-50.6581
11
47.0769
21
-50.6284
0
LINE
8
BLACK
6
CONTINUOUS
10
47.0769
20
-50.6284
11
47.1477
21
-50.6386
0
LINE
8
BLACK
6
CONTINUOUS
10
47.1477
20
-50.6386
11
47.2018
21
-50.6855
0
LINE
8
BLACK
6
CONTINUOUS
10
47.2018
20
-50.6855
11
47.222
21
-50.7541
0
LINE
8
BLACK
6
CONTINUOUS
10
47.222
20
-50.7541
11
47.222
21
-51.446
0
LINE
8
BLACK
6
CONTINUOUS
10
47.222
20
-51.446
11
48.9639
21
-51.446
0
LINE
8
BLACK
6
CONTINUOUS
10
48.9639
20
-51.446
11
48.9996
21
-51.4511
0
LINE
8
BLACK
6
CONTINUOUS
10
48.9996
20
-51.4511
11
49.0598
21
-51.4898
0
LINE
8
BLACK
6
CONTINUOUS
10
49.0598
20
-51.4898
11
49.0896
21
-51.5549
0
LINE
8
BLACK
6
CONTINUOUS
10
49.0896
20
-51.5549
11
49.0794
21
-51.6257
0
LINE
8
BLACK
6
CONTINUOUS
10
49.0794
20
-51.6257
11
49.0325
21
-51.6798
0
LINE
8
BLACK
6
CONTINUOUS
10
49.0325
20
-51.6798
11
48.9639
21
-51.7
0
LINE
8
BLACK
6
CONTINUOUS
10
48.9639
20
-51.7
11
47.095
21
-51.7
0
LINE
8
BLACK
6
CONTINUOUS
10
47.095
20
-51.7
11
47.0592
21
-51.6948
0
LINE
8
BLACK
6
CONTINUOUS
10
47.0592
20
-51.6948
11
47.0514
21
-51.6898
0
LINE
8
BLACK
6
CONTINUOUS
10
47.0514
20
-51.6898
11
47.0422
21
-51.6885
0
LINE
8
BLACK
6
CONTINUOUS
10
47.0422
20
-51.6885
11
47.0218
21
-51.6708
0
LINE
8
BLACK
6
CONTINUOUS
10
47.0218
20
-51.6708
11
46.999
21
-51.6561
0
LINE
8
BLACK
6
CONTINUOUS
10
46.999
20
-51.6561
11
46.9951
21
-51.6477
0
LINE
8
BLACK
6
CONTINUOUS
10
46.9951
20
-51.6477
11
46.9881
21
-51.6416
0
LINE
8
BLACK
6
CONTINUOUS
10
46.9881
20
-51.6416
11
46.9805
21
-51.6157
0
LINE
8
BLACK
6
CONTINUOUS
10
46.9805
20
-51.6157
11
46.9693
21
-51.591
0
LINE
8
BLACK
6
CONTINUOUS
10
46.9693
20
-51.591
11
46.9706
21
-51.5819
0
LINE
8
BLACK
6
CONTINUOUS
10
46.9706
20
-51.5819
11
46.968
21
-51.573
0
LINE
8
BLACK
6
CONTINUOUS
10
46.968
20
-51.573
11
46.968
21
-51.5004
0
LINE
8
BLACK
6
CONTINUOUS
10
46.968
20
-51.5004
11
46.1171
21
-51.5004
0
LINE
8
BLACK
6
CONTINUOUS
10
46.1171
20
-51.5004
11
46.0813
21
-51.4953
0
LINE
8
BLACK
6
CONTINUOUS
10
46.0813
20
-51.4953
11
46.0735
21
-51.4902
0
LINE
8
BLACK
6
CONTINUOUS
10
46.0735
20
-51.4902
11
46.0643
21
-51.4889
0
LINE
8
BLACK
6
CONTINUOUS
10
46.0643
20
-51.4889
11
46.0439
21
-51.4712
0
LINE
8
BLACK
6
CONTINUOUS
10
46.0439
20
-51.4712
11
46.0211
21
-51.4566
0
LINE
8
BLACK
6
CONTINUOUS
10
46.0211
20
-51.4566
11
46.0172
21
-51.4481
0
LINE
8
BLACK
6
CONTINUOUS
10
46.0172
20
-51.4481
11
46.0102
21
-51.4421
0
LINE
8
BLACK
6
CONTINUOUS
10
46.0102
20
-51.4421
11
46.0026
21
-51.4161
0
LINE
8
BLACK
6
CONTINUOUS
10
46.0026
20
-51.4161
11
45.9914
21
-51.3915
0
LINE
8
BLACK
6
CONTINUOUS
10
45.9914
20
-51.3915
11
45.9927
21
-51.3823
0
LINE
8
BLACK
6
CONTINUOUS
10
45.9927
20
-51.3823
11
45.9901
21
-51.3734
0
LINE
8
BLACK
6
CONTINUOUS
10
45.9901
20
-51.3734
11
45.9901
21
-46.8446
0
LINE
8
BLACK
6
CONTINUOUS
10
45.9901
20
-46.8446
11
45.9952
21
-46.8088
0
LINE
8
BLACK
6
CONTINUOUS
10
45.9952
20
-46.8088
11
46.0002
21
-46.801
0
LINE
8
BLACK
6
CONTINUOUS
10
46.0002
20
-46.801
11
46.0015
21
-46.7918
0
LINE
8
BLACK
6
CONTINUOUS
10
46.0015
20
-46.7918
11
46.0193
21
-46.7714
0
LINE
8
BLACK
6
CONTINUOUS
10
46.0193
20
-46.7714
11
46.0339
21
-46.7486
0
LINE
8
BLACK
6
CONTINUOUS
10
46.0339
20
-46.7486
11
46.0423
21
-46.7447
0
LINE
8
BLACK
6
CONTINUOUS
10
46.0423
20
-46.7447
11
46.0484
21
-46.7377
0
LINE
8
BLACK
6
CONTINUOUS
10
46.0484
20
-46.7377
11
46.0744
21
-46.7301
0
LINE
8
BLACK
6
CONTINUOUS
10
46.0744
20
-46.7301
11
46.099
21
-46.7189
0
LINE
8
BLACK
6
CONTINUOUS
10
46.099
20
-46.7189
11
46.1082
21
-46.7202
0
LINE
8
BLACK
6
CONTINUOUS
10
46.1082
20
-46.7202
11
46.1171
21
-46.7176
0
LINE
8
BLACK
6
CONTINUOUS
10
46.1171
20
-46.7176
11
46.968
21
-46.7176
0
LINE
8
BLACK
6
CONTINUOUS
10
46.968
20
-46.7176
11
46.968
21
-46.6729
0
LINE
8
BLACK
6
CONTINUOUS
10
46.968
20
-46.6729
11
46.9731
21
-46.6371
0
LINE
8
BLACK
6
CONTINUOUS
10
46.9731
20
-46.6371
11
46.9781
21
-46.6293
0
LINE
8
BLACK
6
CONTINUOUS
10
46.9781
20
-46.6293
11
46.9794
21
-46.6202
0
LINE
8
BLACK
6
CONTINUOUS
10
46.9794
20
-46.6202
11
46.9972
21
-46.5997
0
LINE
8
BLACK
6
CONTINUOUS
10
46.9972
20
-46.5997
11
47.0118
21
-46.5769
0
LINE
8
BLACK
6
CONTINUOUS
10
47.0118
20
-46.5769
11
47.0202
21
-46.5731
0
LINE
8
BLACK
6
CONTINUOUS
10
47.0202
20
-46.5731
11
47.0263
21
-46.5661
0
LINE
8
BLACK
6
CONTINUOUS
10
47.0263
20
-46.5661
11
47.0523
21
-46.5585
0
LINE
8
BLACK
6
CONTINUOUS
10
47.0523
20
-46.5585
11
47.0769
21
-46.5472
0
LINE
8
BLACK
6
CONTINUOUS
10
47.0769
20
-46.5472
11
47.0861
21
-46.5485
0
LINE
8
BLACK
6
CONTINUOUS
10
47.0861
20
-46.5485
11
47.095
21
-46.5459
0
LINE
8
BLACK
6
CONTINUOUS
10
47.095
20
-46.5459
11
48.9639
21
-46.5459
0
LINE
8
BLACK
6
CONTINUOUS
10
48.9639
20
-46.5459
11
48.9996
21
-46.5511
0
LINE
8
BLACK
6
CONTINUOUS
10
50.0218
20
-47.1932
11
50.0759
21
-47.2401
0
LINE
8
BLACK
6
CONTINUOUS
10
50.0759
20
-47.2401
11
50.096
21
-47.3087
0
LINE
8
BLACK
6
CONTINUOUS
10
50.096
20
-47.3087
11
50.096
21
-50.8603
0
LINE
8
BLACK
6
CONTINUOUS
10
50.096
20
-50.8603
11
50.1051
21
-50.902
0
LINE
8
BLACK
6
CONTINUOUS
10
50.1051
20
-50.902
11
50.0801
21
-50.9691
0
LINE
8
BLACK
6
CONTINUOUS
10
50.0801
20
-50.9691
11
50.0228
21
-51.012
0
LINE
8
BLACK
6
CONTINUOUS
10
50.0228
20
-51.012
11
49.9514
21
-51.0171
0
LINE
8
BLACK
6
CONTINUOUS
10
49.9514
20
-51.0171
11
49.9193
21
-50.9995
0
LINE
8
BLACK
6
CONTINUOUS
10
49.9193
20
-50.9995
11
49.9163
21
-50.9991
0
LINE
8
BLACK
6
CONTINUOUS
10
49.9163
20
-50.9991
11
49.9125
21
-50.9958
0
LINE
8
BLACK
6
CONTINUOUS
10
49.9125
20
-50.9958
11
49.8886
21
-50.9828
0
LINE
8
BLACK
6
CONTINUOUS
10
49.8886
20
-50.9828
11
49.8792
21
-50.9734
0
LINE
8
BLACK
6
CONTINUOUS
10
49.8792
20
-50.9734
11
49.8656
21
-50.9552
0
LINE
8
BLACK
6
CONTINUOUS
10
49.8656
20
-50.9552
11
49.8622
21
-50.9522
0
LINE
8
BLACK
6
CONTINUOUS
10
49.8622
20
-50.9522
11
49.8614
21
-50.9496
0
LINE
8
BLACK
6
CONTINUOUS
10
49.8614
20
-50.9496
11
49.8576
21
-50.9444
0
LINE
8
BLACK
6
CONTINUOUS
10
49.8576
20
-50.9444
11
49.8509
21
-50.9137
0
LINE
8
BLACK
6
CONTINUOUS
10
49.8509
20
-50.9137
11
49.842
21
-50.8836
0
LINE
8
BLACK
6
CONTINUOUS
10
49.842
20
-50.8836
11
49.842
21
-47.3087
0
LINE
8
BLACK
6
CONTINUOUS
10
49.842
20
-47.3087
11
49.8472
21
-47.273
0
LINE
8
BLACK
6
CONTINUOUS
10
49.8472
20
-47.273
11
49.8859
21
-47.2128
0
LINE
8
BLACK
6
CONTINUOUS
10
49.8859
20
-47.2128
11
49.951
21
-47.183
0
LINE
8
BLACK
6
CONTINUOUS
10
49.951
20
-47.183
11
50.0218
21
-47.1932
0
LINE
8
BLACK
6
CONTINUOUS
10
46.7854
20
-43.3146
11
46.8
21
-43.35
0
LINE
8
BLACK
6
CONTINUOUS
10
46.8
20
-43.35
11
46.8
21
-44.25
0
LINE
8
BLACK
6
CONTINUOUS
10
46.8
20
-44.25
11
46.7854
21
-44.2854
0
LINE
8
BLACK
6
CONTINUOUS
10
46.7854
20
-44.2854
11
46.75
21
-44.3
0
LINE
8
BLACK
6
CONTINUOUS
10
46.75
20
-44.3
11
40.75
21
-44.3
0
LINE
8
BLACK
6
CONTINUOUS
10
40.75
20
-44.3
11
40.7146
21
-44.2854
0
LINE
8
BLACK
6
CONTINUOUS
10
40.7146
20
-44.2854
11
40.7
21
-44.25
0
LINE
8
BLACK
6
CONTINUOUS
10
40.7
20
-44.25
11
40.7
21
-43.35
0
LINE
8
BLACK
6
CONTINUOUS
10
40.7
20
-43.35
11
40.7146
21
-43.3146
0
LINE
8
BLACK
6
CONTINUOUS
10
40.7146
20
-43.3146
11
40.75
21
-43.3
0
LINE
8
BLACK
6
CONTINUOUS
10
40.75
20
-43.3
11
40.7854
21
-43.3146
0
LINE
8
BLACK
6
CONTINUOUS
10
40.7854
20
-43.3146
11
40.8
21
-43.35
0
LINE
8
BLACK
6
CONTINUOUS
10
40.8
20
-43.35
11
40.8
21
-44.2
0
LINE
8
BLACK
6
CONTINUOUS
10
40.8
20
-44.2
11
46.7
21
-44.2
0
LINE
8
BLACK
6
CONTINUOUS
10
46.7
20
-44.2
11
46.7
21
-43.35
0
LINE
8
BLACK
6
CONTINUOUS
10
46.7
20
-43.35
11
46.7146
21
-43.3146
0
LINE
8
BLACK
6
CONTINUOUS
10
46.7146
20
-43.3146
11
46.75
21
-43.3
0
LINE
8
BLACK
6
CONTINUOUS
10
46.75
20
-43.3
11
46.7854
21
-43.3146
0
LINE
8
BLACK
6
CONTINUOUS
10
42.2658
20
-41.6325
11
42.2755
21
-41.6387
0
LINE
8
BLACK
6
CONTINUOUS
10
42.2755
20
-41.6387
11
42.2868
21
-41.6407
0
LINE
8
BLACK
6
CONTINUOUS
10
42.2868
20
-41.6407
11
42.4077
21
-41.7012
0
LINE
8
BLACK
6
CONTINUOUS
10
42.4077
20
-41.7012
11
42.4374
21
-41.7218
0
LINE
8
BLACK
6
CONTINUOUS
10
42.4374
20
-41.7218
11
42.4387
21
-41.7238
0
LINE
8
BLACK
6
CONTINUOUS
10
42.4387
20
-41.7238
11
42.4408
21
-41.725
0
LINE
8
BLACK
6
CONTINUOUS
10
42.4408
20
-41.725
11
42.5012
21
-41.7855
0
LINE
8
BLACK
6
CONTINUOUS
10
42.5012
20
-41.7855
11
42.5229
21
-41.8144
0
LINE
8
BLACK
6
CONTINUOUS
10
42.5229
20
-41.8144
11
42.5234
21
-41.8167
0
LINE
8
BLACK
6
CONTINUOUS
10
42.5234
20
-41.8167
11
42.525
21
-41.8185
0
LINE
8
BLACK
6
CONTINUOUS
10
42.525
20
-41.8185
11
42.5855
21
-41.9394
0
LINE
8
BLACK
6
CONTINUOUS
10
42.5855
20
-41.9394
11
42.5929
21
-41.9616
0
LINE
8
BLACK
6
CONTINUOUS
10
42.5929
20
-41.9616
11
42.5951
21
-41.9654
0
LINE
8
BLACK
6
CONTINUOUS
10
42.5951
20
-41.9654
11
42.6556
21
-42.2073
0
LINE
8
BLACK
6
CONTINUOUS
10
42.6556
20
-42.2073
11
42.6584
21
-42.2348
0
LINE
8
BLACK
6
CONTINUOUS
10
42.6584
20
-42.2348
11
42.6594
21
-42.2381
0
LINE
8
BLACK
6
CONTINUOUS
10
42.6594
20
-42.2381
11
42.6594
21
-42.5405
0
LINE
8
BLACK
6
CONTINUOUS
10
42.6594
20
-42.5405
11
42.6554
21
-42.5679
0
LINE
8
BLACK
6
CONTINUOUS
10
42.6554
20
-42.5679
11
42.6556
21
-42.5713
0
LINE
8
BLACK
6
CONTINUOUS
10
42.6556
20
-42.5713
11
42.5951
21
-42.8132
0
LINE
8
BLACK
6
CONTINUOUS
10
42.5951
20
-42.8132
11
42.5863
21
-42.8348
0
LINE
8
BLACK
6
CONTINUOUS
10
42.5863
20
-42.8348
11
42.5855
21
-42.8392
0
LINE
8
BLACK
6
CONTINUOUS
10
42.5855
20
-42.8392
11
42.525
21
-42.9602
0
LINE
8
BLACK
6
CONTINUOUS
10
42.525
20
-42.9602
11
42.5044
21
-42.9899
0
LINE
8
BLACK
6
CONTINUOUS
10
42.5044
20
-42.9899
11
42.5024
21
-42.9911
0
LINE
8
BLACK
6
CONTINUOUS
10
42.5024
20
-42.9911
11
42.5012
21
-42.9932
0
LINE
8
BLACK
6
CONTINUOUS
10
42.5012
20
-42.9932
11
42.4408
21
-43.0536
0
LINE
8
BLACK
6
CONTINUOUS
10
42.4408
20
-43.0536
11
42.4118
21
-43.0753
0
LINE
8
BLACK
6
CONTINUOUS
10
42.4118
20
-43.0753
11
42.4095
21
-43.0758
0
LINE
8
BLACK
6
CONTINUOUS
10
42.4095
20
-43.0758
11
42.4077
21
-43.0774
0
LINE
8
BLACK
6
CONTINUOUS
10
42.4077
20
-43.0774
11
42.2868
21
-43.1379
0
LINE
8
BLACK
6
CONTINUOUS
10
42.2868
20
-43.1379
11
42.2525
21
-43.1493
0
LINE
8
BLACK
6
CONTINUOUS
10
42.2525
20
-43.1493
11
42.241
21
-43.1481
0
LINE
8
BLACK
6
CONTINUOUS
10
42.241
20
-43.1481
11
42.23
21
-43.1513
0
LINE
8
BLACK
6
CONTINUOUS
10
42.23
20
-43.1513
11
42.109
21
-43.1513
0
LINE
8
BLACK
6
CONTINUOUS
10
42.109
20
-43.1513
11
42.0733
21
-43.1462
0
LINE
8
BLACK
6
CONTINUOUS
10
42.0733
20
-43.1462
11
42.0636
21
-43.1399
0
LINE
8
BLACK
6
CONTINUOUS
10
42.0636
20
-43.1399
11
42.0522
21
-43.1379
0
LINE
8
BLACK
6
CONTINUOUS
10
42.0522
20
-43.1379
11
41.9313
21
-43.0774
0
LINE
8
BLACK
6
CONTINUOUS
10
41.9313
20
-43.0774
11
41.9016
21
-43.0568
0
LINE
8
BLACK
6
CONTINUOUS
10
41.9016
20
-43.0568
11
41.9004
21
-43.0548
0
LINE
8
BLACK
6
CONTINUOUS
10
41.9004
20
-43.0548
11
41.8983
21
-43.0536
0
LINE
8
BLACK
6
CONTINUOUS
10
41.8983
20
-43.0536
11
41.8378
21
-42.9932
0
LINE
8
BLACK
6
CONTINUOUS
10
41.8378
20
-42.9932
11
41.8162
21
-42.9642
0
LINE
8
BLACK
6
CONTINUOUS
10
41.8162
20
-42.9642
11
41.8156
21
-42.9619
0
LINE
8
BLACK
6
CONTINUOUS
10
41.8156
20
-42.9619
11
41.814
21
-42.9602
0
LINE
8
BLACK
6
CONTINUOUS
10
41.814
20
-42.9602
11
41.7535
21
-42.8392
0
LINE
8
BLACK
6
CONTINUOUS
10
41.7535
20
-42.8392
11
41.7462
21
-42.8171
0
LINE
8
BLACK
6
CONTINUOUS
10
41.7462
20
-42.8171
11
41.7439
21
-42.8132
0
LINE
8
BLACK
6
CONTINUOUS
10
41.7439
20
-42.8132
11
41.6835
21
-42.5713
0
LINE
8
BLACK
6
CONTINUOUS
10
41.6835
20
-42.5713
11
41.6806
21
-42.5438
0
LINE
8
BLACK
6
CONTINUOUS
10
41.6806
20
-42.5438
11
41.6797
21
-42.5405
0
LINE
8
BLACK
6
CONTINUOUS
10
41.6797
20
-42.5405
11
41.6797
21
-42.2381
0
LINE
8
BLACK
6
CONTINUOUS
10
41.6797
20
-42.2381
11
41.6836
21
-42.2108
0
LINE
8
BLACK
6
CONTINUOUS
10
41.6836
20
-42.2108
11
41.6835
21
-42.2073
0
LINE
8
BLACK
6
CONTINUOUS
10
41.6835
20
-42.2073
11
41.7439
21
-41.9654
0
LINE
8
BLACK
6
CONTINUOUS
10
41.7439
20
-41.9654
11
41.7528
21
-41.9438
0
LINE
8
BLACK
6
CONTINUOUS
10
41.7528
20
-41.9438
11
41.7535
21
-41.9394
0
LINE
8
BLACK
6
CONTINUOUS
10
41.7535
20
-41.9394
11
41.814
21
-41.8185
0
LINE
8
BLACK
6
CONTINUOUS
10
41.814
20
-41.8185
11
41.8346
21
-41.7888
0
LINE
8
BLACK
6
CONTINUOUS
10
41.8346
20
-41.7888
11
41.8367
21
-41.7876
0
LINE
8
BLACK
6
CONTINUOUS
10
41.8367
20
-41.7876
11
41.8378
21
-41.7855
0
LINE
8
BLACK
6
CONTINUOUS
10
41.8378
20
-41.7855
11
41.8983
21
-41.725
0
LINE
8
BLACK
6
CONTINUOUS
10
41.8983
20
-41.725
11
41.9272
21
-41.7033
0
LINE
8
BLACK
6
CONTINUOUS
10
41.9272
20
-41.7033
11
41.9296
21
-41.7028
0
LINE
8
BLACK
6
CONTINUOUS
10
41.9296
20
-41.7028
11
41.9313
21
-41.7012
0
LINE
8
BLACK
6
CONTINUOUS
10
41.9313
20
-41.7012
11
42.0522
21
-41.6407
0
LINE
8
BLACK
6
CONTINUOUS
10
42.0522
20
-41.6407
11
42.0866
21
-41.6293
0
LINE
8
BLACK
6
CONTINUOUS
10
42.0866
20
-41.6293
11
42.098
21
-41.6306
0
LINE
8
BLACK
6
CONTINUOUS
10
42.098
20
-41.6306
11
42.109
21
-41.6273
0
LINE
8
BLACK
6
CONTINUOUS
10
42.109
20
-41.6273
11
42.23
21
-41.6273
0
LINE
8
BLACK
6
CONTINUOUS
10
42.23
20
-41.6273
11
42.2658
21
-41.6325
0
LINE
8
BLACK
6
CONTINUOUS
10
42.0633
20
-41.9192
11
42.032
21
-41.9505
0
LINE
8
BLACK
6
CONTINUOUS
10
42.032
20
-41.9505
11
41.987
21
-42.0405
0
LINE
8
BLACK
6
CONTINUOUS
10
41.987
20
-42.0405
11
41.9337
21
-42.2538
0
LINE
8
BLACK
6
CONTINUOUS
10
41.9337
20
-42.2538
11
41.9337
21
-42.5249
0
LINE
8
BLACK
6
CONTINUOUS
10
41.9337
20
-42.5249
11
41.987
21
-42.7381
0
LINE
8
BLACK
6
CONTINUOUS
10
41.987
20
-42.7381
11
42.032
21
-42.8281
0
LINE
8
BLACK
6
CONTINUOUS
10
42.032
20
-42.8281
11
42.0633
21
-42.8595
0
LINE
8
BLACK
6
CONTINUOUS
10
42.0633
20
-42.8595
11
42.139
21
-42.8973
0
LINE
8
BLACK
6
CONTINUOUS
10
42.139
20
-42.8973
11
42.2
21
-42.8973
0
LINE
8
BLACK
6
CONTINUOUS
10
42.2
20
-42.8973
11
42.2757
21
-42.8595
0
LINE
8
BLACK
6
CONTINUOUS
10
42.2757
20
-42.8595
11
42.3071
21
-42.8281
0
LINE
8
BLACK
6
CONTINUOUS
10
42.3071
20
-42.8281
11
42.3521
21
-42.7381
0
LINE
8
BLACK
6
CONTINUOUS
10
42.3521
20
-42.7381
11
42.4054
21
-42.5249
0
LINE
8
BLACK
6
CONTINUOUS
10
42.4054
20
-42.5249
11
42.4054
21
-42.2538
0
LINE
8
BLACK
6
CONTINUOUS
10
42.4054
20
-42.2538
11
42.3521
21
-42.0405
0
LINE
8
BLACK
6
CONTINUOUS
10
42.3521
20
-42.0405
11
42.3071
21
-41.9505
0
LINE
8
BLACK
6
CONTINUOUS
10
42.3071
20
-41.9505
11
42.2757
21
-41.9192
0
LINE
8
BLACK
6
CONTINUOUS
10
42.2757
20
-41.9192
11
42.2
21
-41.8813
0
LINE
8
BLACK
6
CONTINUOUS
10
42.2
20
-41.8813
11
42.139
21
-41.8813
0
LINE
8
BLACK
6
CONTINUOUS
10
42.139
20
-41.8813
11
42.0633
21
-41.9192
0
LINE
8
BLACK
6
CONTINUOUS
10
43.3954
20
-41.6336
11
43.4299
21
-41.6379
0
LINE
8
BLACK
6
CONTINUOUS
10
43.4299
20
-41.6379
11
43.4307
21
-41.6386
0
LINE
8
BLACK
6
CONTINUOUS
10
43.4307
20
-41.6386
11
43.4318
21
-41.6388
0
LINE
8
BLACK
6
CONTINUOUS
10
43.4318
20
-41.6388
11
43.4581
21
-41.6616
0
LINE
8
BLACK
6
CONTINUOUS
10
43.4581
20
-41.6616
11
43.4847
21
-41.6839
0
LINE
8
BLACK
6
CONTINUOUS
10
43.4847
20
-41.6839
11
43.5987
21
-41.8548
0
LINE
8
BLACK
6
CONTINUOUS
10
43.5987
20
-41.8548
11
43.6962
21
-41.9523
0
LINE
8
BLACK
6
CONTINUOUS
10
43.6962
20
-41.9523
11
43.7987
21
-42.0036
0
LINE
8
BLACK
6
CONTINUOUS
10
43.7987
20
-42.0036
11
43.8284
21
-42.0242
0
LINE
8
BLACK
6
CONTINUOUS
10
43.8284
20
-42.0242
11
43.8649
21
-42.0857
0
LINE
8
BLACK
6
CONTINUOUS
10
43.8649
20
-42.0857
11
43.8624
21
-42.1572
0
LINE
8
BLACK
6
CONTINUOUS
10
43.8624
20
-42.1572
11
43.8216
21
-42.216
0
LINE
8
BLACK
6
CONTINUOUS
10
43.8216
20
-42.216
11
43.7555
21
-42.2434
0
LINE
8
BLACK
6
CONTINUOUS
10
43.7555
20
-42.2434
11
43.6851
21
-42.2308
0
LINE
8
BLACK
6
CONTINUOUS
10
43.6851
20
-42.2308
11
43.5642
21
-42.1703
0
LINE
8
BLACK
6
CONTINUOUS
10
43.5642
20
-42.1703
11
43.5345
21
-42.1497
0
LINE
8
BLACK
6
CONTINUOUS
10
43.5345
20
-42.1497
11
43.5332
21
-42.1476
0
LINE
8
BLACK
6
CONTINUOUS
10
43.5332
20
-42.1476
11
43.5311
21
-42.1465
0
LINE
8
BLACK
6
CONTINUOUS
10
43.5311
20
-42.1465
11
43.506
21
-42.1214
0
LINE
8
BLACK
6
CONTINUOUS
10
43.506
20
-42.1214
11
43.506
21
-42.8973
0
LINE
8
BLACK
6
CONTINUOUS
10
43.506
20
-42.8973
11
43.7419
21
-42.8973
0
LINE
8
BLACK
6
CONTINUOUS
10
43.7419
20
-42.8973
11
43.7777
21
-42.9025
0
LINE
8
BLACK
6
CONTINUOUS
10
43.7777
20
-42.9025
11
43.8379
21
-42.9412
0
LINE
8
BLACK
6
CONTINUOUS
10
43.8379
20
-42.9412
11
43.8676
21
-43.0062
0
LINE
8
BLACK
6
CONTINUOUS
10
43.8676
20
-43.0062
11
43.8574
21
-43.0771
0
LINE
8
BLACK
6
CONTINUOUS
10
43.8574
20
-43.0771
11
43.8106
21
-43.1312
0
LINE
8
BLACK
6
CONTINUOUS
10
43.8106
20
-43.1312
11
43.7419
21
-43.1513
0
LINE
8
BLACK
6
CONTINUOUS
10
43.7419
20
-43.1513
11
43.0162
21
-43.1513
0
LINE
8
BLACK
6
CONTINUOUS
10
43.0162
20
-43.1513
11
42.9804
21
-43.1462
0
LINE
8
BLACK
6
CONTINUOUS
10
42.9804
20
-43.1462
11
42.9202
21
-43.1075
0
LINE
8
BLACK
6
CONTINUOUS
10
42.9202
20
-43.1075
11
42.8905
21
-43.0424
0
LINE
8
BLACK
6
CONTINUOUS
10
42.8905
20
-43.0424
11
42.9007
21
-42.9716
0
LINE
8
BLACK
6
CONTINUOUS
10
42.9007
20
-42.9716
11
42.9475
21
-42.9175
0
LINE
8
BLACK
6
CONTINUOUS
10
42.9475
20
-42.9175
11
43.0162
21
-42.8973
0
LINE
8
BLACK
6
CONTINUOUS
10
43.0162
20
-42.8973
11
43.252
21
-42.8973
0
LINE
8
BLACK
6
CONTINUOUS
10
43.252
20
-42.8973
11
43.252
21
-41.7543
0
LINE
8
BLACK
6
CONTINUOUS
10
43.252
20
-41.7543
11
43.2566
21
-41.7224
0
LINE
8
BLACK
6
CONTINUOUS
10
43.2566
20
-41.7224
11
43.2566
21
-41.7206
0
LINE
8
BLACK
6
CONTINUOUS
10
43.2566
20
-41.7206
11
43.257
21
-41.72
0
LINE
8
BLACK
6
CONTINUOUS
10
43.257
20
-41.72
11
43.2572
21
-41.7185
0
LINE
8
BLACK
6
CONTINUOUS
10
43.2572
20
-41.7185
11
43.276
21
-41.6893
0
LINE
8
BLACK
6
CONTINUOUS
10
43.276
20
-41.6893
11
43.2943
21
-41.6597
0
LINE
8
BLACK
6
CONTINUOUS
10
43.2943
20
-41.6597
11
43.2953
21
-41.6593
0
LINE
8
BLACK
6
CONTINUOUS
10
43.2953
20
-41.6593
11
43.2959
21
-41.6583
0
LINE
8
BLACK
6
CONTINUOUS
10
43.2959
20
-41.6583
11
43.3275
21
-41.6439
0
LINE
8
BLACK
6
CONTINUOUS
10
43.3275
20
-41.6439
11
43.3589
21
-41.6289
0
LINE
8
BLACK
6
CONTINUOUS
10
43.3589
20
-41.6289
11
43.36
21
-41.6291
0
LINE
8
BLACK
6
CONTINUOUS
10
43.36
20
-41.6291
11
43.361
21
-41.6286
0
LINE
8
BLACK
6
CONTINUOUS
10
43.361
20
-41.6286
11
43.3954
21
-41.6336
0
LINE
8
BLACK
6
CONTINUOUS
10
46.1967
20
-41.6325
11
46.2064
21
-41.6387
0
LINE
8
BLACK
6
CONTINUOUS
10
46.2064
20
-41.6387
11
46.2177
21
-41.6407
0
LINE
8
BLACK
6
CONTINUOUS
10
46.2177
20
-41.6407
11
46.3387
21
-41.7012
0
LINE
8
BLACK
6
CONTINUOUS
10
46.3387
20
-41.7012
11
46.3684
21
-41.7218
0
LINE
8
BLACK
6
CONTINUOUS
10
46.3684
20
-41.7218
11
46.3696
21
-41.7238
0
LINE
8
BLACK
6
CONTINUOUS
10
46.3696
20
-41.7238
11
46.3717
21
-41.725
0
LINE
8
BLACK
6
CONTINUOUS
10
46.3717
20
-41.725
11
46.4322
21
-41.7855
0
LINE
8
BLACK
6
CONTINUOUS
10
46.4322
20
-41.7855
11
46.4538
21
-41.8144
0
LINE
8
BLACK
6
CONTINUOUS
10
46.4538
20
-41.8144
11
46.4544
21
-41.8167
0
LINE
8
BLACK
6
CONTINUOUS
10
46.4544
20
-41.8167
11
46.456
21
-41.8185
0
LINE
8
BLACK
6
CONTINUOUS
10
46.456
20
-41.8185
11
46.5164
21
-41.9394
0
LINE
8
BLACK
6
CONTINUOUS
10
46.5164
20
-41.9394
11
46.5278
21
-41.9737
0
LINE
8
BLACK
6
CONTINUOUS
10
46.5278
20
-41.9737
11
46.5266
21
-41.9852
0
LINE
8
BLACK
6
CONTINUOUS
10
46.5266
20
-41.9852
11
46.5299
21
-41.9962
0
LINE
8
BLACK
6
CONTINUOUS
10
46.5299
20
-41.9962
11
46.5299
21
-42.1172
0
LINE
8
BLACK
6
CONTINUOUS
10
46.5299
20
-42.1172
11
46.5247
21
-42.153
0
LINE
8
BLACK
6
CONTINUOUS
10
46.5247
20
-42.153
11
46.5185
21
-42.1626
0
LINE
8
BLACK
6
CONTINUOUS
10
46.5185
20
-42.1626
11
46.5164
21
-42.174
0
LINE
8
BLACK
6
CONTINUOUS
10
46.5164
20
-42.174
11
46.456
21
-42.2949
0
LINE
8
BLACK
6
CONTINUOUS
10
46.456
20
-42.2949
11
46.4354
21
-42.3246
0
LINE
8
BLACK
6
CONTINUOUS
10
46.4354
20
-42.3246
11
46.4333
21
-42.3258
0
LINE
8
BLACK
6
CONTINUOUS
10
46.4333
20
-42.3258
11
46.4322
21
-42.3279
0
LINE
8
BLACK
6
CONTINUOUS
10
46.4322
20
-42.3279
11
46.3717
21
-42.3884
0
LINE
8
BLACK
6
CONTINUOUS
10
46.3717
20
-42.3884
11
46.3428
21
-42.4101
0
LINE
8
BLACK
6
CONTINUOUS
10
46.3428
20
-42.4101
11
46.3404
21
-42.4106
0
LINE
8
BLACK
6
CONTINUOUS
10
46.3404
20
-42.4106
11
46.3387
21
-42.4122
0
LINE
8
BLACK
6
CONTINUOUS
10
46.3387
20
-42.4122
11
46.2177
21
-42.4727
0
LINE
8
BLACK
6
CONTINUOUS
10
46.2177
20
-42.4727
11
46.1956
21
-42.48
0
LINE
8
BLACK
6
CONTINUOUS
10
46.1956
20
-42.48
11
46.1918
21
-42.4823
0
LINE
8
BLACK
6
CONTINUOUS
10
46.1918
20
-42.4823
11
45.9634
21
-42.5394
0
LINE
8
BLACK
6
CONTINUOUS
10
45.9634
20
-42.5394
11
45.8733
21
-42.5844
0
LINE
8
BLACK
6
CONTINUOUS
10
45.8733
20
-42.5844
11
45.842
21
-42.6157
0
LINE
8
BLACK
6
CONTINUOUS
10
45.842
20
-42.6157
11
45.8041
21
-42.6914
0
LINE
8
BLACK
6
CONTINUOUS
10
45.8041
20
-42.6914
11
45.8041
21
-42.7524
0
LINE
8
BLACK
6
CONTINUOUS
10
45.8041
20
-42.7524
11
45.842
21
-42.8281
0
LINE
8
BLACK
6
CONTINUOUS
10
45.842
20
-42.8281
11
45.8733
21
-42.8595
0
LINE
8
BLACK
6
CONTINUOUS
10
45.8733
20
-42.8595
11
45.949
21
-42.8973
0
LINE
8
BLACK
6
CONTINUOUS
10
45.949
20
-42.8973
11
46.2008
21
-42.8973
0
LINE
8
BLACK
6
CONTINUOUS
10
46.2008
20
-42.8973
11
46.3627
21
-42.8434
0
LINE
8
BLACK
6
CONTINUOUS
10
46.3627
20
-42.8434
11
46.3983
21
-42.8369
0
LINE
8
BLACK
6
CONTINUOUS
10
46.3983
20
-42.8369
11
46.4676
21
-42.8546
0
LINE
8
BLACK
6
CONTINUOUS
10
46.4676
20
-42.8546
11
46.5164
21
-42.9069
0
LINE
8
BLACK
6
CONTINUOUS
10
46.5164
20
-42.9069
11
46.5291
21
-42.9774
0
LINE
8
BLACK
6
CONTINUOUS
10
46.5291
20
-42.9774
11
46.5018
21
-43.0435
0
LINE
8
BLACK
6
CONTINUOUS
10
46.5018
20
-43.0435
11
46.443
21
-43.0843
0
LINE
8
BLACK
6
CONTINUOUS
10
46.443
20
-43.0843
11
46.2616
21
-43.1448
0
LINE
8
BLACK
6
CONTINUOUS
10
46.2616
20
-43.1448
11
46.226
21
-43.1512
0
LINE
8
BLACK
6
CONTINUOUS
10
46.226
20
-43.1512
11
46.2237
21
-43.1506
0
LINE
8
BLACK
6
CONTINUOUS
10
46.2237
20
-43.1506
11
46.2214
21
-43.1513
0
LINE
8
BLACK
6
CONTINUOUS
10
46.2214
20
-43.1513
11
45.919
21
-43.1513
0
LINE
8
BLACK
6
CONTINUOUS
10
45.919
20
-43.1513
11
45.8833
21
-43.1462
0
LINE
8
BLACK
6
CONTINUOUS
10
45.8833
20
-43.1462
11
45.8736
21
-43.1399
0
LINE
8
BLACK
6
CONTINUOUS
10
45.8736
20
-43.1399
11
45.8622
21
-43.1379
0
LINE
8
BLACK
6
CONTINUOUS
10
45.8622
20
-43.1379
11
45.7413
21
-43.0774
0
LINE
8
BLACK
6
CONTINUOUS
10
45.7413
20
-43.0774
11
45.7116
21
-43.0568
0
LINE
8
BLACK
6
CONTINUOUS
10
45.7116
20
-43.0568
11
45.7104
21
-43.0548
0
LINE
8
BLACK
6
CONTINUOUS
10
45.7104
20
-43.0548
11
45.7083
21
-43.0536
0
LINE
8
BLACK
6
CONTINUOUS
10
45.7083
20
-43.0536
11
45.6478
21
-42.9932
0
LINE
8
BLACK
6
CONTINUOUS
10
45.6478
20
-42.9932
11
45.6262
21
-42.9642
0
LINE
8
BLACK
6
CONTINUOUS
10
45.6262
20
-42.9642
11
45.6256
21
-42.9619
0
LINE
8
BLACK
6
CONTINUOUS
10
45.6256
20
-42.9619
11
45.624
21
-42.9602
0
LINE
8
BLACK
6
CONTINUOUS
10
45.624
20
-42.9602
11
45.5635
21
-42.8392
0
LINE
8
BLACK
6
CONTINUOUS
10
45.5635
20
-42.8392
11
45.5521
21
-42.8049
0
LINE
8
BLACK
6
CONTINUOUS
10
45.5521
20
-42.8049
11
45.5534
21
-42.7935
0
LINE
8
BLACK
6
CONTINUOUS
10
45.5534
20
-42.7935
11
45.5501
21
-42.7824
0
LINE
8
BLACK
6
CONTINUOUS
10
45.5501
20
-42.7824
11
45.5501
21
-42.6615
0
LINE
8
BLACK
6
CONTINUOUS
10
45.5501
20
-42.6615
11
45.5553
21
-42.6257
0
LINE
8
BLACK
6
CONTINUOUS
10
45.5553
20
-42.6257
11
45.5615
21
-42.616
0
LINE
8
BLACK
6
CONTINUOUS
10
45.5615
20
-42.616
11
45.5635
21
-42.6047
0
LINE
8
BLACK
6
CONTINUOUS
10
45.5635
20
-42.6047
11
45.624
21
-42.4837
0
LINE
8
BLACK
6
CONTINUOUS
10
45.624
20
-42.4837
11
45.6446
21
-42.454
0
LINE
8
BLACK
6
CONTINUOUS
10
45.6446
20
-42.454
11
45.6467
21
-42.4528
0
LINE
8
BLACK
6
CONTINUOUS
10
45.6467
20
-42.4528
11
45.6478
21
-42.4507
0
LINE
8
BLACK
6
CONTINUOUS
10
45.6478
20
-42.4507
11
45.7083
21
-42.3902
0
LINE
8
BLACK
6
CONTINUOUS
10
45.7083
20
-42.3902
11
45.7372
21
-42.3686
0
LINE
8
BLACK
6
CONTINUOUS
10
45.7372
20
-42.3686
11
45.7396
21
-42.3681
0
LINE
8
BLACK
6
CONTINUOUS
10
45.7396
20
-42.3681
11
45.7413
21
-42.3664
0
LINE
8
BLACK
6
CONTINUOUS
10
45.7413
20
-42.3664
11
45.8622
21
-42.306
0
LINE
8
BLACK
6
CONTINUOUS
10
45.8622
20
-42.306
11
45.8844
21
-42.2986
0
LINE
8
BLACK
6
CONTINUOUS
10
45.8844
20
-42.2986
11
45.8882
21
-42.2963
0
LINE
8
BLACK
6
CONTINUOUS
10
45.8882
20
-42.2963
11
46.1166
21
-42.2393
0
LINE
8
BLACK
6
CONTINUOUS
10
46.1166
20
-42.2393
11
46.2067
21
-42.1942
0
LINE
8
BLACK
6
CONTINUOUS
10
46.2067
20
-42.1942
11
46.238
21
-42.1629
0
LINE
8
BLACK
6
CONTINUOUS
10
46.238
20
-42.1629
11
46.2759
21
-42.0872
0
LINE
8
BLACK
6
CONTINUOUS
10
46.2759
20
-42.0872
11
46.2759
21
-42.0262
0
LINE
8
BLACK
6
CONTINUOUS
10
46.2759
20
-42.0262
11
46.238
21
-41.9505
0
LINE
8
BLACK
6
CONTINUOUS
10
46.238
20
-41.9505
11
46.2067
21
-41.9192
0
LINE
8
BLACK
6
CONTINUOUS
10
46.2067
20
-41.9192
11
46.131
21
-41.8813
0
LINE
8
BLACK
6
CONTINUOUS
10
46.131
20
-41.8813
11
45.8792
21
-41.8813
0
LINE
8
BLACK
6
CONTINUOUS
10
45.8792
20
-41.8813
11
45.7173
21
-41.9353
0
LINE
8
BLACK
6
CONTINUOUS
10
45.7173
20
-41.9353
11
45.6817
21
-41.9417
0
LINE
8
BLACK
6
CONTINUOUS
10
45.6817
20
-41.9417
11
45.6124
21
-41.924
0
LINE
8
BLACK
6
CONTINUOUS
10
45.6124
20
-41.924
11
45.5636
21
-41.8717
0
LINE
8
BLACK
6
CONTINUOUS
10
45.5636
20
-41.8717
11
45.5509
21
-41.8013
0
LINE
8
BLACK
6
CONTINUOUS
10
45.5509
20
-41.8013
11
45.5782
21
-41.7351
0
LINE
8
BLACK
6
CONTINUOUS
10
45.5782
20
-41.7351
11
45.637
21
-41.6943
0
LINE
8
BLACK
6
CONTINUOUS
10
45.637
20
-41.6943
11
45.8184
21
-41.6338
0
LINE
8
BLACK
6
CONTINUOUS
10
45.8184
20
-41.6338
11
45.854
21
-41.6274
0
LINE
8
BLACK
6
CONTINUOUS
10
45.854
20
-41.6274
11
45.8563
21
-41.628
0
LINE
8
BLACK
6
CONTINUOUS
10
45.8563
20
-41.628
11
45.8586
21
-41.6273
0
LINE
8
BLACK
6
CONTINUOUS
10
45.8586
20
-41.6273
11
46.161
21
-41.6273
0
LINE
8
BLACK
6
CONTINUOUS
10
46.161
20
-41.6273
11
46.1967
21
-41.6325
0
LINE
8
BLACK
6
CONTINUOUS
10
45.3319
20
-41.6542
11
45.3736
21
-41.7123
0
LINE
8
BLACK
6
CONTINUOUS
10
45.3736
20
-41.7123
11
45.3774
21
-41.7837
0
LINE
8
BLACK
6
CONTINUOUS
10
45.3774
20
-41.7837
11
45.075
21
-43.0537
0
LINE
8
BLACK
6
CONTINUOUS
10
45.075
20
-43.0537
11
45.0617
21
-43.0873
0
LINE
8
BLACK
6
CONTINUOUS
10
45.0617
20
-43.0873
11
45.0581
21
-43.0908
0
LINE
8
BLACK
6
CONTINUOUS
10
45.0581
20
-43.0908
11
45.0565
21
-43.0956
0
LINE
8
BLACK
6
CONTINUOUS
10
45.0565
20
-43.0956
11
45.0325
21
-43.1154
0
LINE
8
BLACK
6
CONTINUOUS
10
45.0325
20
-43.1154
11
45.0101
21
-43.137
0
LINE
8
BLACK
6
CONTINUOUS
10
45.0101
20
-43.137
11
45.0052
21
-43.1379
0
LINE
8
BLACK
6
CONTINUOUS
10
45.0052
20
-43.1379
11
45.0013
21
-43.1411
0
LINE
8
BLACK
6
CONTINUOUS
10
45.0013
20
-43.1411
11
44.9704
21
-43.1448
0
LINE
8
BLACK
6
CONTINUOUS
10
44.9704
20
-43.1448
11
44.9399
21
-43.1508
0
LINE
8
BLACK
6
CONTINUOUS
10
44.9399
20
-43.1508
11
44.9352
21
-43.1489
0
LINE
8
BLACK
6
CONTINUOUS
10
44.9352
20
-43.1489
11
44.9302
21
-43.1495
0
LINE
8
BLACK
6
CONTINUOUS
10
44.9302
20
-43.1495
11
44.9023
21
-43.1359
0
LINE
8
BLACK
6
CONTINUOUS
10
44.9023
20
-43.1359
11
44.8733
21
-43.1245
0
LINE
8
BLACK
6
CONTINUOUS
10
44.8733
20
-43.1245
11
44.8704
21
-43.1204
0
LINE
8
BLACK
6
CONTINUOUS
10
44.8704
20
-43.1204
11
44.8659
21
-43.1182
0
LINE
8
BLACK
6
CONTINUOUS
10
44.8659
20
-43.1182
11
44.8497
21
-43.0916
0
LINE
8
BLACK
6
CONTINUOUS
10
44.8497
20
-43.0916
11
44.8316
21
-43.0664
0
LINE
8
BLACK
6
CONTINUOUS
10
44.8316
20
-43.0664
11
44.8313
21
-43.0613
0
LINE
8
BLACK
6
CONTINUOUS
10
44.8313
20
-43.0613
11
44.8287
21
-43.057
0
LINE
8
BLACK
6
CONTINUOUS
10
44.8287
20
-43.057
11
44.7095
21
-42.6101
0
LINE
8
BLACK
6
CONTINUOUS
10
44.7095
20
-42.6101
11
44.5903
21
-43.057
0
LINE
8
BLACK
6
CONTINUOUS
10
44.5903
20
-43.057
11
44.5761
21
-43.0903
0
LINE
8
BLACK
6
CONTINUOUS
10
44.5761
20
-43.0903
11
44.5724
21
-43.0937
0
LINE
8
BLACK
6
CONTINUOUS
10
44.5724
20
-43.0937
11
44.5708
21
-43.0984
0
LINE
8
BLACK
6
CONTINUOUS
10
44.5708
20
-43.0984
11
44.5462
21
-43.1175
0
LINE
8
BLACK
6
CONTINUOUS
10
44.5462
20
-43.1175
11
44.5232
21
-43.1385
0
LINE
8
BLACK
6
CONTINUOUS
10
44.5232
20
-43.1385
11
44.5183
21
-43.1393
0
LINE
8
BLACK
6
CONTINUOUS
10
44.5183
20
-43.1393
11
44.5143
21
-43.1424
0
LINE
8
BLACK
6
CONTINUOUS
10
44.5143
20
-43.1424
11
44.4833
21
-43.1452
0
LINE
8
BLACK
6
CONTINUOUS
10
44.4833
20
-43.1452
11
44.4527
21
-43.1504
0
LINE
8
BLACK
6
CONTINUOUS
10
44.4527
20
-43.1504
11
44.4481
21
-43.1485
0
LINE
8
BLACK
6
CONTINUOUS
10
44.4481
20
-43.1485
11
44.4431
21
-43.1489
0
LINE
8
BLACK
6
CONTINUOUS
10
44.4431
20
-43.1489
11
44.4155
21
-43.1346
0
LINE
8
BLACK
6
CONTINUOUS
10
44.4155
20
-43.1346
11
44.3869
21
-43.1223
0
LINE
8
BLACK
6
CONTINUOUS
10
44.3869
20
-43.1223
11
44.384
21
-43.1182
0
LINE
8
BLACK
6
CONTINUOUS
10
44.384
20
-43.1182
11
44.3796
21
-43.1159
0
LINE
8
BLACK
6
CONTINUOUS
10
44.3796
20
-43.1159
11
44.3642
21
-43.0889
0
LINE
8
BLACK
6
CONTINUOUS
10
44.3642
20
-43.0889
11
44.3467
21
-43.0631
0
LINE
8
BLACK
6
CONTINUOUS
10
44.3467
20
-43.0631
11
44.3466
21
-43.0581
0
LINE
8
BLACK
6
CONTINUOUS
10
44.3466
20
-43.0581
11
44.3441
21
-43.0537
0
LINE
8
BLACK
6
CONTINUOUS
10
44.3441
20
-43.0537
11
44.0417
21
-41.7837
0
LINE
8
BLACK
6
CONTINUOUS
10
44.0417
20
-41.7837
11
44.0384
21
-41.7477
0
LINE
8
BLACK
6
CONTINUOUS
10
44.0384
20
-41.7477
11
44.0621
21
-41.6802
0
LINE
8
BLACK
6
CONTINUOUS
10
44.0621
20
-41.6802
11
44.1185
21
-41.6362
0
LINE
8
BLACK
6
CONTINUOUS
10
44.1185
20
-41.6362
11
44.1898
21
-41.6297
0
LINE
8
BLACK
6
CONTINUOUS
10
44.1898
20
-41.6297
11
44.2533
21
-41.6628
0
LINE
8
BLACK
6
CONTINUOUS
10
44.2533
20
-41.6628
11
44.2888
21
-41.7249
0
LINE
8
BLACK
6
CONTINUOUS
10
44.2888
20
-41.7249
11
44.4746
21
-42.5053
0
LINE
8
BLACK
6
CONTINUOUS
10
44.4746
20
-42.5053
11
44.5868
21
-42.0845
0
LINE
8
BLACK
6
CONTINUOUS
10
44.5868
20
-42.0845
11
44.601
21
-42.0512
0
LINE
8
BLACK
6
CONTINUOUS
10
44.601
20
-42.0512
11
44.6034
21
-42.049
0
LINE
8
BLACK
6
CONTINUOUS
10
44.6034
20
-42.049
11
44.6044
21
-42.0459
0
LINE
8
BLACK
6
CONTINUOUS
10
44.6044
20
-42.0459
11
44.6297
21
-42.0251
0
LINE
8
BLACK
6
CONTINUOUS
10
44.6297
20
-42.0251
11
44.6539
21
-42.003
0
LINE
8
BLACK
6
CONTINUOUS
10
44.6539
20
-42.003
11
44.6571
21
-42.0025
0
LINE
8
BLACK
6
CONTINUOUS
10
44.6571
20
-42.0025
11
44.6597
21
-42.0004
0
LINE
8
BLACK
6
CONTINUOUS
10
44.6597
20
-42.0004
11
44.6922
21
-41.9965
0
LINE
8
BLACK
6
CONTINUOUS
10
44.6922
20
-41.9965
11
44.7244
21
-41.9911
0
LINE
8
BLACK
6
CONTINUOUS
10
44.7244
20
-41.9911
11
44.7275
21
-41.9923
0
LINE
8
BLACK
6
CONTINUOUS
10
44.7275
20
-41.9923
11
44.7307
21
-41.992
0
LINE
8
BLACK
6
CONTINUOUS
10
44.7307
20
-41.992
11
44.7602
21
-42.0063
0
LINE
8
BLACK
6
CONTINUOUS
10
44.7602
20
-42.0063
11
44.7903
21
-42.0191
0
LINE
8
BLACK
6
CONTINUOUS
10
44.7903
20
-42.0191
11
44.7921
21
-42.0219
0
LINE
8
BLACK
6
CONTINUOUS
10
44.7921
20
-42.0219
11
44.7951
21
-42.0233
0
LINE
8
BLACK
6
CONTINUOUS
10
44.7951
20
-42.0233
11
44.8121
21
-42.0513
0
LINE
8
BLACK
6
CONTINUOUS
10
44.8121
20
-42.0513
11
44.8304
21
-42.0784
0
LINE
8
BLACK
6
CONTINUOUS
10
44.8304
20
-42.0784
11
44.8305
21
-42.0816
0
LINE
8
BLACK
6
CONTINUOUS
10
44.8305
20
-42.0816
11
44.8322
21
-42.0845
0
LINE
8
BLACK
6
CONTINUOUS
10
44.8322
20
-42.0845
11
44.9445
21
-42.5053
0
LINE
8
BLACK
6
CONTINUOUS
10
44.9445
20
-42.5053
11
45.1303
21
-41.7249
0
LINE
8
BLACK
6
CONTINUOUS
10
45.1303
20
-41.7249
11
45.1436
21
-41.6913
0
LINE
8
BLACK
6
CONTINUOUS
10
45.1436
20
-41.6913
11
45.1951
21
-41.6417
0
LINE
8
BLACK
6
CONTINUOUS
10
45.1951
20
-41.6417
11
45.2653
21
-41.6278
0
LINE
8
BLACK
6
CONTINUOUS
10
45.2653
20
-41.6278
11
45.3319
21
-41.6542
0
LINE
8
BLACK
6
CONTINUOUS
10
41.1001
20
-41.5949
11
41.141
21
-41.6537
0
LINE
8
BLACK
6
CONTINUOUS
10
41.141
20
-41.6537
11
41.4433
21
-42.5608
0
LINE
8
BLACK
6
CONTINUOUS
10
41.4433
20
-42.5608
11
41.4465
21
-42.5785
0
LINE
8
BLACK
6
CONTINUOUS
10
41.4465
20
-42.5785
11
41.4486
21
-42.5829
0
LINE
8
BLACK
6
CONTINUOUS
10
41.4486
20
-42.5829
11
41.448
21
-42.5867
0
LINE
8
BLACK
6
CONTINUOUS
10
41.448
20
-42.5867
11
41.4498
21
-42.5964
0
LINE
8
BLACK
6
CONTINUOUS
10
41.4498
20
-42.5964
11
41.4425
21
-42.6248
0
LINE
8
BLACK
6
CONTINUOUS
10
41.4425
20
-42.6248
11
41.4384
21
-42.6537
0
LINE
8
BLACK
6
CONTINUOUS
10
41.4384
20
-42.6537
11
41.4338
21
-42.659
0
LINE
8
BLACK
6
CONTINUOUS
10
41.4338
20
-42.659
11
41.4321
21
-42.6657
0
LINE
8
BLACK
6
CONTINUOUS
10
41.4321
20
-42.6657
11
41.4107
21
-42.6857
0
LINE
8
BLACK
6
CONTINUOUS
10
41.4107
20
-42.6857
11
41.3915
21
-42.7078
0
LINE
8
BLACK
6
CONTINUOUS
10
41.3915
20
-42.7078
11
41.3848
21
-42.7098
0
LINE
8
BLACK
6
CONTINUOUS
10
41.3848
20
-42.7098
11
41.3798
21
-42.7145
0
LINE
8
BLACK
6
CONTINUOUS
10
41.3798
20
-42.7145
11
41.3509
21
-42.7197
0
LINE
8
BLACK
6
CONTINUOUS
10
41.3509
20
-42.7197
11
41.3229
21
-42.728
0
LINE
8
BLACK
6
CONTINUOUS
10
41.3229
20
-42.728
11
40.8451
21
-42.728
0
LINE
8
BLACK
6
CONTINUOUS
10
40.8451
20
-42.728
11
40.8451
21
-43.0243
0
LINE
8
BLACK
6
CONTINUOUS
10
40.8451
20
-43.0243
11
40.8399
21
-43.0601
0
LINE
8
BLACK
6
CONTINUOUS
10
40.8399
20
-43.0601
11
40.8013
21
-43.1203
0
LINE
8
BLACK
6
CONTINUOUS
10
40.8013
20
-43.1203
11
40.7362
21
-43.15
0
LINE
8
BLACK
6
CONTINUOUS
10
40.7362
20
-43.15
11
40.6653
21
-43.1398
0
LINE
8
BLACK
6
CONTINUOUS
10
40.6653
20
-43.1398
11
40.6113
21
-43.093
0
LINE
8
BLACK
6
CONTINUOUS
10
40.6113
20
-43.093
11
40.5911
21
-43.0243
0
LINE
8
BLACK
6
CONTINUOUS
10
40.5911
20
-43.0243
11
40.5911
21
-42.728
0
LINE
8
BLACK
6
CONTINUOUS
10
40.5911
20
-42.728
11
40.5367
21
-42.728
0
LINE
8
BLACK
6
CONTINUOUS
10
40.5367
20
-42.728
11
40.5009
21
-42.7228
0
LINE
8
BLACK
6
CONTINUOUS
10
40.5009
20
-42.7228
11
40.4407
21
-42.6842
0
LINE
8
BLACK
6
CONTINUOUS
10
40.4407
20
-42.6842
11
40.411
21
-42.6191
0
LINE
8
BLACK
6
CONTINUOUS
10
40.411
20
-42.6191
11
40.4211
21
-42.5482
0
LINE
8
BLACK
6
CONTINUOUS
10
40.4211
20
-42.5482
11
40.468
21
-42.4941
0
LINE
8
BLACK
6
CONTINUOUS
10
40.468
20
-42.4941
11
40.5367
21
-42.474
0
LINE
8
BLACK
6
CONTINUOUS
10
40.5367
20
-42.474
11
40.5911
21
-42.474
0
LINE
8
BLACK
6
CONTINUOUS
10
40.5911
20
-42.474
11
40.5911
21
-42.1777
0
LINE
8
BLACK
6
CONTINUOUS
10
40.5911
20
-42.1777
11
40.5962
21
-42.1419
0
LINE
8
BLACK
6
CONTINUOUS
10
40.5962
20
-42.1419
11
40.6349
21
-42.0817
0
LINE
8
BLACK
6
CONTINUOUS
10
40.6349
20
-42.0817
11
40.7
21
-42.0519
0
LINE
8
BLACK
6
CONTINUOUS
10
40.7
20
-42.0519
11
40.7709
21
-42.0621
0
LINE
8
BLACK
6
CONTINUOUS
10
40.7709
20
-42.0621
11
40.8249
21
-42.109
0
LINE
8
BLACK
6
CONTINUOUS
10
40.8249
20
-42.109
11
40.8451
21
-42.1777
0
LINE
8
BLACK
6
CONTINUOUS
10
40.8451
20
-42.1777
11
40.8451
21
-42.474
0
LINE
8
BLACK
6
CONTINUOUS
10
40.8451
20
-42.474
11
41.1467
21
-42.474
0
LINE
8
BLACK
6
CONTINUOUS
10
41.1467
20
-42.474
11
40.9
21
-41.734
0
LINE
8
BLACK
6
CONTINUOUS
10
40.9
20
-41.734
11
40.8936
21
-41.6984
0
LINE
8
BLACK
6
CONTINUOUS
10
40.8936
20
-41.6984
11
40.9112
21
-41.6291
0
LINE
8
BLACK
6
CONTINUOUS
10
40.9112
20
-41.6291
11
40.9636
21
-41.5803
0
LINE
8
BLACK
6
CONTINUOUS
10
40.9636
20
-41.5803
11
41.034
21
-41.5676
0
LINE
8
BLACK
6
CONTINUOUS
10
41.034
20
-41.5676
11
41.1001
21
-41.5949
0
LINE
8
BLACK
6
CONTINUOUS
10
46.75
20
-40.6
11
46.7854
21
-40.6146
0
LINE
8
BLACK
6
CONTINUOUS
10
46.7854
20
-40.6146
11
46.8
21
-40.65
0
LINE
8
BLACK
6
CONTINUOUS
10
46.8
20
-40.65
11
46.8
21
-41.55
0
LINE
8
BLACK
6
CONTINUOUS
10
46.8
20
-41.55
11
46.7854
21
-41.5854
0
LINE
8
BLACK
6
CONTINUOUS
10
46.7854
20
-41.5854
11
46.75
21
-41.6
0
LINE
8
BLACK
6
CONTINUOUS
10
46.75
20
-41.6
11
46.7146
21
-41.5854
0
LINE
8
BLACK
6
CONTINUOUS
10
46.7146
20
-41.5854
11
46.7
21
-41.55
0
LINE
8
BLACK
6
CONTINUOUS
10
46.7
20
-41.55
11
46.7
21
-40.7
0
LINE
8
BLACK
6
CONTINUOUS
10
46.7
20
-40.7
11
40.8
21
-40.7
0
LINE
8
BLACK
6
CONTINUOUS
10
40.8
20
-40.7
11
40.8
21
-41.55
0
LINE
8
BLACK
6
CONTINUOUS
10
40.8
20
-41.55
11
40.7854
21
-41.5854
0
LINE
8
BLACK
6
CONTINUOUS
10
40.7854
20
-41.5854
11
40.75
21
-41.6
0
LINE
8
BLACK
6
CONTINUOUS
10
40.75
20
-41.6
11
40.7146
21
-41.5854
0
LINE
8
BLACK
6
CONTINUOUS
10
40.7146
20
-41.5854
11
40.7
21
-41.55
0
LINE
8
BLACK
6
CONTINUOUS
10
40.7
20
-41.55
11
40.7
21
-40.65
0
LINE
8
BLACK
6
CONTINUOUS
10
40.7
20
-40.65
11
40.7146
21
-40.6146
0
LINE
8
BLACK
6
CONTINUOUS
10
40.7146
20
-40.6146
11
40.75
21
-40.6
0
LINE
8
BLACK
6
CONTINUOUS
10
40.75
20
-40.6
11
46.75
21
-40.6
  0
ENDSEC
  0
EOF
