  0
SECTION
  2
HEADER
  9
$ANGBASE
  50
0.0
  9
$ANGDIR
  70
1
  9
$MEASUREMENT
  70
1
  0
ENDSEC
  0
SECTION
  2
TABLES
  0
TABLE
  2
LTYPE
  70
4
  0
LTYPE
  5
40F
  2
CONTINUOUS
  70
0
  3
Solid line
  72
65
  73
0
  40
0.0
  0
LTYPE
  5
410
  2
DASHDOT
 70
0
  3
Dash Dot ____ _ ____ _
 72
65
 73
4
 40
2.0
 49
1.25
 49
-0.25
 49
0.25
 49
-0.25
  0
LTYPE
  5
411
  2
DASHED
 70
0
  3
Dashed __ __ __ __ __
 72
65
 73
2
 40
0.75
 49
0.5
 49
-0.25
  0
LTYPE
  5
43B
  2
DOTTED
 70
0
  3
Dotted .  .  .  .
 72
65
 73
2
 40
0.2
 49
0.0
 49
-0.2
  0
ENDTAB
  0
TABLE
  2
STYLE
  70
4
  0
STYLE
  2
KICAD
  70
0
  40
0
  41
1
  42
1
  50
0
  71
0
  3
isocp.shx
  0
STYLE
  2
KICADB
  70
0
  40
0
  41
1
  42
1
  50
0
  71
0
  3
isocp.shx
  0
STYLE
  2
KICADI
  70
0
  40
0
  41
1
  42
1
  50
15
  71
0
  3
isocp.shx
  0
STYLE
  2
KICADBI
  70
0
  40
0
  41
1
  42
1
  50
15
  71
0
  3
isocp.shx
  0
ENDTAB
  0
TABLE
  2
LAYER
  70
1
  0
LAYER
  2
BLACK
  70
0
  62
7
  6
CONTINUOUS
  0
ENDTAB
  0
ENDSEC
  0
SECTION
  2
ENTITIES
0
LINE
8
BLACK
6
CONTINUOUS
10
92
20
-21.95
11
92.3737
21
-21.9673
0
LINE
8
BLACK
6
CONTINUOUS
10
92.3737
20
-21.9673
11
92.7442
21
-22.019
0
LINE
8
BLACK
6
CONTINUOUS
10
92.7442
20
-22.019
11
93.1083
21
-22.1046
0
LINE
8
BLACK
6
CONTINUOUS
10
93.1083
20
-22.1046
11
93.463
21
-22.2235
0
LINE
8
BLACK
6
CONTINUOUS
10
93.463
20
-22.2235
11
93.8052
21
-22.3746
0
LINE
8
BLACK
6
CONTINUOUS
10
93.8052
20
-22.3746
11
94.132
21
-22.5566
0
LINE
8
BLACK
6
CONTINUOUS
10
94.132
20
-22.5566
11
94.4407
21
-22.768
0
LINE
8
BLACK
6
CONTINUOUS
10
94.4407
20
-22.768
11
94.7285
21
-23.007
0
LINE
8
BLACK
6
CONTINUOUS
10
94.7285
20
-23.007
11
94.993
21
-23.2715
0
LINE
8
BLACK
6
CONTINUOUS
10
94.993
20
-23.2715
11
95.232
21
-23.5593
0
LINE
8
BLACK
6
CONTINUOUS
10
95.232
20
-23.5593
11
95.4434
21
-23.868
0
LINE
8
BLACK
6
CONTINUOUS
10
95.4434
20
-23.868
11
95.6254
21
-24.1948
0
LINE
8
BLACK
6
CONTINUOUS
10
95.6254
20
-24.1948
11
95.7765
21
-24.537
0
LINE
8
BLACK
6
CONTINUOUS
10
95.7765
20
-24.537
11
95.8954
21
-24.8917
0
LINE
8
BLACK
6
CONTINUOUS
10
95.8954
20
-24.8917
11
95.981
21
-25.2558
0
LINE
8
BLACK
6
CONTINUOUS
10
95.981
20
-25.2558
11
96.0327
21
-25.6263
0
LINE
8
BLACK
6
CONTINUOUS
10
96.0327
20
-25.6263
11
96.05
21
-26
0
LINE
8
BLACK
6
CONTINUOUS
10
96.05
20
-26
11
96.05
21
-73
0
LINE
8
BLACK
6
CONTINUOUS
10
96.05
20
-73
11
96.05
21
-73
0
LINE
8
BLACK
6
CONTINUOUS
10
96.05
20
-73
11
96.0327
21
-73.3737
0
LINE
8
BLACK
6
CONTINUOUS
10
96.0327
20
-73.3737
11
95.981
21
-73.7442
0
LINE
8
BLACK
6
CONTINUOUS
10
95.981
20
-73.7442
11
95.8954
21
-74.1083
0
LINE
8
BLACK
6
CONTINUOUS
10
95.8954
20
-74.1083
11
95.7765
21
-74.463
0
LINE
8
BLACK
6
CONTINUOUS
10
95.7765
20
-74.463
11
95.6254
21
-74.8052
0
LINE
8
BLACK
6
CONTINUOUS
10
95.6254
20
-74.8052
11
95.4434
21
-75.132
0
LINE
8
BLACK
6
CONTINUOUS
10
95.4434
20
-75.132
11
95.232
21
-75.4407
0
LINE
8
BLACK
6
CONTINUOUS
10
95.232
20
-75.4407
11
94.993
21
-75.7285
0
LINE
8
BLACK
6
CONTINUOUS
10
94.993
20
-75.7285
11
94.7285
21
-75.993
0
LINE
8
BLACK
6
CONTINUOUS
10
94.7285
20
-75.993
11
94.4407
21
-76.232
0
LINE
8
BLACK
6
CONTINUOUS
10
94.4407
20
-76.232
11
94.132
21
-76.4434
0
LINE
8
BLACK
6
CONTINUOUS
10
94.132
20
-76.4434
11
93.8052
21
-76.6254
0
LINE
8
BLACK
6
CONTINUOUS
10
93.8052
20
-76.6254
11
93.463
21
-76.7765
0
LINE
8
BLACK
6
CONTINUOUS
10
93.463
20
-76.7765
11
93.1083
21
-76.8954
0
LINE
8
BLACK
6
CONTINUOUS
10
93.1083
20
-76.8954
11
92.7442
21
-76.981
0
LINE
8
BLACK
6
CONTINUOUS
10
92.7442
20
-76.981
11
92.3737
21
-77.0327
0
LINE
8
BLACK
6
CONTINUOUS
10
92.3737
20
-77.0327
11
92
21
-77.05
0
LINE
8
BLACK
6
CONTINUOUS
10
92
20
-77.05
11
40
21
-77.05
0
LINE
8
BLACK
6
CONTINUOUS
10
40
20
-77.05
11
39.6263
21
-77.0327
0
LINE
8
BLACK
6
CONTINUOUS
10
39.6263
20
-77.0327
11
39.2558
21
-76.981
0
LINE
8
BLACK
6
CONTINUOUS
10
39.2558
20
-76.981
11
38.8917
21
-76.8954
0
LINE
8
BLACK
6
CONTINUOUS
10
38.8917
20
-76.8954
11
38.537
21
-76.7765
0
LINE
8
BLACK
6
CONTINUOUS
10
38.537
20
-76.7765
11
38.1948
21
-76.6254
0
LINE
8
BLACK
6
CONTINUOUS
10
38.1948
20
-76.6254
11
37.868
21
-76.4434
0
LINE
8
BLACK
6
CONTINUOUS
10
37.868
20
-76.4434
11
37.5593
21
-76.232
0
LINE
8
BLACK
6
CONTINUOUS
10
37.5593
20
-76.232
11
37.2715
21
-75.993
0
LINE
8
BLACK
6
CONTINUOUS
10
37.2715
20
-75.993
11
37.007
21
-75.7285
0
LINE
8
BLACK
6
CONTINUOUS
10
37.007
20
-75.7285
11
36.768
21
-75.4407
0
LINE
8
BLACK
6
CONTINUOUS
10
36.768
20
-75.4407
11
36.5566
21
-75.132
0
LINE
8
BLACK
6
CONTINUOUS
10
36.5566
20
-75.132
11
36.3746
21
-74.8052
0
LINE
8
BLACK
6
CONTINUOUS
10
36.3746
20
-74.8052
11
36.2235
21
-74.463
0
LINE
8
BLACK
6
CONTINUOUS
10
36.2235
20
-74.463
11
36.1046
21
-74.1083
0
LINE
8
BLACK
6
CONTINUOUS
10
36.1046
20
-74.1083
11
36.019
21
-73.7442
0
LINE
8
BLACK
6
CONTINUOUS
10
36.019
20
-73.7442
11
35.9673
21
-73.3737
0
LINE
8
BLACK
6
CONTINUOUS
10
35.9673
20
-73.3737
11
35.95
21
-73
0
LINE
8
BLACK
6
CONTINUOUS
10
35.95
20
-73
11
35.95
21
-73
0
LINE
8
BLACK
6
CONTINUOUS
10
35.95
20
-73
11
35.95
21
-26
0
LINE
8
BLACK
6
CONTINUOUS
10
35.95
20
-26
11
35.9673
21
-25.6263
0
LINE
8
BLACK
6
CONTINUOUS
10
35.9673
20
-25.6263
11
36.019
21
-25.2558
0
LINE
8
BLACK
6
CONTINUOUS
10
36.019
20
-25.2558
11
36.1046
21
-24.8917
0
LINE
8
BLACK
6
CONTINUOUS
10
36.1046
20
-24.8917
11
36.2235
21
-24.537
0
LINE
8
BLACK
6
CONTINUOUS
10
36.2235
20
-24.537
11
36.3746
21
-24.1948
0
LINE
8
BLACK
6
CONTINUOUS
10
36.3746
20
-24.1948
11
36.5566
21
-23.868
0
LINE
8
BLACK
6
CONTINUOUS
10
36.5566
20
-23.868
11
36.768
21
-23.5593
0
LINE
8
BLACK
6
CONTINUOUS
10
36.768
20
-23.5593
11
37.007
21
-23.2715
0
LINE
8
BLACK
6
CONTINUOUS
10
37.007
20
-23.2715
11
37.2715
21
-23.007
0
LINE
8
BLACK
6
CONTINUOUS
10
37.2715
20
-23.007
11
37.5593
21
-22.768
0
LINE
8
BLACK
6
CONTINUOUS
10
37.5593
20
-22.768
11
37.868
21
-22.5566
0
LINE
8
BLACK
6
CONTINUOUS
10
37.868
20
-22.5566
11
38.1948
21
-22.3746
0
LINE
8
BLACK
6
CONTINUOUS
10
38.1948
20
-22.3746
11
38.537
21
-22.2235
0
LINE
8
BLACK
6
CONTINUOUS
10
38.537
20
-22.2235
11
38.8917
21
-22.1046
0
LINE
8
BLACK
6
CONTINUOUS
10
38.8917
20
-22.1046
11
39.2558
21
-22.019
0
LINE
8
BLACK
6
CONTINUOUS
10
39.2558
20
-22.019
11
39.6263
21
-21.9673
0
LINE
8
BLACK
6
CONTINUOUS
10
39.6263
20
-21.9673
11
40
21
-21.95
0
LINE
8
BLACK
6
CONTINUOUS
10
40
20
-21.95
11
92
21
-21.95
0
LINE
8
BLACK
6
CONTINUOUS
10
40
20
-22.05
11
39.8174
21
-22.05
0
LINE
8
BLACK
6
CONTINUOUS
10
39.8174
20
-22.05
11
39.4537
21
-22.0837
0
LINE
8
BLACK
6
CONTINUOUS
10
39.4537
20
-22.0837
11
39.0947
21
-22.1508
0
LINE
8
BLACK
6
CONTINUOUS
10
39.0947
20
-22.1508
11
38.7434
21
-22.2508
0
LINE
8
BLACK
6
CONTINUOUS
10
38.7434
20
-22.2508
11
38.4028
21
-22.3827
0
LINE
8
BLACK
6
CONTINUOUS
10
38.4028
20
-22.3827
11
38.0759
21
-22.5455
0
LINE
8
BLACK
6
CONTINUOUS
10
38.0759
20
-22.5455
11
37.7653
21
-22.7378
0
LINE
8
BLACK
6
CONTINUOUS
10
37.7653
20
-22.7378
11
37.4739
21
-22.9579
0
LINE
8
BLACK
6
CONTINUOUS
10
37.4739
20
-22.9579
11
37.2039
21
-23.2039
0
LINE
8
BLACK
6
CONTINUOUS
10
37.2039
20
-23.2039
11
36.9579
21
-23.4739
0
LINE
8
BLACK
6
CONTINUOUS
10
36.9579
20
-23.4739
11
36.7378
21
-23.7653
0
LINE
8
BLACK
6
CONTINUOUS
10
36.7378
20
-23.7653
11
36.5455
21
-24.0759
0
LINE
8
BLACK
6
CONTINUOUS
10
36.5455
20
-24.0759
11
36.3827
21
-24.4028
0
LINE
8
BLACK
6
CONTINUOUS
10
36.3827
20
-24.4028
11
36.2508
21
-24.7434
0
LINE
8
BLACK
6
CONTINUOUS
10
36.2508
20
-24.7434
11
36.1508
21
-25.0947
0
LINE
8
BLACK
6
CONTINUOUS
10
36.1508
20
-25.0947
11
36.0837
21
-25.4537
0
LINE
8
BLACK
6
CONTINUOUS
10
36.0837
20
-25.4537
11
36.05
21
-25.8174
0
LINE
8
BLACK
6
CONTINUOUS
10
36.05
20
-25.8174
11
36.05
21
-26
0
LINE
8
BLACK
6
CONTINUOUS
10
36.05
20
-26
11
36.05
21
-73
0
LINE
8
BLACK
6
CONTINUOUS
10
36.05
20
-73
11
36.05
21
-73.1826
0
LINE
8
BLACK
6
CONTINUOUS
10
36.05
20
-73.1826
11
36.0837
21
-73.5463
0
LINE
8
BLACK
6
CONTINUOUS
10
36.0837
20
-73.5463
11
36.1508
21
-73.9053
0
LINE
8
BLACK
6
CONTINUOUS
10
36.1508
20
-73.9053
11
36.2508
21
-74.2566
0
LINE
8
BLACK
6
CONTINUOUS
10
36.2508
20
-74.2566
11
36.3827
21
-74.5972
0
LINE
8
BLACK
6
CONTINUOUS
10
36.3827
20
-74.5972
11
36.5455
21
-74.9241
0
LINE
8
BLACK
6
CONTINUOUS
10
36.5455
20
-74.9241
11
36.7378
21
-75.2347
0
LINE
8
BLACK
6
CONTINUOUS
10
36.7378
20
-75.2347
11
36.9579
21
-75.5261
0
LINE
8
BLACK
6
CONTINUOUS
10
36.9579
20
-75.5261
11
37.2039
21
-75.7961
0
LINE
8
BLACK
6
CONTINUOUS
10
37.2039
20
-75.7961
11
37.4739
21
-76.0421
0
LINE
8
BLACK
6
CONTINUOUS
10
37.4739
20
-76.0421
11
37.7653
21
-76.2622
0
LINE
8
BLACK
6
CONTINUOUS
10
37.7653
20
-76.2622
11
38.0759
21
-76.4545
0
LINE
8
BLACK
6
CONTINUOUS
10
38.0759
20
-76.4545
11
38.4028
21
-76.6173
0
LINE
8
BLACK
6
CONTINUOUS
10
38.4028
20
-76.6173
11
38.7434
21
-76.7492
0
LINE
8
BLACK
6
CONTINUOUS
10
38.7434
20
-76.7492
11
39.0947
21
-76.8492
0
LINE
8
BLACK
6
CONTINUOUS
10
39.0947
20
-76.8492
11
39.4537
21
-76.9163
0
LINE
8
BLACK
6
CONTINUOUS
10
39.4537
20
-76.9163
11
39.8174
21
-76.95
0
LINE
8
BLACK
6
CONTINUOUS
10
39.8174
20
-76.95
11
40
21
-76.95
0
LINE
8
BLACK
6
CONTINUOUS
10
40
20
-76.95
11
92
21
-76.95
0
LINE
8
BLACK
6
CONTINUOUS
10
92
20
-76.95
11
92.1826
21
-76.95
0
LINE
8
BLACK
6
CONTINUOUS
10
92.1826
20
-76.95
11
92.5463
21
-76.9163
0
LINE
8
BLACK
6
CONTINUOUS
10
92.5463
20
-76.9163
11
92.9053
21
-76.8492
0
LINE
8
BLACK
6
CONTINUOUS
10
92.9053
20
-76.8492
11
93.2566
21
-76.7492
0
LINE
8
BLACK
6
CONTINUOUS
10
93.2566
20
-76.7492
11
93.5972
21
-76.6173
0
LINE
8
BLACK
6
CONTINUOUS
10
93.5972
20
-76.6173
11
93.9241
21
-76.4545
0
LINE
8
BLACK
6
CONTINUOUS
10
93.9241
20
-76.4545
11
94.2347
21
-76.2622
0
LINE
8
BLACK
6
CONTINUOUS
10
94.2347
20
-76.2622
11
94.5261
21
-76.0421
0
LINE
8
BLACK
6
CONTINUOUS
10
94.5261
20
-76.0421
11
94.7961
21
-75.7961
0
LINE
8
BLACK
6
CONTINUOUS
10
94.7961
20
-75.7961
11
95.0421
21
-75.5261
0
LINE
8
BLACK
6
CONTINUOUS
10
95.0421
20
-75.5261
11
95.2622
21
-75.2347
0
LINE
8
BLACK
6
CONTINUOUS
10
95.2622
20
-75.2347
11
95.4545
21
-74.9241
0
LINE
8
BLACK
6
CONTINUOUS
10
95.4545
20
-74.9241
11
95.6173
21
-74.5972
0
LINE
8
BLACK
6
CONTINUOUS
10
95.6173
20
-74.5972
11
95.7492
21
-74.2566
0
LINE
8
BLACK
6
CONTINUOUS
10
95.7492
20
-74.2566
11
95.8492
21
-73.9053
0
LINE
8
BLACK
6
CONTINUOUS
10
95.8492
20
-73.9053
11
95.9163
21
-73.5463
0
LINE
8
BLACK
6
CONTINUOUS
10
95.9163
20
-73.5463
11
95.95
21
-73.1826
0
LINE
8
BLACK
6
CONTINUOUS
10
95.95
20
-73.1826
11
95.95
21
-73
0
LINE
8
BLACK
6
CONTINUOUS
10
95.95
20
-73
11
95.95
21
-26
0
LINE
8
BLACK
6
CONTINUOUS
10
95.95
20
-26
11
95.95
21
-25.8174
0
LINE
8
BLACK
6
CONTINUOUS
10
95.95
20
-25.8174
11
95.9163
21
-25.4537
0
LINE
8
BLACK
6
CONTINUOUS
10
95.9163
20
-25.4537
11
95.8492
21
-25.0947
0
LINE
8
BLACK
6
CONTINUOUS
10
95.8492
20
-25.0947
11
95.7492
21
-24.7434
0
LINE
8
BLACK
6
CONTINUOUS
10
95.7492
20
-24.7434
11
95.6173
21
-24.4028
0
LINE
8
BLACK
6
CONTINUOUS
10
95.6173
20
-24.4028
11
95.4545
21
-24.0759
0
LINE
8
BLACK
6
CONTINUOUS
10
95.4545
20
-24.0759
11
95.2622
21
-23.7653
0
LINE
8
BLACK
6
CONTINUOUS
10
95.2622
20
-23.7653
11
95.0421
21
-23.4739
0
LINE
8
BLACK
6
CONTINUOUS
10
95.0421
20
-23.4739
11
94.7961
21
-23.2039
0
LINE
8
BLACK
6
CONTINUOUS
10
94.7961
20
-23.2039
11
94.5261
21
-22.9579
0
LINE
8
BLACK
6
CONTINUOUS
10
94.5261
20
-22.9579
11
94.2347
21
-22.7378
0
LINE
8
BLACK
6
CONTINUOUS
10
94.2347
20
-22.7378
11
93.9241
21
-22.5455
0
LINE
8
BLACK
6
CONTINUOUS
10
93.9241
20
-22.5455
11
93.5972
21
-22.3827
0
LINE
8
BLACK
6
CONTINUOUS
10
93.5972
20
-22.3827
11
93.2566
21
-22.2508
0
LINE
8
BLACK
6
CONTINUOUS
10
93.2566
20
-22.2508
11
92.9053
21
-22.1508
0
LINE
8
BLACK
6
CONTINUOUS
10
92.9053
20
-22.1508
11
92.5463
21
-22.0837
0
LINE
8
BLACK
6
CONTINUOUS
10
92.5463
20
-22.0837
11
92.1826
21
-22.05
0
LINE
8
BLACK
6
CONTINUOUS
10
92.1826
20
-22.05
11
92
21
-22.05
0
LINE
8
BLACK
6
CONTINUOUS
10
92
20
-22.05
11
40
21
-22.05
  0
ENDSEC
  0
EOF
